M48
; DRILL file {KiCad 9.0.1+1} date 2025-11-19T21:45:42+0000
; FORMAT={-:-/ absolute / metric / decimal}
; #@! TF.CreationDate,2025-11-19T21:45:42+00:00
; #@! TF.GenerationSoftware,Kicad,Pcbnew,9.0.1+1
; #@! TF.FileFunction,MixedPlating,1,4
FMAT,2
METRIC
; #@! TA.AperFunction,Plated,PTH,ComponentDrill
T1C0.600
; #@! TA.AperFunction,Plated,PTH,ComponentDrill
T2C0.760
; #@! TA.AperFunction,Plated,PTH,ComponentDrill
T3C0.800
; #@! TA.AperFunction,Plated,PTH,ComponentDrill
T4C1.000
; #@! TA.AperFunction,Plated,PTH,ComponentDrill
T5C1.020
; #@! TA.AperFunction,Plated,PTH,ComponentDrill
T6C1.100
; #@! TA.AperFunction,Plated,PTH,ComponentDrill
T7C1.200
; #@! TA.AperFunction,Plated,PTH,ComponentDrill
T8C1.300
; #@! TA.AperFunction,NonPlated,NPTH,ComponentDrill
T9C0.600
; #@! TA.AperFunction,NonPlated,NPTH,ComponentDrill
T10C2.700
; #@! TA.AperFunction,NonPlated,NPTH,ComponentDrill
T11C3.180
%
G90
G05
T2
X148.74Y-150.55
X148.74Y-153.09
X148.74Y-155.63
X148.74Y-158.17
X150.01Y-149.28
X150.01Y-151.82
X150.01Y-154.36
X150.01Y-156.9
X151.28Y-150.55
X151.28Y-153.09
X151.28Y-155.63
X151.28Y-158.17
X152.55Y-149.28
X152.55Y-151.82
X152.55Y-154.36
X152.55Y-156.9
T3
X79.17Y-129.165
X79.17Y-134.165
T4
X73.915Y-100.42
X73.915Y-102.96
X73.915Y-105.5
X73.915Y-108.04
X73.915Y-110.58
T5
X150.05Y-124.0
X150.05Y-126.5
X150.05Y-129.0
X150.05Y-131.5
X150.05Y-134.0
X150.05Y-136.0
X150.05Y-138.5
X150.05Y-141.0
X150.05Y-143.5
X150.05Y-146.0
X152.55Y-124.0
X152.55Y-126.5
X152.55Y-129.0
X152.55Y-131.5
X152.55Y-134.0
X152.55Y-136.0
X152.55Y-138.5
X152.55Y-141.0
X152.55Y-143.5
X152.55Y-146.0
T6
X78.33Y-119.995
X80.87Y-119.995
X97.835Y-112.7
X97.835Y-117.2
X104.335Y-112.7
X104.335Y-117.2
T7
X73.895Y-165.19
X73.895Y-169.74
X79.995Y-147.94
X79.995Y-152.49
T8
X75.145Y-91.84
X80.145Y-91.84
X85.145Y-91.84
T9
X99.4Y-126.53
X105.18Y-126.53
T10
X26.91Y-90.875
X26.91Y-138.875
X59.91Y-90.875
X59.91Y-138.875
T11
X151.28Y-121.54
X151.28Y-162.01
T1
G00X97.965Y-125.5
M15
G01X97.965Y-126.6
M16
G05
G00X97.965Y-129.83
M15
G01X97.965Y-130.63
M16
G05
G00X106.615Y-125.5
M15
G01X106.615Y-126.6
M16
G05
G00X106.615Y-129.83
M15
G01X106.615Y-130.63
M16
G05
M30
