%TF.GenerationSoftware,KiCad,Pcbnew,9.0.1+1*%
%TF.CreationDate,2025-11-18T16:32:42+00:00*%
%TF.ProjectId,nautilus_mainboard,6e617574-696c-4757-935f-6d61696e626f,rev?*%
%TF.SameCoordinates,Original*%
%TF.FileFunction,Soldermask,Top*%
%TF.FilePolarity,Negative*%
%FSLAX46Y46*%
G04 Gerber Fmt 4.6, Leading zero omitted, Abs format (unit mm)*
G04 Created by KiCad (PCBNEW 9.0.1+1) date 2025-11-18 16:32:42*
%MOMM*%
%LPD*%
G01*
G04 APERTURE LIST*
G04 Aperture macros list*
%AMRoundRect*
0 Rectangle with rounded corners*
0 $1 Rounding radius*
0 $2 $3 $4 $5 $6 $7 $8 $9 X,Y pos of 4 corners*
0 Add a 4 corners polygon primitive as box body*
4,1,4,$2,$3,$4,$5,$6,$7,$8,$9,$2,$3,0*
0 Add four circle primitives for the rounded corners*
1,1,$1+$1,$2,$3*
1,1,$1+$1,$4,$5*
1,1,$1+$1,$6,$7*
1,1,$1+$1,$8,$9*
0 Add four rect primitives between the rounded corners*
20,1,$1+$1,$2,$3,$4,$5,0*
20,1,$1+$1,$4,$5,$6,$7,0*
20,1,$1+$1,$6,$7,$8,$9,0*
20,1,$1+$1,$8,$9,$2,$3,0*%
%AMRotRect*
0 Rectangle, with rotation*
0 The origin of the aperture is its center*
0 $1 length*
0 $2 width*
0 $3 Rotation angle, in degrees counterclockwise*
0 Add horizontal line*
21,1,$1,$2,0,0,$3*%
G04 Aperture macros list end*
%ADD10C,0.010000*%
%ADD11RoundRect,0.200000X0.053033X-0.335876X0.335876X-0.053033X-0.053033X0.335876X-0.335876X0.053033X0*%
%ADD12RoundRect,0.225000X-0.250000X0.225000X-0.250000X-0.225000X0.250000X-0.225000X0.250000X0.225000X0*%
%ADD13RoundRect,0.075000X0.441942X0.548008X-0.548008X-0.441942X-0.441942X-0.548008X0.548008X0.441942X0*%
%ADD14RoundRect,0.075000X-0.441942X0.548008X-0.548008X0.441942X0.441942X-0.548008X0.548008X-0.441942X0*%
%ADD15RoundRect,0.225000X0.225000X0.250000X-0.225000X0.250000X-0.225000X-0.250000X0.225000X-0.250000X0*%
%ADD16RoundRect,0.100500X0.301500X-0.616500X0.301500X0.616500X-0.301500X0.616500X-0.301500X-0.616500X0*%
%ADD17RoundRect,0.225000X0.250000X-0.225000X0.250000X0.225000X-0.250000X0.225000X-0.250000X-0.225000X0*%
%ADD18RoundRect,0.250000X1.100000X-0.325000X1.100000X0.325000X-1.100000X0.325000X-1.100000X-0.325000X0*%
%ADD19RoundRect,0.200000X-0.275000X0.200000X-0.275000X-0.200000X0.275000X-0.200000X0.275000X0.200000X0*%
%ADD20RoundRect,0.200000X0.275000X-0.200000X0.275000X0.200000X-0.275000X0.200000X-0.275000X-0.200000X0*%
%ADD21RoundRect,0.225000X-0.335876X-0.017678X-0.017678X-0.335876X0.335876X0.017678X0.017678X0.335876X0*%
%ADD22RoundRect,0.225000X-0.017678X0.335876X-0.335876X0.017678X0.017678X-0.335876X0.335876X-0.017678X0*%
%ADD23R,0.740000X2.790000*%
%ADD24RoundRect,0.250000X1.050000X-1.050000X1.050000X1.050000X-1.050000X1.050000X-1.050000X-1.050000X0*%
%ADD25C,2.600000*%
%ADD26RoundRect,0.147500X-0.147500X-0.172500X0.147500X-0.172500X0.147500X0.172500X-0.147500X0.172500X0*%
%ADD27RoundRect,0.250000X0.325000X1.100000X-0.325000X1.100000X-0.325000X-1.100000X0.325000X-1.100000X0*%
%ADD28RoundRect,0.200000X-0.200000X-0.275000X0.200000X-0.275000X0.200000X0.275000X-0.200000X0.275000X0*%
%ADD29RotRect,1.300000X2.200000X315.000000*%
%ADD30C,1.854000*%
%ADD31RoundRect,0.250000X0.250000X0.475000X-0.250000X0.475000X-0.250000X-0.475000X0.250000X-0.475000X0*%
%ADD32RoundRect,0.140000X-0.170000X0.140000X-0.170000X-0.140000X0.170000X-0.140000X0.170000X0.140000X0*%
%ADD33R,0.850000X0.350000*%
%ADD34R,1.700000X2.450000*%
%ADD35R,0.400000X1.050000*%
%ADD36R,0.600000X0.200000*%
%ADD37RoundRect,0.250000X-0.325000X-1.100000X0.325000X-1.100000X0.325000X1.100000X-0.325000X1.100000X0*%
%ADD38RoundRect,0.225000X0.335876X0.017678X0.017678X0.335876X-0.335876X-0.017678X-0.017678X-0.335876X0*%
%ADD39RoundRect,0.200000X0.200000X0.275000X-0.200000X0.275000X-0.200000X-0.275000X0.200000X-0.275000X0*%
%ADD40RoundRect,0.140000X-0.219203X-0.021213X-0.021213X-0.219203X0.219203X0.021213X0.021213X0.219203X0*%
%ADD41RoundRect,0.200000X-0.053033X0.335876X-0.335876X0.053033X0.053033X-0.335876X0.335876X-0.053033X0*%
%ADD42RoundRect,0.225000X-0.225000X-0.250000X0.225000X-0.250000X0.225000X0.250000X-0.225000X0.250000X0*%
%ADD43RoundRect,0.070000X-0.175000X-0.295000X0.175000X-0.295000X0.175000X0.295000X-0.175000X0.295000X0*%
%ADD44RoundRect,0.102000X-0.295000X-0.175000X0.295000X-0.175000X0.295000X0.175000X-0.295000X0.175000X0*%
%ADD45C,2.500000*%
%ADD46C,1.000000*%
%ADD47RoundRect,0.147500X0.147500X0.172500X-0.147500X0.172500X-0.147500X-0.172500X0.147500X-0.172500X0*%
%ADD48C,6.100000*%
%ADD49R,0.200000X0.700000*%
%ADD50RoundRect,0.250000X-1.100000X0.325000X-1.100000X-0.325000X1.100000X-0.325000X1.100000X0.325000X0*%
%ADD51R,0.910000X1.220000*%
%ADD52RoundRect,0.140000X-0.021213X0.219203X-0.219203X0.021213X0.021213X-0.219203X0.219203X-0.021213X0*%
%ADD53C,0.600000*%
%ADD54O,1.904000X1.104000*%
%ADD55O,2.204000X1.104000*%
%ADD56R,0.400000X1.000000*%
%ADD57C,3.180000*%
%ADD58RoundRect,0.102000X-0.634000X0.634000X-0.634000X-0.634000X0.634000X-0.634000X0.634000X0.634000X0*%
%ADD59C,1.472000*%
%ADD60C,1.734000*%
%ADD61R,1.050000X0.400000*%
%ADD62R,0.200000X0.600000*%
%ADD63RoundRect,0.250000X-0.250000X-0.475000X0.250000X-0.475000X0.250000X0.475000X-0.250000X0.475000X0*%
%ADD64RoundRect,0.225000X0.017678X-0.335876X0.335876X-0.017678X-0.017678X0.335876X-0.335876X0.017678X0*%
%ADD65C,2.000000*%
%ADD66C,1.500000*%
%ADD67R,1.700000X1.700000*%
%ADD68C,1.700000*%
%ADD69RoundRect,0.250000X-0.475000X0.250000X-0.475000X-0.250000X0.475000X-0.250000X0.475000X0.250000X0*%
%ADD70RoundRect,0.140000X0.170000X-0.140000X0.170000X0.140000X-0.170000X0.140000X-0.170000X-0.140000X0*%
%ADD71RoundRect,0.100500X-0.649124X0.222739X0.222739X-0.649124X0.649124X-0.222739X-0.222739X0.649124X0*%
%ADD72C,1.100000*%
%ADD73C,1.600000*%
%ADD74C,5.300000*%
G04 APERTURE END LIST*
D10*
%TO.C,TPD4EUSB30DQAR1*%
X119000000Y-197717500D02*
X118660000Y-197717500D01*
X118660000Y-197012500D01*
X119000000Y-197012500D01*
X119000000Y-197717500D01*
G36*
X119000000Y-197717500D02*
G01*
X118660000Y-197717500D01*
X118660000Y-197012500D01*
X119000000Y-197012500D01*
X119000000Y-197717500D01*
G37*
X119000000Y-198552500D02*
X118660000Y-198552500D01*
X118660000Y-197847500D01*
X119000000Y-197847500D01*
X119000000Y-198552500D01*
G36*
X119000000Y-198552500D02*
G01*
X118660000Y-198552500D01*
X118660000Y-197847500D01*
X119000000Y-197847500D01*
X119000000Y-198552500D01*
G37*
X119500000Y-197717500D02*
X119160000Y-197717500D01*
X119160000Y-197012500D01*
X119500000Y-197012500D01*
X119500000Y-197717500D01*
G36*
X119500000Y-197717500D02*
G01*
X119160000Y-197717500D01*
X119160000Y-197012500D01*
X119500000Y-197012500D01*
X119500000Y-197717500D01*
G37*
X119500000Y-198552500D02*
X119160000Y-198552500D01*
X119160000Y-197847500D01*
X119500000Y-197847500D01*
X119500000Y-198552500D01*
G36*
X119500000Y-198552500D02*
G01*
X119160000Y-198552500D01*
X119160000Y-197847500D01*
X119500000Y-197847500D01*
X119500000Y-198552500D01*
G37*
X120100000Y-197717500D02*
X119560000Y-197717500D01*
X119560000Y-197012500D01*
X120100000Y-197012500D01*
X120100000Y-197717500D01*
G36*
X120100000Y-197717500D02*
G01*
X119560000Y-197717500D01*
X119560000Y-197012500D01*
X120100000Y-197012500D01*
X120100000Y-197717500D01*
G37*
X120100000Y-198552500D02*
X119560000Y-198552500D01*
X119560000Y-197847500D01*
X120100000Y-197847500D01*
X120100000Y-198552500D01*
G36*
X120100000Y-198552500D02*
G01*
X119560000Y-198552500D01*
X119560000Y-197847500D01*
X120100000Y-197847500D01*
X120100000Y-198552500D01*
G37*
X120500000Y-197717500D02*
X120160000Y-197717500D01*
X120160000Y-197012500D01*
X120500000Y-197012500D01*
X120500000Y-197717500D01*
G36*
X120500000Y-197717500D02*
G01*
X120160000Y-197717500D01*
X120160000Y-197012500D01*
X120500000Y-197012500D01*
X120500000Y-197717500D01*
G37*
X120500000Y-198552500D02*
X120160000Y-198552500D01*
X120160000Y-197847500D01*
X120500000Y-197847500D01*
X120500000Y-198552500D01*
G36*
X120500000Y-198552500D02*
G01*
X120160000Y-198552500D01*
X120160000Y-197847500D01*
X120500000Y-197847500D01*
X120500000Y-198552500D01*
G37*
X121000000Y-197717500D02*
X120660000Y-197717500D01*
X120660000Y-197012500D01*
X121000000Y-197012500D01*
X121000000Y-197717500D01*
G36*
X121000000Y-197717500D02*
G01*
X120660000Y-197717500D01*
X120660000Y-197012500D01*
X121000000Y-197012500D01*
X121000000Y-197717500D01*
G37*
X121000000Y-198552500D02*
X120660000Y-198552500D01*
X120660000Y-197847500D01*
X121000000Y-197847500D01*
X121000000Y-198552500D01*
G36*
X121000000Y-198552500D02*
G01*
X120660000Y-198552500D01*
X120660000Y-197847500D01*
X121000000Y-197847500D01*
X121000000Y-198552500D01*
G37*
%TO.C,J18*%
X189765000Y-159251750D02*
X188525000Y-159251750D01*
X188525000Y-158551750D01*
X189765000Y-158551750D01*
X189765000Y-159251750D01*
G36*
X189765000Y-159251750D02*
G01*
X188525000Y-159251750D01*
X188525000Y-158551750D01*
X189765000Y-158551750D01*
X189765000Y-159251750D01*
G37*
X189765000Y-160051750D02*
X188525000Y-160051750D01*
X188525000Y-159351750D01*
X189765000Y-159351750D01*
X189765000Y-160051750D01*
G36*
X189765000Y-160051750D02*
G01*
X188525000Y-160051750D01*
X188525000Y-159351750D01*
X189765000Y-159351750D01*
X189765000Y-160051750D01*
G37*
X189765000Y-160551750D02*
X188525000Y-160551750D01*
X188525000Y-160151750D01*
X189765000Y-160151750D01*
X189765000Y-160551750D01*
G36*
X189765000Y-160551750D02*
G01*
X188525000Y-160551750D01*
X188525000Y-160151750D01*
X189765000Y-160151750D01*
X189765000Y-160551750D01*
G37*
X189765000Y-161051750D02*
X188525000Y-161051750D01*
X188525000Y-160651750D01*
X189765000Y-160651750D01*
X189765000Y-161051750D01*
G36*
X189765000Y-161051750D02*
G01*
X188525000Y-161051750D01*
X188525000Y-160651750D01*
X189765000Y-160651750D01*
X189765000Y-161051750D01*
G37*
X189765000Y-161551750D02*
X188525000Y-161551750D01*
X188525000Y-161151750D01*
X189765000Y-161151750D01*
X189765000Y-161551750D01*
G36*
X189765000Y-161551750D02*
G01*
X188525000Y-161551750D01*
X188525000Y-161151750D01*
X189765000Y-161151750D01*
X189765000Y-161551750D01*
G37*
X189765000Y-162051750D02*
X188525000Y-162051750D01*
X188525000Y-161651750D01*
X189765000Y-161651750D01*
X189765000Y-162051750D01*
G36*
X189765000Y-162051750D02*
G01*
X188525000Y-162051750D01*
X188525000Y-161651750D01*
X189765000Y-161651750D01*
X189765000Y-162051750D01*
G37*
X189765000Y-162551750D02*
X188525000Y-162551750D01*
X188525000Y-162151750D01*
X189765000Y-162151750D01*
X189765000Y-162551750D01*
G36*
X189765000Y-162551750D02*
G01*
X188525000Y-162551750D01*
X188525000Y-162151750D01*
X189765000Y-162151750D01*
X189765000Y-162551750D01*
G37*
X189765000Y-163051750D02*
X188525000Y-163051750D01*
X188525000Y-162651750D01*
X189765000Y-162651750D01*
X189765000Y-163051750D01*
G36*
X189765000Y-163051750D02*
G01*
X188525000Y-163051750D01*
X188525000Y-162651750D01*
X189765000Y-162651750D01*
X189765000Y-163051750D01*
G37*
X189765000Y-163551750D02*
X188525000Y-163551750D01*
X188525000Y-163151750D01*
X189765000Y-163151750D01*
X189765000Y-163551750D01*
G36*
X189765000Y-163551750D02*
G01*
X188525000Y-163551750D01*
X188525000Y-163151750D01*
X189765000Y-163151750D01*
X189765000Y-163551750D01*
G37*
X189765000Y-164051750D02*
X188525000Y-164051750D01*
X188525000Y-163651750D01*
X189765000Y-163651750D01*
X189765000Y-164051750D01*
G36*
X189765000Y-164051750D02*
G01*
X188525000Y-164051750D01*
X188525000Y-163651750D01*
X189765000Y-163651750D01*
X189765000Y-164051750D01*
G37*
X189765000Y-164851750D02*
X188525000Y-164851750D01*
X188525000Y-164151750D01*
X189765000Y-164151750D01*
X189765000Y-164851750D01*
G36*
X189765000Y-164851750D02*
G01*
X188525000Y-164851750D01*
X188525000Y-164151750D01*
X189765000Y-164151750D01*
X189765000Y-164851750D01*
G37*
X189765000Y-165651750D02*
X188525000Y-165651750D01*
X188525000Y-164951750D01*
X189765000Y-164951750D01*
X189765000Y-165651750D01*
G36*
X189765000Y-165651750D02*
G01*
X188525000Y-165651750D01*
X188525000Y-164951750D01*
X189765000Y-164951750D01*
X189765000Y-165651750D01*
G37*
%TO.C,TPD4EUSB30DQAR3*%
X179475000Y-160780001D02*
X178770000Y-160780001D01*
X178770000Y-160440001D01*
X179475000Y-160440001D01*
X179475000Y-160780001D01*
G36*
X179475000Y-160780001D02*
G01*
X178770000Y-160780001D01*
X178770000Y-160440001D01*
X179475000Y-160440001D01*
X179475000Y-160780001D01*
G37*
X179475000Y-161280001D02*
X178770000Y-161280001D01*
X178770000Y-160940001D01*
X179475000Y-160940001D01*
X179475000Y-161280001D01*
G36*
X179475000Y-161280001D02*
G01*
X178770000Y-161280001D01*
X178770000Y-160940001D01*
X179475000Y-160940001D01*
X179475000Y-161280001D01*
G37*
X179475000Y-161880001D02*
X178770000Y-161880001D01*
X178770000Y-161340001D01*
X179475000Y-161340001D01*
X179475000Y-161880001D01*
G36*
X179475000Y-161880001D02*
G01*
X178770000Y-161880001D01*
X178770000Y-161340001D01*
X179475000Y-161340001D01*
X179475000Y-161880001D01*
G37*
X179475000Y-162280001D02*
X178770000Y-162280001D01*
X178770000Y-161940001D01*
X179475000Y-161940001D01*
X179475000Y-162280001D01*
G36*
X179475000Y-162280001D02*
G01*
X178770000Y-162280001D01*
X178770000Y-161940001D01*
X179475000Y-161940001D01*
X179475000Y-162280001D01*
G37*
X179475000Y-162780001D02*
X178770000Y-162780001D01*
X178770000Y-162440001D01*
X179475000Y-162440001D01*
X179475000Y-162780001D01*
G36*
X179475000Y-162780001D02*
G01*
X178770000Y-162780001D01*
X178770000Y-162440001D01*
X179475000Y-162440001D01*
X179475000Y-162780001D01*
G37*
X180310000Y-160780001D02*
X179605000Y-160780001D01*
X179605000Y-160440001D01*
X180310000Y-160440001D01*
X180310000Y-160780001D01*
G36*
X180310000Y-160780001D02*
G01*
X179605000Y-160780001D01*
X179605000Y-160440001D01*
X180310000Y-160440001D01*
X180310000Y-160780001D01*
G37*
X180310000Y-161280001D02*
X179605000Y-161280001D01*
X179605000Y-160940001D01*
X180310000Y-160940001D01*
X180310000Y-161280001D01*
G36*
X180310000Y-161280001D02*
G01*
X179605000Y-161280001D01*
X179605000Y-160940001D01*
X180310000Y-160940001D01*
X180310000Y-161280001D01*
G37*
X180310000Y-161880001D02*
X179605000Y-161880001D01*
X179605000Y-161340001D01*
X180310000Y-161340001D01*
X180310000Y-161880001D01*
G36*
X180310000Y-161880001D02*
G01*
X179605000Y-161880001D01*
X179605000Y-161340001D01*
X180310000Y-161340001D01*
X180310000Y-161880001D01*
G37*
X180310000Y-162280001D02*
X179605000Y-162280001D01*
X179605000Y-161940001D01*
X180310000Y-161940001D01*
X180310000Y-162280001D01*
G36*
X180310000Y-162280001D02*
G01*
X179605000Y-162280001D01*
X179605000Y-161940001D01*
X180310000Y-161940001D01*
X180310000Y-162280001D01*
G37*
X180310000Y-162780001D02*
X179605000Y-162780001D01*
X179605000Y-162440001D01*
X180310000Y-162440001D01*
X180310000Y-162780001D01*
G36*
X180310000Y-162780001D02*
G01*
X179605000Y-162780001D01*
X179605000Y-162440001D01*
X180310000Y-162440001D01*
X180310000Y-162780001D01*
G37*
%TO.C,TPD4EUSB30DQAR2*%
X115170000Y-197717500D02*
X114830000Y-197717500D01*
X114830000Y-197012500D01*
X115170000Y-197012500D01*
X115170000Y-197717500D01*
G36*
X115170000Y-197717500D02*
G01*
X114830000Y-197717500D01*
X114830000Y-197012500D01*
X115170000Y-197012500D01*
X115170000Y-197717500D01*
G37*
X115170000Y-198552500D02*
X114830000Y-198552500D01*
X114830000Y-197847500D01*
X115170000Y-197847500D01*
X115170000Y-198552500D01*
G36*
X115170000Y-198552500D02*
G01*
X114830000Y-198552500D01*
X114830000Y-197847500D01*
X115170000Y-197847500D01*
X115170000Y-198552500D01*
G37*
X115670000Y-197717500D02*
X115330000Y-197717500D01*
X115330000Y-197012500D01*
X115670000Y-197012500D01*
X115670000Y-197717500D01*
G36*
X115670000Y-197717500D02*
G01*
X115330000Y-197717500D01*
X115330000Y-197012500D01*
X115670000Y-197012500D01*
X115670000Y-197717500D01*
G37*
X115670000Y-198552500D02*
X115330000Y-198552500D01*
X115330000Y-197847500D01*
X115670000Y-197847500D01*
X115670000Y-198552500D01*
G36*
X115670000Y-198552500D02*
G01*
X115330000Y-198552500D01*
X115330000Y-197847500D01*
X115670000Y-197847500D01*
X115670000Y-198552500D01*
G37*
X116270000Y-197717500D02*
X115730000Y-197717500D01*
X115730000Y-197012500D01*
X116270000Y-197012500D01*
X116270000Y-197717500D01*
G36*
X116270000Y-197717500D02*
G01*
X115730000Y-197717500D01*
X115730000Y-197012500D01*
X116270000Y-197012500D01*
X116270000Y-197717500D01*
G37*
X116270000Y-198552500D02*
X115730000Y-198552500D01*
X115730000Y-197847500D01*
X116270000Y-197847500D01*
X116270000Y-198552500D01*
G36*
X116270000Y-198552500D02*
G01*
X115730000Y-198552500D01*
X115730000Y-197847500D01*
X116270000Y-197847500D01*
X116270000Y-198552500D01*
G37*
X116670000Y-197717500D02*
X116330000Y-197717500D01*
X116330000Y-197012500D01*
X116670000Y-197012500D01*
X116670000Y-197717500D01*
G36*
X116670000Y-197717500D02*
G01*
X116330000Y-197717500D01*
X116330000Y-197012500D01*
X116670000Y-197012500D01*
X116670000Y-197717500D01*
G37*
X116670000Y-198552500D02*
X116330000Y-198552500D01*
X116330000Y-197847500D01*
X116670000Y-197847500D01*
X116670000Y-198552500D01*
G36*
X116670000Y-198552500D02*
G01*
X116330000Y-198552500D01*
X116330000Y-197847500D01*
X116670000Y-197847500D01*
X116670000Y-198552500D01*
G37*
X117170000Y-197717500D02*
X116830000Y-197717500D01*
X116830000Y-197012500D01*
X117170000Y-197012500D01*
X117170000Y-197717500D01*
G36*
X117170000Y-197717500D02*
G01*
X116830000Y-197717500D01*
X116830000Y-197012500D01*
X117170000Y-197012500D01*
X117170000Y-197717500D01*
G37*
X117170000Y-198552500D02*
X116830000Y-198552500D01*
X116830000Y-197847500D01*
X117170000Y-197847500D01*
X117170000Y-198552500D01*
G36*
X117170000Y-198552500D02*
G01*
X116830000Y-198552500D01*
X116830000Y-197847500D01*
X117170000Y-197847500D01*
X117170000Y-198552500D01*
G37*
%TD*%
D11*
%TO.C,Bat_3.3V_direct1*%
X157486637Y-206873363D03*
X158653363Y-205706637D03*
%TD*%
D12*
%TO.C,C7*%
X140130000Y-196740000D03*
X140130000Y-198290000D03*
%TD*%
D13*
%TO.C,IC1*%
X121849481Y-211043819D03*
X121495928Y-210690266D03*
X121142375Y-210336713D03*
X120788821Y-209983159D03*
X120435268Y-209629606D03*
X120081714Y-209276052D03*
X119728161Y-208922499D03*
X119374608Y-208568946D03*
X119021054Y-208215392D03*
X118667501Y-207861839D03*
X118313948Y-207508286D03*
X117960394Y-207154732D03*
X117606841Y-206801179D03*
X117253287Y-206447625D03*
X116899734Y-206094072D03*
X116546181Y-205740519D03*
D14*
X113823819Y-205740519D03*
X113470266Y-206094072D03*
X113116713Y-206447625D03*
X112763159Y-206801179D03*
X112409606Y-207154732D03*
X112056052Y-207508286D03*
X111702499Y-207861839D03*
X111348946Y-208215392D03*
X110995392Y-208568946D03*
X110641839Y-208922499D03*
X110288286Y-209276052D03*
X109934732Y-209629606D03*
X109581179Y-209983159D03*
X109227625Y-210336713D03*
X108874072Y-210690266D03*
X108520519Y-211043819D03*
D13*
X108520519Y-213766181D03*
X108874072Y-214119734D03*
X109227625Y-214473287D03*
X109581179Y-214826841D03*
X109934732Y-215180394D03*
X110288286Y-215533948D03*
X110641839Y-215887501D03*
X110995392Y-216241054D03*
X111348946Y-216594608D03*
X111702499Y-216948161D03*
X112056052Y-217301714D03*
X112409606Y-217655268D03*
X112763159Y-218008821D03*
X113116713Y-218362375D03*
X113470266Y-218715928D03*
X113823819Y-219069481D03*
D14*
X116546181Y-219069481D03*
X116899734Y-218715928D03*
X117253287Y-218362375D03*
X117606841Y-218008821D03*
X117960394Y-217655268D03*
X118313948Y-217301714D03*
X118667501Y-216948161D03*
X119021054Y-216594608D03*
X119374608Y-216241054D03*
X119728161Y-215887501D03*
X120081714Y-215533948D03*
X120435268Y-215180394D03*
X120788821Y-214826841D03*
X121142375Y-214473287D03*
X121495928Y-214119734D03*
X121849481Y-213766181D03*
%TD*%
D15*
%TO.C,C23*%
X79515000Y-167273419D03*
X77965000Y-167273419D03*
%TD*%
D16*
%TO.C,Q1*%
X181710000Y-182210000D03*
X183610000Y-182210000D03*
X182660000Y-180090000D03*
%TD*%
D17*
%TO.C,C31*%
X190200000Y-199850000D03*
X190200000Y-198300000D03*
%TD*%
D18*
%TO.C,C29*%
X192625000Y-199725002D03*
X192625000Y-196775000D03*
%TD*%
D19*
%TO.C,BMI1_SDA1*%
X167080000Y-167515000D03*
X167080000Y-169165000D03*
%TD*%
D20*
%TO.C,BMI1_SCL1*%
X164850000Y-169165000D03*
X164850000Y-167515000D03*
%TD*%
D17*
%TO.C,C12*%
X106750000Y-210625000D03*
X106750000Y-209075000D03*
%TD*%
D15*
%TO.C,C24*%
X79615000Y-159973419D03*
X78065000Y-159973419D03*
%TD*%
D21*
%TO.C,C14*%
X122881992Y-211641992D03*
X123978008Y-212738008D03*
%TD*%
D22*
%TO.C,C11*%
X114718008Y-220781992D03*
X113621992Y-221878008D03*
%TD*%
D23*
%TO.C,J1*%
X134115000Y-220085000D03*
X134115000Y-216015000D03*
X135385000Y-220085000D03*
X135385000Y-216015000D03*
X136655000Y-220085000D03*
X136655000Y-216015000D03*
X137925000Y-220085000D03*
X137925000Y-216015000D03*
X139195000Y-220085000D03*
X139195000Y-216015000D03*
X140465000Y-220085000D03*
X140465000Y-216015000D03*
X141735000Y-220085000D03*
X141735000Y-216015000D03*
%TD*%
D24*
%TO.C,J5*%
X189100000Y-183060000D03*
D25*
X189100000Y-178060000D03*
X189100000Y-173060000D03*
%TD*%
D15*
%TO.C,C40*%
X167440000Y-217660000D03*
X165890000Y-217660000D03*
%TD*%
D26*
%TO.C,D2*%
X190715000Y-213610000D03*
X191685000Y-213610000D03*
%TD*%
D20*
%TO.C,R8*%
X189420000Y-219140000D03*
X189420000Y-217490000D03*
%TD*%
D27*
%TO.C,C22*%
X79515000Y-157573419D03*
X76564998Y-157573419D03*
%TD*%
D20*
%TO.C,BMI2*%
X169390000Y-183150000D03*
X169390000Y-181500000D03*
%TD*%
D12*
%TO.C,C2*%
X132530000Y-196735000D03*
X132530000Y-198285000D03*
%TD*%
D20*
%TO.C,R28*%
X173550000Y-216120002D03*
X173550000Y-214470002D03*
%TD*%
D28*
%TO.C,R2*%
X108995000Y-153740000D03*
X110645000Y-153740000D03*
%TD*%
D29*
%TO.C,Y1*%
X121780076Y-206440076D03*
X124749924Y-209409924D03*
%TD*%
D30*
%TO.C,J2*%
X192960000Y-188229999D03*
X192960000Y-190770001D03*
%TD*%
D18*
%TO.C,C28*%
X180124999Y-199775001D03*
X180124999Y-196824999D03*
%TD*%
D31*
%TO.C,C41*%
X167389999Y-219460001D03*
X165490001Y-219460001D03*
%TD*%
D32*
%TO.C,C15*%
X112360000Y-220130000D03*
X112360000Y-221090000D03*
%TD*%
D19*
%TO.C,R3*%
X178900000Y-180560000D03*
X178900000Y-182210000D03*
%TD*%
D17*
%TO.C,C30*%
X182550000Y-199900000D03*
X182550000Y-198350000D03*
%TD*%
D33*
%TO.C,IC2*%
X94450000Y-221850000D03*
X94450000Y-221200000D03*
X94450000Y-220550000D03*
X94450000Y-219900000D03*
X91550000Y-219900000D03*
X91550000Y-220550000D03*
X91550000Y-221200000D03*
X91550000Y-221850000D03*
D34*
X93000000Y-220875000D03*
%TD*%
D35*
%TO.C,IC3*%
X80714999Y-162923419D03*
X80015001Y-162923419D03*
D36*
X79215000Y-162848419D03*
X79215000Y-163348419D03*
X79215000Y-163848419D03*
X79215000Y-164348419D03*
D35*
X80015001Y-164273419D03*
X80714999Y-164273419D03*
D36*
X81515000Y-164348419D03*
X81515000Y-163848419D03*
X81515000Y-163348419D03*
X81515000Y-162848419D03*
%TD*%
D37*
%TO.C,C35*%
X169065000Y-207635000D03*
X172015002Y-207635000D03*
%TD*%
D38*
%TO.C,C17*%
X115930000Y-204620000D03*
X114833984Y-203523984D03*
%TD*%
D19*
%TO.C,R27*%
X162540000Y-213985001D03*
X162540000Y-215635001D03*
%TD*%
D39*
%TO.C,R12*%
X185625000Y-160386750D03*
X183975000Y-160386750D03*
%TD*%
D40*
%TO.C,C9*%
X125060589Y-205830589D03*
X125739411Y-206509411D03*
%TD*%
D41*
%TO.C,Vref_3.3V_CM41*%
X155033363Y-202336637D03*
X153866637Y-203503363D03*
%TD*%
D42*
%TO.C,C38*%
X168940000Y-217660002D03*
X170490000Y-217660002D03*
%TD*%
D19*
%TO.C,USB_5V_direct1*%
X90860000Y-158875000D03*
X90860000Y-160525000D03*
%TD*%
D43*
%TO.C,U1*%
X158965000Y-171000000D03*
X159465000Y-171000000D03*
X159965000Y-171000000D03*
X160465000Y-171000000D03*
X160965000Y-171000000D03*
X161465000Y-171000000D03*
X161965000Y-171000000D03*
D44*
X162380000Y-172165000D03*
D43*
X161965000Y-173330000D03*
X161465000Y-173330000D03*
X160965000Y-173330000D03*
X160465000Y-173330000D03*
X159965000Y-173330000D03*
X159465000Y-173330000D03*
X158965000Y-173330000D03*
D44*
X158550000Y-172165000D03*
%TD*%
D39*
%TO.C,R9*%
X190630000Y-156051750D03*
X188980000Y-156051750D03*
%TD*%
D12*
%TO.C,C3*%
X134050000Y-196735000D03*
X134050000Y-198285000D03*
%TD*%
D28*
%TO.C,R1*%
X105145000Y-153740000D03*
X106795000Y-153740000D03*
%TD*%
D15*
%TO.C,C46*%
X161505000Y-190455000D03*
X159955000Y-190455000D03*
%TD*%
D20*
%TO.C,R20*%
X76465000Y-162823419D03*
X76465000Y-161173419D03*
%TD*%
D45*
%TO.C,TP7*%
X101100000Y-217000000D03*
%TD*%
%TO.C,TP6*%
X95900000Y-216900000D03*
%TD*%
%TO.C,TP3*%
X170725000Y-173700000D03*
%TD*%
D19*
%TO.C,R6*%
X187880000Y-211360000D03*
X187880000Y-213010000D03*
%TD*%
%TO.C,R5*%
X187880000Y-214400000D03*
X187880000Y-216050000D03*
%TD*%
D12*
%TO.C,C1*%
X131010000Y-196735000D03*
X131010000Y-198285000D03*
%TD*%
D39*
%TO.C,R21*%
X185650000Y-196850000D03*
X184000000Y-196850000D03*
%TD*%
D45*
%TO.C,TP2*%
X170650000Y-178050000D03*
%TD*%
D15*
%TO.C,C45*%
X161505000Y-181445000D03*
X159955000Y-181445000D03*
%TD*%
D28*
%TO.C,R31*%
X156860000Y-167510000D03*
X158510000Y-167510000D03*
%TD*%
D46*
%TO.C,TP4*%
X125475000Y-197500000D03*
%TD*%
D12*
%TO.C,C6*%
X138610000Y-196735000D03*
X138610000Y-198285000D03*
%TD*%
D47*
%TO.C,D3*%
X191685000Y-219140000D03*
X190715000Y-219140000D03*
%TD*%
D48*
%TO.C,Module1*%
X101930001Y-192340000D03*
X149930000Y-192340000D03*
X101930000Y-159340000D03*
X149930000Y-159340000D03*
D49*
X118630000Y-194340000D03*
X118630000Y-191260000D03*
X119030000Y-194340000D03*
X119030000Y-191260000D03*
X119430000Y-194340000D03*
X119430000Y-191260000D03*
X119829999Y-194340000D03*
X119830000Y-191260000D03*
X120230000Y-194340000D03*
X120230000Y-191260000D03*
X120630000Y-194340000D03*
X120630000Y-191260000D03*
X121030000Y-194340001D03*
X121030000Y-191260000D03*
X121430000Y-194340000D03*
X121430000Y-191260000D03*
X121830000Y-194340000D03*
X121830000Y-191260000D03*
X122230000Y-194340000D03*
X122230000Y-191260000D03*
X122629999Y-194340000D03*
X122630000Y-191260000D03*
X123030000Y-194340000D03*
X123030000Y-191260000D03*
X123430000Y-194340000D03*
X123430000Y-191260000D03*
X123830000Y-194340001D03*
X123830000Y-191260000D03*
X124230000Y-194340000D03*
X124230000Y-191260000D03*
X124630000Y-194340000D03*
X124630000Y-191260000D03*
X125030000Y-194340000D03*
X125030000Y-191260000D03*
X125429999Y-194340000D03*
X125430000Y-191260000D03*
X125830000Y-194340000D03*
X125830000Y-191260000D03*
X126230000Y-194340000D03*
X126230000Y-191260000D03*
X126630000Y-194340001D03*
X126630000Y-191260000D03*
X127030000Y-194340000D03*
X127030000Y-191260000D03*
X127430000Y-194340000D03*
X127430000Y-191260000D03*
X127830001Y-194340000D03*
X127830000Y-191260000D03*
X128230000Y-194340000D03*
X128230000Y-191260000D03*
X128630000Y-194340000D03*
X128630000Y-191260000D03*
X129030000Y-194340000D03*
X129030000Y-191260000D03*
X129430000Y-194340001D03*
X129430000Y-191260000D03*
X129830000Y-194340000D03*
X129830000Y-191260000D03*
X130230000Y-194340000D03*
X130230000Y-191260000D03*
X130630001Y-194340000D03*
X130630000Y-191260000D03*
X131030000Y-194340000D03*
X131030000Y-191260000D03*
X131430000Y-194340000D03*
X131430000Y-191260000D03*
X131830000Y-194340000D03*
X131830000Y-191260000D03*
X132230000Y-194340001D03*
X132230000Y-191260000D03*
X132630000Y-194340000D03*
X132630000Y-191260000D03*
X133030000Y-194340000D03*
X133030000Y-191260000D03*
X133430001Y-194340000D03*
X133430000Y-191260000D03*
X133830000Y-194340000D03*
X133830000Y-191260000D03*
X134230000Y-194340000D03*
X134230000Y-191260000D03*
X134630000Y-194340000D03*
X134630000Y-191260000D03*
X135030000Y-194340001D03*
X135030000Y-191260000D03*
X135430000Y-194340000D03*
X135430000Y-191260000D03*
X135830000Y-194340000D03*
X135830000Y-191260000D03*
X136230001Y-194340000D03*
X136230000Y-191260000D03*
X136630000Y-194340000D03*
X136630000Y-191260000D03*
X137030000Y-194340000D03*
X137030000Y-191260000D03*
X137430000Y-194340000D03*
X137430000Y-191260000D03*
X137830000Y-194340001D03*
X137830000Y-191260000D03*
X138230000Y-194340000D03*
X138230000Y-191260000D03*
X118630000Y-160420000D03*
X118630000Y-157340000D03*
X119030000Y-160420000D03*
X119030000Y-157340000D03*
X119430000Y-160420000D03*
X119430000Y-157340000D03*
X119829999Y-160420000D03*
X119830000Y-157340000D03*
X120230000Y-160420000D03*
X120230000Y-157340000D03*
X120630000Y-160420000D03*
X120630000Y-157340000D03*
X121030000Y-160420001D03*
X121030000Y-157340000D03*
X121430000Y-160420000D03*
X121430000Y-157340000D03*
X121830000Y-160420000D03*
X121830000Y-157340000D03*
X122230000Y-160420000D03*
X122230000Y-157340000D03*
X122629999Y-160420000D03*
X122630000Y-157340000D03*
X123030000Y-160420000D03*
X123030000Y-157340000D03*
X123430000Y-160420000D03*
X123430000Y-157340000D03*
X123830000Y-160420001D03*
X123830000Y-157340000D03*
X124230000Y-160420000D03*
X124230000Y-157340000D03*
X124630000Y-160420000D03*
X124630000Y-157340000D03*
X125030000Y-160420000D03*
X125030000Y-157340000D03*
X125429999Y-160420000D03*
X125430000Y-157340000D03*
X125830000Y-160420000D03*
X125830000Y-157340000D03*
X126230000Y-160420000D03*
X126230000Y-157340000D03*
X126630000Y-160420001D03*
X126630000Y-157340000D03*
X127030000Y-160420000D03*
X127030000Y-157340000D03*
X127430000Y-160420000D03*
X127430000Y-157340000D03*
X127830001Y-160420000D03*
X127830000Y-157340000D03*
X128230000Y-160420000D03*
X128230000Y-157340000D03*
X128630000Y-160420000D03*
X128630000Y-157340000D03*
X129030000Y-160420000D03*
X129030000Y-157340000D03*
X129430000Y-160420001D03*
X129430000Y-157340000D03*
X129830000Y-160420000D03*
X129830000Y-157340000D03*
X130230000Y-160420000D03*
X130230000Y-157340000D03*
X130630001Y-160420000D03*
X130630000Y-157340000D03*
X131030000Y-160420000D03*
X131030000Y-157340000D03*
X131430000Y-160420000D03*
X131430000Y-157340000D03*
X131830000Y-160420000D03*
X131830000Y-157340000D03*
X132230000Y-160420001D03*
X132230000Y-157340000D03*
X132630000Y-160420000D03*
X132630000Y-157340000D03*
X133030000Y-160420000D03*
X133030000Y-157340000D03*
X133430001Y-160420000D03*
X133430000Y-157340000D03*
X133830000Y-160420000D03*
X133830000Y-157340000D03*
X134230000Y-160420000D03*
X134230000Y-157340000D03*
X134630000Y-160420000D03*
X134630000Y-157340000D03*
X135030000Y-160420001D03*
X135030000Y-157340000D03*
X135430000Y-160420000D03*
X135430000Y-157340000D03*
X135830000Y-160420000D03*
X135830000Y-157340000D03*
X136230001Y-160420000D03*
X136230000Y-157340000D03*
X136630000Y-160420000D03*
X136630000Y-157340000D03*
X137030000Y-160420000D03*
X137030000Y-157340000D03*
X137430000Y-160420000D03*
X137430000Y-157340000D03*
X137829999Y-160420000D03*
X137830000Y-157340000D03*
X138230000Y-160420000D03*
X138230000Y-157340000D03*
%TD*%
D19*
%TO.C,CONFIG_4*%
X96870000Y-162920000D03*
X96870000Y-164570000D03*
%TD*%
D27*
%TO.C,C21*%
X79389999Y-169673419D03*
X76439997Y-169673419D03*
%TD*%
D19*
%TO.C,BMI1*%
X169390000Y-167515000D03*
X169390000Y-169165000D03*
%TD*%
D50*
%TO.C,C47*%
X142520000Y-196860000D03*
X142520000Y-199810002D03*
%TD*%
D41*
%TO.C,Vref_3.3V_STM1*%
X153023363Y-200376637D03*
X151856637Y-201543363D03*
%TD*%
D19*
%TO.C,R7*%
X189420000Y-221130000D03*
X189420000Y-222780000D03*
%TD*%
D51*
%TO.C,D6*%
X188934999Y-153311750D03*
X192204999Y-153311750D03*
%TD*%
D15*
%TO.C,C44*%
X161515000Y-167505000D03*
X159965000Y-167505000D03*
%TD*%
D11*
%TO.C,Plug_3.3V_direct1*%
X155676637Y-205123363D03*
X156843363Y-203956637D03*
%TD*%
D52*
%TO.C,C8*%
X126450000Y-211100000D03*
X125771178Y-211778822D03*
%TD*%
D53*
%TO.C,J18*%
X190215000Y-164991750D03*
X190215000Y-159211750D03*
D54*
X193915000Y-166426750D03*
X193915000Y-157776750D03*
D55*
X189735000Y-166426750D03*
X189735000Y-157776750D03*
%TD*%
D56*
%TO.C,U3*%
X182760000Y-220150000D03*
X183410000Y-220150000D03*
X184060000Y-220150000D03*
X184060000Y-218150000D03*
X182760000Y-218150000D03*
%TD*%
D12*
%TO.C,C39*%
X164090000Y-214035001D03*
X164090000Y-215585001D03*
%TD*%
D39*
%TO.C,R10*%
X185625000Y-163311750D03*
X183975000Y-163311750D03*
%TD*%
D19*
%TO.C,EXTERNALFAN5V1*%
X173240000Y-181450000D03*
X173240000Y-183100000D03*
%TD*%
D20*
%TO.C,R13*%
X186270000Y-213010000D03*
X186270000Y-211360000D03*
%TD*%
D57*
%TO.C,J7*%
X84630000Y-175810000D03*
X84630000Y-216280000D03*
D58*
X82090000Y-212440000D03*
D59*
X83360000Y-211170000D03*
X82090000Y-209900000D03*
X83360000Y-208630000D03*
X82090000Y-207360000D03*
X83360000Y-206090000D03*
X82090000Y-204820000D03*
X83360000Y-203550000D03*
X84630000Y-212440000D03*
X85900000Y-211170000D03*
X84630000Y-209900000D03*
X85900000Y-208630000D03*
X84630000Y-207360000D03*
X85900000Y-206090000D03*
X84630000Y-204820000D03*
X85900000Y-203550000D03*
D60*
X83400000Y-200270000D03*
X83400000Y-197770000D03*
X83400000Y-195270000D03*
X83400000Y-192770000D03*
X83400000Y-190270000D03*
X85900000Y-200270000D03*
X85900000Y-197770000D03*
X85900000Y-195270000D03*
X85900000Y-192770000D03*
X85900000Y-190270000D03*
X83400000Y-188270000D03*
X83400000Y-185770000D03*
X83400000Y-183270000D03*
X83400000Y-180770000D03*
X83400000Y-178270000D03*
X85900000Y-188270000D03*
X85900000Y-185770000D03*
X85900000Y-183270000D03*
X85900000Y-180770000D03*
X85900000Y-178270000D03*
%TD*%
D20*
%TO.C,R14*%
X171995001Y-212990001D03*
X171995001Y-211340001D03*
%TD*%
D50*
%TO.C,C16*%
X105500000Y-213834999D03*
X105500000Y-216785001D03*
%TD*%
D47*
%TO.C,D8*%
X191685000Y-211280000D03*
X190715000Y-211280000D03*
%TD*%
D42*
%TO.C,C26*%
X81215000Y-159973419D03*
X82765000Y-159973419D03*
%TD*%
D61*
%TO.C,IC5*%
X187075000Y-200974999D03*
X187075000Y-200275001D03*
D62*
X187150000Y-199475000D03*
X186650000Y-199475000D03*
X186150000Y-199475000D03*
X185650000Y-199475000D03*
D61*
X185725000Y-200275001D03*
X185725000Y-200974999D03*
D62*
X185650000Y-201775000D03*
X186150000Y-201775000D03*
X186650000Y-201775000D03*
X187150000Y-201775000D03*
%TD*%
D20*
%TO.C,R18*%
X85890000Y-163398419D03*
X85890000Y-161748419D03*
%TD*%
D39*
%TO.C,R11*%
X185625000Y-164861750D03*
X183975000Y-164861750D03*
%TD*%
D28*
%TO.C,R22*%
X184000000Y-195300001D03*
X185650000Y-195300001D03*
%TD*%
D26*
%TO.C,D5*%
X192135000Y-156326750D03*
X193105000Y-156326750D03*
%TD*%
D19*
%TO.C,CONFIG_1*%
X87845000Y-162920000D03*
X87845000Y-164570000D03*
%TD*%
D28*
%TO.C,R25*%
X187150000Y-196850001D03*
X188800000Y-196850001D03*
%TD*%
D19*
%TO.C,R26*%
X173545000Y-211340002D03*
X173545000Y-212990002D03*
%TD*%
D47*
%TO.C,D4*%
X191685000Y-221130000D03*
X190715000Y-221130000D03*
%TD*%
D19*
%TO.C,BMI2_SDA1*%
X167080000Y-181500000D03*
X167080000Y-183150000D03*
%TD*%
D42*
%TO.C,C20*%
X184025000Y-166411750D03*
X185575000Y-166411750D03*
%TD*%
D12*
%TO.C,C5*%
X137090000Y-196735000D03*
X137090000Y-198285000D03*
%TD*%
D19*
%TO.C,BMI2_SCL1*%
X164770000Y-181500000D03*
X164770000Y-183150000D03*
%TD*%
D63*
%TO.C,C27*%
X81265002Y-158173419D03*
X83165000Y-158173419D03*
%TD*%
D28*
%TO.C,R23*%
X186575000Y-206150000D03*
X188225000Y-206150000D03*
%TD*%
D19*
%TO.C,R19*%
X74915001Y-161173419D03*
X74915001Y-162823419D03*
%TD*%
D42*
%TO.C,C32*%
X186625000Y-204600001D03*
X188175000Y-204600001D03*
%TD*%
D12*
%TO.C,C4*%
X135570000Y-196735000D03*
X135570000Y-198285000D03*
%TD*%
D64*
%TO.C,C18*%
X123576992Y-215423008D03*
X124673008Y-214326992D03*
%TD*%
D26*
%TO.C,D1*%
X190715000Y-216060000D03*
X191685000Y-216060000D03*
%TD*%
D20*
%TO.C,R17*%
X74915000Y-165993419D03*
X74915000Y-164343419D03*
%TD*%
D65*
%TO.C,SW1*%
X150340000Y-223070000D03*
X150340000Y-216570000D03*
X154840000Y-223070000D03*
X154840000Y-216570000D03*
%TD*%
D42*
%TO.C,C19*%
X151150000Y-214125000D03*
X152700000Y-214125000D03*
%TD*%
D35*
%TO.C,IC4*%
X167790001Y-214410000D03*
X168489999Y-214410000D03*
D36*
X169290000Y-214485000D03*
X169290000Y-213985000D03*
X169290000Y-213485000D03*
X169290000Y-212985000D03*
D35*
X168489999Y-213060000D03*
X167790001Y-213060000D03*
D36*
X166990000Y-212985000D03*
X166990000Y-213485000D03*
X166990000Y-213985000D03*
X166990000Y-214485000D03*
%TD*%
D19*
%TO.C,R16*%
X76465001Y-164343419D03*
X76465001Y-165993419D03*
%TD*%
D66*
%TO.C,TP1*%
X185690000Y-216050000D03*
%TD*%
D19*
%TO.C,CONFIG_2*%
X90860000Y-162920000D03*
X90860000Y-164570000D03*
%TD*%
D20*
%TO.C,Bat_5V_direct1*%
X87850000Y-160525000D03*
X87850000Y-158875000D03*
%TD*%
D28*
%TO.C,R15*%
X156865000Y-181450000D03*
X158515000Y-181450000D03*
%TD*%
D39*
%TO.C,R30*%
X166839999Y-210060000D03*
X165189999Y-210060000D03*
%TD*%
D67*
%TO.C,J4*%
X109940000Y-222670000D03*
D68*
X107400000Y-222670000D03*
X104860001Y-222670000D03*
X102320000Y-222670000D03*
X99780000Y-222670000D03*
%TD*%
D12*
%TO.C,C33*%
X190200001Y-201375000D03*
X190200001Y-202925000D03*
%TD*%
D69*
%TO.C,C34*%
X192000000Y-201425002D03*
X192000000Y-203325000D03*
%TD*%
D37*
%TO.C,C36*%
X169065000Y-220085000D03*
X172015002Y-220085000D03*
%TD*%
D43*
%TO.C,U2*%
X158950000Y-184985000D03*
X159450000Y-184985000D03*
X159950000Y-184985000D03*
X160450000Y-184985000D03*
X160950000Y-184985000D03*
X161450000Y-184985000D03*
X161950000Y-184985000D03*
D44*
X162365000Y-186150000D03*
D43*
X161950000Y-187315000D03*
X161450000Y-187315000D03*
X160950000Y-187315000D03*
X160450000Y-187315000D03*
X159950000Y-187315000D03*
X159450000Y-187315000D03*
X158950000Y-187315000D03*
D44*
X158535000Y-186150000D03*
%TD*%
D28*
%TO.C,R4*%
X103225000Y-219200000D03*
X104875000Y-219200000D03*
%TD*%
D70*
%TO.C,C10*%
X108030000Y-208880000D03*
X108030000Y-207920000D03*
%TD*%
D12*
%TO.C,C42*%
X129490000Y-196740000D03*
X129490000Y-198290000D03*
%TD*%
D15*
%TO.C,C43*%
X161515000Y-176255000D03*
X159965000Y-176255000D03*
%TD*%
D46*
%TO.C,TP5*%
X126200000Y-199500000D03*
%TD*%
D17*
%TO.C,C25*%
X84315000Y-163348418D03*
X84315000Y-161798418D03*
%TD*%
D22*
%TO.C,C13*%
X111658008Y-205031992D03*
X110561992Y-206128008D03*
%TD*%
D19*
%TO.C,CONFIG_3*%
X93870000Y-162920000D03*
X93870000Y-164570000D03*
%TD*%
D71*
%TO.C,Q2*%
X128420000Y-201910000D03*
X127076497Y-203253503D03*
X129247315Y-204080818D03*
%TD*%
D19*
%TO.C,R29*%
X171990000Y-214470002D03*
X171990000Y-216120002D03*
%TD*%
D42*
%TO.C,C37*%
X168940001Y-210060000D03*
X170490001Y-210060000D03*
%TD*%
D39*
%TO.C,R24*%
X188800001Y-195300000D03*
X187150001Y-195300000D03*
%TD*%
D72*
%TO.C,J6*%
X120865000Y-185760000D03*
D73*
X120865000Y-165760000D03*
D74*
X92615000Y-175760000D03*
%TD*%
M02*
