M48
; DRILL file {KiCad 9.0.1+1} date 2025-11-19T20:45:12+0000
; FORMAT={-:-/ absolute / metric / decimal}
; #@! TF.CreationDate,2025-11-19T20:45:12+00:00
; #@! TF.GenerationSoftware,Kicad,Pcbnew,9.0.1+1
; #@! TF.FileFunction,MixedPlating,1,4
FMAT,2
METRIC
; #@! TA.AperFunction,Plated,PTH,ViaDrill
T1C0.300
; #@! TA.AperFunction,Plated,PTH,ViaDrill
T2C0.350
; #@! TA.AperFunction,Plated,PTH,ViaDrill
T3C0.400
; #@! TA.AperFunction,Plated,PTH,ComponentDrill
T4C0.600
; #@! TA.AperFunction,Plated,PTH,ComponentDrill
T5C0.760
; #@! TA.AperFunction,Plated,PTH,ComponentDrill
T6C1.000
; #@! TA.AperFunction,Plated,PTH,ComponentDrill
T7C1.020
; #@! TA.AperFunction,Plated,PTH,ComponentDrill
T8C1.100
; #@! TA.AperFunction,Plated,PTH,ComponentDrill
T9C1.200
; #@! TA.AperFunction,Plated,PTH,ComponentDrill
T10C1.300
; #@! TA.AperFunction,Plated,PTH,ComponentDrill
T11C3.000
; #@! TA.AperFunction,NonPlated,NPTH,ComponentDrill
T12C0.600
; #@! TA.AperFunction,NonPlated,NPTH,ComponentDrill
T13C1.100
; #@! TA.AperFunction,NonPlated,NPTH,ComponentDrill
T14C1.600
; #@! TA.AperFunction,NonPlated,NPTH,ComponentDrill
T15C2.700
; #@! TA.AperFunction,NonPlated,NPTH,ComponentDrill
T16C3.180
%
G90
G05
T1
X72.875Y-163.5
X73.025Y-160.95
X73.175Y-166.65
X74.0Y-169.55
X74.25Y-167.65
X74.45Y-158.175
X74.475Y-206.375
X74.8Y-155.35
X75.225Y-217.8
X75.25Y-213.625
X75.275Y-209.55
X75.3Y-215.7
X75.35Y-211.325
X76.175Y-173.125
X76.25Y-207.25
X76.25Y-208.25
X76.35Y-159.99
X76.35Y-204.175
X76.641Y-205.704
X76.775Y-221.95
X76.85Y-219.65
X77.075Y-152.275
X77.491Y-205.704
X77.7Y-155.125
X77.85Y-223.15
X78.22Y-165.21
X78.225Y-202.6
X78.25Y-162.08
X78.26Y-163.59
X78.475Y-207.675
X78.525Y-211.375
X78.6Y-209.225
X78.975Y-215.0
X79.025Y-206.05
X79.125Y-218.05
X79.39Y-172.2
X79.39Y-173.05
X79.515Y-154.39
X79.95Y-223.625
X79.98Y-215.61
X80.3Y-219.25
X80.85Y-202.475
X80.95Y-188.15
X81.0Y-215.6
X81.025Y-183.15
X81.05Y-185.65
X81.15Y-166.975
X81.175Y-180.825
X81.2Y-178.3
X81.425Y-170.35
X81.6Y-175.5
X81.675Y-153.25
X81.8Y-155.175
X81.99Y-165.86
X82.325Y-219.675
X82.59Y-162.21
X82.75Y-223.625
X82.8Y-164.75
X83.125Y-169.275
X83.88Y-160.07
X84.1Y-165.075
X84.175Y-155.125
X84.225Y-223.7
X84.4Y-167.275
X84.46Y-157.48
X84.475Y-219.575
X84.65Y-173.2
X85.025Y-160.275
X85.775Y-152.35
X86.25Y-219.575
X86.95Y-171.55
X86.975Y-222.325
X87.35Y-201.55
X87.42Y-153.82
X87.475Y-208.45
X87.775Y-206.175
X87.925Y-217.8
X87.975Y-211.325
X87.99Y-207.37
X88.075Y-215.15
X88.15Y-200.15
X88.225Y-198.2
X88.25Y-175.6
X88.275Y-190.225
X88.32Y-203.41
X88.325Y-156.425
X88.37Y-185.77
X88.375Y-195.15
X88.45Y-167.7
X88.55Y-192.65
X88.625Y-205.425
X88.65Y-178.27
X88.7Y-188.27
X88.85Y-201.4
X88.875Y-222.275
X88.91Y-180.77
X88.925Y-169.975
X89.24Y-183.27
X89.25Y-164.475
X89.3Y-161.175
X89.3Y-162.92
X89.375Y-211.35
X89.425Y-157.825
X89.725Y-166.075
X90.0Y-200.725
X90.1Y-206.02
X90.125Y-168.4
X90.2Y-185.525
X90.225Y-215.975
X90.275Y-186.9
X90.3Y-219.54
X90.3Y-222.18
X90.825Y-211.35
X91.05Y-205.35
X91.15Y-208.625
X91.4Y-179.425
X92.125Y-211.3
X92.35Y-158.025
X92.36Y-162.92
X92.425Y-164.125
X92.5Y-165.425
X92.55Y-200.7
X92.55Y-205.375
X92.575Y-168.225
X92.8Y-160.925
X92.875Y-208.6
X93.525Y-211.3
X93.775Y-216.025
X94.275Y-208.675
X94.325Y-218.15
X94.375Y-205.375
X94.7Y-168.15
X94.7Y-190.7
X94.75Y-185.525
X94.775Y-211.3
X94.875Y-200.775
X94.99Y-223.1
X95.25Y-219.35
X95.35Y-195.775
X95.375Y-164.275
X95.4Y-165.55
X95.42Y-162.92
X95.575Y-221.975
X95.64Y-203.42
X95.9Y-221.2
X95.925Y-208.625
X95.95Y-205.35
X96.05Y-211.275
X96.475Y-201.45
X96.775Y-180.4
X96.875Y-168.9
X97.4Y-205.35
X97.4Y-208.55
X97.45Y-211.275
X97.9Y-201.45
X98.425Y-170.75
X98.825Y-208.35
X98.825Y-211.225
X98.9Y-205.325
X99.225Y-201.45
X99.875Y-172.525
X100.125Y-211.175
X100.35Y-219.62
X100.425Y-205.275
X100.481Y-212.3
X100.481Y-213.15
X100.55Y-201.45
X100.69Y-208.5
X100.791Y-170.499
X101.356Y-171.065
X101.825Y-211.2
X101.9Y-172.825
X101.9Y-208.3
X101.95Y-205.375
X102.5Y-201.4
X102.725Y-216.075
X102.875Y-207.375
X103.125Y-174.2
X103.15Y-205.225
X103.35Y-210.775
X103.46Y-203.4
X103.64Y-206.05
X103.975Y-171.575
X103.975Y-201.325
X104.0Y-211.85
X104.245Y-220.745
X104.25Y-183.75
X104.825Y-205.8
X104.975Y-176.375
X105.0Y-211.85
X105.15Y-151.96
X105.325Y-200.9
X105.4Y-199.325
X105.81Y-202.165
X105.81Y-203.015
X105.82Y-203.815
X105.82Y-204.665
X106.75Y-207.93
X106.9Y-218.349
X107.15Y-174.475
X107.45Y-201.175
X107.65Y-179.0
X107.8Y-194.325
X108.1Y-217.975
X108.525Y-206.3
X108.95Y-189.775
X109.075Y-201.225
X109.38Y-206.65
X109.425Y-155.575
X109.575Y-177.0
X109.625Y-205.075
X109.65Y-207.675
X109.975Y-181.2
X110.3Y-199.925
X110.55Y-211.46
X110.563Y-218.979
X110.663Y-219.752
X111.0Y-157.35
X111.12Y-214.15
X111.2Y-210.7
X111.275Y-183.475
X111.675Y-198.825
X111.775Y-155.525
X112.275Y-209.5
X112.3Y-179.475
X112.4Y-214.3
X112.625Y-158.975
X112.625Y-186.725
X112.705Y-222.605
X113.0Y-213.375
X113.11Y-184.273
X113.25Y-156.85
X113.4Y-201.6
X113.4Y-220.47
X113.48Y-208.44
X113.525Y-198.0
X113.71Y-185.05
X113.85Y-196.05
X113.95Y-194.4
X114.24Y-204.83
X114.575Y-171.35
X114.6Y-157.875
X114.6Y-159.975
X114.65Y-164.35
X114.65Y-166.825
X114.65Y-168.45
X114.675Y-182.45
X114.9Y-192.8
X114.961Y-218.65
X114.99Y-206.77
X115.3Y-162.1
X115.45Y-184.575
X115.675Y-173.425
X115.74Y-171.63
X115.8Y-199.82
X115.825Y-224.1
X115.875Y-201.5
X115.95Y-188.2
X116.025Y-191.625
X116.083Y-217.433
X116.15Y-157.85
X116.2Y-214.85
X116.6Y-178.4
X116.6Y-181.775
X116.6Y-184.05
X116.625Y-180.175
X116.65Y-176.2
X116.75Y-174.0
X116.775Y-165.35
X116.8Y-168.75
X116.89Y-208.71
X116.95Y-171.225
X116.95Y-186.0
X117.025Y-214.025
X117.18Y-162.09
X117.275Y-191.0
X117.35Y-160.2
X117.6Y-209.22
X117.625Y-157.95
X117.693Y-220.217
X117.7Y-195.7
X117.9Y-197.7
X117.9Y-199.275
X118.15Y-163.2
X118.179Y-200.379
X118.18Y-213.0
X118.2Y-204.98
X118.25Y-165.325
X118.38Y-195.17
X118.56Y-202.34
X118.78Y-213.88
X118.781Y-200.981
X118.975Y-188.375
X119.025Y-220.5
X119.075Y-159.1
X119.12Y-205.03
X119.15Y-185.9
X119.349Y-201.559
X119.6Y-213.21
X119.77Y-211.44
X119.975Y-221.175
X120.19Y-158.8
X120.22Y-183.57
X120.47Y-168.07
X120.47Y-179.77
X120.5Y-174.325
X120.525Y-177.0
X120.69Y-182.12
X120.7Y-171.9
X120.94Y-159.26
X121.15Y-193.12
X121.17Y-161.75
X121.2Y-163.925
X121.225Y-188.275
X121.34Y-208.32
X121.55Y-217.6
X121.77Y-183.83
X121.98Y-196.34
X122.05Y-221.725
X122.075Y-224.1
X122.275Y-170.5
X122.275Y-180.65
X122.41Y-201.52
X122.53Y-196.98
X122.775Y-158.875
X122.79Y-215.951
X122.924Y-216.719
X123.01Y-200.9
X123.05Y-188.1
X123.18Y-199.84
X123.21Y-197.69
X123.55Y-180.1
X123.675Y-169.05
X123.825Y-221.55
X123.884Y-198.314
X124.075Y-158.85
X124.1Y-171.675
X124.325Y-167.275
X124.325Y-174.1
X124.325Y-177.05
X124.38Y-199.54
X124.51Y-204.4
X124.55Y-179.05
X124.7Y-163.875
X125.13Y-212.39
X125.225Y-169.425
X125.275Y-158.85
X125.375Y-215.025
X125.55Y-195.725
X125.625Y-188.4
X125.86Y-202.03
X126.275Y-221.7
X126.4Y-158.875
X126.8Y-205.86
X126.89Y-156.25
X126.95Y-213.83
X127.24Y-208.26
X127.34Y-161.75
X128.05Y-164.05
X128.125Y-221.7
X128.225Y-170.25
X128.6Y-182.475
X128.6Y-184.35
X128.775Y-180.25
X128.825Y-158.9
X128.85Y-175.975
X128.85Y-224.05
X128.9Y-177.8
X129.25Y-185.65
X129.475Y-211.375
X129.675Y-221.375
X129.7Y-168.7
X129.925Y-188.275
X130.025Y-158.85
X130.05Y-195.17
X130.3Y-165.525
X130.4Y-209.2
X130.475Y-219.9
X130.65Y-163.95
X130.9Y-173.9
X131.15Y-218.775
X131.2Y-158.875
X131.25Y-204.45
X131.3Y-216.325
X131.525Y-185.875
X132.075Y-221.275
X132.1Y-188.4
X132.175Y-166.85
X132.9Y-171.525
X133.0Y-220.3
X133.03Y-189.81
X133.1Y-214.8
X133.6Y-158.875
X133.751Y-156.249
X133.85Y-167.64
X133.925Y-165.075
X134.4Y-189.4
X134.4Y-203.4
X134.575Y-185.825
X134.575Y-218.05
X134.95Y-169.575
X135.55Y-189.81
X135.85Y-222.55
X136.04Y-158.87
X136.63Y-189.81
X136.675Y-218.05
X136.75Y-204.5
X136.875Y-168.7
X136.875Y-185.925
X136.95Y-210.87
X137.05Y-209.2
X137.112Y-161.75
X137.3Y-158.85
X137.875Y-224.05
X138.075Y-167.325
X138.475Y-203.2
X138.6Y-210.87
X138.65Y-189.425
X138.725Y-156.375
X138.925Y-165.675
X139.1Y-193.46
X139.35Y-159.9
X139.4Y-186.55
X139.475Y-157.525
X139.775Y-222.475
X140.2Y-164.45
X140.375Y-191.3
X140.5Y-204.175
X141.128Y-161.76
X141.175Y-187.975
X141.55Y-214.13
X141.675Y-163.9
X141.675Y-210.875
X141.729Y-161.159
X141.875Y-193.025
X142.5Y-202.65
X142.615Y-158.984
X142.9Y-215.125
X143.019Y-161.721
X143.216Y-158.382
X143.425Y-190.075
X143.45Y-157.05
X143.45Y-195.25
X143.6Y-159.8
X143.621Y-161.119
X143.65Y-210.875
X143.75Y-205.175
X144.025Y-222.75
X144.15Y-217.975
X144.225Y-163.9
X144.225Y-220.15
X144.4Y-209.15
X144.58Y-197.67
X144.59Y-196.87
X144.675Y-212.5
X144.775Y-161.625
X144.825Y-151.65
X144.95Y-211.525
X145.325Y-192.025
X145.828Y-205.021
X146.325Y-215.775
X146.35Y-223.25
X146.675Y-218.15
X146.875Y-213.5
X146.875Y-220.7
X147.125Y-161.575
X147.15Y-163.85
X147.55Y-197.975
X147.725Y-201.975
X147.825Y-209.125
X148.25Y-221.5
X148.35Y-198.85
X148.425Y-211.55
X148.475Y-205.1
X148.55Y-212.45
X148.825Y-219.075
X148.85Y-217.825
X149.0Y-213.5
X149.05Y-214.725
X149.775Y-196.775
X149.875Y-151.7
X150.175Y-200.525
X150.475Y-163.85
X151.075Y-202.975
X151.2Y-198.175
X151.42Y-208.31
X151.73Y-204.16
X152.525Y-222.375
X152.625Y-218.55
X152.66Y-209.01
X152.7Y-163.875
X152.775Y-198.75
X153.475Y-156.1
X153.55Y-205.4
X153.625Y-151.775
X154.425Y-197.925
X154.53Y-200.12
X155.3Y-181.65
X155.425Y-185.775
X155.425Y-189.9
X155.625Y-192.65
X155.675Y-196.45
X155.9Y-199.15
X156.05Y-193.975
X156.65Y-151.575
X156.75Y-223.8
X156.9Y-183.15
X157.0Y-156.025
X157.12Y-168.92
X157.675Y-187.725
X157.725Y-183.75
X157.95Y-209.15
X158.425Y-192.25
X158.425Y-200.825
X158.5Y-183.07
X158.5Y-210.725
X158.55Y-193.925
X158.725Y-197.95
X159.13Y-174.62
X159.275Y-220.125
X159.425Y-217.025
X159.9Y-174.31
X159.92Y-188.4
X159.95Y-151.65
X159.955Y-182.84
X159.955Y-192.47
X159.955Y-201.325
X159.96Y-178.52
X159.965Y-169.7
X160.2Y-203.8
X160.4Y-216.8
X160.445Y-172.215
X160.725Y-221.4
X161.125Y-155.975
X161.275Y-193.8
X161.275Y-218.65
X161.3Y-197.325
X161.375Y-200.75
X161.465Y-175.15
X162.27Y-183.68
X162.28Y-169.65
X162.69Y-165.769
X162.77Y-177.46
X162.83Y-179.78
X162.9Y-206.45
X162.925Y-181.45
X163.2Y-151.7
X163.25Y-221.475
X163.4Y-184.325
X163.53Y-173.31
X163.725Y-207.0
X163.81Y-217.35
X164.4Y-203.825
X164.65Y-155.975
X165.53Y-172.76
X165.725Y-202.3
X165.9Y-182.3
X165.9Y-189.825
X165.92Y-180.1
X166.1Y-195.35
X166.1Y-207.4
X166.2Y-200.4
X166.3Y-191.925
X166.3Y-197.575
X166.35Y-171.74
X166.725Y-151.7
X166.772Y-211.302
X167.09Y-166.4
X167.12Y-180.33
X167.325Y-156.325
X167.8Y-204.9
X167.95Y-175.1
X167.95Y-191.95
X167.95Y-194.5
X168.075Y-199.7
X168.1Y-197.45
X168.15Y-189.0
X168.2Y-182.275
X168.275Y-201.15
X168.9Y-158.55
X169.6Y-187.6
X170.125Y-153.0
X170.2Y-199.275
X170.328Y-212.158
X170.85Y-160.3
X170.92Y-213.73
X171.35Y-183.325
X171.475Y-184.425
X171.75Y-187.475
X171.75Y-203.05
X172.15Y-197.075
X172.32Y-217.52
X172.575Y-155.45
X172.925Y-189.025
X173.0Y-164.025
X173.575Y-171.325
X173.925Y-221.425
X173.95Y-167.275
X173.95Y-174.5
X174.15Y-177.525
X174.3Y-179.85
X174.325Y-194.95
X174.425Y-205.875
X174.425Y-208.15
X174.45Y-189.7
X174.525Y-157.7
X174.775Y-219.925
X174.875Y-218.55
X174.9Y-203.15
X174.975Y-184.375
X175.125Y-212.875
X175.84Y-182.61
X175.9Y-180.14
X175.95Y-190.025
X176.1Y-193.05
X176.475Y-159.7
X176.575Y-185.775
X176.79Y-213.38
X176.8Y-216.53
X176.925Y-205.65
X176.95Y-195.95
X177.025Y-198.95
X177.225Y-222.075
X177.275Y-218.475
X177.325Y-210.225
X177.4Y-201.0
X177.475Y-171.975
X177.475Y-174.55
X177.475Y-183.325
X177.55Y-179.25
X177.625Y-176.875
X177.775Y-167.5
X177.775Y-169.075
X177.8Y-190.075
X177.85Y-164.55
X177.95Y-191.675
X178.0Y-185.0
X178.25Y-213.25
X178.575Y-193.9
X178.81Y-219.26
X179.0Y-203.0
X179.1Y-179.05
X179.25Y-163.825
X179.25Y-205.65
X179.375Y-159.15
X179.4Y-208.0
X179.925Y-211.875
X180.225Y-192.025
X180.3Y-180.9
X180.375Y-183.825
X180.4Y-190.15
X180.75Y-186.2
X180.94Y-161.59
X180.975Y-159.775
X181.25Y-203.15
X181.275Y-163.4
X181.41Y-221.69
X181.51Y-201.69
X181.675Y-194.4
X182.025Y-165.025
X182.275Y-209.4
X182.3Y-207.275
X182.375Y-160.275
X182.4Y-190.325
X182.425Y-166.5
X182.425Y-205.3
X182.525Y-163.5
X182.925Y-185.85
X183.14Y-216.77
X183.25Y-193.425
X183.45Y-200.73
X183.77Y-213.01
X184.34Y-221.4
X184.55Y-190.4
X184.85Y-207.475
X184.89Y-198.17
X184.925Y-157.325
X185.0Y-155.4
X185.0Y-158.8
X185.075Y-168.725
X185.375Y-153.35
X185.428Y-203.476
X185.7Y-173.925
X185.725Y-183.85
X185.8Y-192.7
X186.0Y-190.1
X186.1Y-186.225
X186.41Y-198.17
X186.48Y-162.42
X186.65Y-151.6
X186.89Y-209.6
X187.1Y-222.225
X187.2Y-192.525
X187.475Y-165.422
X187.575Y-156.1
X187.63Y-202.64
X187.8Y-168.0
X187.965Y-158.362
X188.02Y-198.15
X188.025Y-190.075
X188.35Y-220.13
X188.85Y-210.35
X188.94Y-152.28
X189.025Y-193.225
X189.05Y-186.275
X189.1Y-175.5
X189.2Y-180.525
X189.54Y-210.89
X190.0Y-214.77
X190.175Y-206.25
X190.225Y-168.375
X190.275Y-190.225
X190.4Y-151.175
X191.3Y-190.15
X191.55Y-151.275
X192.36Y-207.28
X192.375Y-194.55
X192.7Y-168.15
X192.975Y-186.15
X193.0Y-219.13
X193.0Y-221.13
X193.05Y-208.175
X193.1Y-217.075
X193.325Y-214.225
X193.375Y-204.65
X193.545Y-153.312
X193.575Y-209.675
X194.325Y-154.4
X194.375Y-155.925
X194.575Y-168.175
T2
X129.47Y-199.25
X131.0Y-199.25
X132.52Y-199.25
X134.03Y-199.25
X135.56Y-199.25
X137.07Y-199.25
X138.58Y-199.25
X140.13Y-199.25
X142.52Y-200.78
T3
X187.415Y-159.522
X187.555Y-164.502
T5
X82.09Y-204.82
X82.09Y-207.36
X82.09Y-209.9
X82.09Y-212.44
X83.36Y-203.55
X83.36Y-206.09
X83.36Y-208.63
X83.36Y-211.17
X84.63Y-204.82
X84.63Y-207.36
X84.63Y-209.9
X84.63Y-212.44
X85.9Y-203.55
X85.9Y-206.09
X85.9Y-208.63
X85.9Y-211.17
T6
X99.78Y-222.67
X102.32Y-222.67
X104.86Y-222.67
X107.4Y-222.67
X109.94Y-222.67
T7
X83.4Y-178.27
X83.4Y-180.77
X83.4Y-183.27
X83.4Y-185.77
X83.4Y-188.27
X83.4Y-190.27
X83.4Y-192.77
X83.4Y-195.27
X83.4Y-197.77
X83.4Y-200.27
X85.9Y-178.27
X85.9Y-180.77
X85.9Y-183.27
X85.9Y-185.77
X85.9Y-188.27
X85.9Y-190.27
X85.9Y-192.77
X85.9Y-195.27
X85.9Y-197.77
X85.9Y-200.27
T8
X150.34Y-216.57
X150.34Y-223.07
X154.84Y-216.57
X154.84Y-223.07
X192.96Y-188.23
X192.96Y-190.77
T9
X95.9Y-216.9
X101.1Y-217.0
X170.65Y-178.05
X170.725Y-173.7
T10
X189.1Y-173.06
X189.1Y-178.06
X189.1Y-183.06
T11
X92.615Y-175.76
T12
X190.215Y-159.212
X190.215Y-164.992
T13
X120.865Y-185.76
T14
X120.865Y-165.76
T15
X101.93Y-159.34
X101.93Y-192.34
X149.93Y-159.34
X149.93Y-192.34
T16
X84.63Y-175.81
X84.63Y-216.28
T4
G00X189.185Y-157.777
M15
G01X190.285Y-157.777
M16
G05
G00X189.185Y-166.427
M15
G01X190.285Y-166.427
M16
G05
G00X193.515Y-157.777
M15
G01X194.315Y-157.777
M16
G05
G00X193.515Y-166.427
M15
G01X194.315Y-166.427
M16
G05
M30
