%TF.GenerationSoftware,KiCad,Pcbnew,9.0.1+1*%
%TF.CreationDate,2025-11-26T10:36:43+00:00*%
%TF.ProjectId,nautilus_mainboard,6e617574-696c-4757-935f-6d61696e626f,rev?*%
%TF.SameCoordinates,Original*%
%TF.FileFunction,Soldermask,Bot*%
%TF.FilePolarity,Negative*%
%FSLAX46Y46*%
G04 Gerber Fmt 4.6, Leading zero omitted, Abs format (unit mm)*
G04 Created by KiCad (PCBNEW 9.0.1+1) date 2025-11-26 10:36:43*
%MOMM*%
%LPD*%
G01*
G04 APERTURE LIST*
G04 Aperture macros list*
%AMRoundRect*
0 Rectangle with rounded corners*
0 $1 Rounding radius*
0 $2 $3 $4 $5 $6 $7 $8 $9 X,Y pos of 4 corners*
0 Add a 4 corners polygon primitive as box body*
4,1,4,$2,$3,$4,$5,$6,$7,$8,$9,$2,$3,0*
0 Add four circle primitives for the rounded corners*
1,1,$1+$1,$2,$3*
1,1,$1+$1,$4,$5*
1,1,$1+$1,$6,$7*
1,1,$1+$1,$8,$9*
0 Add four rect primitives between the rounded corners*
20,1,$1+$1,$2,$3,$4,$5,0*
20,1,$1+$1,$4,$5,$6,$7,0*
20,1,$1+$1,$6,$7,$8,$9,0*
20,1,$1+$1,$8,$9,$2,$3,0*%
%AMFreePoly0*
4,1,23,0.500000,-0.750000,0.000000,-0.750000,0.000000,-0.745722,-0.065263,-0.745722,-0.191342,-0.711940,-0.304381,-0.646677,-0.396677,-0.554381,-0.461940,-0.441342,-0.495722,-0.315263,-0.495722,-0.250000,-0.500000,-0.250000,-0.500000,0.250000,-0.495722,0.250000,-0.495722,0.315263,-0.461940,0.441342,-0.396677,0.554381,-0.304381,0.646677,-0.191342,0.711940,-0.065263,0.745722,0.000000,0.745722,
0.000000,0.750000,0.500000,0.750000,0.500000,-0.750000,0.500000,-0.750000,$1*%
%AMFreePoly1*
4,1,23,0.000000,0.745722,0.065263,0.745722,0.191342,0.711940,0.304381,0.646677,0.396677,0.554381,0.461940,0.441342,0.495722,0.315263,0.495722,0.250000,0.500000,0.250000,0.500000,-0.250000,0.495722,-0.250000,0.495722,-0.315263,0.461940,-0.441342,0.396677,-0.554381,0.304381,-0.646677,0.191342,-0.711940,0.065263,-0.745722,0.000000,-0.745722,0.000000,-0.750000,-0.500000,-0.750000,
-0.500000,0.750000,0.000000,0.750000,0.000000,0.745722,0.000000,0.745722,$1*%
G04 Aperture macros list end*
%ADD10C,0.000000*%
%ADD11C,0.600000*%
%ADD12O,1.904000X1.104000*%
%ADD13O,2.204000X1.104000*%
%ADD14C,2.000000*%
%ADD15C,1.100000*%
%ADD16C,1.600000*%
%ADD17C,5.300000*%
%ADD18R,2.500000X2.500000*%
%ADD19C,2.500000*%
%ADD20C,1.854000*%
%ADD21RoundRect,0.250000X-1.050000X-1.050000X1.050000X-1.050000X1.050000X1.050000X-1.050000X1.050000X0*%
%ADD22C,2.600000*%
%ADD23R,1.700000X1.700000*%
%ADD24C,1.700000*%
%ADD25C,6.100000*%
%ADD26C,3.180000*%
%ADD27RoundRect,0.102000X-0.634000X0.634000X-0.634000X-0.634000X0.634000X-0.634000X0.634000X0.634000X0*%
%ADD28C,1.472000*%
%ADD29C,1.734000*%
%ADD30FreePoly0,180.000000*%
%ADD31FreePoly1,180.000000*%
%ADD32FreePoly0,270.000000*%
%ADD33FreePoly1,270.000000*%
%ADD34FreePoly0,90.000000*%
%ADD35FreePoly1,90.000000*%
G04 APERTURE END LIST*
%TO.C,JP22*%
G36*
X212590000Y-85460000D02*
G01*
X212290000Y-85460000D01*
X212290000Y-86960000D01*
X212590000Y-86960000D01*
X212590000Y-85460000D01*
G37*
D10*
%TO.C,JP2*%
G36*
X231210000Y-165150000D02*
G01*
X229710000Y-165150000D01*
X229710000Y-164850000D01*
X231210000Y-164850000D01*
X231210000Y-165150000D01*
G37*
%TO.C,JP20*%
G36*
X218940000Y-89010000D02*
G01*
X218640000Y-89010000D01*
X218640000Y-90510000D01*
X218940000Y-90510000D01*
X218940000Y-89010000D01*
G37*
%TO.C,JP14*%
G36*
X231250000Y-136150000D02*
G01*
X229750000Y-136150000D01*
X229750000Y-135850000D01*
X231250000Y-135850000D01*
X231250000Y-136150000D01*
G37*
%TO.C,JP21*%
G36*
X218940000Y-92560000D02*
G01*
X218640000Y-92560000D01*
X218640000Y-94060000D01*
X218940000Y-94060000D01*
X218940000Y-92560000D01*
G37*
%TO.C,JP13*%
G36*
X82300000Y-102590000D02*
G01*
X82000000Y-102590000D01*
X82000000Y-104090000D01*
X82300000Y-104090000D01*
X82300000Y-102590000D01*
G37*
%TO.C,JP6*%
G36*
X143990000Y-103639930D02*
G01*
X142490000Y-103639930D01*
X142490000Y-103339930D01*
X143990000Y-103339930D01*
X143990000Y-103639930D01*
G37*
%TO.C,JP5*%
G36*
X146490000Y-103639930D02*
G01*
X144990000Y-103639930D01*
X144990000Y-103339930D01*
X146490000Y-103339930D01*
X146490000Y-103639930D01*
G37*
%TO.C,JP10*%
G36*
X236420000Y-165150000D02*
G01*
X234920000Y-165150000D01*
X234920000Y-164850000D01*
X236420000Y-164850000D01*
X236420000Y-165150000D01*
G37*
%TO.C,JP8*%
G36*
X149170000Y-103639930D02*
G01*
X147670000Y-103639930D01*
X147670000Y-103339930D01*
X149170000Y-103339930D01*
X149170000Y-103639930D01*
G37*
%TO.C,JP23*%
G36*
X212590000Y-89010000D02*
G01*
X212290000Y-89010000D01*
X212290000Y-90510000D01*
X212590000Y-90510000D01*
X212590000Y-89010000D01*
G37*
%TO.C,JP11*%
G36*
X223080000Y-165150000D02*
G01*
X221580000Y-165150000D01*
X221580000Y-164850000D01*
X223080000Y-164850000D01*
X223080000Y-165150000D01*
G37*
%TO.C,JP24*%
G36*
X212590000Y-92560000D02*
G01*
X212290000Y-92560000D01*
X212290000Y-94060000D01*
X212590000Y-94060000D01*
X212590000Y-92560000D01*
G37*
%TO.C,JP19*%
G36*
X218940000Y-85460000D02*
G01*
X218640000Y-85460000D01*
X218640000Y-86960000D01*
X218940000Y-86960000D01*
X218940000Y-85460000D01*
G37*
%TO.C,JP16*%
G36*
X236250000Y-136150000D02*
G01*
X234750000Y-136150000D01*
X234750000Y-135850000D01*
X236250000Y-135850000D01*
X236250000Y-136150000D01*
G37*
%TO.C,JP1*%
G36*
X233710000Y-165150000D02*
G01*
X232210000Y-165150000D01*
X232210000Y-164850000D01*
X233710000Y-164850000D01*
X233710000Y-165150000D01*
G37*
%TO.C,JP3*%
G36*
X217870000Y-165150000D02*
G01*
X216370000Y-165150000D01*
X216370000Y-164850000D01*
X217870000Y-164850000D01*
X217870000Y-165150000D01*
G37*
%TO.C,JP18*%
G36*
X202250000Y-147500001D02*
G01*
X200750000Y-147500001D01*
X200750000Y-147200001D01*
X202250000Y-147200001D01*
X202250000Y-147500001D01*
G37*
%TO.C,JP9*%
G36*
X238960000Y-165150000D02*
G01*
X237460000Y-165150000D01*
X237460000Y-164850000D01*
X238960000Y-164850000D01*
X238960000Y-165150000D01*
G37*
%TO.C,JP17*%
G36*
X238750000Y-136150000D02*
G01*
X237250000Y-136150000D01*
X237250000Y-135850000D01*
X238750000Y-135850000D01*
X238750000Y-136150000D01*
G37*
%TO.C,JP12*%
G36*
X225580000Y-165150000D02*
G01*
X224080000Y-165150000D01*
X224080000Y-164850000D01*
X225580000Y-164850000D01*
X225580000Y-165150000D01*
G37*
%TO.C,JP15*%
G36*
X233750000Y-136150000D02*
G01*
X232250000Y-136150000D01*
X232250000Y-135850000D01*
X233750000Y-135850000D01*
X233750000Y-136150000D01*
G37*
%TO.C,JP4*%
G36*
X220370000Y-165150000D02*
G01*
X218870000Y-165150000D01*
X218870000Y-164850000D01*
X220370000Y-164850000D01*
X220370000Y-165150000D01*
G37*
%TO.C,JP7*%
G36*
X151670000Y-103639930D02*
G01*
X150170000Y-103639930D01*
X150170000Y-103339930D01*
X151670000Y-103339930D01*
X151670000Y-103639930D01*
G37*
%TD*%
D11*
%TO.C,J3*%
X257000000Y-163215000D03*
X257000000Y-157435000D03*
D12*
X260700000Y-164650000D03*
X260700000Y-156000000D03*
D13*
X256520000Y-164650000D03*
X256520000Y-156000000D03*
%TD*%
D14*
%TO.C,SW1*%
X164050000Y-163800000D03*
X170550000Y-163800000D03*
X164050000Y-168300000D03*
X170550000Y-168300000D03*
%TD*%
D15*
%TO.C,J6*%
X237500000Y-145725001D03*
D16*
X217500000Y-145725000D03*
D17*
X227500000Y-117475000D03*
%TD*%
D18*
%TO.C,LS1*%
X201500000Y-151200000D03*
D19*
X206500000Y-151200000D03*
%TD*%
D20*
%TO.C,J2*%
X78330000Y-119995000D03*
X80870000Y-119995000D03*
%TD*%
D21*
%TO.C,J5*%
X75145000Y-91840000D03*
D22*
X80145000Y-91840000D03*
X85145000Y-91840000D03*
%TD*%
D23*
%TO.C,J4*%
X175140000Y-168100000D03*
D24*
X177680000Y-168100000D03*
X180219999Y-168100000D03*
X182760000Y-168100000D03*
X185300000Y-168100000D03*
%TD*%
D25*
%TO.C,Module1*%
X159300001Y-134950000D03*
X207300000Y-134950000D03*
X159300000Y-101950000D03*
X207300000Y-101950000D03*
%TD*%
D26*
%TO.C,J7*%
X151280000Y-121540000D03*
X151280000Y-162010000D03*
D27*
X148740000Y-158170000D03*
D28*
X150010000Y-156900000D03*
X148740000Y-155630000D03*
X150010000Y-154360000D03*
X148740000Y-153090000D03*
X150010000Y-151820000D03*
X148740000Y-150550000D03*
X150010000Y-149280000D03*
X151280000Y-158170000D03*
X152550000Y-156900000D03*
X151280000Y-155630000D03*
X152550000Y-154360000D03*
X151280000Y-153090000D03*
X152550000Y-151820000D03*
X151280000Y-150550000D03*
X152550000Y-149280000D03*
D29*
X150050000Y-146000000D03*
X150050000Y-143500000D03*
X150050000Y-141000000D03*
X150050000Y-138500000D03*
X150050000Y-136000000D03*
X152550000Y-146000000D03*
X152550000Y-143500000D03*
X152550000Y-141000000D03*
X152550000Y-138500000D03*
X152550000Y-136000000D03*
X150050000Y-134000000D03*
X150050000Y-131500000D03*
X150050000Y-129000000D03*
X150050000Y-126500000D03*
X150050000Y-124000000D03*
X152550000Y-134000000D03*
X152550000Y-131500000D03*
X152550000Y-129000000D03*
X152550000Y-126500000D03*
X152550000Y-124000000D03*
%TD*%
D30*
%TO.C,JP22*%
X213090000Y-86210000D03*
D31*
X211790000Y-86210000D03*
%TD*%
D32*
%TO.C,JP2*%
X230460000Y-164350001D03*
D33*
X230460000Y-165649999D03*
%TD*%
D30*
%TO.C,JP20*%
X219440000Y-89760000D03*
D31*
X218140000Y-89760000D03*
%TD*%
D32*
%TO.C,JP14*%
X230500000Y-135350001D03*
D33*
X230500000Y-136649999D03*
%TD*%
D30*
%TO.C,JP21*%
X219440000Y-93310000D03*
D31*
X218140000Y-93310000D03*
%TD*%
D30*
%TO.C,JP13*%
X82800000Y-103340000D03*
D31*
X81500000Y-103340000D03*
%TD*%
D32*
%TO.C,JP6*%
X143240000Y-102839931D03*
D33*
X143240000Y-104139929D03*
%TD*%
D32*
%TO.C,JP5*%
X145740000Y-102839931D03*
D33*
X145740000Y-104139929D03*
%TD*%
D32*
%TO.C,JP10*%
X235670000Y-164350001D03*
D33*
X235670000Y-165649999D03*
%TD*%
D32*
%TO.C,JP8*%
X148420000Y-102839931D03*
D33*
X148420000Y-104139929D03*
%TD*%
D30*
%TO.C,JP23*%
X213090000Y-89760000D03*
D31*
X211790000Y-89760000D03*
%TD*%
D32*
%TO.C,JP11*%
X222330000Y-164350001D03*
D33*
X222330000Y-165649999D03*
%TD*%
D30*
%TO.C,JP24*%
X213090000Y-93310000D03*
D31*
X211790000Y-93310000D03*
%TD*%
D30*
%TO.C,JP19*%
X219440000Y-86210000D03*
D31*
X218140000Y-86210000D03*
%TD*%
D32*
%TO.C,JP16*%
X235500000Y-135350001D03*
D33*
X235500000Y-136649999D03*
%TD*%
D32*
%TO.C,JP1*%
X232960000Y-164350001D03*
D33*
X232960000Y-165649999D03*
%TD*%
D32*
%TO.C,JP3*%
X217120000Y-164350001D03*
D33*
X217120000Y-165649999D03*
%TD*%
D34*
%TO.C,JP18*%
X201500000Y-148000000D03*
D35*
X201500000Y-146700002D03*
%TD*%
D32*
%TO.C,JP9*%
X238210000Y-164350001D03*
D33*
X238210000Y-165649999D03*
%TD*%
D32*
%TO.C,JP17*%
X238000000Y-135350001D03*
D33*
X238000000Y-136649999D03*
%TD*%
D32*
%TO.C,JP12*%
X224830000Y-164350001D03*
D33*
X224830000Y-165649999D03*
%TD*%
D32*
%TO.C,JP15*%
X233000000Y-135350001D03*
D33*
X233000000Y-136649999D03*
%TD*%
D32*
%TO.C,JP4*%
X219620000Y-164350001D03*
D33*
X219620000Y-165649999D03*
%TD*%
D32*
%TO.C,JP7*%
X150920000Y-102839931D03*
D33*
X150920000Y-104139929D03*
%TD*%
M02*
