%TF.GenerationSoftware,KiCad,Pcbnew,9.0.1+1*%
%TF.CreationDate,2025-11-19T21:45:42+00:00*%
%TF.ProjectId,nautilus_mainboard,6e617574-696c-4757-935f-6d61696e626f,rev?*%
%TF.SameCoordinates,Original*%
%TF.FileFunction,Other,User*%
%FSLAX46Y46*%
G04 Gerber Fmt 4.6, Leading zero omitted, Abs format (unit mm)*
G04 Created by KiCad (PCBNEW 9.0.1+1) date 2025-11-19 21:45:42*
%MOMM*%
%LPD*%
G01*
G04 APERTURE LIST*
%ADD10C,0.050000*%
%ADD11C,0.100000*%
%ADD12C,0.120000*%
G04 APERTURE END LIST*
D10*
%TO.C,R27*%
X84795000Y-158740000D02*
X87755000Y-158740000D01*
X84795000Y-160200000D02*
X84795000Y-158740000D01*
X87755000Y-158740000D02*
X87755000Y-160200000D01*
X87755000Y-160200000D02*
X84795000Y-160200000D01*
%TO.C,R15*%
X106655000Y-154890000D02*
X109615000Y-154890000D01*
X106655000Y-156350000D02*
X106655000Y-154890000D01*
X109615000Y-154890000D02*
X109615000Y-156350000D01*
X109615000Y-156350000D02*
X106655000Y-156350000D01*
%TO.C,TP11*%
X77195000Y-150240000D02*
G75*
G02*
X75195000Y-150240000I-1000000J0D01*
G01*
X75195000Y-150240000D02*
G75*
G02*
X77195000Y-150240000I1000000J0D01*
G01*
%TO.C,J3*%
X97265000Y-124640000D02*
X107315000Y-124640000D01*
X97265000Y-133070000D02*
X97265000Y-124640000D01*
X107315000Y-124640000D02*
X107315000Y-133070000D01*
X107315000Y-133070000D02*
X97265000Y-133070000D01*
%TO.C,R23*%
X50795000Y-170050000D02*
X53755000Y-170050000D01*
X50795000Y-171510000D02*
X50795000Y-170050000D01*
X53755000Y-170050000D02*
X53755000Y-171510000D01*
X53755000Y-171510000D02*
X50795000Y-171510000D01*
%TO.C,C4*%
X64495000Y-94870000D02*
X67455000Y-94870000D01*
X64495000Y-96330000D02*
X64495000Y-94870000D01*
X67455000Y-94870000D02*
X67455000Y-96330000D01*
X67455000Y-96330000D02*
X64495000Y-96330000D01*
%TO.C,R31*%
X106655000Y-157400000D02*
X109615000Y-157400000D01*
X106655000Y-158860000D02*
X106655000Y-157400000D01*
X109615000Y-157400000D02*
X109615000Y-158860000D01*
X109615000Y-158860000D02*
X106655000Y-158860000D01*
%TO.C,R45*%
X58815000Y-147970000D02*
X61775000Y-147970000D01*
X58815000Y-149430000D02*
X58815000Y-147970000D01*
X61775000Y-147970000D02*
X61775000Y-149430000D01*
X61775000Y-149430000D02*
X58815000Y-149430000D01*
%TO.C,LED3*%
X97265000Y-138870000D02*
X100715000Y-138870000D01*
X97265000Y-140770000D02*
X97265000Y-138870000D01*
X100715000Y-138870000D02*
X100715000Y-140770000D01*
X100715000Y-140770000D02*
X97265000Y-140770000D01*
%TO.C,C52*%
X84795000Y-153720000D02*
X87755000Y-153720000D01*
X84795000Y-155180000D02*
X84795000Y-153720000D01*
X87755000Y-153720000D02*
X87755000Y-155180000D01*
X87755000Y-155180000D02*
X84795000Y-155180000D01*
%TO.C,C20*%
X93255000Y-124640000D02*
X96215000Y-124640000D01*
X93255000Y-126100000D02*
X93255000Y-124640000D01*
X96215000Y-124640000D02*
X96215000Y-126100000D01*
X96215000Y-126100000D02*
X93255000Y-126100000D01*
%TO.C,EXTERNALFAN5V1*%
X100345000Y-103670000D02*
X103305000Y-103670000D01*
X100345000Y-105130000D02*
X100345000Y-103670000D01*
X103305000Y-103670000D02*
X103305000Y-105130000D01*
X103305000Y-105130000D02*
X100345000Y-105130000D01*
%TO.C,U2*%
X42745000Y-160535000D02*
X47745000Y-160535000D01*
X42745000Y-164035000D02*
X42745000Y-160535000D01*
X47745000Y-160535000D02*
X47745000Y-164035000D01*
X47745000Y-164035000D02*
X42745000Y-164035000D01*
%TO.C,TPD4EUSB30DQAR1*%
X61650000Y-160010000D02*
X63550000Y-160010000D01*
X61650000Y-163010000D02*
X61650000Y-160010000D01*
X63550000Y-160010000D02*
X63550000Y-163010000D01*
X63550000Y-163010000D02*
X61650000Y-163010000D01*
%TO.C,R7*%
X65805000Y-164060000D02*
X68765000Y-164060000D01*
X65805000Y-165520000D02*
X65805000Y-164060000D01*
X68765000Y-164060000D02*
X68765000Y-165520000D01*
X68765000Y-165520000D02*
X65805000Y-165520000D01*
%TO.C,Q3*%
X78795000Y-139740000D02*
X82645000Y-139740000D01*
X78795000Y-143140000D02*
X78795000Y-139740000D01*
X82645000Y-143140000D02*
X78795000Y-143140000D01*
X82645000Y-143140000D02*
X82645000Y-139740000D01*
%TO.C,D2*%
X91185000Y-99025000D02*
X92185000Y-99025000D01*
X91185000Y-102025000D02*
X91185000Y-99025000D01*
X92185000Y-98825000D02*
X94285000Y-98825000D01*
X92185000Y-99025000D02*
X92185000Y-98825000D01*
X92185000Y-102025000D02*
X91185000Y-102025000D01*
X92185000Y-102225000D02*
X92185000Y-102025000D01*
X94285000Y-98825000D02*
X94285000Y-99025000D01*
X94285000Y-99025000D02*
X95285000Y-99025000D01*
X94285000Y-102025000D02*
X94285000Y-102225000D01*
X94285000Y-102225000D02*
X92185000Y-102225000D01*
X95285000Y-99025000D02*
X95285000Y-102025000D01*
X95285000Y-102025000D02*
X94285000Y-102025000D01*
%TO.C,C37*%
X23375000Y-145460000D02*
X26335000Y-145460000D01*
X23375000Y-146920000D02*
X23375000Y-145460000D01*
X26335000Y-145460000D02*
X26335000Y-146920000D01*
X26335000Y-146920000D02*
X23375000Y-146920000D01*
%TO.C,TP7*%
X75645000Y-169740000D02*
G75*
G02*
X72145000Y-169740000I-1750000J0D01*
G01*
X72145000Y-169740000D02*
G75*
G02*
X75645000Y-169740000I1750000J0D01*
G01*
%TO.C,R34*%
X50795000Y-150480000D02*
X53755000Y-150480000D01*
X50795000Y-151940000D02*
X50795000Y-150480000D01*
X53755000Y-150480000D02*
X53755000Y-151940000D01*
X53755000Y-151940000D02*
X50795000Y-151940000D01*
%TO.C,R33*%
X87245000Y-124640000D02*
X90205000Y-124640000D01*
X87245000Y-126100000D02*
X87245000Y-124640000D01*
X90205000Y-124640000D02*
X90205000Y-126100000D01*
X90205000Y-126100000D02*
X87245000Y-126100000D01*
%TO.C,C12*%
X96335000Y-101160000D02*
X99295000Y-101160000D01*
X96335000Y-102620000D02*
X96335000Y-101160000D01*
X99295000Y-101160000D02*
X99295000Y-102620000D01*
X99295000Y-102620000D02*
X96335000Y-102620000D01*
%TO.C,C39*%
X84795000Y-146190000D02*
X87755000Y-146190000D01*
X84795000Y-147650000D02*
X84795000Y-146190000D01*
X87755000Y-146190000D02*
X87755000Y-147650000D01*
X87755000Y-147650000D02*
X84795000Y-147650000D01*
%TO.C,LED4*%
X54805000Y-160010000D02*
X58255000Y-160010000D01*
X54805000Y-161910000D02*
X54805000Y-160010000D01*
X58255000Y-160010000D02*
X58255000Y-161910000D01*
X58255000Y-161910000D02*
X54805000Y-161910000D01*
%TO.C,C2*%
X64495000Y-89850000D02*
X67455000Y-89850000D01*
X64495000Y-91310000D02*
X64495000Y-89850000D01*
X67455000Y-89850000D02*
X67455000Y-91310000D01*
X67455000Y-91310000D02*
X64495000Y-91310000D01*
%TO.C,R9*%
X93255000Y-127150000D02*
X96215000Y-127150000D01*
X93255000Y-128610000D02*
X93255000Y-127150000D01*
X96215000Y-127150000D02*
X96215000Y-128610000D01*
X96215000Y-128610000D02*
X93255000Y-128610000D01*
%TO.C,R46*%
X58815000Y-150480000D02*
X61775000Y-150480000D01*
X58815000Y-151940000D02*
X58815000Y-150480000D01*
X61775000Y-150480000D02*
X61775000Y-151940000D01*
X61775000Y-151940000D02*
X58815000Y-151940000D01*
%TO.C,LED7*%
X100155000Y-154890000D02*
X103605000Y-154890000D01*
X100155000Y-156790000D02*
X100155000Y-154890000D01*
X103605000Y-154890000D02*
X103605000Y-156790000D01*
X103605000Y-156790000D02*
X100155000Y-156790000D01*
%TO.C,C38*%
X23375000Y-147970000D02*
X26335000Y-147970000D01*
X23375000Y-149430000D02*
X23375000Y-147970000D01*
X26335000Y-147970000D02*
X26335000Y-149430000D01*
X26335000Y-149430000D02*
X23375000Y-149430000D01*
%TO.C,TP8*%
X74145000Y-156340000D02*
G75*
G02*
X72145000Y-156340000I-1000000J0D01*
G01*
X72145000Y-156340000D02*
G75*
G02*
X74145000Y-156340000I1000000J0D01*
G01*
%TO.C,R48*%
X38735000Y-165030000D02*
X41695000Y-165030000D01*
X38735000Y-166490000D02*
X38735000Y-165030000D01*
X41695000Y-165030000D02*
X41695000Y-166490000D01*
X41695000Y-166490000D02*
X38735000Y-166490000D01*
%TO.C,C21*%
X27385000Y-161360000D02*
X31985000Y-161360000D01*
X27385000Y-164560000D02*
X27385000Y-161360000D01*
X31985000Y-161360000D02*
X31985000Y-164560000D01*
X31985000Y-164560000D02*
X27385000Y-164560000D01*
%TO.C,R4*%
X100345000Y-108690000D02*
X103305000Y-108690000D01*
X100345000Y-110150000D02*
X100345000Y-108690000D01*
X103305000Y-108690000D02*
X103305000Y-110150000D01*
X103305000Y-110150000D02*
X100345000Y-110150000D01*
%TO.C,TP2*%
X81745000Y-147940000D02*
G75*
G02*
X78245000Y-147940000I-1750000J0D01*
G01*
X78245000Y-147940000D02*
G75*
G02*
X81745000Y-147940000I1750000J0D01*
G01*
%TO.C,R6*%
X100155000Y-157840000D02*
X103115000Y-157840000D01*
X100155000Y-159300000D02*
X100155000Y-157840000D01*
X103115000Y-157840000D02*
X103115000Y-159300000D01*
X103115000Y-159300000D02*
X100155000Y-159300000D01*
%TO.C,C53*%
X32285000Y-153960000D02*
X35685000Y-153960000D01*
X32285000Y-155920000D02*
X32285000Y-153960000D01*
X35685000Y-153960000D02*
X35685000Y-155920000D01*
X35685000Y-155920000D02*
X32285000Y-155920000D01*
%TO.C,R5*%
X104655000Y-149940000D02*
X107615000Y-149940000D01*
X104655000Y-151400000D02*
X104655000Y-149940000D01*
X107615000Y-149940000D02*
X107615000Y-151400000D01*
X107615000Y-151400000D02*
X104655000Y-151400000D01*
%TO.C,R35*%
X50795000Y-152990000D02*
X53755000Y-152990000D01*
X50795000Y-154450000D02*
X50795000Y-152990000D01*
X53755000Y-152990000D02*
X53755000Y-154450000D01*
X53755000Y-154450000D02*
X50795000Y-154450000D01*
%TO.C,D1*%
X89295000Y-163625000D02*
X90295000Y-163625000D01*
X89295000Y-166625000D02*
X89295000Y-163625000D01*
X90295000Y-163425000D02*
X92395000Y-163425000D01*
X90295000Y-163625000D02*
X90295000Y-163425000D01*
X90295000Y-166625000D02*
X89295000Y-166625000D01*
X90295000Y-166825000D02*
X90295000Y-166625000D01*
X92395000Y-163425000D02*
X92395000Y-163625000D01*
X92395000Y-163625000D02*
X93395000Y-163625000D01*
X92395000Y-166625000D02*
X92395000Y-166825000D01*
X92395000Y-166825000D02*
X90295000Y-166825000D01*
X93395000Y-163625000D02*
X93395000Y-166625000D01*
X93395000Y-166625000D02*
X92395000Y-166625000D01*
%TO.C,R38*%
X54805000Y-147970000D02*
X57765000Y-147970000D01*
X54805000Y-149430000D02*
X54805000Y-147970000D01*
X57765000Y-147970000D02*
X57765000Y-149430000D01*
X57765000Y-149430000D02*
X54805000Y-149430000D01*
%TO.C,SW1*%
X96335000Y-111200000D02*
X96585000Y-111200000D01*
X96335000Y-111450000D02*
X96335000Y-111200000D01*
X96335000Y-118450000D02*
X96335000Y-111450000D01*
X96335000Y-118450000D02*
X96335000Y-118700000D01*
X96335000Y-118700000D02*
X96585000Y-118700000D01*
X96585000Y-111200000D02*
X105585000Y-111200000D01*
X105585000Y-111200000D02*
X105835000Y-111200000D01*
X105585000Y-118700000D02*
X96585000Y-118700000D01*
X105585000Y-118700000D02*
X105835000Y-118700000D01*
X105835000Y-111200000D02*
X105835000Y-111450000D01*
X105835000Y-111450000D02*
X105835000Y-118450000D01*
X105835000Y-118700000D02*
X105835000Y-118450000D01*
%TO.C,R10*%
X93255000Y-129660000D02*
X96215000Y-129660000D01*
X93255000Y-131120000D02*
X93255000Y-129660000D01*
X96215000Y-129660000D02*
X96215000Y-131120000D01*
X96215000Y-131120000D02*
X93255000Y-131120000D01*
%TO.C,R44*%
X58815000Y-145460000D02*
X61775000Y-145460000D01*
X58815000Y-146920000D02*
X58815000Y-145460000D01*
X61775000Y-145460000D02*
X61775000Y-146920000D01*
X61775000Y-146920000D02*
X58815000Y-146920000D01*
%TO.C,C45*%
X38735000Y-160010000D02*
X41695000Y-160010000D01*
X38735000Y-161470000D02*
X38735000Y-160010000D01*
X41695000Y-160010000D02*
X41695000Y-161470000D01*
X41695000Y-161470000D02*
X38735000Y-161470000D01*
%TO.C,R32*%
X101595000Y-167970000D02*
X104555000Y-167970000D01*
X101595000Y-169430000D02*
X101595000Y-167970000D01*
X104555000Y-167970000D02*
X104555000Y-169430000D01*
X104555000Y-169430000D02*
X101595000Y-169430000D01*
%TO.C,C23*%
X23375000Y-161360000D02*
X26335000Y-161360000D01*
X23375000Y-162820000D02*
X23375000Y-161360000D01*
X26335000Y-161360000D02*
X26335000Y-162820000D01*
X26335000Y-162820000D02*
X23375000Y-162820000D01*
%TO.C,IC1*%
X76735000Y-101200000D02*
X78185000Y-101200000D01*
X76735000Y-109500000D02*
X76735000Y-101200000D01*
X78185000Y-100100000D02*
X79285000Y-100100000D01*
X78185000Y-101200000D02*
X78185000Y-100100000D01*
X78185000Y-109500000D02*
X76735000Y-109500000D01*
X78185000Y-110600000D02*
X78185000Y-109500000D01*
X79285000Y-98650000D02*
X87585000Y-98650000D01*
X79285000Y-100100000D02*
X79285000Y-98650000D01*
X79285000Y-110600000D02*
X78185000Y-110600000D01*
X79285000Y-112050000D02*
X79285000Y-110600000D01*
X87585000Y-98650000D02*
X87585000Y-100100000D01*
X87585000Y-100100000D02*
X88685000Y-100100000D01*
X87585000Y-110600000D02*
X87585000Y-112050000D01*
X87585000Y-112050000D02*
X79285000Y-112050000D01*
X88685000Y-100100000D02*
X88685000Y-101200000D01*
X88685000Y-101200000D02*
X90135000Y-101200000D01*
X88685000Y-109500000D02*
X88685000Y-110600000D01*
X88685000Y-110600000D02*
X87585000Y-110600000D01*
X90135000Y-101200000D02*
X90135000Y-109500000D01*
X90135000Y-109500000D02*
X88685000Y-109500000D01*
%TO.C,J1*%
X89195000Y-87340000D02*
X100485000Y-87340000D01*
X89195000Y-96655000D02*
X89195000Y-87340000D01*
X100485000Y-87340000D02*
X100485000Y-96655000D01*
X100485000Y-96655000D02*
X89195000Y-96655000D01*
%TO.C,C14*%
X96335000Y-106180000D02*
X99295000Y-106180000D01*
X96335000Y-107640000D02*
X96335000Y-106180000D01*
X99295000Y-106180000D02*
X99295000Y-107640000D01*
X99295000Y-107640000D02*
X96335000Y-107640000D01*
%TO.C,R41*%
X54805000Y-150480000D02*
X57765000Y-150480000D01*
X54805000Y-151940000D02*
X54805000Y-150480000D01*
X57765000Y-150480000D02*
X57765000Y-151940000D01*
X57765000Y-151940000D02*
X54805000Y-151940000D01*
D11*
%TO.C,D6*%
X97290000Y-134145000D02*
X103470000Y-134145000D01*
X97290000Y-137795000D02*
X97290000Y-134145000D01*
X103470000Y-134145000D02*
X103470000Y-137795000D01*
X103470000Y-137795000D02*
X97290000Y-137795000D01*
D10*
%TO.C,U1*%
X42745000Y-145985000D02*
X47745000Y-145985000D01*
X42745000Y-149485000D02*
X42745000Y-145985000D01*
X47745000Y-145985000D02*
X47745000Y-149485000D01*
X47745000Y-149485000D02*
X42745000Y-149485000D01*
D11*
%TO.C,IC3*%
X88830000Y-154715000D02*
X92630000Y-154715000D01*
X88830000Y-159015000D02*
X88830000Y-154715000D01*
X92630000Y-154715000D02*
X92630000Y-159015000D01*
X92630000Y-159015000D02*
X88830000Y-159015000D01*
D10*
%TO.C,LED1*%
X84795000Y-163250000D02*
X88245000Y-163250000D01*
X84795000Y-165150000D02*
X84795000Y-163250000D01*
X88245000Y-163250000D02*
X88245000Y-165150000D01*
X88245000Y-165150000D02*
X84795000Y-165150000D01*
%TO.C,C50*%
X84795000Y-148700000D02*
X87755000Y-148700000D01*
X84795000Y-150160000D02*
X84795000Y-148700000D01*
X87755000Y-148700000D02*
X87755000Y-150160000D01*
X87755000Y-150160000D02*
X84795000Y-150160000D01*
%TO.C,R25*%
X50795000Y-147970000D02*
X53755000Y-147970000D01*
X50795000Y-149430000D02*
X50795000Y-147970000D01*
X53755000Y-147970000D02*
X53755000Y-149430000D01*
X53755000Y-149430000D02*
X50795000Y-149430000D01*
%TO.C,C16*%
X101535000Y-87340000D02*
X106135000Y-87340000D01*
X101535000Y-90540000D02*
X101535000Y-87340000D01*
X106135000Y-87340000D02*
X106135000Y-90540000D01*
X106135000Y-90540000D02*
X101535000Y-90540000D01*
%TO.C,R24*%
X50795000Y-145460000D02*
X53755000Y-145460000D01*
X50795000Y-146920000D02*
X50795000Y-145460000D01*
X53755000Y-145460000D02*
X53755000Y-146920000D01*
X53755000Y-146920000D02*
X50795000Y-146920000D01*
%TO.C,D7*%
X96445000Y-168345000D02*
X97445000Y-168345000D01*
X96445000Y-171345000D02*
X96445000Y-168345000D01*
X97445000Y-168145000D02*
X99545000Y-168145000D01*
X97445000Y-168345000D02*
X97445000Y-168145000D01*
X97445000Y-171345000D02*
X96445000Y-171345000D01*
X97445000Y-171545000D02*
X97445000Y-171345000D01*
X99545000Y-168145000D02*
X99545000Y-168345000D01*
X99545000Y-168345000D02*
X100545000Y-168345000D01*
X99545000Y-171345000D02*
X99545000Y-171545000D01*
X99545000Y-171545000D02*
X97445000Y-171545000D01*
X100545000Y-168345000D02*
X100545000Y-171345000D01*
X100545000Y-171345000D02*
X99545000Y-171345000D01*
%TO.C,R17*%
X23375000Y-171400000D02*
X26335000Y-171400000D01*
X23375000Y-172860000D02*
X23375000Y-171400000D01*
X26335000Y-171400000D02*
X26335000Y-172860000D01*
X26335000Y-172860000D02*
X23375000Y-172860000D01*
%TO.C,C43*%
X38735000Y-145460000D02*
X41695000Y-145460000D01*
X38735000Y-146920000D02*
X38735000Y-145460000D01*
X41695000Y-145460000D02*
X41695000Y-146920000D01*
X41695000Y-146920000D02*
X38735000Y-146920000D01*
%TO.C,C54*%
X93705000Y-154690000D02*
X97105000Y-154690000D01*
X93705000Y-156650000D02*
X93705000Y-154690000D01*
X97105000Y-154690000D02*
X97105000Y-156650000D01*
X97105000Y-156650000D02*
X93705000Y-156650000D01*
%TO.C,C47*%
X64495000Y-107420000D02*
X69095000Y-107420000D01*
X64495000Y-110620000D02*
X64495000Y-107420000D01*
X69095000Y-107420000D02*
X69095000Y-110620000D01*
X69095000Y-110620000D02*
X64495000Y-110620000D01*
%TO.C,U3*%
X100155000Y-146190000D02*
X103655000Y-146190000D01*
X100155000Y-148890000D02*
X100155000Y-146190000D01*
X103655000Y-146190000D02*
X103655000Y-148890000D01*
X103655000Y-148890000D02*
X100155000Y-148890000D01*
%TO.C,R21*%
X50795000Y-167540000D02*
X53755000Y-167540000D01*
X50795000Y-169000000D02*
X50795000Y-167540000D01*
X53755000Y-167540000D02*
X53755000Y-169000000D01*
X53755000Y-169000000D02*
X50795000Y-169000000D01*
%TO.C,C9*%
X86385000Y-115070000D02*
X88205000Y-115070000D01*
X86385000Y-115990000D02*
X86385000Y-115070000D01*
X88205000Y-115070000D02*
X88205000Y-115990000D01*
X88205000Y-115990000D02*
X86385000Y-115990000D01*
%TO.C,C17*%
X96335000Y-108690000D02*
X99295000Y-108690000D01*
X96335000Y-110150000D02*
X96335000Y-108690000D01*
X99295000Y-108690000D02*
X99295000Y-110150000D01*
X99295000Y-110150000D02*
X96335000Y-110150000D01*
%TO.C,C24*%
X23375000Y-163870000D02*
X26335000Y-163870000D01*
X23375000Y-165330000D02*
X23375000Y-163870000D01*
X26335000Y-163870000D02*
X26335000Y-165330000D01*
X26335000Y-165330000D02*
X23375000Y-165330000D01*
%TO.C,C1*%
X64495000Y-87340000D02*
X67455000Y-87340000D01*
X64495000Y-88800000D02*
X64495000Y-87340000D01*
X67455000Y-87340000D02*
X67455000Y-88800000D01*
X67455000Y-88800000D02*
X64495000Y-88800000D01*
%TO.C,C36*%
X27385000Y-149710000D02*
X31985000Y-149710000D01*
X27385000Y-152910000D02*
X27385000Y-149710000D01*
X31985000Y-149710000D02*
X31985000Y-152910000D01*
X31985000Y-152910000D02*
X27385000Y-152910000D01*
%TO.C,LED9*%
X62825000Y-145460000D02*
X66275000Y-145460000D01*
X62825000Y-147360000D02*
X62825000Y-145460000D01*
X66275000Y-145460000D02*
X66275000Y-147360000D01*
X66275000Y-147360000D02*
X62825000Y-147360000D01*
%TO.C,C7*%
X64495000Y-102400000D02*
X67455000Y-102400000D01*
X64495000Y-103860000D02*
X64495000Y-102400000D01*
X67455000Y-102400000D02*
X67455000Y-103860000D01*
X67455000Y-103860000D02*
X64495000Y-103860000D01*
%TO.C,R22*%
X23375000Y-155500000D02*
X26335000Y-155500000D01*
X23375000Y-156960000D02*
X23375000Y-155500000D01*
X26335000Y-155500000D02*
X26335000Y-156960000D01*
X26335000Y-156960000D02*
X23375000Y-156960000D01*
%TO.C,D4*%
X91185000Y-108275000D02*
X92185000Y-108275000D01*
X91185000Y-111275000D02*
X91185000Y-108275000D01*
X92185000Y-108075000D02*
X94285000Y-108075000D01*
X92185000Y-108275000D02*
X92185000Y-108075000D01*
X92185000Y-111275000D02*
X91185000Y-111275000D01*
X92185000Y-111475000D02*
X92185000Y-111275000D01*
X94285000Y-108075000D02*
X94285000Y-108275000D01*
X94285000Y-108275000D02*
X95285000Y-108275000D01*
X94285000Y-111275000D02*
X94285000Y-111475000D01*
X94285000Y-111475000D02*
X92185000Y-111475000D01*
X95285000Y-108275000D02*
X95285000Y-111275000D01*
X95285000Y-111275000D02*
X94285000Y-111275000D01*
D11*
%TO.C,LS1*%
X72170000Y-124665000D02*
X86170000Y-124665000D01*
X72170000Y-138665000D02*
X72170000Y-124665000D01*
X86170000Y-124665000D02*
X86170000Y-138665000D01*
X86170000Y-138665000D02*
X72170000Y-138665000D01*
D10*
%TO.C,C46*%
X38735000Y-162520000D02*
X41695000Y-162520000D01*
X38735000Y-163980000D02*
X38735000Y-162520000D01*
X41695000Y-162520000D02*
X41695000Y-163980000D01*
X41695000Y-163980000D02*
X38735000Y-163980000D01*
%TO.C,Q1*%
X102035000Y-91590000D02*
X105885000Y-91590000D01*
X102035000Y-94990000D02*
X102035000Y-91590000D01*
X105885000Y-94990000D02*
X102035000Y-94990000D01*
X105885000Y-94990000D02*
X105885000Y-91590000D01*
%TO.C,D3*%
X91185000Y-103650000D02*
X92185000Y-103650000D01*
X91185000Y-106650000D02*
X91185000Y-103650000D01*
X92185000Y-103450000D02*
X94285000Y-103450000D01*
X92185000Y-103650000D02*
X92185000Y-103450000D01*
X92185000Y-106650000D02*
X91185000Y-106650000D01*
X92185000Y-106850000D02*
X92185000Y-106650000D01*
X94285000Y-103450000D02*
X94285000Y-103650000D01*
X94285000Y-103650000D02*
X95285000Y-103650000D01*
X94285000Y-106650000D02*
X94285000Y-106850000D01*
X94285000Y-106850000D02*
X92185000Y-106850000D01*
X95285000Y-103650000D02*
X95285000Y-106650000D01*
X95285000Y-106650000D02*
X94285000Y-106650000D01*
%TO.C,LED8*%
X100155000Y-149940000D02*
X103605000Y-149940000D01*
X100155000Y-151840000D02*
X100155000Y-149940000D01*
X103605000Y-149940000D02*
X103605000Y-151840000D01*
X103605000Y-151840000D02*
X100155000Y-151840000D01*
%TO.C,R50*%
X38735000Y-150480000D02*
X41695000Y-150480000D01*
X38735000Y-151940000D02*
X38735000Y-150480000D01*
X41695000Y-150480000D02*
X41695000Y-151940000D01*
X41695000Y-151940000D02*
X38735000Y-151940000D01*
%TO.C,C25*%
X23375000Y-166380000D02*
X26335000Y-166380000D01*
X23375000Y-167840000D02*
X23375000Y-166380000D01*
X26335000Y-166380000D02*
X26335000Y-167840000D01*
X26335000Y-167840000D02*
X23375000Y-167840000D01*
%TO.C,R11*%
X93255000Y-132170000D02*
X96215000Y-132170000D01*
X93255000Y-133630000D02*
X93255000Y-132170000D01*
X96215000Y-132170000D02*
X96215000Y-133630000D01*
X96215000Y-133630000D02*
X93255000Y-133630000D01*
%TO.C,R13*%
X50795000Y-160010000D02*
X53755000Y-160010000D01*
X50795000Y-161470000D02*
X50795000Y-160010000D01*
X53755000Y-160010000D02*
X53755000Y-161470000D01*
X53755000Y-161470000D02*
X50795000Y-161470000D01*
%TO.C,TP10*%
X77195000Y-147190000D02*
G75*
G02*
X75195000Y-147190000I-1000000J0D01*
G01*
X75195000Y-147190000D02*
G75*
G02*
X77195000Y-147190000I1000000J0D01*
G01*
%TO.C,R43*%
X54805000Y-155500000D02*
X57765000Y-155500000D01*
X54805000Y-156960000D02*
X54805000Y-155500000D01*
X57765000Y-155500000D02*
X57765000Y-156960000D01*
X57765000Y-156960000D02*
X54805000Y-156960000D01*
%TO.C,C48*%
X88805000Y-146190000D02*
X93405000Y-146190000D01*
X88805000Y-149390000D02*
X88805000Y-146190000D01*
X93405000Y-146190000D02*
X93405000Y-149390000D01*
X93405000Y-149390000D02*
X88805000Y-149390000D01*
%TO.C,C19*%
X100345000Y-101160000D02*
X103305000Y-101160000D01*
X100345000Y-102620000D02*
X100345000Y-101160000D01*
X103305000Y-101160000D02*
X103305000Y-102620000D01*
X103305000Y-102620000D02*
X100345000Y-102620000D01*
%TO.C,IC2*%
X96445000Y-163325000D02*
X100695000Y-163325000D01*
X96445000Y-166925000D02*
X96445000Y-163325000D01*
X100695000Y-163325000D02*
X100695000Y-166925000D01*
X100695000Y-166925000D02*
X96445000Y-166925000D01*
%TO.C,J7*%
X137100000Y-119000000D02*
X137100000Y-165490000D01*
X137100000Y-165490000D02*
X153880000Y-165490000D01*
X153880000Y-119000000D02*
X137100000Y-119000000D01*
X153880000Y-165490000D02*
X153880000Y-119000000D01*
%TO.C,R53*%
X38735000Y-155500000D02*
X41695000Y-155500000D01*
X38735000Y-156960000D02*
X38735000Y-155500000D01*
X41695000Y-155500000D02*
X41695000Y-156960000D01*
X41695000Y-156960000D02*
X38735000Y-156960000D01*
%TO.C,R37*%
X54805000Y-145460000D02*
X57765000Y-145460000D01*
X54805000Y-146920000D02*
X54805000Y-145460000D01*
X57765000Y-145460000D02*
X57765000Y-146920000D01*
X57765000Y-146920000D02*
X54805000Y-146920000D01*
%TO.C,C3*%
X64495000Y-92360000D02*
X67455000Y-92360000D01*
X64495000Y-93820000D02*
X64495000Y-92360000D01*
X67455000Y-92360000D02*
X67455000Y-93820000D01*
X67455000Y-93820000D02*
X64495000Y-93820000D01*
%TO.C,LED6*%
X61305000Y-167010000D02*
X64755000Y-167010000D01*
X61305000Y-168910000D02*
X61305000Y-167010000D01*
X64755000Y-167010000D02*
X64755000Y-168910000D01*
X64755000Y-168910000D02*
X61305000Y-168910000D01*
%TO.C,TP13*%
X77195000Y-156340000D02*
G75*
G02*
X75195000Y-156340000I-1000000J0D01*
G01*
X75195000Y-156340000D02*
G75*
G02*
X77195000Y-156340000I1000000J0D01*
G01*
%TO.C,C10*%
X86385000Y-117040000D02*
X88205000Y-117040000D01*
X86385000Y-117960000D02*
X86385000Y-117040000D01*
X88205000Y-117040000D02*
X88205000Y-117960000D01*
X88205000Y-117960000D02*
X86385000Y-117960000D01*
%TO.C,TP9*%
X74145000Y-159390000D02*
G75*
G02*
X72145000Y-159390000I-1000000J0D01*
G01*
X72145000Y-159390000D02*
G75*
G02*
X74145000Y-159390000I1000000J0D01*
G01*
%TO.C,TP1*%
X74145000Y-147190000D02*
G75*
G02*
X72145000Y-147190000I-1000000J0D01*
G01*
X72145000Y-147190000D02*
G75*
G02*
X74145000Y-147190000I1000000J0D01*
G01*
%TO.C,R40*%
X87245000Y-129660000D02*
X89105000Y-129660000D01*
X87245000Y-130600000D02*
X87245000Y-129660000D01*
X89105000Y-129660000D02*
X89105000Y-130600000D01*
X89105000Y-130600000D02*
X87245000Y-130600000D01*
D11*
%TO.C,Y1*%
X76760000Y-113125000D02*
X85310000Y-113125000D01*
X76760000Y-117325000D02*
X76760000Y-113125000D01*
X85310000Y-113125000D02*
X85310000Y-117325000D01*
X85310000Y-117325000D02*
X76760000Y-117325000D01*
D10*
%TO.C,R20*%
X50795000Y-165030000D02*
X53755000Y-165030000D01*
X50795000Y-166490000D02*
X50795000Y-165030000D01*
X53755000Y-165030000D02*
X53755000Y-166490000D01*
X53755000Y-166490000D02*
X50795000Y-166490000D01*
%TO.C,R19*%
X50795000Y-162520000D02*
X53755000Y-162520000D01*
X50795000Y-163980000D02*
X50795000Y-162520000D01*
X53755000Y-162520000D02*
X53755000Y-163980000D01*
X53755000Y-163980000D02*
X50795000Y-163980000D01*
D11*
%TO.C,J2*%
X82440000Y-121565000D02*
X76760000Y-121565000D01*
X76760000Y-118425000D01*
X82440000Y-118425000D01*
X82440000Y-121565000D01*
G36*
X82440000Y-121565000D02*
G01*
X76760000Y-121565000D01*
X76760000Y-118425000D01*
X82440000Y-118425000D01*
X82440000Y-121565000D01*
G37*
D10*
%TO.C,R12*%
X93255000Y-134680000D02*
X96215000Y-134680000D01*
X93255000Y-136140000D02*
X93255000Y-134680000D01*
X96215000Y-134680000D02*
X96215000Y-136140000D01*
X96215000Y-136140000D02*
X93255000Y-136140000D01*
%TO.C,C26*%
X23375000Y-168890000D02*
X26335000Y-168890000D01*
X23375000Y-170350000D02*
X23375000Y-168890000D01*
X26335000Y-168890000D02*
X26335000Y-170350000D01*
X26335000Y-170350000D02*
X23375000Y-170350000D01*
%TO.C,C6*%
X64495000Y-99890000D02*
X67455000Y-99890000D01*
X64495000Y-101350000D02*
X64495000Y-99890000D01*
X67455000Y-99890000D02*
X67455000Y-101350000D01*
X67455000Y-101350000D02*
X64495000Y-101350000D01*
%TO.C,C49*%
X88805000Y-150440000D02*
X93405000Y-150440000D01*
X88805000Y-153640000D02*
X88805000Y-150440000D01*
X93405000Y-150440000D02*
X93405000Y-153640000D01*
X93405000Y-153640000D02*
X88805000Y-153640000D01*
%TO.C,R8*%
X65805000Y-166570000D02*
X68765000Y-166570000D01*
X65805000Y-168030000D02*
X65805000Y-166570000D01*
X68765000Y-166570000D02*
X68765000Y-168030000D01*
X68765000Y-168030000D02*
X65805000Y-168030000D01*
%TO.C,R2*%
X78695000Y-165950000D02*
X81655000Y-165950000D01*
X78695000Y-167410000D02*
X78695000Y-165950000D01*
X81655000Y-165950000D02*
X81655000Y-167410000D01*
X81655000Y-167410000D02*
X78695000Y-167410000D01*
%TO.C,R52*%
X38735000Y-170050000D02*
X41695000Y-170050000D01*
X38735000Y-171510000D02*
X38735000Y-170050000D01*
X41695000Y-170050000D02*
X41695000Y-171510000D01*
X41695000Y-171510000D02*
X38735000Y-171510000D01*
%TO.C,TP14*%
X77195000Y-159390000D02*
G75*
G02*
X75195000Y-159390000I-1000000J0D01*
G01*
X75195000Y-159390000D02*
G75*
G02*
X77195000Y-159390000I1000000J0D01*
G01*
%TO.C,C42*%
X64495000Y-104910000D02*
X67455000Y-104910000D01*
X64495000Y-106370000D02*
X64495000Y-104910000D01*
X67455000Y-104910000D02*
X67455000Y-106370000D01*
X67455000Y-106370000D02*
X64495000Y-106370000D01*
%TO.C,R18*%
X89295000Y-170380000D02*
X92255000Y-170380000D01*
X89295000Y-171840000D02*
X89295000Y-170380000D01*
X92255000Y-170380000D02*
X92255000Y-171840000D01*
X92255000Y-171840000D02*
X89295000Y-171840000D01*
%TO.C,R16*%
X89295000Y-167870000D02*
X92255000Y-167870000D01*
X89295000Y-169330000D02*
X89295000Y-167870000D01*
X92255000Y-167870000D02*
X92255000Y-169330000D01*
X92255000Y-169330000D02*
X89295000Y-169330000D01*
%TO.C,C44*%
X38735000Y-147970000D02*
X41695000Y-147970000D01*
X38735000Y-149430000D02*
X38735000Y-147970000D01*
X41695000Y-147970000D02*
X41695000Y-149430000D01*
X41695000Y-149430000D02*
X38735000Y-149430000D01*
%TO.C,R39*%
X87245000Y-127150000D02*
X90205000Y-127150000D01*
X87245000Y-128610000D02*
X87245000Y-127150000D01*
X90205000Y-127150000D02*
X90205000Y-128610000D01*
X90205000Y-128610000D02*
X87245000Y-128610000D01*
%TO.C,C41*%
X23375000Y-152990000D02*
X26335000Y-152990000D01*
X23375000Y-154450000D02*
X23375000Y-152990000D01*
X26335000Y-152990000D02*
X26335000Y-154450000D01*
X26335000Y-154450000D02*
X23375000Y-154450000D01*
%TO.C,J5*%
X72145000Y-87340000D02*
X72145000Y-97340000D01*
X72145000Y-97340000D02*
X88145000Y-97340000D01*
X88145000Y-87340000D02*
X72145000Y-87340000D01*
X88145000Y-97340000D02*
X88145000Y-87340000D01*
%TO.C,J4*%
X72145000Y-98650000D02*
X72145000Y-112350000D01*
X72145000Y-112350000D02*
X75685000Y-112350000D01*
X75685000Y-98650000D02*
X72145000Y-98650000D01*
X75685000Y-112350000D02*
X75685000Y-98650000D01*
%TO.C,C15*%
X86385000Y-119010000D02*
X88205000Y-119010000D01*
X86385000Y-119930000D02*
X86385000Y-119010000D01*
X88205000Y-119010000D02*
X88205000Y-119930000D01*
X88205000Y-119930000D02*
X86385000Y-119930000D01*
D11*
%TO.C,IC5*%
X27410000Y-153985000D02*
X31210000Y-153985000D01*
X27410000Y-158285000D02*
X27410000Y-153985000D01*
X31210000Y-153985000D02*
X31210000Y-158285000D01*
X31210000Y-158285000D02*
X27410000Y-158285000D01*
D10*
%TO.C,R1*%
X78695000Y-163440000D02*
X81655000Y-163440000D01*
X78695000Y-164900000D02*
X78695000Y-163440000D01*
X81655000Y-163440000D02*
X81655000Y-164900000D01*
X81655000Y-164900000D02*
X78695000Y-164900000D01*
%TO.C,R49*%
X38735000Y-167540000D02*
X41695000Y-167540000D01*
X38735000Y-169000000D02*
X38735000Y-167540000D01*
X41695000Y-167540000D02*
X41695000Y-169000000D01*
X41695000Y-169000000D02*
X38735000Y-169000000D01*
%TO.C,C8*%
X86385000Y-113100000D02*
X88205000Y-113100000D01*
X86385000Y-114020000D02*
X86385000Y-113100000D01*
X88205000Y-113100000D02*
X88205000Y-114020000D01*
X88205000Y-114020000D02*
X86385000Y-114020000D01*
D11*
%TO.C,IC6*%
X27410000Y-169885000D02*
X31210000Y-169885000D01*
X27410000Y-174185000D02*
X27410000Y-169885000D01*
X31210000Y-169885000D02*
X31210000Y-174185000D01*
X31210000Y-174185000D02*
X27410000Y-174185000D01*
D10*
%TO.C,R51*%
X38735000Y-152990000D02*
X41695000Y-152990000D01*
X38735000Y-154450000D02*
X38735000Y-152990000D01*
X41695000Y-152990000D02*
X41695000Y-154450000D01*
X41695000Y-154450000D02*
X38735000Y-154450000D01*
%TO.C,TP5*%
X74145000Y-153290000D02*
G75*
G02*
X72145000Y-153290000I-1000000J0D01*
G01*
X72145000Y-153290000D02*
G75*
G02*
X74145000Y-153290000I1000000J0D01*
G01*
%TO.C,R3*%
X100345000Y-106180000D02*
X103305000Y-106180000D01*
X100345000Y-107640000D02*
X100345000Y-106180000D01*
X103305000Y-106180000D02*
X103305000Y-107640000D01*
X103305000Y-107640000D02*
X100345000Y-107640000D01*
%TO.C,TP6*%
X75645000Y-165190000D02*
G75*
G02*
X72145000Y-165190000I-1750000J0D01*
G01*
X72145000Y-165190000D02*
G75*
G02*
X75645000Y-165190000I1750000J0D01*
G01*
%TO.C,D9*%
X72145000Y-139740000D02*
X77245000Y-139740000D01*
X72145000Y-143090000D02*
X72145000Y-139740000D01*
X77245000Y-139740000D02*
X77245000Y-143090000D01*
X77245000Y-143090000D02*
X72145000Y-143090000D01*
%TO.C,C11*%
X96335000Y-98650000D02*
X99295000Y-98650000D01*
X96335000Y-100110000D02*
X96335000Y-98650000D01*
X99295000Y-98650000D02*
X99295000Y-100110000D01*
X99295000Y-100110000D02*
X96335000Y-100110000D01*
%TO.C,R42*%
X54805000Y-152990000D02*
X57765000Y-152990000D01*
X54805000Y-154450000D02*
X54805000Y-152990000D01*
X57765000Y-152990000D02*
X57765000Y-154450000D01*
X57765000Y-154450000D02*
X54805000Y-154450000D01*
%TO.C,LED2*%
X84795000Y-166200000D02*
X88245000Y-166200000D01*
X84795000Y-168100000D02*
X84795000Y-166200000D01*
X88245000Y-166200000D02*
X88245000Y-168100000D01*
X88245000Y-168100000D02*
X84795000Y-168100000D01*
%TO.C,TP12*%
X77195000Y-153290000D02*
G75*
G02*
X75195000Y-153290000I-1000000J0D01*
G01*
X75195000Y-153290000D02*
G75*
G02*
X77195000Y-153290000I1000000J0D01*
G01*
D12*
%TO.C,Module1*%
X24560000Y-105975000D02*
X28340000Y-105975000D01*
X24560000Y-128775000D02*
X24560000Y-105975000D01*
X28340000Y-105975000D02*
X28340000Y-128775000D01*
X28340000Y-128775000D02*
X24560000Y-128775000D01*
X58480000Y-105975000D02*
X62260000Y-105975000D01*
X58480000Y-128775000D02*
X58480000Y-105975000D01*
X62260000Y-105975000D02*
X62260000Y-128775000D01*
X62260000Y-128775000D02*
X58480000Y-128775000D01*
D10*
%TO.C,LED10*%
X62825000Y-148410000D02*
X66275000Y-148410000D01*
X62825000Y-150310000D02*
X62825000Y-148410000D01*
X66275000Y-148410000D02*
X66275000Y-150310000D01*
X66275000Y-150310000D02*
X62825000Y-150310000D01*
%TO.C,C5*%
X64495000Y-97380000D02*
X67455000Y-97380000D01*
X64495000Y-98840000D02*
X64495000Y-97380000D01*
X67455000Y-97380000D02*
X67455000Y-98840000D01*
X67455000Y-98840000D02*
X64495000Y-98840000D01*
%TO.C,R14*%
X84795000Y-156230000D02*
X87755000Y-156230000D01*
X84795000Y-157690000D02*
X84795000Y-156230000D01*
X87755000Y-156230000D02*
X87755000Y-157690000D01*
X87755000Y-157690000D02*
X84795000Y-157690000D01*
%TO.C,TP4*%
X74145000Y-150240000D02*
G75*
G02*
X72145000Y-150240000I-1000000J0D01*
G01*
X72145000Y-150240000D02*
G75*
G02*
X74145000Y-150240000I1000000J0D01*
G01*
%TO.C,R47*%
X58815000Y-152990000D02*
X61775000Y-152990000D01*
X58815000Y-154450000D02*
X58815000Y-152990000D01*
X61775000Y-152990000D02*
X61775000Y-154450000D01*
X61775000Y-154450000D02*
X58815000Y-154450000D01*
%TO.C,C13*%
X96335000Y-103670000D02*
X99295000Y-103670000D01*
X96335000Y-105130000D02*
X96335000Y-103670000D01*
X99295000Y-103670000D02*
X99295000Y-105130000D01*
X99295000Y-105130000D02*
X96335000Y-105130000D01*
%TO.C,LED5*%
X61305000Y-164060000D02*
X64755000Y-164060000D01*
X61305000Y-165960000D02*
X61305000Y-164060000D01*
X64755000Y-164060000D02*
X64755000Y-165960000D01*
X64755000Y-165960000D02*
X61305000Y-165960000D01*
%TO.C,R36*%
X50795000Y-155500000D02*
X53755000Y-155500000D01*
X50795000Y-156960000D02*
X50795000Y-155500000D01*
X53755000Y-155500000D02*
X53755000Y-156960000D01*
X53755000Y-156960000D02*
X50795000Y-156960000D01*
%TO.C,C18*%
X100345000Y-98650000D02*
X103305000Y-98650000D01*
X100345000Y-100110000D02*
X100345000Y-98650000D01*
X103305000Y-98650000D02*
X103305000Y-100110000D01*
X103305000Y-100110000D02*
X100345000Y-100110000D01*
%TO.C,Q2*%
X64995000Y-111670000D02*
X68845000Y-111670000D01*
X64995000Y-115070000D02*
X64995000Y-111670000D01*
X68845000Y-115070000D02*
X64995000Y-115070000D01*
X68845000Y-115070000D02*
X68845000Y-111670000D01*
%TO.C,C22*%
X27385000Y-165610000D02*
X31985000Y-165610000D01*
X27385000Y-168810000D02*
X27385000Y-165610000D01*
X31985000Y-165610000D02*
X31985000Y-168810000D01*
X31985000Y-168810000D02*
X27385000Y-168810000D01*
%TO.C,C35*%
X27385000Y-145460000D02*
X31985000Y-145460000D01*
X27385000Y-148660000D02*
X27385000Y-145460000D01*
X31985000Y-145460000D02*
X31985000Y-148660000D01*
X31985000Y-148660000D02*
X27385000Y-148660000D01*
%TO.C,C51*%
X84795000Y-151210000D02*
X87755000Y-151210000D01*
X84795000Y-152670000D02*
X84795000Y-151210000D01*
X87755000Y-151210000D02*
X87755000Y-152670000D01*
X87755000Y-152670000D02*
X84795000Y-152670000D01*
%TO.C,C40*%
X23375000Y-150480000D02*
X26335000Y-150480000D01*
X23375000Y-151940000D02*
X23375000Y-150480000D01*
X26335000Y-150480000D02*
X26335000Y-151940000D01*
X26335000Y-151940000D02*
X23375000Y-151940000D01*
%TO.C,TPD4EUSB30DQAR2*%
X64945000Y-160010000D02*
X66845000Y-160010000D01*
X64945000Y-163010000D02*
X64945000Y-160010000D01*
X66845000Y-160010000D02*
X66845000Y-163010000D01*
X66845000Y-163010000D02*
X64945000Y-163010000D01*
%TO.C,TPD4EUSB30DQAR3*%
X104890000Y-134120000D02*
X106790000Y-134120000D01*
X104890000Y-137120000D02*
X104890000Y-134120000D01*
X106790000Y-134120000D02*
X106790000Y-137120000D01*
X106790000Y-137120000D02*
X104890000Y-137120000D01*
%TO.C,C27*%
X32285000Y-169860000D02*
X35685000Y-169860000D01*
X32285000Y-171820000D02*
X32285000Y-169860000D01*
X35685000Y-169860000D02*
X35685000Y-171820000D01*
X35685000Y-171820000D02*
X32285000Y-171820000D01*
%TO.C,TP3*%
X81745000Y-152490000D02*
G75*
G02*
X78245000Y-152490000I-1750000J0D01*
G01*
X78245000Y-152490000D02*
G75*
G02*
X81745000Y-152490000I1750000J0D01*
G01*
%TD*%
M02*
