%TF.GenerationSoftware,KiCad,Pcbnew,9.0.1+1*%
%TF.CreationDate,2025-11-25T15:18:51+00:00*%
%TF.ProjectId,nautilus_mainboard,6e617574-696c-4757-935f-6d61696e626f,rev?*%
%TF.SameCoordinates,Original*%
%TF.FileFunction,Copper,L3,Inr*%
%TF.FilePolarity,Positive*%
%FSLAX46Y46*%
G04 Gerber Fmt 4.6, Leading zero omitted, Abs format (unit mm)*
G04 Created by KiCad (PCBNEW 9.0.1+1) date 2025-11-25 15:18:51*
%MOMM*%
%LPD*%
G01*
G04 APERTURE LIST*
G04 Aperture macros list*
%AMRoundRect*
0 Rectangle with rounded corners*
0 $1 Rounding radius*
0 $2 $3 $4 $5 $6 $7 $8 $9 X,Y pos of 4 corners*
0 Add a 4 corners polygon primitive as box body*
4,1,4,$2,$3,$4,$5,$6,$7,$8,$9,$2,$3,0*
0 Add four circle primitives for the rounded corners*
1,1,$1+$1,$2,$3*
1,1,$1+$1,$4,$5*
1,1,$1+$1,$6,$7*
1,1,$1+$1,$8,$9*
0 Add four rect primitives between the rounded corners*
20,1,$1+$1,$2,$3,$4,$5,0*
20,1,$1+$1,$4,$5,$6,$7,0*
20,1,$1+$1,$6,$7,$8,$9,0*
20,1,$1+$1,$8,$9,$2,$3,0*%
G04 Aperture macros list end*
%TA.AperFunction,ComponentPad*%
%ADD10O,1.700000X0.900000*%
%TD*%
%TA.AperFunction,ComponentPad*%
%ADD11O,2.000000X0.900000*%
%TD*%
%TA.AperFunction,ComponentPad*%
%ADD12C,2.000000*%
%TD*%
%TA.AperFunction,ComponentPad*%
%ADD13C,5.300000*%
%TD*%
%TA.AperFunction,ComponentPad*%
%ADD14R,2.500000X2.500000*%
%TD*%
%TA.AperFunction,ComponentPad*%
%ADD15C,2.500000*%
%TD*%
%TA.AperFunction,ComponentPad*%
%ADD16C,1.650000*%
%TD*%
%TA.AperFunction,ComponentPad*%
%ADD17RoundRect,0.250000X-1.050000X-1.050000X1.050000X-1.050000X1.050000X1.050000X-1.050000X1.050000X0*%
%TD*%
%TA.AperFunction,ComponentPad*%
%ADD18C,2.600000*%
%TD*%
%TA.AperFunction,ComponentPad*%
%ADD19R,1.700000X1.700000*%
%TD*%
%TA.AperFunction,ComponentPad*%
%ADD20C,1.700000*%
%TD*%
%TA.AperFunction,ComponentPad*%
%ADD21R,1.268000X1.268000*%
%TD*%
%TA.AperFunction,ComponentPad*%
%ADD22C,1.268000*%
%TD*%
%TA.AperFunction,ComponentPad*%
%ADD23C,1.530000*%
%TD*%
%TA.AperFunction,ViaPad*%
%ADD24C,0.600000*%
%TD*%
%TA.AperFunction,ViaPad*%
%ADD25C,0.500000*%
%TD*%
G04 APERTURE END LIST*
D10*
%TO.N,Net-(C20-Pad2)*%
%TO.C,J3*%
X260700000Y-164650000D03*
X260700000Y-156000000D03*
D11*
X256520000Y-164650000D03*
X256520000Y-156000000D03*
%TD*%
D12*
%TO.N,/STM/PinoutSTM/nRST*%
%TO.C,SW1*%
X164050000Y-163800000D03*
X170550000Y-163800000D03*
%TO.N,GND*%
X164050000Y-168300000D03*
X170550000Y-168300000D03*
%TD*%
D13*
%TO.N,N/C*%
%TO.C,J6*%
X227500000Y-117475000D03*
%TD*%
D14*
%TO.N,Net-(LS1-+)*%
%TO.C,LS1*%
X201500000Y-151200000D03*
D15*
%TO.N,Net-(LS1--)*%
X206500000Y-151200000D03*
%TD*%
D16*
%TO.N,Net-(EXTERNALFAN5V1-Pad2)*%
%TO.C,J2*%
X78330000Y-119995000D03*
%TO.N,GND*%
X80870000Y-119995000D03*
%TD*%
D17*
%TO.N,+5V*%
%TO.C,J5*%
X75145000Y-91840000D03*
D18*
%TO.N,Net-(J5-Pin_2)*%
X80145000Y-91840000D03*
%TO.N,+5V*%
X85145000Y-91840000D03*
%TD*%
D19*
%TO.N,/Power_logic/STM_Plug_3.3V*%
%TO.C,J4*%
X175140000Y-168100000D03*
D20*
%TO.N,/STM/PinoutSTM/USART1_RX*%
X177680000Y-168100000D03*
%TO.N,/STM/PinoutSTM/USART1_TX*%
X180219999Y-168100000D03*
%TO.N,/STM/PinoutSTM/STM_BOOT0*%
X182760000Y-168100000D03*
%TO.N,GND*%
X185300000Y-168100000D03*
%TD*%
D21*
%TO.N,/CM4/Battery_Out_3.3V*%
%TO.C,J7*%
X148740000Y-158170000D03*
D22*
X150010000Y-156900000D03*
%TO.N,unconnected-(J7-Pad03)*%
X148740000Y-155630000D03*
%TO.N,unconnected-(J7-Pad04)*%
X150010000Y-154360000D03*
%TO.N,/LPHS-connector/STM.TX*%
X148740000Y-153090000D03*
%TO.N,/LPHS-connector/STM.RX*%
X150010000Y-151820000D03*
%TO.N,/LPHS-connector/ST_CAN.P*%
X148740000Y-150550000D03*
%TO.N,/LPHS-connector/ST_CAN.N*%
X150010000Y-149280000D03*
%TO.N,/CM4/TRD0.D-*%
X151280000Y-158170000D03*
%TO.N,/CM4/TRD0.D+*%
X152550000Y-156900000D03*
%TO.N,/CM4/TRD1.D-*%
X151280000Y-155630000D03*
%TO.N,/CM4/TRD1.D+*%
X152550000Y-154360000D03*
%TO.N,/CM4/TRD2.D-*%
X151280000Y-153090000D03*
%TO.N,/CM4/TRD2.D+*%
X152550000Y-151820000D03*
%TO.N,/CM4/TRD3.D-*%
X151280000Y-150550000D03*
%TO.N,/CM4/TRD3.D+*%
X152550000Y-149280000D03*
D23*
%TO.N,/LPHS-connector/Battery_Out_5V*%
X150050000Y-146000000D03*
X150050000Y-143500000D03*
X150050000Y-141000000D03*
X150050000Y-138500000D03*
X150050000Y-136000000D03*
%TO.N,unconnected-(J7-P02-PadP02_1)*%
X152550000Y-146000000D03*
%TO.N,unconnected-(J7-P02__1-PadP02_2)*%
X152550000Y-143500000D03*
%TO.N,unconnected-(J7-P02__2-PadP02_3)*%
X152550000Y-141000000D03*
%TO.N,unconnected-(J7-P02__3-PadP02_4)*%
X152550000Y-138500000D03*
%TO.N,unconnected-(J7-P02__4-PadP02_5)*%
X152550000Y-136000000D03*
%TO.N,unconnected-(J7-P03-PadP03_1)*%
X150050000Y-134000000D03*
%TO.N,unconnected-(J7-P03__1-PadP03_2)*%
X150050000Y-131500000D03*
%TO.N,unconnected-(J7-P03__2-PadP03_3)*%
X150050000Y-129000000D03*
%TO.N,unconnected-(J7-P03__3-PadP03_4)*%
X150050000Y-126500000D03*
%TO.N,unconnected-(J7-P03__4-PadP03_5)*%
X150050000Y-124000000D03*
%TO.N,GND*%
X152550000Y-134000000D03*
X152550000Y-131500000D03*
X152550000Y-129000000D03*
X152550000Y-126500000D03*
X152550000Y-124000000D03*
%TD*%
D24*
%TO.N,+5V*%
X195980000Y-138200000D03*
X192930000Y-138200000D03*
X192760000Y-147240000D03*
X203350000Y-139310000D03*
X191430000Y-138200000D03*
X204390000Y-139310000D03*
X190040000Y-138200000D03*
X194430000Y-138200000D03*
%TO.N,GND*%
X254590000Y-163940000D03*
X173570000Y-145960000D03*
X189050000Y-135750000D03*
D25*
X222070000Y-136730000D03*
D24*
X258680000Y-160340000D03*
X189950000Y-141750000D03*
X252970000Y-156790000D03*
D25*
X156470000Y-156750000D03*
D24*
X197450000Y-141750000D03*
X155450000Y-151290000D03*
X183298840Y-159529591D03*
X194200000Y-135750000D03*
X182030000Y-135750000D03*
X201300000Y-143300000D03*
X188450000Y-141750000D03*
D25*
X180590000Y-111680000D03*
D24*
X250830000Y-147430000D03*
X175220000Y-138230000D03*
D25*
X152960000Y-159040000D03*
D24*
X182030000Y-138930000D03*
X253670000Y-167360000D03*
X155450000Y-148930000D03*
X253900000Y-151190000D03*
X177790000Y-135750000D03*
D25*
X180570000Y-106940000D03*
D24*
X194450000Y-141750000D03*
X202200000Y-143300000D03*
X248210000Y-162830000D03*
X182530000Y-143800000D03*
X178380000Y-150820000D03*
X195950000Y-141750000D03*
X172600000Y-164580000D03*
X200400000Y-143300000D03*
X176440000Y-166670000D03*
X254020000Y-154100000D03*
X251800000Y-156850000D03*
D25*
X180030000Y-158110000D03*
X178830000Y-113890000D03*
D24*
X192950000Y-141750000D03*
X191450000Y-141750000D03*
X189050000Y-157340000D03*
X251960000Y-160090000D03*
X198950000Y-141750000D03*
X176390000Y-162193045D03*
X155450000Y-153740000D03*
%TO.N,+3.3V*%
X176640000Y-152500000D03*
X178720000Y-152500000D03*
X175620000Y-150220000D03*
X181410000Y-152500000D03*
X204180000Y-166650000D03*
X178670000Y-154480000D03*
X179870000Y-152500000D03*
X177330000Y-150840000D03*
X185255001Y-160280000D03*
X179820000Y-154480000D03*
X175600000Y-154480000D03*
X177640000Y-152500000D03*
X183910000Y-152500000D03*
X181360000Y-154480000D03*
X177590000Y-154480000D03*
X183860000Y-154480000D03*
X182690000Y-152500000D03*
X184060000Y-159700000D03*
X185180000Y-150810000D03*
X175650000Y-152500000D03*
X179610000Y-150870000D03*
X174920000Y-150790000D03*
X176590000Y-154480000D03*
X175490000Y-158980000D03*
X182320000Y-150840000D03*
X182640000Y-154480000D03*
%TO.N,/STM/PinoutSTM/nRST*%
X180780000Y-148320000D03*
X180744522Y-164190000D03*
%TO.N,/CM4/GPIO_VREF_3.3V*%
X215020000Y-169560000D03*
X215030000Y-144270000D03*
X190800000Y-144270000D03*
X191190000Y-133040000D03*
%TO.N,/LPHS-connector/Battery_Out_5V*%
X155180000Y-163230000D03*
X145460000Y-164480000D03*
X158590000Y-163230000D03*
%TO.N,/STM/PinoutSTM/USART1_TX*%
X173580000Y-169690000D03*
X173560000Y-163100000D03*
%TO.N,/STM/PinoutSTM/JTAG_TDO{slash}SWO*%
X191790000Y-156020000D03*
X191760000Y-159150000D03*
%TO.N,/STM/PinoutSTM/JTAG_TMS{slash}SWDIO*%
X203270000Y-169930000D03*
X202260000Y-165460000D03*
%TO.N,/STM/PinoutSTM/JTAG_TCK{slash}SWCLK*%
X199080000Y-169690000D03*
X192970000Y-160650000D03*
%TO.N,/STM/PinoutSTM/USART1_RX*%
X198050000Y-169690000D03*
X180150000Y-163560000D03*
%TO.N,/STM/PinoutSTM/STM_BOOT0*%
X179210000Y-166411000D03*
X179250000Y-153500000D03*
X179240000Y-163110000D03*
%TO.N,/CM4/Battery_Out_3.3V*%
X151490000Y-164440000D03*
D25*
X154410000Y-158920000D03*
D24*
X160190000Y-160350000D03*
X250050000Y-165680000D03*
X255000000Y-145700000D03*
X148740000Y-165300000D03*
%TO.N,/CM4/USB_Out_5V*%
X254030000Y-162720000D03*
X254030000Y-157930000D03*
X260610000Y-153110000D03*
%TO.N,/LPHS-connector/ST_CAN.P*%
X146846064Y-161060000D03*
%TO.N,/LPHS-connector/ST_CAN.N*%
X146200000Y-160480000D03*
%TO.N,/CM4/CM4_Module1B/USB_D+*%
X247890000Y-159500000D03*
X247320521Y-123189479D03*
%TO.N,Net-(LS1--)*%
X196370000Y-147110000D03*
X196380000Y-153790000D03*
%TO.N,/CM4/CM4_Module1B/USB_D-*%
X247300000Y-160680000D03*
X246719479Y-123790521D03*
%TO.N,/STM/PinoutSTM/USART2_RX*%
X184510000Y-150220000D03*
X184220000Y-135480000D03*
X184210000Y-151520000D03*
%TO.N,/LPHS-connector/STM.TX*%
X169570000Y-146960000D03*
X161800000Y-147580000D03*
%TO.N,/STM/PinoutSTM/USART2_TX*%
X175853812Y-148220000D03*
X177905000Y-148210000D03*
%TO.N,/LPHS-connector/STM.RX*%
X161190000Y-148230000D03*
X168360000Y-148240000D03*
%TO.N,Net-(J3-CC1)*%
X252480000Y-163540000D03*
X252470000Y-161580000D03*
%TO.N,Net-(J3-CC2)*%
X253100000Y-158929000D03*
X253100000Y-162850000D03*
%TO.N,/CM4/TRD3.D+*%
X169230000Y-142749742D03*
X173894742Y-142749742D03*
%TO.N,/CM4/TRD2.D+*%
X171450000Y-145044741D03*
X166799530Y-144919530D03*
%TO.N,/CM4/TRD0.D+*%
X159613025Y-156219022D03*
%TO.N,/CM4/CM4_Module1A/ETH_LED_Y*%
X179440000Y-131340000D03*
X179446993Y-136122935D03*
%TO.N,/CM4/CM4_Module1A/ETH_LED_G*%
X178859234Y-130819313D03*
X260100000Y-130520000D03*
X260070000Y-140660000D03*
X178866993Y-135586497D03*
%TO.N,/CM4/PCIE_Interface/LED1_M2*%
X240790000Y-164700000D03*
X239910000Y-144680000D03*
%TO.N,/STM/PinoutSTM/CAN1_RX*%
X178190000Y-164820000D03*
X167510000Y-165300000D03*
X167500000Y-159690000D03*
X174229252Y-164810190D03*
%TO.N,/CM4/TRD0.D-*%
X158734004Y-156803070D03*
%TO.N,/CM4/RUN_PG*%
X180630000Y-134820000D03*
X179270000Y-148310000D03*
%TO.N,/STM/PinoutSTM/CAN1_TX*%
X166900000Y-165990000D03*
X166880000Y-161650000D03*
X181770000Y-159600000D03*
X178610000Y-165480000D03*
X174256673Y-165589711D03*
X181610000Y-165480000D03*
%TO.N,/CM4/TRD2.D-*%
X172379742Y-144264742D03*
X168340000Y-144334743D03*
%TO.N,/CM4/TRD3.D-*%
X173894742Y-143599742D03*
X169230000Y-143599742D03*
%TO.N,/CM4/CM4_Module1B/USB_OTG_ID*%
X246729000Y-156850000D03*
X246075000Y-124425000D03*
%TO.N,/CM4/CM4_Module1A/GLOBAL_EN*%
X195320000Y-145860000D03*
X195590000Y-135860000D03*
%TO.N,/CM4/CM4_Module1A/CM4_LED2/PI_nLED_Activity*%
X180000000Y-137840000D03*
X255190000Y-141740000D03*
X255190000Y-131471000D03*
X180030000Y-132220000D03*
%TO.N,/CM4/CM4_Module1A/CM4_LED1/nPWR_LED*%
X198270000Y-146926000D03*
X198250000Y-137610000D03*
%TO.N,/CM4/CM4_Module1B/PCIE_CLK._P*%
X177495000Y-101800000D03*
X223250000Y-152240000D03*
X221889479Y-122470521D03*
X177495000Y-116810000D03*
%TO.N,/CM4/CM4_Module1B/PCIE_RX._P*%
X226250000Y-152240000D03*
X179195000Y-116880000D03*
X179195000Y-98150000D03*
X224861000Y-121870000D03*
%TO.N,/CM4/CM4_Module1B/PCIE_CLK._N*%
X223750000Y-149520000D03*
X178345000Y-116810000D03*
X178345000Y-101800000D03*
X222490521Y-121869479D03*
%TO.N,/CM4/CM4_Module1B/PCIE_TX._P*%
X180709479Y-101990521D03*
X223700000Y-119800000D03*
X224750000Y-152240000D03*
X181025000Y-116900000D03*
%TO.N,/CM4/CM4_Module1B/PCIE_nRST*%
X222340000Y-145130000D03*
X221140000Y-118510000D03*
%TO.N,/CM4/CM4_Module1B/PCIE_TX._N*%
X224420000Y-119260000D03*
X181875000Y-116900000D03*
X181310521Y-101389479D03*
X225250000Y-149520000D03*
%TO.N,/CM4/CM4_Module1B/PCIE_RX._N*%
X180045000Y-98150000D03*
X180045000Y-116880000D03*
X225570000Y-121430000D03*
X226750000Y-149520000D03*
%TD*%
M02*
