%TF.GenerationSoftware,KiCad,Pcbnew,9.0.1+1*%
%TF.CreationDate,2025-11-19T21:45:42+00:00*%
%TF.ProjectId,nautilus_mainboard,6e617574-696c-4757-935f-6d61696e626f,rev?*%
%TF.SameCoordinates,Original*%
%TF.FileFunction,Paste,Top*%
%TF.FilePolarity,Positive*%
%FSLAX46Y46*%
G04 Gerber Fmt 4.6, Leading zero omitted, Abs format (unit mm)*
G04 Created by KiCad (PCBNEW 9.0.1+1) date 2025-11-19 21:45:42*
%MOMM*%
%LPD*%
G01*
G04 APERTURE LIST*
G04 Aperture macros list*
%AMRoundRect*
0 Rectangle with rounded corners*
0 $1 Rounding radius*
0 $2 $3 $4 $5 $6 $7 $8 $9 X,Y pos of 4 corners*
0 Add a 4 corners polygon primitive as box body*
4,1,4,$2,$3,$4,$5,$6,$7,$8,$9,$2,$3,0*
0 Add four circle primitives for the rounded corners*
1,1,$1+$1,$2,$3*
1,1,$1+$1,$4,$5*
1,1,$1+$1,$6,$7*
1,1,$1+$1,$8,$9*
0 Add four rect primitives between the rounded corners*
20,1,$1+$1,$2,$3,$4,$5,0*
20,1,$1+$1,$4,$5,$6,$7,0*
20,1,$1+$1,$6,$7,$8,$9,0*
20,1,$1+$1,$8,$9,$2,$3,0*%
G04 Aperture macros list end*
%ADD10C,0.010000*%
%ADD11RoundRect,0.200000X-0.200000X-0.275000X0.200000X-0.275000X0.200000X0.275000X-0.200000X0.275000X0*%
%ADD12R,0.600000X1.140000*%
%ADD13R,0.300000X1.140000*%
%ADD14RoundRect,0.225000X-0.225000X-0.250000X0.225000X-0.250000X0.225000X0.250000X-0.225000X0.250000X0*%
%ADD15R,0.950000X1.000000*%
%ADD16R,0.350000X0.590000*%
%ADD17R,0.590000X0.350000*%
%ADD18RoundRect,0.050000X-0.232500X-0.050000X0.232500X-0.050000X0.232500X0.050000X-0.232500X0.050000X0*%
%ADD19RoundRect,0.075000X-0.540000X-0.225000X0.540000X-0.225000X0.540000X0.225000X-0.540000X0.225000X0*%
%ADD20RoundRect,0.150000X-0.512500X-0.150000X0.512500X-0.150000X0.512500X0.150000X-0.512500X0.150000X0*%
%ADD21RoundRect,0.250000X-0.325000X-1.100000X0.325000X-1.100000X0.325000X1.100000X-0.325000X1.100000X0*%
%ADD22RoundRect,0.250000X-0.250000X-0.475000X0.250000X-0.475000X0.250000X0.475000X-0.250000X0.475000X0*%
%ADD23RoundRect,0.075000X-0.700000X-0.075000X0.700000X-0.075000X0.700000X0.075000X-0.700000X0.075000X0*%
%ADD24RoundRect,0.075000X-0.075000X-0.700000X0.075000X-0.700000X0.075000X0.700000X-0.075000X0.700000X0*%
%ADD25R,0.740000X2.790000*%
%ADD26R,0.910000X1.220000*%
%ADD27R,1.050000X0.400000*%
%ADD28R,0.200000X0.600000*%
%ADD29R,1.000000X0.400000*%
%ADD30RoundRect,0.140000X-0.140000X-0.170000X0.140000X-0.170000X0.140000X0.170000X-0.140000X0.170000X0*%
%ADD31R,0.850000X0.350000*%
%ADD32R,1.700000X2.450000*%
%ADD33RoundRect,0.135000X-0.135000X-0.185000X0.135000X-0.185000X0.135000X0.185000X-0.135000X0.185000X0*%
%ADD34R,1.300000X2.200000*%
%ADD35R,1.200000X0.750000*%
%ADD36R,0.700000X0.200000*%
G04 APERTURE END LIST*
D10*
%TO.C,TPD4EUSB30DQAR1*%
X62425000Y-161331000D02*
X62427000Y-161331000D01*
X62430000Y-161332000D01*
X62432000Y-161332000D01*
X62435000Y-161333000D01*
X62437000Y-161334000D01*
X62439000Y-161335000D01*
X62441000Y-161336000D01*
X62443000Y-161338000D01*
X62445000Y-161339000D01*
X62447000Y-161341000D01*
X62449000Y-161342000D01*
X62451000Y-161344000D01*
X62453000Y-161346000D01*
X62454000Y-161348000D01*
X62456000Y-161350000D01*
X62457000Y-161352000D01*
X62459000Y-161354000D01*
X62460000Y-161356000D01*
X62461000Y-161358000D01*
X62462000Y-161360000D01*
X62463000Y-161363000D01*
X62463000Y-161365000D01*
X62464000Y-161368000D01*
X62464000Y-161370000D01*
X62465000Y-161373000D01*
X62465000Y-161375000D01*
X62465000Y-161377000D01*
X62465000Y-161640000D01*
X62465000Y-161643000D01*
X62465000Y-161645000D01*
X62464000Y-161648000D01*
X62464000Y-161650000D01*
X62463000Y-161653000D01*
X62463000Y-161655000D01*
X62462000Y-161658000D01*
X62461000Y-161660000D01*
X62460000Y-161663000D01*
X62458000Y-161665000D01*
X62457000Y-161667000D01*
X62455000Y-161669000D01*
X62454000Y-161671000D01*
X62452000Y-161673000D01*
X62450000Y-161675000D01*
X62448000Y-161677000D01*
X62446000Y-161679000D01*
X62444000Y-161680000D01*
X62442000Y-161682000D01*
X62440000Y-161683000D01*
X62438000Y-161685000D01*
X62435000Y-161686000D01*
X62433000Y-161687000D01*
X62430000Y-161688000D01*
X62428000Y-161688000D01*
X62425000Y-161689000D01*
X62423000Y-161689000D01*
X62420000Y-161690000D01*
X62418000Y-161690000D01*
X62415000Y-161690000D01*
X61950000Y-161690000D01*
X61947000Y-161690000D01*
X61945000Y-161690000D01*
X61942000Y-161689000D01*
X61940000Y-161689000D01*
X61937000Y-161688000D01*
X61935000Y-161688000D01*
X61932000Y-161687000D01*
X61930000Y-161686000D01*
X61927000Y-161685000D01*
X61925000Y-161683000D01*
X61923000Y-161682000D01*
X61921000Y-161680000D01*
X61919000Y-161679000D01*
X61917000Y-161677000D01*
X61915000Y-161675000D01*
X61913000Y-161673000D01*
X61911000Y-161671000D01*
X61910000Y-161669000D01*
X61908000Y-161667000D01*
X61907000Y-161665000D01*
X61905000Y-161663000D01*
X61904000Y-161660000D01*
X61903000Y-161658000D01*
X61902000Y-161655000D01*
X61902000Y-161653000D01*
X61901000Y-161650000D01*
X61901000Y-161648000D01*
X61900000Y-161645000D01*
X61900000Y-161643000D01*
X61900000Y-161640000D01*
X61900000Y-161380000D01*
X61900000Y-161377000D01*
X61900000Y-161375000D01*
X61901000Y-161372000D01*
X61901000Y-161370000D01*
X61902000Y-161367000D01*
X61902000Y-161365000D01*
X61903000Y-161362000D01*
X61904000Y-161360000D01*
X61905000Y-161357000D01*
X61907000Y-161355000D01*
X61908000Y-161353000D01*
X61910000Y-161351000D01*
X61911000Y-161349000D01*
X61913000Y-161347000D01*
X61915000Y-161345000D01*
X61917000Y-161343000D01*
X61919000Y-161341000D01*
X61921000Y-161340000D01*
X61923000Y-161338000D01*
X61925000Y-161337000D01*
X61927000Y-161335000D01*
X61930000Y-161334000D01*
X61932000Y-161333000D01*
X61935000Y-161332000D01*
X61937000Y-161332000D01*
X61940000Y-161331000D01*
X61942000Y-161331000D01*
X61945000Y-161330000D01*
X61947000Y-161330000D01*
X61950000Y-161330000D01*
X62418000Y-161330000D01*
X62420000Y-161330000D01*
X62422000Y-161330000D01*
X62425000Y-161331000D01*
G36*
X62425000Y-161331000D02*
G01*
X62427000Y-161331000D01*
X62430000Y-161332000D01*
X62432000Y-161332000D01*
X62435000Y-161333000D01*
X62437000Y-161334000D01*
X62439000Y-161335000D01*
X62441000Y-161336000D01*
X62443000Y-161338000D01*
X62445000Y-161339000D01*
X62447000Y-161341000D01*
X62449000Y-161342000D01*
X62451000Y-161344000D01*
X62453000Y-161346000D01*
X62454000Y-161348000D01*
X62456000Y-161350000D01*
X62457000Y-161352000D01*
X62459000Y-161354000D01*
X62460000Y-161356000D01*
X62461000Y-161358000D01*
X62462000Y-161360000D01*
X62463000Y-161363000D01*
X62463000Y-161365000D01*
X62464000Y-161368000D01*
X62464000Y-161370000D01*
X62465000Y-161373000D01*
X62465000Y-161375000D01*
X62465000Y-161377000D01*
X62465000Y-161640000D01*
X62465000Y-161643000D01*
X62465000Y-161645000D01*
X62464000Y-161648000D01*
X62464000Y-161650000D01*
X62463000Y-161653000D01*
X62463000Y-161655000D01*
X62462000Y-161658000D01*
X62461000Y-161660000D01*
X62460000Y-161663000D01*
X62458000Y-161665000D01*
X62457000Y-161667000D01*
X62455000Y-161669000D01*
X62454000Y-161671000D01*
X62452000Y-161673000D01*
X62450000Y-161675000D01*
X62448000Y-161677000D01*
X62446000Y-161679000D01*
X62444000Y-161680000D01*
X62442000Y-161682000D01*
X62440000Y-161683000D01*
X62438000Y-161685000D01*
X62435000Y-161686000D01*
X62433000Y-161687000D01*
X62430000Y-161688000D01*
X62428000Y-161688000D01*
X62425000Y-161689000D01*
X62423000Y-161689000D01*
X62420000Y-161690000D01*
X62418000Y-161690000D01*
X62415000Y-161690000D01*
X61950000Y-161690000D01*
X61947000Y-161690000D01*
X61945000Y-161690000D01*
X61942000Y-161689000D01*
X61940000Y-161689000D01*
X61937000Y-161688000D01*
X61935000Y-161688000D01*
X61932000Y-161687000D01*
X61930000Y-161686000D01*
X61927000Y-161685000D01*
X61925000Y-161683000D01*
X61923000Y-161682000D01*
X61921000Y-161680000D01*
X61919000Y-161679000D01*
X61917000Y-161677000D01*
X61915000Y-161675000D01*
X61913000Y-161673000D01*
X61911000Y-161671000D01*
X61910000Y-161669000D01*
X61908000Y-161667000D01*
X61907000Y-161665000D01*
X61905000Y-161663000D01*
X61904000Y-161660000D01*
X61903000Y-161658000D01*
X61902000Y-161655000D01*
X61902000Y-161653000D01*
X61901000Y-161650000D01*
X61901000Y-161648000D01*
X61900000Y-161645000D01*
X61900000Y-161643000D01*
X61900000Y-161640000D01*
X61900000Y-161380000D01*
X61900000Y-161377000D01*
X61900000Y-161375000D01*
X61901000Y-161372000D01*
X61901000Y-161370000D01*
X61902000Y-161367000D01*
X61902000Y-161365000D01*
X61903000Y-161362000D01*
X61904000Y-161360000D01*
X61905000Y-161357000D01*
X61907000Y-161355000D01*
X61908000Y-161353000D01*
X61910000Y-161351000D01*
X61911000Y-161349000D01*
X61913000Y-161347000D01*
X61915000Y-161345000D01*
X61917000Y-161343000D01*
X61919000Y-161341000D01*
X61921000Y-161340000D01*
X61923000Y-161338000D01*
X61925000Y-161337000D01*
X61927000Y-161335000D01*
X61930000Y-161334000D01*
X61932000Y-161333000D01*
X61935000Y-161332000D01*
X61937000Y-161332000D01*
X61940000Y-161331000D01*
X61942000Y-161331000D01*
X61945000Y-161330000D01*
X61947000Y-161330000D01*
X61950000Y-161330000D01*
X62418000Y-161330000D01*
X62420000Y-161330000D01*
X62422000Y-161330000D01*
X62425000Y-161331000D01*
G37*
X63260000Y-161331000D02*
X63262000Y-161331000D01*
X63265000Y-161332000D01*
X63267000Y-161332000D01*
X63270000Y-161333000D01*
X63272000Y-161334000D01*
X63274000Y-161335000D01*
X63276000Y-161336000D01*
X63278000Y-161338000D01*
X63280000Y-161339000D01*
X63282000Y-161341000D01*
X63284000Y-161342000D01*
X63286000Y-161344000D01*
X63288000Y-161346000D01*
X63289000Y-161348000D01*
X63291000Y-161350000D01*
X63292000Y-161352000D01*
X63294000Y-161354000D01*
X63295000Y-161356000D01*
X63296000Y-161358000D01*
X63297000Y-161360000D01*
X63298000Y-161363000D01*
X63298000Y-161365000D01*
X63299000Y-161368000D01*
X63299000Y-161370000D01*
X63300000Y-161373000D01*
X63300000Y-161375000D01*
X63300000Y-161377000D01*
X63300000Y-161640000D01*
X63300000Y-161643000D01*
X63300000Y-161645000D01*
X63299000Y-161648000D01*
X63299000Y-161650000D01*
X63298000Y-161653000D01*
X63298000Y-161655000D01*
X63297000Y-161658000D01*
X63296000Y-161660000D01*
X63295000Y-161663000D01*
X63293000Y-161665000D01*
X63292000Y-161667000D01*
X63290000Y-161669000D01*
X63289000Y-161671000D01*
X63287000Y-161673000D01*
X63285000Y-161675000D01*
X63283000Y-161677000D01*
X63281000Y-161679000D01*
X63279000Y-161680000D01*
X63277000Y-161682000D01*
X63275000Y-161683000D01*
X63273000Y-161685000D01*
X63270000Y-161686000D01*
X63268000Y-161687000D01*
X63265000Y-161688000D01*
X63263000Y-161688000D01*
X63260000Y-161689000D01*
X63258000Y-161689000D01*
X63255000Y-161690000D01*
X63253000Y-161690000D01*
X63250000Y-161690000D01*
X62785000Y-161690000D01*
X62782000Y-161690000D01*
X62780000Y-161690000D01*
X62777000Y-161689000D01*
X62775000Y-161689000D01*
X62772000Y-161688000D01*
X62770000Y-161688000D01*
X62767000Y-161687000D01*
X62765000Y-161686000D01*
X62762000Y-161685000D01*
X62760000Y-161683000D01*
X62758000Y-161682000D01*
X62756000Y-161680000D01*
X62754000Y-161679000D01*
X62752000Y-161677000D01*
X62750000Y-161675000D01*
X62748000Y-161673000D01*
X62746000Y-161671000D01*
X62745000Y-161669000D01*
X62743000Y-161667000D01*
X62742000Y-161665000D01*
X62740000Y-161663000D01*
X62739000Y-161660000D01*
X62738000Y-161658000D01*
X62737000Y-161655000D01*
X62737000Y-161653000D01*
X62736000Y-161650000D01*
X62736000Y-161648000D01*
X62735000Y-161645000D01*
X62735000Y-161643000D01*
X62735000Y-161640000D01*
X62735000Y-161380000D01*
X62735000Y-161377000D01*
X62735000Y-161375000D01*
X62736000Y-161372000D01*
X62736000Y-161370000D01*
X62737000Y-161367000D01*
X62737000Y-161365000D01*
X62738000Y-161362000D01*
X62739000Y-161360000D01*
X62740000Y-161357000D01*
X62742000Y-161355000D01*
X62743000Y-161353000D01*
X62745000Y-161351000D01*
X62746000Y-161349000D01*
X62748000Y-161347000D01*
X62750000Y-161345000D01*
X62752000Y-161343000D01*
X62754000Y-161341000D01*
X62756000Y-161340000D01*
X62758000Y-161338000D01*
X62760000Y-161337000D01*
X62762000Y-161335000D01*
X62765000Y-161334000D01*
X62767000Y-161333000D01*
X62770000Y-161332000D01*
X62772000Y-161332000D01*
X62775000Y-161331000D01*
X62777000Y-161331000D01*
X62780000Y-161330000D01*
X62782000Y-161330000D01*
X62785000Y-161330000D01*
X63252000Y-161330000D01*
X63255000Y-161330000D01*
X63257000Y-161330000D01*
X63260000Y-161331000D01*
G36*
X63260000Y-161331000D02*
G01*
X63262000Y-161331000D01*
X63265000Y-161332000D01*
X63267000Y-161332000D01*
X63270000Y-161333000D01*
X63272000Y-161334000D01*
X63274000Y-161335000D01*
X63276000Y-161336000D01*
X63278000Y-161338000D01*
X63280000Y-161339000D01*
X63282000Y-161341000D01*
X63284000Y-161342000D01*
X63286000Y-161344000D01*
X63288000Y-161346000D01*
X63289000Y-161348000D01*
X63291000Y-161350000D01*
X63292000Y-161352000D01*
X63294000Y-161354000D01*
X63295000Y-161356000D01*
X63296000Y-161358000D01*
X63297000Y-161360000D01*
X63298000Y-161363000D01*
X63298000Y-161365000D01*
X63299000Y-161368000D01*
X63299000Y-161370000D01*
X63300000Y-161373000D01*
X63300000Y-161375000D01*
X63300000Y-161377000D01*
X63300000Y-161640000D01*
X63300000Y-161643000D01*
X63300000Y-161645000D01*
X63299000Y-161648000D01*
X63299000Y-161650000D01*
X63298000Y-161653000D01*
X63298000Y-161655000D01*
X63297000Y-161658000D01*
X63296000Y-161660000D01*
X63295000Y-161663000D01*
X63293000Y-161665000D01*
X63292000Y-161667000D01*
X63290000Y-161669000D01*
X63289000Y-161671000D01*
X63287000Y-161673000D01*
X63285000Y-161675000D01*
X63283000Y-161677000D01*
X63281000Y-161679000D01*
X63279000Y-161680000D01*
X63277000Y-161682000D01*
X63275000Y-161683000D01*
X63273000Y-161685000D01*
X63270000Y-161686000D01*
X63268000Y-161687000D01*
X63265000Y-161688000D01*
X63263000Y-161688000D01*
X63260000Y-161689000D01*
X63258000Y-161689000D01*
X63255000Y-161690000D01*
X63253000Y-161690000D01*
X63250000Y-161690000D01*
X62785000Y-161690000D01*
X62782000Y-161690000D01*
X62780000Y-161690000D01*
X62777000Y-161689000D01*
X62775000Y-161689000D01*
X62772000Y-161688000D01*
X62770000Y-161688000D01*
X62767000Y-161687000D01*
X62765000Y-161686000D01*
X62762000Y-161685000D01*
X62760000Y-161683000D01*
X62758000Y-161682000D01*
X62756000Y-161680000D01*
X62754000Y-161679000D01*
X62752000Y-161677000D01*
X62750000Y-161675000D01*
X62748000Y-161673000D01*
X62746000Y-161671000D01*
X62745000Y-161669000D01*
X62743000Y-161667000D01*
X62742000Y-161665000D01*
X62740000Y-161663000D01*
X62739000Y-161660000D01*
X62738000Y-161658000D01*
X62737000Y-161655000D01*
X62737000Y-161653000D01*
X62736000Y-161650000D01*
X62736000Y-161648000D01*
X62735000Y-161645000D01*
X62735000Y-161643000D01*
X62735000Y-161640000D01*
X62735000Y-161380000D01*
X62735000Y-161377000D01*
X62735000Y-161375000D01*
X62736000Y-161372000D01*
X62736000Y-161370000D01*
X62737000Y-161367000D01*
X62737000Y-161365000D01*
X62738000Y-161362000D01*
X62739000Y-161360000D01*
X62740000Y-161357000D01*
X62742000Y-161355000D01*
X62743000Y-161353000D01*
X62745000Y-161351000D01*
X62746000Y-161349000D01*
X62748000Y-161347000D01*
X62750000Y-161345000D01*
X62752000Y-161343000D01*
X62754000Y-161341000D01*
X62756000Y-161340000D01*
X62758000Y-161338000D01*
X62760000Y-161337000D01*
X62762000Y-161335000D01*
X62765000Y-161334000D01*
X62767000Y-161333000D01*
X62770000Y-161332000D01*
X62772000Y-161332000D01*
X62775000Y-161331000D01*
X62777000Y-161331000D01*
X62780000Y-161330000D01*
X62782000Y-161330000D01*
X62785000Y-161330000D01*
X63252000Y-161330000D01*
X63255000Y-161330000D01*
X63257000Y-161330000D01*
X63260000Y-161331000D01*
G37*
%TO.C,TPD4EUSB30DQAR2*%
X65720000Y-161331000D02*
X65722000Y-161331000D01*
X65725000Y-161332000D01*
X65727000Y-161332000D01*
X65730000Y-161333000D01*
X65732000Y-161334000D01*
X65734000Y-161335000D01*
X65736000Y-161336000D01*
X65738000Y-161338000D01*
X65740000Y-161339000D01*
X65742000Y-161341000D01*
X65744000Y-161342000D01*
X65746000Y-161344000D01*
X65748000Y-161346000D01*
X65749000Y-161348000D01*
X65751000Y-161350000D01*
X65752000Y-161352000D01*
X65754000Y-161354000D01*
X65755000Y-161356000D01*
X65756000Y-161358000D01*
X65757000Y-161360000D01*
X65758000Y-161363000D01*
X65758000Y-161365000D01*
X65759000Y-161368000D01*
X65759000Y-161370000D01*
X65760000Y-161373000D01*
X65760000Y-161375000D01*
X65760000Y-161377000D01*
X65760000Y-161640000D01*
X65760000Y-161643000D01*
X65760000Y-161645000D01*
X65759000Y-161648000D01*
X65759000Y-161650000D01*
X65758000Y-161653000D01*
X65758000Y-161655000D01*
X65757000Y-161658000D01*
X65756000Y-161660000D01*
X65755000Y-161663000D01*
X65753000Y-161665000D01*
X65752000Y-161667000D01*
X65750000Y-161669000D01*
X65749000Y-161671000D01*
X65747000Y-161673000D01*
X65745000Y-161675000D01*
X65743000Y-161677000D01*
X65741000Y-161679000D01*
X65739000Y-161680000D01*
X65737000Y-161682000D01*
X65735000Y-161683000D01*
X65733000Y-161685000D01*
X65730000Y-161686000D01*
X65728000Y-161687000D01*
X65725000Y-161688000D01*
X65723000Y-161688000D01*
X65720000Y-161689000D01*
X65718000Y-161689000D01*
X65715000Y-161690000D01*
X65713000Y-161690000D01*
X65710000Y-161690000D01*
X65245000Y-161690000D01*
X65242000Y-161690000D01*
X65240000Y-161690000D01*
X65237000Y-161689000D01*
X65235000Y-161689000D01*
X65232000Y-161688000D01*
X65230000Y-161688000D01*
X65227000Y-161687000D01*
X65225000Y-161686000D01*
X65222000Y-161685000D01*
X65220000Y-161683000D01*
X65218000Y-161682000D01*
X65216000Y-161680000D01*
X65214000Y-161679000D01*
X65212000Y-161677000D01*
X65210000Y-161675000D01*
X65208000Y-161673000D01*
X65206000Y-161671000D01*
X65205000Y-161669000D01*
X65203000Y-161667000D01*
X65202000Y-161665000D01*
X65200000Y-161663000D01*
X65199000Y-161660000D01*
X65198000Y-161658000D01*
X65197000Y-161655000D01*
X65197000Y-161653000D01*
X65196000Y-161650000D01*
X65196000Y-161648000D01*
X65195000Y-161645000D01*
X65195000Y-161643000D01*
X65195000Y-161640000D01*
X65195000Y-161380000D01*
X65195000Y-161377000D01*
X65195000Y-161375000D01*
X65196000Y-161372000D01*
X65196000Y-161370000D01*
X65197000Y-161367000D01*
X65197000Y-161365000D01*
X65198000Y-161362000D01*
X65199000Y-161360000D01*
X65200000Y-161357000D01*
X65202000Y-161355000D01*
X65203000Y-161353000D01*
X65205000Y-161351000D01*
X65206000Y-161349000D01*
X65208000Y-161347000D01*
X65210000Y-161345000D01*
X65212000Y-161343000D01*
X65214000Y-161341000D01*
X65216000Y-161340000D01*
X65218000Y-161338000D01*
X65220000Y-161337000D01*
X65222000Y-161335000D01*
X65225000Y-161334000D01*
X65227000Y-161333000D01*
X65230000Y-161332000D01*
X65232000Y-161332000D01*
X65235000Y-161331000D01*
X65237000Y-161331000D01*
X65240000Y-161330000D01*
X65242000Y-161330000D01*
X65245000Y-161330000D01*
X65713000Y-161330000D01*
X65715000Y-161330000D01*
X65717000Y-161330000D01*
X65720000Y-161331000D01*
G36*
X65720000Y-161331000D02*
G01*
X65722000Y-161331000D01*
X65725000Y-161332000D01*
X65727000Y-161332000D01*
X65730000Y-161333000D01*
X65732000Y-161334000D01*
X65734000Y-161335000D01*
X65736000Y-161336000D01*
X65738000Y-161338000D01*
X65740000Y-161339000D01*
X65742000Y-161341000D01*
X65744000Y-161342000D01*
X65746000Y-161344000D01*
X65748000Y-161346000D01*
X65749000Y-161348000D01*
X65751000Y-161350000D01*
X65752000Y-161352000D01*
X65754000Y-161354000D01*
X65755000Y-161356000D01*
X65756000Y-161358000D01*
X65757000Y-161360000D01*
X65758000Y-161363000D01*
X65758000Y-161365000D01*
X65759000Y-161368000D01*
X65759000Y-161370000D01*
X65760000Y-161373000D01*
X65760000Y-161375000D01*
X65760000Y-161377000D01*
X65760000Y-161640000D01*
X65760000Y-161643000D01*
X65760000Y-161645000D01*
X65759000Y-161648000D01*
X65759000Y-161650000D01*
X65758000Y-161653000D01*
X65758000Y-161655000D01*
X65757000Y-161658000D01*
X65756000Y-161660000D01*
X65755000Y-161663000D01*
X65753000Y-161665000D01*
X65752000Y-161667000D01*
X65750000Y-161669000D01*
X65749000Y-161671000D01*
X65747000Y-161673000D01*
X65745000Y-161675000D01*
X65743000Y-161677000D01*
X65741000Y-161679000D01*
X65739000Y-161680000D01*
X65737000Y-161682000D01*
X65735000Y-161683000D01*
X65733000Y-161685000D01*
X65730000Y-161686000D01*
X65728000Y-161687000D01*
X65725000Y-161688000D01*
X65723000Y-161688000D01*
X65720000Y-161689000D01*
X65718000Y-161689000D01*
X65715000Y-161690000D01*
X65713000Y-161690000D01*
X65710000Y-161690000D01*
X65245000Y-161690000D01*
X65242000Y-161690000D01*
X65240000Y-161690000D01*
X65237000Y-161689000D01*
X65235000Y-161689000D01*
X65232000Y-161688000D01*
X65230000Y-161688000D01*
X65227000Y-161687000D01*
X65225000Y-161686000D01*
X65222000Y-161685000D01*
X65220000Y-161683000D01*
X65218000Y-161682000D01*
X65216000Y-161680000D01*
X65214000Y-161679000D01*
X65212000Y-161677000D01*
X65210000Y-161675000D01*
X65208000Y-161673000D01*
X65206000Y-161671000D01*
X65205000Y-161669000D01*
X65203000Y-161667000D01*
X65202000Y-161665000D01*
X65200000Y-161663000D01*
X65199000Y-161660000D01*
X65198000Y-161658000D01*
X65197000Y-161655000D01*
X65197000Y-161653000D01*
X65196000Y-161650000D01*
X65196000Y-161648000D01*
X65195000Y-161645000D01*
X65195000Y-161643000D01*
X65195000Y-161640000D01*
X65195000Y-161380000D01*
X65195000Y-161377000D01*
X65195000Y-161375000D01*
X65196000Y-161372000D01*
X65196000Y-161370000D01*
X65197000Y-161367000D01*
X65197000Y-161365000D01*
X65198000Y-161362000D01*
X65199000Y-161360000D01*
X65200000Y-161357000D01*
X65202000Y-161355000D01*
X65203000Y-161353000D01*
X65205000Y-161351000D01*
X65206000Y-161349000D01*
X65208000Y-161347000D01*
X65210000Y-161345000D01*
X65212000Y-161343000D01*
X65214000Y-161341000D01*
X65216000Y-161340000D01*
X65218000Y-161338000D01*
X65220000Y-161337000D01*
X65222000Y-161335000D01*
X65225000Y-161334000D01*
X65227000Y-161333000D01*
X65230000Y-161332000D01*
X65232000Y-161332000D01*
X65235000Y-161331000D01*
X65237000Y-161331000D01*
X65240000Y-161330000D01*
X65242000Y-161330000D01*
X65245000Y-161330000D01*
X65713000Y-161330000D01*
X65715000Y-161330000D01*
X65717000Y-161330000D01*
X65720000Y-161331000D01*
G37*
X66555000Y-161331000D02*
X66557000Y-161331000D01*
X66560000Y-161332000D01*
X66562000Y-161332000D01*
X66565000Y-161333000D01*
X66567000Y-161334000D01*
X66569000Y-161335000D01*
X66571000Y-161336000D01*
X66573000Y-161338000D01*
X66575000Y-161339000D01*
X66577000Y-161341000D01*
X66579000Y-161342000D01*
X66581000Y-161344000D01*
X66583000Y-161346000D01*
X66584000Y-161348000D01*
X66586000Y-161350000D01*
X66587000Y-161352000D01*
X66589000Y-161354000D01*
X66590000Y-161356000D01*
X66591000Y-161358000D01*
X66592000Y-161360000D01*
X66593000Y-161363000D01*
X66593000Y-161365000D01*
X66594000Y-161368000D01*
X66594000Y-161370000D01*
X66595000Y-161373000D01*
X66595000Y-161375000D01*
X66595000Y-161377000D01*
X66595000Y-161640000D01*
X66595000Y-161643000D01*
X66595000Y-161645000D01*
X66594000Y-161648000D01*
X66594000Y-161650000D01*
X66593000Y-161653000D01*
X66593000Y-161655000D01*
X66592000Y-161658000D01*
X66591000Y-161660000D01*
X66590000Y-161663000D01*
X66588000Y-161665000D01*
X66587000Y-161667000D01*
X66585000Y-161669000D01*
X66584000Y-161671000D01*
X66582000Y-161673000D01*
X66580000Y-161675000D01*
X66578000Y-161677000D01*
X66576000Y-161679000D01*
X66574000Y-161680000D01*
X66572000Y-161682000D01*
X66570000Y-161683000D01*
X66568000Y-161685000D01*
X66565000Y-161686000D01*
X66563000Y-161687000D01*
X66560000Y-161688000D01*
X66558000Y-161688000D01*
X66555000Y-161689000D01*
X66553000Y-161689000D01*
X66550000Y-161690000D01*
X66548000Y-161690000D01*
X66545000Y-161690000D01*
X66080000Y-161690000D01*
X66077000Y-161690000D01*
X66075000Y-161690000D01*
X66072000Y-161689000D01*
X66070000Y-161689000D01*
X66067000Y-161688000D01*
X66065000Y-161688000D01*
X66062000Y-161687000D01*
X66060000Y-161686000D01*
X66057000Y-161685000D01*
X66055000Y-161683000D01*
X66053000Y-161682000D01*
X66051000Y-161680000D01*
X66049000Y-161679000D01*
X66047000Y-161677000D01*
X66045000Y-161675000D01*
X66043000Y-161673000D01*
X66041000Y-161671000D01*
X66040000Y-161669000D01*
X66038000Y-161667000D01*
X66037000Y-161665000D01*
X66035000Y-161663000D01*
X66034000Y-161660000D01*
X66033000Y-161658000D01*
X66032000Y-161655000D01*
X66032000Y-161653000D01*
X66031000Y-161650000D01*
X66031000Y-161648000D01*
X66030000Y-161645000D01*
X66030000Y-161643000D01*
X66030000Y-161640000D01*
X66030000Y-161380000D01*
X66030000Y-161377000D01*
X66030000Y-161375000D01*
X66031000Y-161372000D01*
X66031000Y-161370000D01*
X66032000Y-161367000D01*
X66032000Y-161365000D01*
X66033000Y-161362000D01*
X66034000Y-161360000D01*
X66035000Y-161357000D01*
X66037000Y-161355000D01*
X66038000Y-161353000D01*
X66040000Y-161351000D01*
X66041000Y-161349000D01*
X66043000Y-161347000D01*
X66045000Y-161345000D01*
X66047000Y-161343000D01*
X66049000Y-161341000D01*
X66051000Y-161340000D01*
X66053000Y-161338000D01*
X66055000Y-161337000D01*
X66057000Y-161335000D01*
X66060000Y-161334000D01*
X66062000Y-161333000D01*
X66065000Y-161332000D01*
X66067000Y-161332000D01*
X66070000Y-161331000D01*
X66072000Y-161331000D01*
X66075000Y-161330000D01*
X66077000Y-161330000D01*
X66080000Y-161330000D01*
X66547000Y-161330000D01*
X66550000Y-161330000D01*
X66552000Y-161330000D01*
X66555000Y-161331000D01*
G36*
X66555000Y-161331000D02*
G01*
X66557000Y-161331000D01*
X66560000Y-161332000D01*
X66562000Y-161332000D01*
X66565000Y-161333000D01*
X66567000Y-161334000D01*
X66569000Y-161335000D01*
X66571000Y-161336000D01*
X66573000Y-161338000D01*
X66575000Y-161339000D01*
X66577000Y-161341000D01*
X66579000Y-161342000D01*
X66581000Y-161344000D01*
X66583000Y-161346000D01*
X66584000Y-161348000D01*
X66586000Y-161350000D01*
X66587000Y-161352000D01*
X66589000Y-161354000D01*
X66590000Y-161356000D01*
X66591000Y-161358000D01*
X66592000Y-161360000D01*
X66593000Y-161363000D01*
X66593000Y-161365000D01*
X66594000Y-161368000D01*
X66594000Y-161370000D01*
X66595000Y-161373000D01*
X66595000Y-161375000D01*
X66595000Y-161377000D01*
X66595000Y-161640000D01*
X66595000Y-161643000D01*
X66595000Y-161645000D01*
X66594000Y-161648000D01*
X66594000Y-161650000D01*
X66593000Y-161653000D01*
X66593000Y-161655000D01*
X66592000Y-161658000D01*
X66591000Y-161660000D01*
X66590000Y-161663000D01*
X66588000Y-161665000D01*
X66587000Y-161667000D01*
X66585000Y-161669000D01*
X66584000Y-161671000D01*
X66582000Y-161673000D01*
X66580000Y-161675000D01*
X66578000Y-161677000D01*
X66576000Y-161679000D01*
X66574000Y-161680000D01*
X66572000Y-161682000D01*
X66570000Y-161683000D01*
X66568000Y-161685000D01*
X66565000Y-161686000D01*
X66563000Y-161687000D01*
X66560000Y-161688000D01*
X66558000Y-161688000D01*
X66555000Y-161689000D01*
X66553000Y-161689000D01*
X66550000Y-161690000D01*
X66548000Y-161690000D01*
X66545000Y-161690000D01*
X66080000Y-161690000D01*
X66077000Y-161690000D01*
X66075000Y-161690000D01*
X66072000Y-161689000D01*
X66070000Y-161689000D01*
X66067000Y-161688000D01*
X66065000Y-161688000D01*
X66062000Y-161687000D01*
X66060000Y-161686000D01*
X66057000Y-161685000D01*
X66055000Y-161683000D01*
X66053000Y-161682000D01*
X66051000Y-161680000D01*
X66049000Y-161679000D01*
X66047000Y-161677000D01*
X66045000Y-161675000D01*
X66043000Y-161673000D01*
X66041000Y-161671000D01*
X66040000Y-161669000D01*
X66038000Y-161667000D01*
X66037000Y-161665000D01*
X66035000Y-161663000D01*
X66034000Y-161660000D01*
X66033000Y-161658000D01*
X66032000Y-161655000D01*
X66032000Y-161653000D01*
X66031000Y-161650000D01*
X66031000Y-161648000D01*
X66030000Y-161645000D01*
X66030000Y-161643000D01*
X66030000Y-161640000D01*
X66030000Y-161380000D01*
X66030000Y-161377000D01*
X66030000Y-161375000D01*
X66031000Y-161372000D01*
X66031000Y-161370000D01*
X66032000Y-161367000D01*
X66032000Y-161365000D01*
X66033000Y-161362000D01*
X66034000Y-161360000D01*
X66035000Y-161357000D01*
X66037000Y-161355000D01*
X66038000Y-161353000D01*
X66040000Y-161351000D01*
X66041000Y-161349000D01*
X66043000Y-161347000D01*
X66045000Y-161345000D01*
X66047000Y-161343000D01*
X66049000Y-161341000D01*
X66051000Y-161340000D01*
X66053000Y-161338000D01*
X66055000Y-161337000D01*
X66057000Y-161335000D01*
X66060000Y-161334000D01*
X66062000Y-161333000D01*
X66065000Y-161332000D01*
X66067000Y-161332000D01*
X66070000Y-161331000D01*
X66072000Y-161331000D01*
X66075000Y-161330000D01*
X66077000Y-161330000D01*
X66080000Y-161330000D01*
X66547000Y-161330000D01*
X66550000Y-161330000D01*
X66552000Y-161330000D01*
X66555000Y-161331000D01*
G37*
%TO.C,TPD4EUSB30DQAR3*%
X105665000Y-135441000D02*
X105667000Y-135441000D01*
X105670000Y-135442000D01*
X105672000Y-135442000D01*
X105675000Y-135443000D01*
X105677000Y-135444000D01*
X105679000Y-135445000D01*
X105681000Y-135446000D01*
X105683000Y-135448000D01*
X105685000Y-135449000D01*
X105687000Y-135451000D01*
X105689000Y-135452000D01*
X105691000Y-135454000D01*
X105693000Y-135456000D01*
X105694000Y-135458000D01*
X105696000Y-135460000D01*
X105697000Y-135462000D01*
X105699000Y-135464000D01*
X105700000Y-135466000D01*
X105701000Y-135468000D01*
X105702000Y-135470000D01*
X105703000Y-135473000D01*
X105703000Y-135475000D01*
X105704000Y-135478000D01*
X105704000Y-135480000D01*
X105705000Y-135483000D01*
X105705000Y-135485000D01*
X105705000Y-135487000D01*
X105705000Y-135750000D01*
X105705000Y-135753000D01*
X105705000Y-135755000D01*
X105704000Y-135758000D01*
X105704000Y-135760000D01*
X105703000Y-135763000D01*
X105703000Y-135765000D01*
X105702000Y-135768000D01*
X105701000Y-135770000D01*
X105700000Y-135773000D01*
X105698000Y-135775000D01*
X105697000Y-135777000D01*
X105695000Y-135779000D01*
X105694000Y-135781000D01*
X105692000Y-135783000D01*
X105690000Y-135785000D01*
X105688000Y-135787000D01*
X105686000Y-135789000D01*
X105684000Y-135790000D01*
X105682000Y-135792000D01*
X105680000Y-135793000D01*
X105678000Y-135795000D01*
X105675000Y-135796000D01*
X105673000Y-135797000D01*
X105670000Y-135798000D01*
X105668000Y-135798000D01*
X105665000Y-135799000D01*
X105663000Y-135799000D01*
X105660000Y-135800000D01*
X105658000Y-135800000D01*
X105655000Y-135800000D01*
X105190000Y-135800000D01*
X105187000Y-135800000D01*
X105185000Y-135800000D01*
X105182000Y-135799000D01*
X105180000Y-135799000D01*
X105177000Y-135798000D01*
X105175000Y-135798000D01*
X105172000Y-135797000D01*
X105170000Y-135796000D01*
X105167000Y-135795000D01*
X105165000Y-135793000D01*
X105163000Y-135792000D01*
X105161000Y-135790000D01*
X105159000Y-135789000D01*
X105157000Y-135787000D01*
X105155000Y-135785000D01*
X105153000Y-135783000D01*
X105151000Y-135781000D01*
X105150000Y-135779000D01*
X105148000Y-135777000D01*
X105147000Y-135775000D01*
X105145000Y-135773000D01*
X105144000Y-135770000D01*
X105143000Y-135768000D01*
X105142000Y-135765000D01*
X105142000Y-135763000D01*
X105141000Y-135760000D01*
X105141000Y-135758000D01*
X105140000Y-135755000D01*
X105140000Y-135753000D01*
X105140000Y-135750000D01*
X105140000Y-135490000D01*
X105140000Y-135487000D01*
X105140000Y-135485000D01*
X105141000Y-135482000D01*
X105141000Y-135480000D01*
X105142000Y-135477000D01*
X105142000Y-135475000D01*
X105143000Y-135472000D01*
X105144000Y-135470000D01*
X105145000Y-135467000D01*
X105147000Y-135465000D01*
X105148000Y-135463000D01*
X105150000Y-135461000D01*
X105151000Y-135459000D01*
X105153000Y-135457000D01*
X105155000Y-135455000D01*
X105157000Y-135453000D01*
X105159000Y-135451000D01*
X105161000Y-135450000D01*
X105163000Y-135448000D01*
X105165000Y-135447000D01*
X105167000Y-135445000D01*
X105170000Y-135444000D01*
X105172000Y-135443000D01*
X105175000Y-135442000D01*
X105177000Y-135442000D01*
X105180000Y-135441000D01*
X105182000Y-135441000D01*
X105185000Y-135440000D01*
X105187000Y-135440000D01*
X105190000Y-135440000D01*
X105658000Y-135440000D01*
X105660000Y-135440000D01*
X105662000Y-135440000D01*
X105665000Y-135441000D01*
G36*
X105665000Y-135441000D02*
G01*
X105667000Y-135441000D01*
X105670000Y-135442000D01*
X105672000Y-135442000D01*
X105675000Y-135443000D01*
X105677000Y-135444000D01*
X105679000Y-135445000D01*
X105681000Y-135446000D01*
X105683000Y-135448000D01*
X105685000Y-135449000D01*
X105687000Y-135451000D01*
X105689000Y-135452000D01*
X105691000Y-135454000D01*
X105693000Y-135456000D01*
X105694000Y-135458000D01*
X105696000Y-135460000D01*
X105697000Y-135462000D01*
X105699000Y-135464000D01*
X105700000Y-135466000D01*
X105701000Y-135468000D01*
X105702000Y-135470000D01*
X105703000Y-135473000D01*
X105703000Y-135475000D01*
X105704000Y-135478000D01*
X105704000Y-135480000D01*
X105705000Y-135483000D01*
X105705000Y-135485000D01*
X105705000Y-135487000D01*
X105705000Y-135750000D01*
X105705000Y-135753000D01*
X105705000Y-135755000D01*
X105704000Y-135758000D01*
X105704000Y-135760000D01*
X105703000Y-135763000D01*
X105703000Y-135765000D01*
X105702000Y-135768000D01*
X105701000Y-135770000D01*
X105700000Y-135773000D01*
X105698000Y-135775000D01*
X105697000Y-135777000D01*
X105695000Y-135779000D01*
X105694000Y-135781000D01*
X105692000Y-135783000D01*
X105690000Y-135785000D01*
X105688000Y-135787000D01*
X105686000Y-135789000D01*
X105684000Y-135790000D01*
X105682000Y-135792000D01*
X105680000Y-135793000D01*
X105678000Y-135795000D01*
X105675000Y-135796000D01*
X105673000Y-135797000D01*
X105670000Y-135798000D01*
X105668000Y-135798000D01*
X105665000Y-135799000D01*
X105663000Y-135799000D01*
X105660000Y-135800000D01*
X105658000Y-135800000D01*
X105655000Y-135800000D01*
X105190000Y-135800000D01*
X105187000Y-135800000D01*
X105185000Y-135800000D01*
X105182000Y-135799000D01*
X105180000Y-135799000D01*
X105177000Y-135798000D01*
X105175000Y-135798000D01*
X105172000Y-135797000D01*
X105170000Y-135796000D01*
X105167000Y-135795000D01*
X105165000Y-135793000D01*
X105163000Y-135792000D01*
X105161000Y-135790000D01*
X105159000Y-135789000D01*
X105157000Y-135787000D01*
X105155000Y-135785000D01*
X105153000Y-135783000D01*
X105151000Y-135781000D01*
X105150000Y-135779000D01*
X105148000Y-135777000D01*
X105147000Y-135775000D01*
X105145000Y-135773000D01*
X105144000Y-135770000D01*
X105143000Y-135768000D01*
X105142000Y-135765000D01*
X105142000Y-135763000D01*
X105141000Y-135760000D01*
X105141000Y-135758000D01*
X105140000Y-135755000D01*
X105140000Y-135753000D01*
X105140000Y-135750000D01*
X105140000Y-135490000D01*
X105140000Y-135487000D01*
X105140000Y-135485000D01*
X105141000Y-135482000D01*
X105141000Y-135480000D01*
X105142000Y-135477000D01*
X105142000Y-135475000D01*
X105143000Y-135472000D01*
X105144000Y-135470000D01*
X105145000Y-135467000D01*
X105147000Y-135465000D01*
X105148000Y-135463000D01*
X105150000Y-135461000D01*
X105151000Y-135459000D01*
X105153000Y-135457000D01*
X105155000Y-135455000D01*
X105157000Y-135453000D01*
X105159000Y-135451000D01*
X105161000Y-135450000D01*
X105163000Y-135448000D01*
X105165000Y-135447000D01*
X105167000Y-135445000D01*
X105170000Y-135444000D01*
X105172000Y-135443000D01*
X105175000Y-135442000D01*
X105177000Y-135442000D01*
X105180000Y-135441000D01*
X105182000Y-135441000D01*
X105185000Y-135440000D01*
X105187000Y-135440000D01*
X105190000Y-135440000D01*
X105658000Y-135440000D01*
X105660000Y-135440000D01*
X105662000Y-135440000D01*
X105665000Y-135441000D01*
G37*
X106500000Y-135441000D02*
X106502000Y-135441000D01*
X106505000Y-135442000D01*
X106507000Y-135442000D01*
X106510000Y-135443000D01*
X106512000Y-135444000D01*
X106514000Y-135445000D01*
X106516000Y-135446000D01*
X106518000Y-135448000D01*
X106520000Y-135449000D01*
X106522000Y-135451000D01*
X106524000Y-135452000D01*
X106526000Y-135454000D01*
X106528000Y-135456000D01*
X106529000Y-135458000D01*
X106531000Y-135460000D01*
X106532000Y-135462000D01*
X106534000Y-135464000D01*
X106535000Y-135466000D01*
X106536000Y-135468000D01*
X106537000Y-135470000D01*
X106538000Y-135473000D01*
X106538000Y-135475000D01*
X106539000Y-135478000D01*
X106539000Y-135480000D01*
X106540000Y-135483000D01*
X106540000Y-135485000D01*
X106540000Y-135487000D01*
X106540000Y-135750000D01*
X106540000Y-135753000D01*
X106540000Y-135755000D01*
X106539000Y-135758000D01*
X106539000Y-135760000D01*
X106538000Y-135763000D01*
X106538000Y-135765000D01*
X106537000Y-135768000D01*
X106536000Y-135770000D01*
X106535000Y-135773000D01*
X106533000Y-135775000D01*
X106532000Y-135777000D01*
X106530000Y-135779000D01*
X106529000Y-135781000D01*
X106527000Y-135783000D01*
X106525000Y-135785000D01*
X106523000Y-135787000D01*
X106521000Y-135789000D01*
X106519000Y-135790000D01*
X106517000Y-135792000D01*
X106515000Y-135793000D01*
X106513000Y-135795000D01*
X106510000Y-135796000D01*
X106508000Y-135797000D01*
X106505000Y-135798000D01*
X106503000Y-135798000D01*
X106500000Y-135799000D01*
X106498000Y-135799000D01*
X106495000Y-135800000D01*
X106493000Y-135800000D01*
X106490000Y-135800000D01*
X106025000Y-135800000D01*
X106022000Y-135800000D01*
X106020000Y-135800000D01*
X106017000Y-135799000D01*
X106015000Y-135799000D01*
X106012000Y-135798000D01*
X106010000Y-135798000D01*
X106007000Y-135797000D01*
X106005000Y-135796000D01*
X106002000Y-135795000D01*
X106000000Y-135793000D01*
X105998000Y-135792000D01*
X105996000Y-135790000D01*
X105994000Y-135789000D01*
X105992000Y-135787000D01*
X105990000Y-135785000D01*
X105988000Y-135783000D01*
X105986000Y-135781000D01*
X105985000Y-135779000D01*
X105983000Y-135777000D01*
X105982000Y-135775000D01*
X105980000Y-135773000D01*
X105979000Y-135770000D01*
X105978000Y-135768000D01*
X105977000Y-135765000D01*
X105977000Y-135763000D01*
X105976000Y-135760000D01*
X105976000Y-135758000D01*
X105975000Y-135755000D01*
X105975000Y-135753000D01*
X105975000Y-135750000D01*
X105975000Y-135490000D01*
X105975000Y-135487000D01*
X105975000Y-135485000D01*
X105976000Y-135482000D01*
X105976000Y-135480000D01*
X105977000Y-135477000D01*
X105977000Y-135475000D01*
X105978000Y-135472000D01*
X105979000Y-135470000D01*
X105980000Y-135467000D01*
X105982000Y-135465000D01*
X105983000Y-135463000D01*
X105985000Y-135461000D01*
X105986000Y-135459000D01*
X105988000Y-135457000D01*
X105990000Y-135455000D01*
X105992000Y-135453000D01*
X105994000Y-135451000D01*
X105996000Y-135450000D01*
X105998000Y-135448000D01*
X106000000Y-135447000D01*
X106002000Y-135445000D01*
X106005000Y-135444000D01*
X106007000Y-135443000D01*
X106010000Y-135442000D01*
X106012000Y-135442000D01*
X106015000Y-135441000D01*
X106017000Y-135441000D01*
X106020000Y-135440000D01*
X106022000Y-135440000D01*
X106025000Y-135440000D01*
X106492000Y-135440000D01*
X106495000Y-135440000D01*
X106497000Y-135440000D01*
X106500000Y-135441000D01*
G36*
X106500000Y-135441000D02*
G01*
X106502000Y-135441000D01*
X106505000Y-135442000D01*
X106507000Y-135442000D01*
X106510000Y-135443000D01*
X106512000Y-135444000D01*
X106514000Y-135445000D01*
X106516000Y-135446000D01*
X106518000Y-135448000D01*
X106520000Y-135449000D01*
X106522000Y-135451000D01*
X106524000Y-135452000D01*
X106526000Y-135454000D01*
X106528000Y-135456000D01*
X106529000Y-135458000D01*
X106531000Y-135460000D01*
X106532000Y-135462000D01*
X106534000Y-135464000D01*
X106535000Y-135466000D01*
X106536000Y-135468000D01*
X106537000Y-135470000D01*
X106538000Y-135473000D01*
X106538000Y-135475000D01*
X106539000Y-135478000D01*
X106539000Y-135480000D01*
X106540000Y-135483000D01*
X106540000Y-135485000D01*
X106540000Y-135487000D01*
X106540000Y-135750000D01*
X106540000Y-135753000D01*
X106540000Y-135755000D01*
X106539000Y-135758000D01*
X106539000Y-135760000D01*
X106538000Y-135763000D01*
X106538000Y-135765000D01*
X106537000Y-135768000D01*
X106536000Y-135770000D01*
X106535000Y-135773000D01*
X106533000Y-135775000D01*
X106532000Y-135777000D01*
X106530000Y-135779000D01*
X106529000Y-135781000D01*
X106527000Y-135783000D01*
X106525000Y-135785000D01*
X106523000Y-135787000D01*
X106521000Y-135789000D01*
X106519000Y-135790000D01*
X106517000Y-135792000D01*
X106515000Y-135793000D01*
X106513000Y-135795000D01*
X106510000Y-135796000D01*
X106508000Y-135797000D01*
X106505000Y-135798000D01*
X106503000Y-135798000D01*
X106500000Y-135799000D01*
X106498000Y-135799000D01*
X106495000Y-135800000D01*
X106493000Y-135800000D01*
X106490000Y-135800000D01*
X106025000Y-135800000D01*
X106022000Y-135800000D01*
X106020000Y-135800000D01*
X106017000Y-135799000D01*
X106015000Y-135799000D01*
X106012000Y-135798000D01*
X106010000Y-135798000D01*
X106007000Y-135797000D01*
X106005000Y-135796000D01*
X106002000Y-135795000D01*
X106000000Y-135793000D01*
X105998000Y-135792000D01*
X105996000Y-135790000D01*
X105994000Y-135789000D01*
X105992000Y-135787000D01*
X105990000Y-135785000D01*
X105988000Y-135783000D01*
X105986000Y-135781000D01*
X105985000Y-135779000D01*
X105983000Y-135777000D01*
X105982000Y-135775000D01*
X105980000Y-135773000D01*
X105979000Y-135770000D01*
X105978000Y-135768000D01*
X105977000Y-135765000D01*
X105977000Y-135763000D01*
X105976000Y-135760000D01*
X105976000Y-135758000D01*
X105975000Y-135755000D01*
X105975000Y-135753000D01*
X105975000Y-135750000D01*
X105975000Y-135490000D01*
X105975000Y-135487000D01*
X105975000Y-135485000D01*
X105976000Y-135482000D01*
X105976000Y-135480000D01*
X105977000Y-135477000D01*
X105977000Y-135475000D01*
X105978000Y-135472000D01*
X105979000Y-135470000D01*
X105980000Y-135467000D01*
X105982000Y-135465000D01*
X105983000Y-135463000D01*
X105985000Y-135461000D01*
X105986000Y-135459000D01*
X105988000Y-135457000D01*
X105990000Y-135455000D01*
X105992000Y-135453000D01*
X105994000Y-135451000D01*
X105996000Y-135450000D01*
X105998000Y-135448000D01*
X106000000Y-135447000D01*
X106002000Y-135445000D01*
X106005000Y-135444000D01*
X106007000Y-135443000D01*
X106010000Y-135442000D01*
X106012000Y-135442000D01*
X106015000Y-135441000D01*
X106017000Y-135441000D01*
X106020000Y-135440000D01*
X106022000Y-135440000D01*
X106025000Y-135440000D01*
X106492000Y-135440000D01*
X106495000Y-135440000D01*
X106497000Y-135440000D01*
X106500000Y-135441000D01*
G37*
%TD*%
D11*
%TO.C,R27*%
X85450000Y-159470000D03*
X87100000Y-159470000D03*
%TD*%
%TO.C,R15*%
X107310000Y-155620000D03*
X108960000Y-155620000D03*
%TD*%
D12*
%TO.C,J3*%
X99090000Y-125460000D03*
X99890000Y-125460000D03*
D13*
X101040000Y-125460000D03*
X102040000Y-125460000D03*
X102540000Y-125460000D03*
X103540000Y-125460000D03*
D12*
X104690000Y-125460000D03*
X105490000Y-125460000D03*
D13*
X104040000Y-125460000D03*
X103040000Y-125460000D03*
X101540000Y-125460000D03*
X100540000Y-125460000D03*
%TD*%
D11*
%TO.C,R23*%
X51450000Y-170780000D03*
X53100000Y-170780000D03*
%TD*%
D14*
%TO.C,C4*%
X65200000Y-95600000D03*
X66750000Y-95600000D03*
%TD*%
D11*
%TO.C,R31*%
X107310000Y-158130000D03*
X108960000Y-158130000D03*
%TD*%
%TO.C,R45*%
X59470000Y-148700000D03*
X61120000Y-148700000D03*
%TD*%
D15*
%TO.C,LED3*%
X98190000Y-139820000D03*
X99790000Y-139820000D03*
%TD*%
D14*
%TO.C,C52*%
X85500000Y-154450000D03*
X87050000Y-154450000D03*
%TD*%
%TO.C,C20*%
X93960000Y-125370000D03*
X95510000Y-125370000D03*
%TD*%
D11*
%TO.C,EXTERNALFAN5V1*%
X101000000Y-104400000D03*
X102650000Y-104400000D03*
%TD*%
D16*
%TO.C,U2*%
X43745000Y-161120000D03*
X44245000Y-161120000D03*
X44745000Y-161120000D03*
X45245000Y-161120000D03*
X45745000Y-161120000D03*
X46245000Y-161120000D03*
X46745000Y-161120000D03*
D17*
X47160000Y-162285000D03*
D16*
X46745000Y-163450000D03*
X46245000Y-163450000D03*
X45745000Y-163450000D03*
X45245000Y-163450000D03*
X44745000Y-163450000D03*
X44245000Y-163450000D03*
X43745000Y-163450000D03*
D17*
X43330000Y-162285000D03*
%TD*%
D18*
%TO.C,TPD4EUSB30DQAR1*%
X62182500Y-160510000D03*
X62182500Y-161010000D03*
X62182500Y-162010000D03*
X62182500Y-162510000D03*
X63017500Y-162510000D03*
X63017500Y-162010000D03*
X63017500Y-161010000D03*
X63017500Y-160510000D03*
%TD*%
D11*
%TO.C,R7*%
X66460000Y-164790000D03*
X68110000Y-164790000D03*
%TD*%
D19*
%TO.C,Q3*%
X79660000Y-140490000D03*
X79660000Y-142390000D03*
X81780000Y-141440000D03*
%TD*%
D20*
%TO.C,D2*%
X92097500Y-99575000D03*
X92097500Y-100525000D03*
X92097500Y-101475000D03*
X94372500Y-101475000D03*
X94372500Y-99575000D03*
%TD*%
D14*
%TO.C,C37*%
X24080000Y-146190000D03*
X25630000Y-146190000D03*
%TD*%
D11*
%TO.C,R34*%
X51450000Y-151210000D03*
X53100000Y-151210000D03*
%TD*%
%TO.C,R33*%
X87900000Y-125370000D03*
X89550000Y-125370000D03*
%TD*%
D14*
%TO.C,C12*%
X97040000Y-101890000D03*
X98590000Y-101890000D03*
%TD*%
%TO.C,C39*%
X85500000Y-146920000D03*
X87050000Y-146920000D03*
%TD*%
D15*
%TO.C,LED4*%
X55730000Y-160960000D03*
X57330000Y-160960000D03*
%TD*%
D14*
%TO.C,C2*%
X65200000Y-90580000D03*
X66750000Y-90580000D03*
%TD*%
D11*
%TO.C,R9*%
X93910000Y-127880000D03*
X95560000Y-127880000D03*
%TD*%
%TO.C,R46*%
X59470000Y-151210000D03*
X61120000Y-151210000D03*
%TD*%
D15*
%TO.C,LED7*%
X101080000Y-155840000D03*
X102680000Y-155840000D03*
%TD*%
D14*
%TO.C,C38*%
X24080000Y-148700000D03*
X25630000Y-148700000D03*
%TD*%
D11*
%TO.C,R48*%
X39390000Y-165760000D03*
X41040000Y-165760000D03*
%TD*%
D21*
%TO.C,C21*%
X28210000Y-162960000D03*
X31160000Y-162960000D03*
%TD*%
D11*
%TO.C,R4*%
X101000000Y-109420000D03*
X102650000Y-109420000D03*
%TD*%
%TO.C,R6*%
X100810000Y-158570000D03*
X102460000Y-158570000D03*
%TD*%
D22*
%TO.C,C53*%
X33035000Y-154940000D03*
X34935000Y-154940000D03*
%TD*%
D11*
%TO.C,R5*%
X105310000Y-150670000D03*
X106960000Y-150670000D03*
%TD*%
%TO.C,R35*%
X51450000Y-153720000D03*
X53100000Y-153720000D03*
%TD*%
D20*
%TO.C,D1*%
X90207500Y-164175000D03*
X90207500Y-165125000D03*
X90207500Y-166075000D03*
X92482500Y-166075000D03*
X92482500Y-164175000D03*
%TD*%
D11*
%TO.C,R38*%
X55460000Y-148700000D03*
X57110000Y-148700000D03*
%TD*%
%TO.C,R10*%
X93910000Y-130390000D03*
X95560000Y-130390000D03*
%TD*%
%TO.C,R44*%
X59470000Y-146190000D03*
X61120000Y-146190000D03*
%TD*%
D14*
%TO.C,C45*%
X39440000Y-160740000D03*
X40990000Y-160740000D03*
%TD*%
D11*
%TO.C,R32*%
X102250000Y-168700000D03*
X103900000Y-168700000D03*
%TD*%
D14*
%TO.C,C23*%
X24080000Y-162090000D03*
X25630000Y-162090000D03*
%TD*%
D23*
%TO.C,IC1*%
X77760000Y-101600000D03*
X77760000Y-102100000D03*
X77760000Y-102600000D03*
X77760000Y-103100000D03*
X77760000Y-103600000D03*
X77760000Y-104100000D03*
X77760000Y-104600000D03*
X77760000Y-105100000D03*
X77760000Y-105600000D03*
X77760000Y-106100000D03*
X77760000Y-106600000D03*
X77760000Y-107100000D03*
X77760000Y-107600000D03*
X77760000Y-108100000D03*
X77760000Y-108600000D03*
X77760000Y-109100000D03*
D24*
X79685000Y-111025000D03*
X80185000Y-111025000D03*
X80685000Y-111025000D03*
X81185000Y-111025000D03*
X81685000Y-111025000D03*
X82185000Y-111025000D03*
X82685000Y-111025000D03*
X83185000Y-111025000D03*
X83685000Y-111025000D03*
X84185000Y-111025000D03*
X84685000Y-111025000D03*
X85185000Y-111025000D03*
X85685000Y-111025000D03*
X86185000Y-111025000D03*
X86685000Y-111025000D03*
X87185000Y-111025000D03*
D23*
X89110000Y-109100000D03*
X89110000Y-108600000D03*
X89110000Y-108100000D03*
X89110000Y-107600000D03*
X89110000Y-107100000D03*
X89110000Y-106600000D03*
X89110000Y-106100000D03*
X89110000Y-105600000D03*
X89110000Y-105100000D03*
X89110000Y-104600000D03*
X89110000Y-104100000D03*
X89110000Y-103600000D03*
X89110000Y-103100000D03*
X89110000Y-102600000D03*
X89110000Y-102100000D03*
X89110000Y-101600000D03*
D24*
X87185000Y-99675000D03*
X86685000Y-99675000D03*
X86185000Y-99675000D03*
X85685000Y-99675000D03*
X85185000Y-99675000D03*
X84685000Y-99675000D03*
X84185000Y-99675000D03*
X83685000Y-99675000D03*
X83185000Y-99675000D03*
X82685000Y-99675000D03*
X82185000Y-99675000D03*
X81685000Y-99675000D03*
X81185000Y-99675000D03*
X80685000Y-99675000D03*
X80185000Y-99675000D03*
X79685000Y-99675000D03*
%TD*%
D25*
%TO.C,J1*%
X91030000Y-93805000D03*
X91030000Y-89735000D03*
X92300000Y-93805000D03*
X92300000Y-89735000D03*
X93570000Y-93805000D03*
X93570000Y-89735000D03*
X94840000Y-93805000D03*
X94840000Y-89735000D03*
X96110000Y-93805000D03*
X96110000Y-89735000D03*
X97380000Y-93805000D03*
X97380000Y-89735000D03*
X98650000Y-93805000D03*
X98650000Y-89735000D03*
%TD*%
D14*
%TO.C,C14*%
X97040000Y-106910000D03*
X98590000Y-106910000D03*
%TD*%
D11*
%TO.C,R41*%
X55460000Y-151210000D03*
X57110000Y-151210000D03*
%TD*%
D26*
%TO.C,D6*%
X98745000Y-135970000D03*
X102015000Y-135970000D03*
%TD*%
D16*
%TO.C,U1*%
X43745000Y-146570000D03*
X44245000Y-146570000D03*
X44745000Y-146570000D03*
X45245000Y-146570000D03*
X45745000Y-146570000D03*
X46245000Y-146570000D03*
X46745000Y-146570000D03*
D17*
X47160000Y-147735000D03*
D16*
X46745000Y-148900000D03*
X46245000Y-148900000D03*
X45745000Y-148900000D03*
X45245000Y-148900000D03*
X44745000Y-148900000D03*
X44245000Y-148900000D03*
X43745000Y-148900000D03*
D17*
X43330000Y-147735000D03*
%TD*%
D27*
%TO.C,IC3*%
X90055000Y-156515000D03*
X90055000Y-157215000D03*
D28*
X89980000Y-158015000D03*
X90480000Y-158015000D03*
X90980000Y-158015000D03*
X91480000Y-158015000D03*
D27*
X91405000Y-157215000D03*
X91405000Y-156515000D03*
D28*
X91480000Y-155715000D03*
X90980000Y-155715000D03*
X90480000Y-155715000D03*
X89980000Y-155715000D03*
%TD*%
D15*
%TO.C,LED1*%
X85720000Y-164200000D03*
X87320000Y-164200000D03*
%TD*%
D14*
%TO.C,C50*%
X85500000Y-149430000D03*
X87050000Y-149430000D03*
%TD*%
D11*
%TO.C,R25*%
X51450000Y-148700000D03*
X53100000Y-148700000D03*
%TD*%
D21*
%TO.C,C16*%
X102360000Y-88940000D03*
X105310000Y-88940000D03*
%TD*%
D11*
%TO.C,R24*%
X51450000Y-146190000D03*
X53100000Y-146190000D03*
%TD*%
D20*
%TO.C,D7*%
X97357500Y-168895000D03*
X97357500Y-169845000D03*
X97357500Y-170795000D03*
X99632500Y-170795000D03*
X99632500Y-168895000D03*
%TD*%
D11*
%TO.C,R17*%
X24030000Y-172130000D03*
X25680000Y-172130000D03*
%TD*%
D14*
%TO.C,C43*%
X39440000Y-146190000D03*
X40990000Y-146190000D03*
%TD*%
D22*
%TO.C,C54*%
X94455000Y-155670000D03*
X96355000Y-155670000D03*
%TD*%
D21*
%TO.C,C47*%
X65320000Y-109020000D03*
X68270000Y-109020000D03*
%TD*%
D29*
%TO.C,U3*%
X100905000Y-146890000D03*
X100905000Y-147540000D03*
X100905000Y-148190000D03*
X102905000Y-148190000D03*
X102905000Y-146890000D03*
%TD*%
D11*
%TO.C,R21*%
X51450000Y-168270000D03*
X53100000Y-168270000D03*
%TD*%
D30*
%TO.C,C9*%
X86815000Y-115530000D03*
X87775000Y-115530000D03*
%TD*%
D14*
%TO.C,C17*%
X97040000Y-109420000D03*
X98590000Y-109420000D03*
%TD*%
%TO.C,C24*%
X24080000Y-164600000D03*
X25630000Y-164600000D03*
%TD*%
%TO.C,C1*%
X65200000Y-88070000D03*
X66750000Y-88070000D03*
%TD*%
D21*
%TO.C,C36*%
X28210000Y-151310000D03*
X31160000Y-151310000D03*
%TD*%
D15*
%TO.C,LED9*%
X63750000Y-146410000D03*
X65350000Y-146410000D03*
%TD*%
D14*
%TO.C,C7*%
X65200000Y-103130000D03*
X66750000Y-103130000D03*
%TD*%
D11*
%TO.C,R22*%
X24030000Y-156230000D03*
X25680000Y-156230000D03*
%TD*%
D20*
%TO.C,D4*%
X92097500Y-108825000D03*
X92097500Y-109775000D03*
X92097500Y-110725000D03*
X94372500Y-110725000D03*
X94372500Y-108825000D03*
%TD*%
D14*
%TO.C,C46*%
X39440000Y-163250000D03*
X40990000Y-163250000D03*
%TD*%
D19*
%TO.C,Q1*%
X102900000Y-92340000D03*
X102900000Y-94240000D03*
X105020000Y-93290000D03*
%TD*%
D20*
%TO.C,D3*%
X92097500Y-104200000D03*
X92097500Y-105150000D03*
X92097500Y-106100000D03*
X94372500Y-106100000D03*
X94372500Y-104200000D03*
%TD*%
D15*
%TO.C,LED8*%
X101080000Y-150890000D03*
X102680000Y-150890000D03*
%TD*%
D11*
%TO.C,R50*%
X39390000Y-151210000D03*
X41040000Y-151210000D03*
%TD*%
D14*
%TO.C,C25*%
X24080000Y-167110000D03*
X25630000Y-167110000D03*
%TD*%
D11*
%TO.C,R11*%
X93910000Y-132900000D03*
X95560000Y-132900000D03*
%TD*%
%TO.C,R13*%
X51450000Y-160740000D03*
X53100000Y-160740000D03*
%TD*%
%TO.C,R43*%
X55460000Y-156230000D03*
X57110000Y-156230000D03*
%TD*%
D21*
%TO.C,C48*%
X89630000Y-147790000D03*
X92580000Y-147790000D03*
%TD*%
D14*
%TO.C,C19*%
X101050000Y-101890000D03*
X102600000Y-101890000D03*
%TD*%
D31*
%TO.C,IC2*%
X97120000Y-164150000D03*
X97120000Y-164800000D03*
X97120000Y-165450000D03*
X97120000Y-166100000D03*
X100020000Y-166100000D03*
X100020000Y-165450000D03*
X100020000Y-164800000D03*
X100020000Y-164150000D03*
D32*
X98570000Y-165125000D03*
%TD*%
D11*
%TO.C,R53*%
X39390000Y-156230000D03*
X41040000Y-156230000D03*
%TD*%
%TO.C,R37*%
X55460000Y-146190000D03*
X57110000Y-146190000D03*
%TD*%
D14*
%TO.C,C3*%
X65200000Y-93090000D03*
X66750000Y-93090000D03*
%TD*%
D15*
%TO.C,LED6*%
X62230000Y-167960000D03*
X63830000Y-167960000D03*
%TD*%
D30*
%TO.C,C10*%
X86815000Y-117500000D03*
X87775000Y-117500000D03*
%TD*%
D33*
%TO.C,R40*%
X87665000Y-130130000D03*
X88685000Y-130130000D03*
%TD*%
D34*
%TO.C,Y1*%
X79460000Y-115225000D03*
X83660000Y-115225000D03*
%TD*%
D11*
%TO.C,R20*%
X51450000Y-165760000D03*
X53100000Y-165760000D03*
%TD*%
%TO.C,R19*%
X51450000Y-163250000D03*
X53100000Y-163250000D03*
%TD*%
%TO.C,R12*%
X93910000Y-135410000D03*
X95560000Y-135410000D03*
%TD*%
D14*
%TO.C,C26*%
X24080000Y-169620000D03*
X25630000Y-169620000D03*
%TD*%
%TO.C,C6*%
X65200000Y-100620000D03*
X66750000Y-100620000D03*
%TD*%
D21*
%TO.C,C49*%
X89630000Y-152040000D03*
X92580000Y-152040000D03*
%TD*%
D11*
%TO.C,R8*%
X66460000Y-167300000D03*
X68110000Y-167300000D03*
%TD*%
%TO.C,R2*%
X79350000Y-166680000D03*
X81000000Y-166680000D03*
%TD*%
%TO.C,R52*%
X39390000Y-170780000D03*
X41040000Y-170780000D03*
%TD*%
D14*
%TO.C,C42*%
X65200000Y-105640000D03*
X66750000Y-105640000D03*
%TD*%
D11*
%TO.C,R18*%
X89950000Y-171110000D03*
X91600000Y-171110000D03*
%TD*%
%TO.C,R16*%
X89950000Y-168600000D03*
X91600000Y-168600000D03*
%TD*%
D14*
%TO.C,C44*%
X39440000Y-148700000D03*
X40990000Y-148700000D03*
%TD*%
D11*
%TO.C,R39*%
X87900000Y-127880000D03*
X89550000Y-127880000D03*
%TD*%
D14*
%TO.C,C41*%
X24080000Y-153720000D03*
X25630000Y-153720000D03*
%TD*%
D30*
%TO.C,C15*%
X86815000Y-119470000D03*
X87775000Y-119470000D03*
%TD*%
D27*
%TO.C,IC5*%
X28635000Y-155785000D03*
X28635000Y-156485000D03*
D28*
X28560000Y-157285000D03*
X29060000Y-157285000D03*
X29560000Y-157285000D03*
X30060000Y-157285000D03*
D27*
X29985000Y-156485000D03*
X29985000Y-155785000D03*
D28*
X30060000Y-154985000D03*
X29560000Y-154985000D03*
X29060000Y-154985000D03*
X28560000Y-154985000D03*
%TD*%
D11*
%TO.C,R1*%
X79350000Y-164170000D03*
X81000000Y-164170000D03*
%TD*%
%TO.C,R49*%
X39390000Y-168270000D03*
X41040000Y-168270000D03*
%TD*%
D30*
%TO.C,C8*%
X86815000Y-113560000D03*
X87775000Y-113560000D03*
%TD*%
D27*
%TO.C,IC6*%
X28635000Y-171685000D03*
X28635000Y-172385000D03*
D28*
X28560000Y-173185000D03*
X29060000Y-173185000D03*
X29560000Y-173185000D03*
X30060000Y-173185000D03*
D27*
X29985000Y-172385000D03*
X29985000Y-171685000D03*
D28*
X30060000Y-170885000D03*
X29560000Y-170885000D03*
X29060000Y-170885000D03*
X28560000Y-170885000D03*
%TD*%
D11*
%TO.C,R51*%
X39390000Y-153720000D03*
X41040000Y-153720000D03*
%TD*%
%TO.C,R3*%
X101000000Y-106910000D03*
X102650000Y-106910000D03*
%TD*%
D35*
%TO.C,D9*%
X72995000Y-141415000D03*
X76395000Y-141415000D03*
%TD*%
D14*
%TO.C,C11*%
X97040000Y-99380000D03*
X98590000Y-99380000D03*
%TD*%
D11*
%TO.C,R42*%
X55460000Y-153720000D03*
X57110000Y-153720000D03*
%TD*%
D15*
%TO.C,LED2*%
X85720000Y-167150000D03*
X87320000Y-167150000D03*
%TD*%
D36*
%TO.C,Module1*%
X24910000Y-107575000D03*
X27990000Y-107575000D03*
X24910000Y-107975000D03*
X27990000Y-107975000D03*
X24910000Y-108375000D03*
X27990000Y-108375000D03*
X24910000Y-108775000D03*
X27990000Y-108775000D03*
X24910000Y-109175000D03*
X27990000Y-109175000D03*
X24910000Y-109575000D03*
X27990000Y-109575000D03*
X24910000Y-109975000D03*
X27990000Y-109975000D03*
X24910000Y-110375000D03*
X27990000Y-110375000D03*
X24910000Y-110775000D03*
X27990000Y-110775000D03*
X24910000Y-111175000D03*
X27990000Y-111175000D03*
X24910000Y-111575000D03*
X27990000Y-111575000D03*
X24910000Y-111975000D03*
X27990000Y-111975000D03*
X24910000Y-112375000D03*
X27990000Y-112375000D03*
X24910000Y-112775000D03*
X27990000Y-112775000D03*
X24910000Y-113175000D03*
X27990000Y-113175000D03*
X24910000Y-113575000D03*
X27990000Y-113575000D03*
X24910000Y-113975000D03*
X27990000Y-113975000D03*
X24910000Y-114375000D03*
X27990000Y-114375000D03*
X24910000Y-114775000D03*
X27990000Y-114775000D03*
X24910000Y-115175000D03*
X27990000Y-115175000D03*
X24910000Y-115575000D03*
X27990000Y-115575000D03*
X24910000Y-115975000D03*
X27990000Y-115975000D03*
X24910000Y-116375000D03*
X27990000Y-116375000D03*
X24910000Y-116775000D03*
X27990000Y-116775000D03*
X24910000Y-117175000D03*
X27990000Y-117175000D03*
X24910000Y-117575000D03*
X27990000Y-117575000D03*
X24910000Y-117975000D03*
X27990000Y-117975000D03*
X24910000Y-118375000D03*
X27990000Y-118375000D03*
X24910000Y-118775000D03*
X27990000Y-118775000D03*
X24910000Y-119175000D03*
X27990000Y-119175000D03*
X24910000Y-119575000D03*
X27990000Y-119575000D03*
X24910000Y-119975000D03*
X27990000Y-119975000D03*
X24910000Y-120375000D03*
X27990000Y-120375000D03*
X24910000Y-120775000D03*
X27990000Y-120775000D03*
X24910000Y-121175000D03*
X27990000Y-121175000D03*
X24910000Y-121575000D03*
X27990000Y-121575000D03*
X24910000Y-121975000D03*
X27990000Y-121975000D03*
X24910000Y-122375000D03*
X27990000Y-122375000D03*
X24910000Y-122775000D03*
X27990000Y-122775000D03*
X24910000Y-123175000D03*
X27990000Y-123175000D03*
X24910000Y-123575000D03*
X27990000Y-123575000D03*
X24910000Y-123975000D03*
X27990000Y-123975000D03*
X24910000Y-124375000D03*
X27990000Y-124375000D03*
X24910000Y-124775000D03*
X27990000Y-124775000D03*
X24910000Y-125175000D03*
X27990000Y-125175000D03*
X24910000Y-125575000D03*
X27990000Y-125575000D03*
X24910000Y-125975000D03*
X27990000Y-125975000D03*
X24910000Y-126375000D03*
X27990000Y-126375000D03*
X24910000Y-126775000D03*
X27990000Y-126775000D03*
X24910000Y-127175000D03*
X27990000Y-127175000D03*
X58830000Y-107575000D03*
X61910000Y-107575000D03*
X58830000Y-107975000D03*
X61910000Y-107975000D03*
X58830000Y-108375000D03*
X61910000Y-108375000D03*
X58830000Y-108775000D03*
X61910000Y-108775000D03*
X58830000Y-109175000D03*
X61910000Y-109175000D03*
X58830000Y-109575000D03*
X61910000Y-109575000D03*
X58830000Y-109975000D03*
X61910000Y-109975000D03*
X58830000Y-110375000D03*
X61910000Y-110375000D03*
X58830000Y-110775000D03*
X61910000Y-110775000D03*
X58830000Y-111175000D03*
X61910000Y-111175000D03*
X58830000Y-111575000D03*
X61910000Y-111575000D03*
X58830000Y-111975000D03*
X61910000Y-111975000D03*
X58830000Y-112375000D03*
X61910000Y-112375000D03*
X58830000Y-112775000D03*
X61910000Y-112775000D03*
X58830000Y-113175000D03*
X61910000Y-113175000D03*
X58830000Y-113575000D03*
X61910000Y-113575000D03*
X58830000Y-113975000D03*
X61910000Y-113975000D03*
X58830000Y-114375000D03*
X61910000Y-114375000D03*
X58830000Y-114775000D03*
X61910000Y-114775000D03*
X58830000Y-115175000D03*
X61910000Y-115175000D03*
X58830000Y-115575000D03*
X61910000Y-115575000D03*
X58830000Y-115975000D03*
X61910000Y-115975000D03*
X58830000Y-116375000D03*
X61910000Y-116375000D03*
X58830000Y-116775000D03*
X61910000Y-116775000D03*
X58830000Y-117175000D03*
X61910000Y-117175000D03*
X58830000Y-117575000D03*
X61910000Y-117575000D03*
X58830000Y-117975000D03*
X61910000Y-117975000D03*
X58830000Y-118375000D03*
X61910000Y-118375000D03*
X58830000Y-118775000D03*
X61910000Y-118775000D03*
X58830000Y-119175000D03*
X61910000Y-119175000D03*
X58830000Y-119575000D03*
X61910000Y-119575000D03*
X58830000Y-119975000D03*
X61910000Y-119975000D03*
X58830000Y-120375000D03*
X61910000Y-120375000D03*
X58830000Y-120775000D03*
X61910000Y-120775000D03*
X58830000Y-121175000D03*
X61910000Y-121175000D03*
X58830000Y-121575000D03*
X61910000Y-121575000D03*
X58830000Y-121975000D03*
X61910000Y-121975000D03*
X58830000Y-122375000D03*
X61910000Y-122375000D03*
X58830000Y-122775000D03*
X61910000Y-122775000D03*
X58830000Y-123175000D03*
X61910000Y-123175000D03*
X58830000Y-123575000D03*
X61910000Y-123575000D03*
X58830000Y-123975000D03*
X61910000Y-123975000D03*
X58830000Y-124375000D03*
X61910000Y-124375000D03*
X58830000Y-124775000D03*
X61910000Y-124775000D03*
X58830000Y-125175000D03*
X61910000Y-125175000D03*
X58830000Y-125575000D03*
X61910000Y-125575000D03*
X58830000Y-125975000D03*
X61910000Y-125975000D03*
X58830000Y-126375000D03*
X61910000Y-126375000D03*
X58830000Y-126775000D03*
X61910000Y-126775000D03*
X58830000Y-127175000D03*
X61910000Y-127175000D03*
%TD*%
D15*
%TO.C,LED10*%
X63750000Y-149360000D03*
X65350000Y-149360000D03*
%TD*%
D14*
%TO.C,C5*%
X65200000Y-98110000D03*
X66750000Y-98110000D03*
%TD*%
D11*
%TO.C,R14*%
X85450000Y-156960000D03*
X87100000Y-156960000D03*
%TD*%
%TO.C,R47*%
X59470000Y-153720000D03*
X61120000Y-153720000D03*
%TD*%
D14*
%TO.C,C13*%
X97040000Y-104400000D03*
X98590000Y-104400000D03*
%TD*%
D15*
%TO.C,LED5*%
X62230000Y-165010000D03*
X63830000Y-165010000D03*
%TD*%
D11*
%TO.C,R36*%
X51450000Y-156230000D03*
X53100000Y-156230000D03*
%TD*%
D14*
%TO.C,C18*%
X101050000Y-99380000D03*
X102600000Y-99380000D03*
%TD*%
D19*
%TO.C,Q2*%
X65860000Y-112420000D03*
X65860000Y-114320000D03*
X67980000Y-113370000D03*
%TD*%
D21*
%TO.C,C22*%
X28210000Y-167210000D03*
X31160000Y-167210000D03*
%TD*%
%TO.C,C35*%
X28210000Y-147060000D03*
X31160000Y-147060000D03*
%TD*%
D14*
%TO.C,C51*%
X85500000Y-151940000D03*
X87050000Y-151940000D03*
%TD*%
%TO.C,C40*%
X24080000Y-151210000D03*
X25630000Y-151210000D03*
%TD*%
D18*
%TO.C,TPD4EUSB30DQAR2*%
X65477500Y-160510000D03*
X65477500Y-161010000D03*
X65477500Y-162010000D03*
X65477500Y-162510000D03*
X66312500Y-162510000D03*
X66312500Y-162010000D03*
X66312500Y-161010000D03*
X66312500Y-160510000D03*
%TD*%
%TO.C,TPD4EUSB30DQAR3*%
X105422500Y-134620000D03*
X105422500Y-135120000D03*
X105422500Y-136120000D03*
X105422500Y-136620000D03*
X106257500Y-136620000D03*
X106257500Y-136120000D03*
X106257500Y-135120000D03*
X106257500Y-134620000D03*
%TD*%
D22*
%TO.C,C27*%
X33035000Y-170840000D03*
X34935000Y-170840000D03*
%TD*%
M02*
