%TF.GenerationSoftware,KiCad,Pcbnew,9.0.1+1*%
%TF.CreationDate,2025-11-18T16:35:50+00:00*%
%TF.ProjectId,nautilus_mainboard,6e617574-696c-4757-935f-6d61696e626f,rev?*%
%TF.SameCoordinates,Original*%
%TF.FileFunction,Other,User*%
%FSLAX46Y46*%
G04 Gerber Fmt 4.6, Leading zero omitted, Abs format (unit mm)*
G04 Created by KiCad (PCBNEW 9.0.1+1) date 2025-11-18 16:35:50*
%MOMM*%
%LPD*%
G01*
G04 APERTURE LIST*
%ADD10C,0.050000*%
%ADD11C,0.100000*%
%ADD12C,0.120000*%
G04 APERTURE END LIST*
D10*
%TO.C,Bat_3.3V_direct1*%
X156507294Y-206820330D02*
X158600330Y-204727294D01*
X157539670Y-207852706D02*
X156507294Y-206820330D01*
X158600330Y-204727294D02*
X159632706Y-205759670D01*
X159632706Y-205759670D02*
X157539670Y-207852706D01*
%TO.C,C7*%
X139400000Y-196035000D02*
X140860000Y-196035000D01*
X139400000Y-198995000D02*
X139400000Y-196035000D01*
X140860000Y-196035000D02*
X140860000Y-198995000D01*
X140860000Y-198995000D02*
X139400000Y-198995000D01*
%TO.C,IC1*%
X107512891Y-210601878D02*
X113381878Y-204732891D01*
X107512891Y-214208122D02*
X108538196Y-213182817D01*
X107760379Y-212405000D02*
X108538196Y-211627183D01*
X108538196Y-211627183D02*
X107512891Y-210601878D01*
X108538196Y-213182817D02*
X107760379Y-212405000D01*
X113381878Y-204732891D02*
X114407183Y-205758196D01*
X113381878Y-220077109D02*
X107512891Y-214208122D01*
X114407183Y-205758196D02*
X115185000Y-204980379D01*
X114407183Y-219051804D02*
X113381878Y-220077109D01*
X115185000Y-204980379D02*
X115962817Y-205758196D01*
X115185000Y-219829621D02*
X114407183Y-219051804D01*
X115962817Y-205758196D02*
X116988122Y-204732891D01*
X115962817Y-219051804D02*
X115185000Y-219829621D01*
X116988122Y-204732891D02*
X122857109Y-210601878D01*
X116988122Y-220077109D02*
X115962817Y-219051804D01*
X121831804Y-211627183D02*
X122609621Y-212405000D01*
X121831804Y-213182817D02*
X122857109Y-214208122D01*
X122609621Y-212405000D02*
X121831804Y-213182817D01*
X122857109Y-210601878D02*
X121831804Y-211627183D01*
X122857109Y-214208122D02*
X116988122Y-220077109D01*
%TO.C,C23*%
X77260000Y-166543419D02*
X80220000Y-166543419D01*
X77260000Y-168003419D02*
X77260000Y-166543419D01*
X80220000Y-166543419D02*
X80220000Y-168003419D01*
X80220000Y-168003419D02*
X77260000Y-168003419D01*
%TO.C,Q1*%
X180960000Y-183075000D02*
X180960000Y-179225000D01*
X184360000Y-179225000D02*
X180960000Y-179225000D01*
X184360000Y-179225000D02*
X184360000Y-183075000D01*
X184360000Y-183075000D02*
X180960000Y-183075000D01*
%TO.C,C31*%
X189470000Y-197595000D02*
X190930000Y-197595000D01*
X189470000Y-200555000D02*
X189470000Y-197595000D01*
X190930000Y-197595000D02*
X190930000Y-200555000D01*
X190930000Y-200555000D02*
X189470000Y-200555000D01*
%TO.C,C29*%
X191025000Y-195950001D02*
X194225000Y-195950001D01*
X191025000Y-200550001D02*
X191025000Y-195950001D01*
X194225000Y-195950001D02*
X194225000Y-200550001D01*
X194225000Y-200550001D02*
X191025000Y-200550001D01*
%TO.C,BMI1_SDA1*%
X166350000Y-166860000D02*
X167810000Y-166860000D01*
X166350000Y-169820000D02*
X166350000Y-166860000D01*
X167810000Y-166860000D02*
X167810000Y-169820000D01*
X167810000Y-169820000D02*
X166350000Y-169820000D01*
%TO.C,BMI1_SCL1*%
X164120000Y-166860000D02*
X165580000Y-166860000D01*
X164120000Y-169820000D02*
X164120000Y-166860000D01*
X165580000Y-166860000D02*
X165580000Y-169820000D01*
X165580000Y-169820000D02*
X164120000Y-169820000D01*
%TO.C,C12*%
X106020000Y-208370000D02*
X107480000Y-208370000D01*
X106020000Y-211330000D02*
X106020000Y-208370000D01*
X107480000Y-208370000D02*
X107480000Y-211330000D01*
X107480000Y-211330000D02*
X106020000Y-211330000D01*
%TO.C,C24*%
X77360000Y-159243419D02*
X80320000Y-159243419D01*
X77360000Y-160703419D02*
X77360000Y-159243419D01*
X80320000Y-159243419D02*
X80320000Y-160703419D01*
X80320000Y-160703419D02*
X77360000Y-160703419D01*
%TO.C,C14*%
X121867294Y-211659670D02*
X122899670Y-210627294D01*
X122899670Y-210627294D02*
X124992706Y-212720330D01*
X123960330Y-213752706D02*
X121867294Y-211659670D01*
X124992706Y-212720330D02*
X123960330Y-213752706D01*
%TO.C,C11*%
X112607294Y-221860330D02*
X114700330Y-219767294D01*
X113639670Y-222892706D02*
X112607294Y-221860330D01*
X114700330Y-219767294D02*
X115732706Y-220799670D01*
X115732706Y-220799670D02*
X113639670Y-222892706D01*
%TO.C,J1*%
X132280000Y-213620000D02*
X143570000Y-213620000D01*
X132280000Y-222935000D02*
X132280000Y-213620000D01*
X143570000Y-213620000D02*
X143570000Y-222935000D01*
X143570000Y-222935000D02*
X132280000Y-222935000D01*
%TO.C,J5*%
X184600000Y-170060000D02*
X184600000Y-186060000D01*
X184600000Y-186060000D02*
X194600000Y-186060000D01*
X194600000Y-170060000D02*
X184600000Y-170060000D01*
X194600000Y-186060000D02*
X194600000Y-170060000D01*
%TO.C,C40*%
X165185000Y-216930000D02*
X168145000Y-216930000D01*
X165185000Y-218390000D02*
X165185000Y-216930000D01*
X168145000Y-216930000D02*
X168145000Y-218390000D01*
X168145000Y-218390000D02*
X165185000Y-218390000D01*
%TO.C,D2*%
X190270000Y-213140000D02*
X192130000Y-213140000D01*
X190270000Y-214080000D02*
X190270000Y-213140000D01*
X192130000Y-213140000D02*
X192130000Y-214080000D01*
X192130000Y-214080000D02*
X190270000Y-214080000D01*
%TO.C,R8*%
X188690000Y-216835000D02*
X190150000Y-216835000D01*
X188690000Y-219795000D02*
X188690000Y-216835000D01*
X190150000Y-216835000D02*
X190150000Y-219795000D01*
X190150000Y-219795000D02*
X188690000Y-219795000D01*
%TO.C,C22*%
X75739999Y-155973419D02*
X80339999Y-155973419D01*
X75739999Y-159173419D02*
X75739999Y-155973419D01*
X80339999Y-155973419D02*
X80339999Y-159173419D01*
X80339999Y-159173419D02*
X75739999Y-159173419D01*
%TO.C,BMI2*%
X168660000Y-180845000D02*
X170120000Y-180845000D01*
X168660000Y-183805000D02*
X168660000Y-180845000D01*
X170120000Y-180845000D02*
X170120000Y-183805000D01*
X170120000Y-183805000D02*
X168660000Y-183805000D01*
%TO.C,C2*%
X131800000Y-196030000D02*
X133260000Y-196030000D01*
X131800000Y-198990000D02*
X131800000Y-196030000D01*
X133260000Y-196030000D02*
X133260000Y-198990000D01*
X133260000Y-198990000D02*
X131800000Y-198990000D01*
%TO.C,R28*%
X172820000Y-213815002D02*
X174280000Y-213815002D01*
X172820000Y-216775002D02*
X172820000Y-213815002D01*
X174280000Y-213815002D02*
X174280000Y-216775002D01*
X174280000Y-216775002D02*
X172820000Y-216775002D01*
%TO.C,R2*%
X108340000Y-153010000D02*
X111300000Y-153010000D01*
X108340000Y-154470000D02*
X108340000Y-153010000D01*
X111300000Y-153010000D02*
X111300000Y-154470000D01*
X111300000Y-154470000D02*
X108340000Y-154470000D01*
D11*
%TO.C,Y1*%
X118385963Y-206015812D02*
X121355812Y-203045963D01*
X121355812Y-203045963D02*
X127401575Y-209091726D01*
X124431726Y-212061575D02*
X118385963Y-206015812D01*
X127401575Y-209091726D02*
X124431726Y-212061575D01*
%TO.C,J2*%
X194530000Y-192340000D02*
X191390000Y-192340000D01*
X191390000Y-186660000D01*
X194530000Y-186660000D01*
X194530000Y-192340000D01*
G36*
X194530000Y-192340000D02*
G01*
X191390000Y-192340000D01*
X191390000Y-186660000D01*
X194530000Y-186660000D01*
X194530000Y-192340000D01*
G37*
D10*
%TO.C,C28*%
X178524999Y-196000000D02*
X181724999Y-196000000D01*
X178524999Y-200600000D02*
X178524999Y-196000000D01*
X181724999Y-196000000D02*
X181724999Y-200600000D01*
X181724999Y-200600000D02*
X178524999Y-200600000D01*
%TO.C,C41*%
X164740000Y-218480001D02*
X168140000Y-218480001D01*
X164740000Y-220440001D02*
X164740000Y-218480001D01*
X168140000Y-218480001D02*
X168140000Y-220440001D01*
X168140000Y-220440001D02*
X164740000Y-220440001D01*
%TO.C,C15*%
X111900000Y-219700000D02*
X112820000Y-219700000D01*
X111900000Y-221520000D02*
X111900000Y-219700000D01*
X112820000Y-219700000D02*
X112820000Y-221520000D01*
X112820000Y-221520000D02*
X111900000Y-221520000D01*
%TO.C,R3*%
X178170000Y-179905000D02*
X179630000Y-179905000D01*
X178170000Y-182865000D02*
X178170000Y-179905000D01*
X179630000Y-179905000D02*
X179630000Y-182865000D01*
X179630000Y-182865000D02*
X178170000Y-182865000D01*
%TO.C,C30*%
X181820000Y-197645000D02*
X183280000Y-197645000D01*
X181820000Y-200605000D02*
X181820000Y-197645000D01*
X183280000Y-197645000D02*
X183280000Y-200605000D01*
X183280000Y-200605000D02*
X181820000Y-200605000D01*
%TO.C,IC2*%
X90875000Y-219075000D02*
X95125000Y-219075000D01*
X90875000Y-222675000D02*
X90875000Y-219075000D01*
X95125000Y-219075000D02*
X95125000Y-222675000D01*
X95125000Y-222675000D02*
X90875000Y-222675000D01*
D11*
%TO.C,IC3*%
X78215000Y-161698420D02*
X82515000Y-161698420D01*
X78215000Y-165498418D02*
X78215000Y-161698420D01*
X82515000Y-161698420D02*
X82515000Y-165498418D01*
X82515000Y-165498418D02*
X78215000Y-165498418D01*
D10*
%TO.C,C35*%
X168240001Y-206035000D02*
X172840001Y-206035000D01*
X168240001Y-209235000D02*
X168240001Y-206035000D01*
X172840001Y-206035000D02*
X172840001Y-209235000D01*
X172840001Y-209235000D02*
X168240001Y-209235000D01*
%TO.C,C17*%
X113819286Y-203541662D02*
X114851662Y-202509286D01*
X114851662Y-202509286D02*
X116944698Y-204602322D01*
X115912322Y-205634698D02*
X113819286Y-203541662D01*
X116944698Y-204602322D02*
X115912322Y-205634698D01*
%TO.C,R27*%
X161810000Y-213330001D02*
X163270000Y-213330001D01*
X161810000Y-216290001D02*
X161810000Y-213330001D01*
X163270000Y-213330001D02*
X163270000Y-216290001D01*
X163270000Y-216290001D02*
X161810000Y-216290001D01*
%TO.C,R12*%
X183320000Y-159656750D02*
X186280000Y-159656750D01*
X183320000Y-161116750D02*
X183320000Y-159656750D01*
X186280000Y-159656750D02*
X186280000Y-161116750D01*
X186280000Y-161116750D02*
X183320000Y-161116750D01*
%TO.C,C9*%
X124431264Y-205851802D02*
X125081802Y-205201264D01*
X125081802Y-205201264D02*
X126368736Y-206488198D01*
X125718198Y-207138736D02*
X124431264Y-205851802D01*
X126368736Y-206488198D02*
X125718198Y-207138736D01*
%TO.C,Vref_3.3V_CM41*%
X152887294Y-203450330D02*
X154980330Y-201357294D01*
X153919670Y-204482706D02*
X152887294Y-203450330D01*
X154980330Y-201357294D02*
X156012706Y-202389670D01*
X156012706Y-202389670D02*
X153919670Y-204482706D01*
%TO.C,C38*%
X168235000Y-216930002D02*
X171195000Y-216930002D01*
X168235000Y-218390002D02*
X168235000Y-216930002D01*
X171195000Y-216930002D02*
X171195000Y-218390002D01*
X171195000Y-218390002D02*
X168235000Y-218390002D01*
%TO.C,USB_5V_direct1*%
X90130000Y-158220000D02*
X91590000Y-158220000D01*
X90130000Y-161180000D02*
X90130000Y-158220000D01*
X91590000Y-158220000D02*
X91590000Y-161180000D01*
X91590000Y-161180000D02*
X90130000Y-161180000D01*
%TO.C,U1*%
X157965000Y-170415000D02*
X162965000Y-170415000D01*
X157965000Y-173915000D02*
X157965000Y-170415000D01*
X162965000Y-170415000D02*
X162965000Y-173915000D01*
X162965000Y-173915000D02*
X157965000Y-173915000D01*
%TO.C,R9*%
X188325000Y-155321750D02*
X191285000Y-155321750D01*
X188325000Y-156781750D02*
X188325000Y-155321750D01*
X191285000Y-155321750D02*
X191285000Y-156781750D01*
X191285000Y-156781750D02*
X188325000Y-156781750D01*
%TO.C,C3*%
X133320000Y-196030000D02*
X134780000Y-196030000D01*
X133320000Y-198990000D02*
X133320000Y-196030000D01*
X134780000Y-196030000D02*
X134780000Y-198990000D01*
X134780000Y-198990000D02*
X133320000Y-198990000D01*
%TO.C,R1*%
X104490000Y-153010000D02*
X107450000Y-153010000D01*
X104490000Y-154470000D02*
X104490000Y-153010000D01*
X107450000Y-153010000D02*
X107450000Y-154470000D01*
X107450000Y-154470000D02*
X104490000Y-154470000D01*
%TO.C,C46*%
X159250000Y-189725000D02*
X162210000Y-189725000D01*
X159250000Y-191185000D02*
X159250000Y-189725000D01*
X162210000Y-189725000D02*
X162210000Y-191185000D01*
X162210000Y-191185000D02*
X159250000Y-191185000D01*
%TO.C,R20*%
X75735000Y-160518419D02*
X77195000Y-160518419D01*
X75735000Y-163478419D02*
X75735000Y-160518419D01*
X77195000Y-160518419D02*
X77195000Y-163478419D01*
X77195000Y-163478419D02*
X75735000Y-163478419D01*
%TO.C,TP7*%
X102850000Y-217000000D02*
G75*
G02*
X99350000Y-217000000I-1750000J0D01*
G01*
X99350000Y-217000000D02*
G75*
G02*
X102850000Y-217000000I1750000J0D01*
G01*
%TO.C,TP6*%
X97650000Y-216900000D02*
G75*
G02*
X94150000Y-216900000I-1750000J0D01*
G01*
X94150000Y-216900000D02*
G75*
G02*
X97650000Y-216900000I1750000J0D01*
G01*
%TO.C,TP3*%
X172475000Y-173700000D02*
G75*
G02*
X168975000Y-173700000I-1750000J0D01*
G01*
X168975000Y-173700000D02*
G75*
G02*
X172475000Y-173700000I1750000J0D01*
G01*
%TO.C,R6*%
X187150000Y-210705000D02*
X188610000Y-210705000D01*
X187150000Y-213665000D02*
X187150000Y-210705000D01*
X188610000Y-210705000D02*
X188610000Y-213665000D01*
X188610000Y-213665000D02*
X187150000Y-213665000D01*
%TO.C,R5*%
X187150000Y-213745000D02*
X188610000Y-213745000D01*
X187150000Y-216705000D02*
X187150000Y-213745000D01*
X188610000Y-213745000D02*
X188610000Y-216705000D01*
X188610000Y-216705000D02*
X187150000Y-216705000D01*
%TO.C,C1*%
X130280000Y-196030000D02*
X131740000Y-196030000D01*
X130280000Y-198990000D02*
X130280000Y-196030000D01*
X131740000Y-196030000D02*
X131740000Y-198990000D01*
X131740000Y-198990000D02*
X130280000Y-198990000D01*
%TO.C,R21*%
X183345000Y-196120000D02*
X186305000Y-196120000D01*
X183345000Y-197580000D02*
X183345000Y-196120000D01*
X186305000Y-196120000D02*
X186305000Y-197580000D01*
X186305000Y-197580000D02*
X183345000Y-197580000D01*
%TO.C,TP2*%
X172400000Y-178050000D02*
G75*
G02*
X168900000Y-178050000I-1750000J0D01*
G01*
X168900000Y-178050000D02*
G75*
G02*
X172400000Y-178050000I1750000J0D01*
G01*
%TO.C,C45*%
X159250000Y-180715000D02*
X162210000Y-180715000D01*
X159250000Y-182175000D02*
X159250000Y-180715000D01*
X162210000Y-180715000D02*
X162210000Y-182175000D01*
X162210000Y-182175000D02*
X159250000Y-182175000D01*
%TO.C,R31*%
X156205000Y-166780000D02*
X159165000Y-166780000D01*
X156205000Y-168240000D02*
X156205000Y-166780000D01*
X159165000Y-166780000D02*
X159165000Y-168240000D01*
X159165000Y-168240000D02*
X156205000Y-168240000D01*
%TO.C,TP4*%
X126475000Y-197500000D02*
G75*
G02*
X124475000Y-197500000I-1000000J0D01*
G01*
X124475000Y-197500000D02*
G75*
G02*
X126475000Y-197500000I1000000J0D01*
G01*
%TO.C,C6*%
X137880000Y-196030000D02*
X139340000Y-196030000D01*
X137880000Y-198990000D02*
X137880000Y-196030000D01*
X139340000Y-196030000D02*
X139340000Y-198990000D01*
X139340000Y-198990000D02*
X137880000Y-198990000D01*
%TO.C,D3*%
X190270000Y-218670000D02*
X192130000Y-218670000D01*
X190270000Y-219610000D02*
X190270000Y-218670000D01*
X192130000Y-218670000D02*
X192130000Y-219610000D01*
X192130000Y-219610000D02*
X190270000Y-219610000D01*
D12*
%TO.C,Module1*%
X117030000Y-156990000D02*
X139830000Y-156990000D01*
X117030000Y-160770000D02*
X117030000Y-156990000D01*
X117030000Y-190910000D02*
X139830000Y-190910000D01*
X117030000Y-194690000D02*
X117030000Y-190910000D01*
X139830000Y-156990000D02*
X139830000Y-160769999D01*
X139830000Y-160769999D02*
X117030000Y-160770000D01*
X139830000Y-190910000D02*
X139830000Y-194689999D01*
X139830000Y-194689999D02*
X117030000Y-194690000D01*
D10*
%TO.C,CONFIG_4*%
X96140000Y-162265000D02*
X97600000Y-162265000D01*
X96140000Y-165225000D02*
X96140000Y-162265000D01*
X97600000Y-162265000D02*
X97600000Y-165225000D01*
X97600000Y-165225000D02*
X96140000Y-165225000D01*
%TO.C,C21*%
X75614998Y-168073419D02*
X80214998Y-168073419D01*
X75614998Y-171273419D02*
X75614998Y-168073419D01*
X80214998Y-168073419D02*
X80214998Y-171273419D01*
X80214998Y-171273419D02*
X75614998Y-171273419D01*
%TO.C,BMI1*%
X168660000Y-166860000D02*
X170120000Y-166860000D01*
X168660000Y-169820000D02*
X168660000Y-166860000D01*
X170120000Y-166860000D02*
X170120000Y-169820000D01*
X170120000Y-169820000D02*
X168660000Y-169820000D01*
%TO.C,C47*%
X140920000Y-196035001D02*
X144120000Y-196035001D01*
X140920000Y-200635001D02*
X140920000Y-196035001D01*
X144120000Y-196035001D02*
X144120000Y-200635001D01*
X144120000Y-200635001D02*
X140920000Y-200635001D01*
%TO.C,Vref_3.3V_STM1*%
X150877294Y-201490330D02*
X152970330Y-199397294D01*
X151909670Y-202522706D02*
X150877294Y-201490330D01*
X152970330Y-199397294D02*
X154002706Y-200429670D01*
X154002706Y-200429670D02*
X151909670Y-202522706D01*
%TO.C,R7*%
X188690000Y-220475000D02*
X190150000Y-220475000D01*
X188690000Y-223435000D02*
X188690000Y-220475000D01*
X190150000Y-220475000D02*
X190150000Y-223435000D01*
X190150000Y-223435000D02*
X188690000Y-223435000D01*
%TO.C,TPD4EUSB30DQAR1*%
X118330000Y-196832500D02*
X121330000Y-196832500D01*
X118330000Y-198732500D02*
X118330000Y-196832500D01*
X121330000Y-196832500D02*
X121330000Y-198732500D01*
X121330000Y-198732500D02*
X118330000Y-198732500D01*
D11*
%TO.C,D6*%
X187479999Y-151486750D02*
X193659999Y-151486750D01*
X187479999Y-155136750D02*
X187479999Y-151486750D01*
X193659999Y-151486750D02*
X193659999Y-155136750D01*
X193659999Y-155136750D02*
X187479999Y-155136750D01*
D10*
%TO.C,C44*%
X159260000Y-166775000D02*
X162220000Y-166775000D01*
X159260000Y-168235000D02*
X159260000Y-166775000D01*
X162220000Y-166775000D02*
X162220000Y-168235000D01*
X162220000Y-168235000D02*
X159260000Y-168235000D01*
%TO.C,Plug_3.3V_direct1*%
X154697294Y-205070330D02*
X156790330Y-202977294D01*
X155729670Y-206102706D02*
X154697294Y-205070330D01*
X156790330Y-202977294D02*
X157822706Y-204009670D01*
X157822706Y-204009670D02*
X155729670Y-206102706D01*
%TO.C,C8*%
X125141853Y-211757609D02*
X126428787Y-210470675D01*
X125792391Y-212408147D02*
X125141853Y-211757609D01*
X126428787Y-210470675D02*
X127079325Y-211121213D01*
X127079325Y-211121213D02*
X125792391Y-212408147D01*
%TO.C,J18*%
X188325000Y-157076750D02*
X196755000Y-157076750D01*
X188325000Y-167126750D02*
X188325000Y-157076750D01*
X196755000Y-157076750D02*
X196755000Y-167126750D01*
X196755000Y-167126750D02*
X188325000Y-167126750D01*
%TO.C,U3*%
X182060000Y-217400000D02*
X184760000Y-217400000D01*
X182060000Y-220900000D02*
X182060000Y-217400000D01*
X184760000Y-217400000D02*
X184760000Y-220900000D01*
X184760000Y-220900000D02*
X182060000Y-220900000D01*
%TO.C,TPD4EUSB30DQAR3*%
X178590000Y-160110001D02*
X180490000Y-160110001D01*
X178590000Y-163110001D02*
X178590000Y-160110001D01*
X180490000Y-160110001D02*
X180490000Y-163110001D01*
X180490000Y-163110001D02*
X178590000Y-163110001D01*
%TO.C,C39*%
X163360000Y-213330001D02*
X164820000Y-213330001D01*
X163360000Y-216290001D02*
X163360000Y-213330001D01*
X164820000Y-213330001D02*
X164820000Y-216290001D01*
X164820000Y-216290001D02*
X163360000Y-216290001D01*
%TO.C,R10*%
X183320000Y-162581750D02*
X186280000Y-162581750D01*
X183320000Y-164041750D02*
X183320000Y-162581750D01*
X186280000Y-162581750D02*
X186280000Y-164041750D01*
X186280000Y-164041750D02*
X183320000Y-164041750D01*
%TO.C,EXTERNALFAN5V1*%
X172510000Y-180795000D02*
X173970000Y-180795000D01*
X172510000Y-183755000D02*
X172510000Y-180795000D01*
X173970000Y-180795000D02*
X173970000Y-183755000D01*
X173970000Y-183755000D02*
X172510000Y-183755000D01*
%TO.C,R13*%
X185540000Y-210705000D02*
X187000000Y-210705000D01*
X185540000Y-213665000D02*
X185540000Y-210705000D01*
X187000000Y-210705000D02*
X187000000Y-213665000D01*
X187000000Y-213665000D02*
X185540000Y-213665000D01*
%TO.C,TPD4EUSB30DQAR2*%
X114500000Y-196832500D02*
X117500000Y-196832500D01*
X114500000Y-198732500D02*
X114500000Y-196832500D01*
X117500000Y-196832500D02*
X117500000Y-198732500D01*
X117500000Y-198732500D02*
X114500000Y-198732500D01*
%TO.C,J7*%
X70450000Y-173270000D02*
X70450000Y-219760000D01*
X70450000Y-219760000D02*
X87230000Y-219760000D01*
X87230000Y-173270000D02*
X70450000Y-173270000D01*
X87230000Y-219760000D02*
X87230000Y-173270000D01*
%TO.C,R14*%
X171265001Y-210685001D02*
X172725001Y-210685001D01*
X171265001Y-213645001D02*
X171265001Y-210685001D01*
X172725001Y-210685001D02*
X172725001Y-213645001D01*
X172725001Y-213645001D02*
X171265001Y-213645001D01*
%TO.C,C16*%
X103900000Y-213010000D02*
X107100000Y-213010000D01*
X103900000Y-217610000D02*
X103900000Y-213010000D01*
X107100000Y-213010000D02*
X107100000Y-217610000D01*
X107100000Y-217610000D02*
X103900000Y-217610000D01*
%TO.C,D8*%
X190270000Y-210810000D02*
X192130000Y-210810000D01*
X190270000Y-211750000D02*
X190270000Y-210810000D01*
X192130000Y-210810000D02*
X192130000Y-211750000D01*
X192130000Y-211750000D02*
X190270000Y-211750000D01*
%TO.C,C26*%
X80510000Y-159243419D02*
X83470000Y-159243419D01*
X80510000Y-160703419D02*
X80510000Y-159243419D01*
X83470000Y-159243419D02*
X83470000Y-160703419D01*
X83470000Y-160703419D02*
X80510000Y-160703419D01*
D11*
%TO.C,IC5*%
X184500001Y-198475000D02*
X188299999Y-198475000D01*
X184500001Y-202775000D02*
X184500001Y-198475000D01*
X188299999Y-198475000D02*
X188299999Y-202775000D01*
X188299999Y-202775000D02*
X184500001Y-202775000D01*
D10*
%TO.C,R18*%
X85160000Y-161093419D02*
X86620000Y-161093419D01*
X85160000Y-164053419D02*
X85160000Y-161093419D01*
X86620000Y-161093419D02*
X86620000Y-164053419D01*
X86620000Y-164053419D02*
X85160000Y-164053419D01*
%TO.C,R11*%
X183320000Y-164131750D02*
X186280000Y-164131750D01*
X183320000Y-165591750D02*
X183320000Y-164131750D01*
X186280000Y-164131750D02*
X186280000Y-165591750D01*
X186280000Y-165591750D02*
X183320000Y-165591750D01*
%TO.C,R22*%
X183345000Y-194570001D02*
X186305000Y-194570001D01*
X183345000Y-196030001D02*
X183345000Y-194570001D01*
X186305000Y-194570001D02*
X186305000Y-196030001D01*
X186305000Y-196030001D02*
X183345000Y-196030001D01*
%TO.C,D5*%
X191690000Y-155856750D02*
X193550000Y-155856750D01*
X191690000Y-156796750D02*
X191690000Y-155856750D01*
X193550000Y-155856750D02*
X193550000Y-156796750D01*
X193550000Y-156796750D02*
X191690000Y-156796750D01*
%TO.C,CONFIG_1*%
X87115000Y-162265000D02*
X88575000Y-162265000D01*
X87115000Y-165225000D02*
X87115000Y-162265000D01*
X88575000Y-162265000D02*
X88575000Y-165225000D01*
X88575000Y-165225000D02*
X87115000Y-165225000D01*
%TO.C,R25*%
X186495000Y-196120001D02*
X189455000Y-196120001D01*
X186495000Y-197580001D02*
X186495000Y-196120001D01*
X189455000Y-196120001D02*
X189455000Y-197580001D01*
X189455000Y-197580001D02*
X186495000Y-197580001D01*
%TO.C,R26*%
X172815000Y-210685002D02*
X174275000Y-210685002D01*
X172815000Y-213645002D02*
X172815000Y-210685002D01*
X174275000Y-210685002D02*
X174275000Y-213645002D01*
X174275000Y-213645002D02*
X172815000Y-213645002D01*
%TO.C,D4*%
X190270000Y-220660000D02*
X192130000Y-220660000D01*
X190270000Y-221600000D02*
X190270000Y-220660000D01*
X192130000Y-220660000D02*
X192130000Y-221600000D01*
X192130000Y-221600000D02*
X190270000Y-221600000D01*
%TO.C,BMI2_SDA1*%
X166350000Y-180845000D02*
X167810000Y-180845000D01*
X166350000Y-183805000D02*
X166350000Y-180845000D01*
X167810000Y-180845000D02*
X167810000Y-183805000D01*
X167810000Y-183805000D02*
X166350000Y-183805000D01*
%TO.C,C20*%
X183320000Y-165681750D02*
X186280000Y-165681750D01*
X183320000Y-167141750D02*
X183320000Y-165681750D01*
X186280000Y-165681750D02*
X186280000Y-167141750D01*
X186280000Y-167141750D02*
X183320000Y-167141750D01*
%TO.C,C5*%
X136360000Y-196030000D02*
X137820000Y-196030000D01*
X136360000Y-198990000D02*
X136360000Y-196030000D01*
X137820000Y-196030000D02*
X137820000Y-198990000D01*
X137820000Y-198990000D02*
X136360000Y-198990000D01*
%TO.C,BMI2_SCL1*%
X164040000Y-180845000D02*
X165500000Y-180845000D01*
X164040000Y-183805000D02*
X164040000Y-180845000D01*
X165500000Y-180845000D02*
X165500000Y-183805000D01*
X165500000Y-183805000D02*
X164040000Y-183805000D01*
%TO.C,C27*%
X80515001Y-157193419D02*
X83915001Y-157193419D01*
X80515001Y-159153419D02*
X80515001Y-157193419D01*
X83915001Y-157193419D02*
X83915001Y-159153419D01*
X83915001Y-159153419D02*
X80515001Y-159153419D01*
%TO.C,R23*%
X185920000Y-205420000D02*
X188880000Y-205420000D01*
X185920000Y-206880000D02*
X185920000Y-205420000D01*
X188880000Y-205420000D02*
X188880000Y-206880000D01*
X188880000Y-206880000D02*
X185920000Y-206880000D01*
%TO.C,R19*%
X74185001Y-160518419D02*
X75645001Y-160518419D01*
X74185001Y-163478419D02*
X74185001Y-160518419D01*
X75645001Y-160518419D02*
X75645001Y-163478419D01*
X75645001Y-163478419D02*
X74185001Y-163478419D01*
%TO.C,C32*%
X185920000Y-203870001D02*
X188880000Y-203870001D01*
X185920000Y-205330001D02*
X185920000Y-203870001D01*
X188880000Y-203870001D02*
X188880000Y-205330001D01*
X188880000Y-205330001D02*
X185920000Y-205330001D01*
%TO.C,C4*%
X134840000Y-196030000D02*
X136300000Y-196030000D01*
X134840000Y-198990000D02*
X134840000Y-196030000D01*
X136300000Y-196030000D02*
X136300000Y-198990000D01*
X136300000Y-198990000D02*
X134840000Y-198990000D01*
%TO.C,C18*%
X122562294Y-215405330D02*
X124655330Y-213312294D01*
X123594670Y-216437706D02*
X122562294Y-215405330D01*
X124655330Y-213312294D02*
X125687706Y-214344670D01*
X125687706Y-214344670D02*
X123594670Y-216437706D01*
%TO.C,D1*%
X190270000Y-215590000D02*
X192130000Y-215590000D01*
X190270000Y-216530000D02*
X190270000Y-215590000D01*
X192130000Y-215590000D02*
X192130000Y-216530000D01*
X192130000Y-216530000D02*
X190270000Y-216530000D01*
%TO.C,R17*%
X74185000Y-163688419D02*
X75645000Y-163688419D01*
X74185000Y-166648419D02*
X74185000Y-163688419D01*
X75645000Y-163688419D02*
X75645000Y-166648419D01*
X75645000Y-166648419D02*
X74185000Y-166648419D01*
%TO.C,SW1*%
X148840000Y-215070000D02*
X149090000Y-215070000D01*
X148840000Y-215320000D02*
X148840000Y-215070000D01*
X148840000Y-224320000D02*
X148840000Y-215320000D01*
X148840000Y-224570000D02*
X148840000Y-224320000D01*
X149090000Y-215070000D02*
X156090000Y-215070000D01*
X149090000Y-224570000D02*
X148840000Y-224570000D01*
X156090000Y-224570000D02*
X149090000Y-224570000D01*
X156090000Y-224570000D02*
X156340000Y-224570000D01*
X156340000Y-215070000D02*
X156090000Y-215070000D01*
X156340000Y-215320000D02*
X156340000Y-215070000D01*
X156340000Y-215320000D02*
X156340000Y-224320000D01*
X156340000Y-224570000D02*
X156340000Y-224320000D01*
%TO.C,C19*%
X150445000Y-213395000D02*
X153405000Y-213395000D01*
X150445000Y-214855000D02*
X150445000Y-213395000D01*
X153405000Y-213395000D02*
X153405000Y-214855000D01*
X153405000Y-214855000D02*
X150445000Y-214855000D01*
D11*
%TO.C,IC4*%
X165990000Y-211835001D02*
X170290000Y-211835001D01*
X165990000Y-215634999D02*
X165990000Y-211835001D01*
X170290000Y-211835001D02*
X170290000Y-215634999D01*
X170290000Y-215634999D02*
X165990000Y-215634999D01*
D10*
%TO.C,R16*%
X75735001Y-163688419D02*
X77195001Y-163688419D01*
X75735001Y-166648419D02*
X75735001Y-163688419D01*
X77195001Y-163688419D02*
X77195001Y-166648419D01*
X77195001Y-166648419D02*
X75735001Y-166648419D01*
%TO.C,TP1*%
X186940000Y-216050000D02*
G75*
G02*
X184440000Y-216050000I-1250000J0D01*
G01*
X184440000Y-216050000D02*
G75*
G02*
X186940000Y-216050000I1250000J0D01*
G01*
%TO.C,CONFIG_2*%
X90130000Y-162265000D02*
X91590000Y-162265000D01*
X90130000Y-165225000D02*
X90130000Y-162265000D01*
X91590000Y-162265000D02*
X91590000Y-165225000D01*
X91590000Y-165225000D02*
X90130000Y-165225000D01*
%TO.C,Bat_5V_direct1*%
X87120000Y-158220000D02*
X88580000Y-158220000D01*
X87120000Y-161180000D02*
X87120000Y-158220000D01*
X88580000Y-158220000D02*
X88580000Y-161180000D01*
X88580000Y-161180000D02*
X87120000Y-161180000D01*
%TO.C,R15*%
X156210000Y-180720000D02*
X159170000Y-180720000D01*
X156210000Y-182180000D02*
X156210000Y-180720000D01*
X159170000Y-180720000D02*
X159170000Y-182180000D01*
X159170000Y-182180000D02*
X156210000Y-182180000D01*
%TO.C,R30*%
X164534999Y-209330000D02*
X167494999Y-209330000D01*
X164534999Y-210790000D02*
X164534999Y-209330000D01*
X167494999Y-209330000D02*
X167494999Y-210790000D01*
X167494999Y-210790000D02*
X164534999Y-210790000D01*
%TO.C,J4*%
X98010000Y-220900000D02*
X98010000Y-224440000D01*
X98010000Y-224440000D02*
X111710000Y-224440000D01*
X111710000Y-220900000D02*
X98010000Y-220900000D01*
X111710000Y-224440000D02*
X111710000Y-220900000D01*
%TO.C,C33*%
X189470001Y-200670000D02*
X190930001Y-200670000D01*
X189470001Y-203630000D02*
X189470001Y-200670000D01*
X190930001Y-200670000D02*
X190930001Y-203630000D01*
X190930001Y-203630000D02*
X189470001Y-203630000D01*
%TO.C,C34*%
X191020000Y-200675001D02*
X192980000Y-200675001D01*
X191020000Y-204075001D02*
X191020000Y-200675001D01*
X192980000Y-200675001D02*
X192980000Y-204075001D01*
X192980000Y-204075001D02*
X191020000Y-204075001D01*
%TO.C,C36*%
X168240001Y-218485000D02*
X172840001Y-218485000D01*
X168240001Y-221685000D02*
X168240001Y-218485000D01*
X172840001Y-218485000D02*
X172840001Y-221685000D01*
X172840001Y-221685000D02*
X168240001Y-221685000D01*
%TO.C,U2*%
X157950000Y-184400000D02*
X162950000Y-184400000D01*
X157950000Y-187900000D02*
X157950000Y-184400000D01*
X162950000Y-184400000D02*
X162950000Y-187900000D01*
X162950000Y-187900000D02*
X157950000Y-187900000D01*
%TO.C,R4*%
X102570000Y-218470000D02*
X105530000Y-218470000D01*
X102570000Y-219930000D02*
X102570000Y-218470000D01*
X105530000Y-218470000D02*
X105530000Y-219930000D01*
X105530000Y-219930000D02*
X102570000Y-219930000D01*
%TO.C,C10*%
X107570000Y-207490000D02*
X108490000Y-207490000D01*
X107570000Y-209310000D02*
X107570000Y-207490000D01*
X108490000Y-207490000D02*
X108490000Y-209310000D01*
X108490000Y-209310000D02*
X107570000Y-209310000D01*
%TO.C,C42*%
X128760000Y-196035000D02*
X130220000Y-196035000D01*
X128760000Y-198995000D02*
X128760000Y-196035000D01*
X130220000Y-196035000D02*
X130220000Y-198995000D01*
X130220000Y-198995000D02*
X128760000Y-198995000D01*
%TO.C,C43*%
X159260000Y-175525000D02*
X162220000Y-175525000D01*
X159260000Y-176985000D02*
X159260000Y-175525000D01*
X162220000Y-175525000D02*
X162220000Y-176985000D01*
X162220000Y-176985000D02*
X159260000Y-176985000D01*
%TO.C,TP5*%
X127200000Y-199500000D02*
G75*
G02*
X125200000Y-199500000I-1000000J0D01*
G01*
X125200000Y-199500000D02*
G75*
G02*
X127200000Y-199500000I1000000J0D01*
G01*
%TO.C,C25*%
X83585000Y-161093418D02*
X85045000Y-161093418D01*
X83585000Y-164053418D02*
X83585000Y-161093418D01*
X85045000Y-161093418D02*
X85045000Y-164053418D01*
X85045000Y-164053418D02*
X83585000Y-164053418D01*
%TO.C,C13*%
X109547294Y-206110330D02*
X111640330Y-204017294D01*
X110579670Y-207142706D02*
X109547294Y-206110330D01*
X111640330Y-204017294D02*
X112672706Y-205049670D01*
X112672706Y-205049670D02*
X110579670Y-207142706D01*
%TO.C,CONFIG_3*%
X93140000Y-162265000D02*
X94600000Y-162265000D01*
X93140000Y-165225000D02*
X93140000Y-162265000D01*
X94600000Y-162265000D02*
X94600000Y-165225000D01*
X94600000Y-165225000D02*
X93140000Y-165225000D01*
%TO.C,Q2*%
X125934520Y-203172186D02*
X128338683Y-200768023D01*
X128338683Y-200768023D02*
X131061044Y-203490384D01*
X128656881Y-205894547D02*
X125934520Y-203172186D01*
X128656881Y-205894547D02*
X131061044Y-203490384D01*
%TO.C,R29*%
X171260000Y-213815002D02*
X172720000Y-213815002D01*
X171260000Y-216775002D02*
X171260000Y-213815002D01*
X172720000Y-213815002D02*
X172720000Y-216775002D01*
X172720000Y-216775002D02*
X171260000Y-216775002D01*
%TO.C,C37*%
X168235001Y-209330000D02*
X171195001Y-209330000D01*
X168235001Y-210790000D02*
X168235001Y-209330000D01*
X171195001Y-209330000D02*
X171195001Y-210790000D01*
X171195001Y-210790000D02*
X168235001Y-210790000D01*
%TO.C,R24*%
X186495001Y-194570000D02*
X189455001Y-194570000D01*
X186495001Y-196030000D02*
X186495001Y-194570000D01*
X189455001Y-194570000D02*
X189455001Y-196030000D01*
X189455001Y-196030000D02*
X186495001Y-196030000D01*
%TD*%
M02*
