%TF.GenerationSoftware,KiCad,Pcbnew,9.0.1+1*%
%TF.CreationDate,2025-11-26T10:36:43+00:00*%
%TF.ProjectId,nautilus_mainboard,6e617574-696c-4757-935f-6d61696e626f,rev?*%
%TF.SameCoordinates,Original*%
%TF.FileFunction,AssemblyDrawing,Bot*%
%FSLAX46Y46*%
G04 Gerber Fmt 4.6, Leading zero omitted, Abs format (unit mm)*
G04 Created by KiCad (PCBNEW 9.0.1+1) date 2025-11-26 10:36:43*
%MOMM*%
%LPD*%
G01*
G04 APERTURE LIST*
%ADD10C,0.300000*%
%ADD11C,0.150000*%
G04 APERTURE END LIST*
D10*
X203092378Y-156168125D02*
X203235236Y-156096696D01*
X203235236Y-156096696D02*
X203449521Y-156096696D01*
X203449521Y-156096696D02*
X203663807Y-156168125D01*
X203663807Y-156168125D02*
X203806664Y-156310982D01*
X203806664Y-156310982D02*
X203878093Y-156453839D01*
X203878093Y-156453839D02*
X203949521Y-156739553D01*
X203949521Y-156739553D02*
X203949521Y-156953839D01*
X203949521Y-156953839D02*
X203878093Y-157239553D01*
X203878093Y-157239553D02*
X203806664Y-157382410D01*
X203806664Y-157382410D02*
X203663807Y-157525268D01*
X203663807Y-157525268D02*
X203449521Y-157596696D01*
X203449521Y-157596696D02*
X203306664Y-157596696D01*
X203306664Y-157596696D02*
X203092378Y-157525268D01*
X203092378Y-157525268D02*
X203020950Y-157453839D01*
X203020950Y-157453839D02*
X203020950Y-156953839D01*
X203020950Y-156953839D02*
X203306664Y-156953839D01*
X202163807Y-156096696D02*
X202163807Y-156453839D01*
X202520950Y-156310982D02*
X202163807Y-156453839D01*
X202163807Y-156453839D02*
X201806664Y-156310982D01*
X202378093Y-156739553D02*
X202163807Y-156453839D01*
X202163807Y-156453839D02*
X201949521Y-156739553D01*
X201020950Y-156096696D02*
X201020950Y-156453839D01*
X201378093Y-156310982D02*
X201020950Y-156453839D01*
X201020950Y-156453839D02*
X200663807Y-156310982D01*
X201235236Y-156739553D02*
X201020950Y-156453839D01*
X201020950Y-156453839D02*
X200806664Y-156739553D01*
X199878093Y-156096696D02*
X199878093Y-156453839D01*
X200235236Y-156310982D02*
X199878093Y-156453839D01*
X199878093Y-156453839D02*
X199520950Y-156310982D01*
X200092379Y-156739553D02*
X199878093Y-156453839D01*
X199878093Y-156453839D02*
X199663807Y-156739553D01*
D11*
X212820951Y-88183866D02*
X212059047Y-88183866D01*
X232433866Y-164619048D02*
X232433866Y-165380953D01*
X219170951Y-91733866D02*
X218409047Y-91733866D01*
X232473866Y-135619048D02*
X232473866Y-136380953D01*
X219170951Y-95283866D02*
X218409047Y-95283866D01*
X82530951Y-105313866D02*
X81769047Y-105313866D01*
X145213866Y-103108978D02*
X145213866Y-103870883D01*
X147713866Y-103108978D02*
X147713866Y-103870883D01*
X237643866Y-164619048D02*
X237643866Y-165380953D01*
X150393866Y-103108978D02*
X150393866Y-103870883D01*
X212820951Y-91733866D02*
X212059047Y-91733866D01*
X224303866Y-164619048D02*
X224303866Y-165380953D01*
X212820951Y-95283866D02*
X212059047Y-95283866D01*
X219170951Y-88183866D02*
X218409047Y-88183866D01*
X237473866Y-135619048D02*
X237473866Y-136380953D01*
X234933866Y-164619048D02*
X234933866Y-165380953D01*
X219093866Y-164619048D02*
X219093866Y-165380953D01*
X199673866Y-146969049D02*
X199673866Y-147730954D01*
X240183866Y-164619048D02*
X240183866Y-165380953D01*
X239973866Y-135619048D02*
X239973866Y-136380953D01*
X226803866Y-164619048D02*
X226803866Y-165380953D01*
D10*
X170276724Y-157659298D02*
X170419582Y-157587869D01*
X170419582Y-157587869D02*
X170633867Y-157587869D01*
X170633867Y-157587869D02*
X170848153Y-157659298D01*
X170848153Y-157659298D02*
X170991010Y-157802155D01*
X170991010Y-157802155D02*
X171062439Y-157945012D01*
X171062439Y-157945012D02*
X171133867Y-158230726D01*
X171133867Y-158230726D02*
X171133867Y-158445012D01*
X171133867Y-158445012D02*
X171062439Y-158730726D01*
X171062439Y-158730726D02*
X170991010Y-158873583D01*
X170991010Y-158873583D02*
X170848153Y-159016441D01*
X170848153Y-159016441D02*
X170633867Y-159087869D01*
X170633867Y-159087869D02*
X170491010Y-159087869D01*
X170491010Y-159087869D02*
X170276724Y-159016441D01*
X170276724Y-159016441D02*
X170205296Y-158945012D01*
X170205296Y-158945012D02*
X170205296Y-158445012D01*
X170205296Y-158445012D02*
X170491010Y-158445012D01*
X169348153Y-157587869D02*
X169348153Y-157945012D01*
X169705296Y-157802155D02*
X169348153Y-157945012D01*
X169348153Y-157945012D02*
X168991010Y-157802155D01*
X169562439Y-158230726D02*
X169348153Y-157945012D01*
X169348153Y-157945012D02*
X169133867Y-158230726D01*
X168205296Y-157587869D02*
X168205296Y-157945012D01*
X168562439Y-157802155D02*
X168205296Y-157945012D01*
X168205296Y-157945012D02*
X167848153Y-157802155D01*
X168419582Y-158230726D02*
X168205296Y-157945012D01*
X168205296Y-157945012D02*
X167991010Y-158230726D01*
X167062439Y-157587869D02*
X167062439Y-157945012D01*
X167419582Y-157802155D02*
X167062439Y-157945012D01*
X167062439Y-157945012D02*
X166705296Y-157802155D01*
X167276725Y-158230726D02*
X167062439Y-157945012D01*
X167062439Y-157945012D02*
X166848153Y-158230726D01*
D11*
X234973866Y-135619048D02*
X234973866Y-136380953D01*
X221593866Y-164619048D02*
X221593866Y-165380953D01*
X152893866Y-103108978D02*
X152893866Y-103870883D01*
M02*
