%TF.GenerationSoftware,KiCad,Pcbnew,9.0.1+1*%
%TF.CreationDate,2025-11-19T23:20:09+00:00*%
%TF.ProjectId,nautilus_mainboard,6e617574-696c-4757-935f-6d61696e626f,rev?*%
%TF.SameCoordinates,Original*%
%TF.FileFunction,Copper,L3,Inr*%
%TF.FilePolarity,Positive*%
%FSLAX46Y46*%
G04 Gerber Fmt 4.6, Leading zero omitted, Abs format (unit mm)*
G04 Created by KiCad (PCBNEW 9.0.1+1) date 2025-11-19 23:20:09*
%MOMM*%
%LPD*%
G01*
G04 APERTURE LIST*
G04 Aperture macros list*
%AMRoundRect*
0 Rectangle with rounded corners*
0 $1 Rounding radius*
0 $2 $3 $4 $5 $6 $7 $8 $9 X,Y pos of 4 corners*
0 Add a 4 corners polygon primitive as box body*
4,1,4,$2,$3,$4,$5,$6,$7,$8,$9,$2,$3,0*
0 Add four circle primitives for the rounded corners*
1,1,$1+$1,$2,$3*
1,1,$1+$1,$4,$5*
1,1,$1+$1,$6,$7*
1,1,$1+$1,$8,$9*
0 Add four rect primitives between the rounded corners*
20,1,$1+$1,$2,$3,$4,$5,0*
20,1,$1+$1,$4,$5,$6,$7,0*
20,1,$1+$1,$6,$7,$8,$9,0*
20,1,$1+$1,$8,$9,$2,$3,0*%
G04 Aperture macros list end*
%TA.AperFunction,ComponentPad*%
%ADD10O,1.700000X0.900000*%
%TD*%
%TA.AperFunction,ComponentPad*%
%ADD11O,2.000000X0.900000*%
%TD*%
%TA.AperFunction,ComponentPad*%
%ADD12C,2.500000*%
%TD*%
%TA.AperFunction,ComponentPad*%
%ADD13C,2.000000*%
%TD*%
%TA.AperFunction,ComponentPad*%
%ADD14R,2.500000X2.500000*%
%TD*%
%TA.AperFunction,ComponentPad*%
%ADD15R,1.268000X1.268000*%
%TD*%
%TA.AperFunction,ComponentPad*%
%ADD16C,1.268000*%
%TD*%
%TA.AperFunction,ComponentPad*%
%ADD17C,1.530000*%
%TD*%
%TA.AperFunction,ComponentPad*%
%ADD18C,1.650000*%
%TD*%
%TA.AperFunction,ComponentPad*%
%ADD19RoundRect,0.250000X-1.050000X-1.050000X1.050000X-1.050000X1.050000X1.050000X-1.050000X1.050000X0*%
%TD*%
%TA.AperFunction,ComponentPad*%
%ADD20C,2.600000*%
%TD*%
%TA.AperFunction,ComponentPad*%
%ADD21R,1.700000X1.700000*%
%TD*%
%TA.AperFunction,ComponentPad*%
%ADD22C,1.700000*%
%TD*%
%TA.AperFunction,ViaPad*%
%ADD23C,0.600000*%
%TD*%
G04 APERTURE END LIST*
D10*
%TO.N,Net-(C20-Pad2)*%
%TO.C,J3*%
X260700000Y-164650000D03*
X260700000Y-156000000D03*
D11*
X256520000Y-164650000D03*
X256520000Y-156000000D03*
%TD*%
D12*
%TO.N,/STM/PinoutSTM/CAN1_TX*%
%TO.C,TP7*%
X73895000Y-169740000D03*
%TD*%
%TO.N,/IMU/Pack1_SDA*%
%TO.C,TP2*%
X79995000Y-147940000D03*
%TD*%
D13*
%TO.N,/STM/PinoutSTM/nRST*%
%TO.C,SW1*%
X164050000Y-163800000D03*
X170550000Y-163800000D03*
%TO.N,GND*%
X164050000Y-168300000D03*
X170550000Y-168300000D03*
%TD*%
D14*
%TO.N,Net-(LS1-+)*%
%TO.C,LS1*%
X201500000Y-151200000D03*
D12*
%TO.N,Net-(LS1--)*%
X206500000Y-151200000D03*
%TD*%
D15*
%TO.N,/CM4/Battery_Out_3.3V*%
%TO.C,J7*%
X148740000Y-158170000D03*
D16*
X150010000Y-156900000D03*
%TO.N,unconnected-(J7-Pad03)*%
X148740000Y-155630000D03*
%TO.N,unconnected-(J7-Pad04)*%
X150010000Y-154360000D03*
%TO.N,/LPHS-connector/STM.TX*%
X148740000Y-153090000D03*
%TO.N,/LPHS-connector/STM.RX*%
X150010000Y-151820000D03*
%TO.N,/LPHS-connector/ST_CAN.P*%
X148740000Y-150550000D03*
%TO.N,/LPHS-connector/ST_CAN.N*%
X150010000Y-149280000D03*
%TO.N,/CM4/TRD0.D-*%
X151280000Y-158170000D03*
%TO.N,/CM4/TRD0.D+*%
X152550000Y-156900000D03*
%TO.N,/CM4/TRD1.D-*%
X151280000Y-155630000D03*
%TO.N,/CM4/TRD1.D+*%
X152550000Y-154360000D03*
%TO.N,/CM4/TRD2.D-*%
X151280000Y-153090000D03*
%TO.N,/CM4/TRD2.D+*%
X152550000Y-151820000D03*
%TO.N,/CM4/TRD3.D-*%
X151280000Y-150550000D03*
%TO.N,/CM4/TRD3.D+*%
X152550000Y-149280000D03*
D17*
%TO.N,/LPHS-connector/Battery_Out_5V*%
X150050000Y-146000000D03*
X150050000Y-143500000D03*
X150050000Y-141000000D03*
X150050000Y-138500000D03*
X150050000Y-136000000D03*
%TO.N,unconnected-(J7-P02-PadP02_1)*%
X152550000Y-146000000D03*
%TO.N,unconnected-(J7-P02__1-PadP02_2)*%
X152550000Y-143500000D03*
%TO.N,unconnected-(J7-P02__2-PadP02_3)*%
X152550000Y-141000000D03*
%TO.N,unconnected-(J7-P02__3-PadP02_4)*%
X152550000Y-138500000D03*
%TO.N,unconnected-(J7-P02__4-PadP02_5)*%
X152550000Y-136000000D03*
%TO.N,unconnected-(J7-P03-PadP03_1)*%
X150050000Y-134000000D03*
%TO.N,unconnected-(J7-P03__1-PadP03_2)*%
X150050000Y-131500000D03*
%TO.N,unconnected-(J7-P03__2-PadP03_3)*%
X150050000Y-129000000D03*
%TO.N,unconnected-(J7-P03__3-PadP03_4)*%
X150050000Y-126500000D03*
%TO.N,unconnected-(J7-P03__4-PadP03_5)*%
X150050000Y-124000000D03*
%TO.N,GND*%
X152550000Y-134000000D03*
X152550000Y-131500000D03*
X152550000Y-129000000D03*
X152550000Y-126500000D03*
X152550000Y-124000000D03*
%TD*%
D18*
%TO.N,Net-(EXTERNALFAN5V1-Pad2)*%
%TO.C,J2*%
X78330000Y-119995000D03*
%TO.N,GND*%
X80870000Y-119995000D03*
%TD*%
D19*
%TO.N,+5V*%
%TO.C,J5*%
X75145000Y-91840000D03*
D20*
%TO.N,Net-(J5-Pin_2)*%
X80145000Y-91840000D03*
%TO.N,+5V*%
X85145000Y-91840000D03*
%TD*%
D21*
%TO.N,/Power_logic/STM_Plug_3.3V*%
%TO.C,J4*%
X175140000Y-168100000D03*
D22*
%TO.N,/STM/PinoutSTM/USART1_RX*%
X177680000Y-168100000D03*
%TO.N,/STM/PinoutSTM/USART1_TX*%
X180219999Y-168100000D03*
%TO.N,/STM/PinoutSTM/STM_BOOT0*%
X182760000Y-168100000D03*
%TO.N,GND*%
X185300000Y-168100000D03*
%TD*%
D12*
%TO.N,/STM/PinoutSTM/CAN1_RX*%
%TO.C,TP6*%
X73895000Y-165190000D03*
%TD*%
%TO.N,/IMU/Pack1_SCL*%
%TO.C,TP3*%
X79995000Y-152490000D03*
%TD*%
D23*
%TO.N,GND*%
X189950000Y-141750000D03*
X197450000Y-141750000D03*
X201300000Y-143300000D03*
X188450000Y-141750000D03*
X194450000Y-141750000D03*
X202200000Y-143300000D03*
X195950000Y-141750000D03*
X200400000Y-143300000D03*
X192950000Y-141750000D03*
X191450000Y-141750000D03*
X198950000Y-141750000D03*
%TD*%
M02*
