%TF.GenerationSoftware,KiCad,Pcbnew,9.0.1+1*%
%TF.CreationDate,2025-11-26T10:36:43+00:00*%
%TF.ProjectId,nautilus_mainboard,6e617574-696c-4757-935f-6d61696e626f,rev?*%
%TF.SameCoordinates,Original*%
%TF.FileFunction,Other,User*%
%FSLAX46Y46*%
G04 Gerber Fmt 4.6, Leading zero omitted, Abs format (unit mm)*
G04 Created by KiCad (PCBNEW 9.0.1+1) date 2025-11-26 10:36:43*
%MOMM*%
%LPD*%
G01*
G04 APERTURE LIST*
%ADD10C,0.050000*%
G04 APERTURE END LIST*
D10*
%TO.C,JP22*%
X210790000Y-87460000D02*
X210790000Y-84960000D01*
X210790000Y-87460000D02*
X214090000Y-87460000D01*
X214090000Y-84960000D02*
X210790000Y-84960000D01*
X214090000Y-84960000D02*
X214090000Y-87460000D01*
%TO.C,JP2*%
X229210000Y-163350000D02*
X229210000Y-166650000D01*
X229210000Y-163350000D02*
X231710000Y-163350000D01*
X231710000Y-166650000D02*
X229210000Y-166650000D01*
X231710000Y-166650000D02*
X231710000Y-163350000D01*
%TO.C,JP20*%
X217140000Y-91010000D02*
X217140000Y-88510000D01*
X217140000Y-91010000D02*
X220440000Y-91010000D01*
X220440000Y-88510000D02*
X217140000Y-88510000D01*
X220440000Y-88510000D02*
X220440000Y-91010000D01*
%TO.C,JP14*%
X229250000Y-134350000D02*
X229250000Y-137650000D01*
X229250000Y-134350000D02*
X231750000Y-134350000D01*
X231750000Y-137650000D02*
X229250000Y-137650000D01*
X231750000Y-137650000D02*
X231750000Y-134350000D01*
%TO.C,JP21*%
X217140000Y-94560000D02*
X217140000Y-92060000D01*
X217140000Y-94560000D02*
X220440000Y-94560000D01*
X220440000Y-92060000D02*
X217140000Y-92060000D01*
X220440000Y-92060000D02*
X220440000Y-94560000D01*
%TO.C,JP13*%
X80500000Y-104590000D02*
X80500000Y-102090000D01*
X80500000Y-104590000D02*
X83800000Y-104590000D01*
X83800000Y-102090000D02*
X80500000Y-102090000D01*
X83800000Y-102090000D02*
X83800000Y-104590000D01*
%TO.C,JP6*%
X141990000Y-101839930D02*
X141990000Y-105139930D01*
X141990000Y-101839930D02*
X144490000Y-101839930D01*
X144490000Y-105139930D02*
X141990000Y-105139930D01*
X144490000Y-105139930D02*
X144490000Y-101839930D01*
%TO.C,JP5*%
X144490000Y-101839930D02*
X144490000Y-105139930D01*
X144490000Y-101839930D02*
X146990000Y-101839930D01*
X146990000Y-105139930D02*
X144490000Y-105139930D01*
X146990000Y-105139930D02*
X146990000Y-101839930D01*
%TO.C,JP10*%
X234420000Y-163350000D02*
X234420000Y-166650000D01*
X234420000Y-163350000D02*
X236920000Y-163350000D01*
X236920000Y-166650000D02*
X234420000Y-166650000D01*
X236920000Y-166650000D02*
X236920000Y-163350000D01*
%TO.C,JP8*%
X147170000Y-101839930D02*
X147170000Y-105139930D01*
X147170000Y-101839930D02*
X149670000Y-101839930D01*
X149670000Y-105139930D02*
X147170000Y-105139930D01*
X149670000Y-105139930D02*
X149670000Y-101839930D01*
%TO.C,JP23*%
X210790000Y-91010000D02*
X210790000Y-88510000D01*
X210790000Y-91010000D02*
X214090000Y-91010000D01*
X214090000Y-88510000D02*
X210790000Y-88510000D01*
X214090000Y-88510000D02*
X214090000Y-91010000D01*
%TO.C,JP11*%
X221080000Y-163350000D02*
X221080000Y-166650000D01*
X221080000Y-163350000D02*
X223580000Y-163350000D01*
X223580000Y-166650000D02*
X221080000Y-166650000D01*
X223580000Y-166650000D02*
X223580000Y-163350000D01*
%TO.C,JP24*%
X210790000Y-94560000D02*
X210790000Y-92060000D01*
X210790000Y-94560000D02*
X214090000Y-94560000D01*
X214090000Y-92060000D02*
X210790000Y-92060000D01*
X214090000Y-92060000D02*
X214090000Y-94560000D01*
%TO.C,JP19*%
X217140000Y-87460000D02*
X217140000Y-84960000D01*
X217140000Y-87460000D02*
X220440000Y-87460000D01*
X220440000Y-84960000D02*
X217140000Y-84960000D01*
X220440000Y-84960000D02*
X220440000Y-87460000D01*
%TO.C,JP16*%
X234250000Y-134350000D02*
X234250000Y-137650000D01*
X234250000Y-134350000D02*
X236750000Y-134350000D01*
X236750000Y-137650000D02*
X234250000Y-137650000D01*
X236750000Y-137650000D02*
X236750000Y-134350000D01*
%TO.C,JP1*%
X231710000Y-163350000D02*
X231710000Y-166650000D01*
X231710000Y-163350000D02*
X234210000Y-163350000D01*
X234210000Y-166650000D02*
X231710000Y-166650000D01*
X234210000Y-166650000D02*
X234210000Y-163350000D01*
%TO.C,JP3*%
X215870000Y-163350000D02*
X215870000Y-166650000D01*
X215870000Y-163350000D02*
X218370000Y-163350000D01*
X218370000Y-166650000D02*
X215870000Y-166650000D01*
X218370000Y-166650000D02*
X218370000Y-163350000D01*
%TO.C,JP18*%
X200250000Y-145700001D02*
X200250000Y-149000001D01*
X200250000Y-145700001D02*
X202750000Y-145700001D01*
X202750000Y-149000001D02*
X200250000Y-149000001D01*
X202750000Y-149000001D02*
X202750000Y-145700001D01*
%TO.C,JP9*%
X236960000Y-163350000D02*
X236960000Y-166650000D01*
X236960000Y-163350000D02*
X239460000Y-163350000D01*
X239460000Y-166650000D02*
X236960000Y-166650000D01*
X239460000Y-166650000D02*
X239460000Y-163350000D01*
%TO.C,JP17*%
X236750000Y-134350000D02*
X236750000Y-137650000D01*
X236750000Y-134350000D02*
X239250000Y-134350000D01*
X239250000Y-137650000D02*
X236750000Y-137650000D01*
X239250000Y-137650000D02*
X239250000Y-134350000D01*
%TO.C,JP12*%
X223580000Y-163350000D02*
X223580000Y-166650000D01*
X223580000Y-163350000D02*
X226080000Y-163350000D01*
X226080000Y-166650000D02*
X223580000Y-166650000D01*
X226080000Y-166650000D02*
X226080000Y-163350000D01*
%TO.C,JP15*%
X231750000Y-134350000D02*
X231750000Y-137650000D01*
X231750000Y-134350000D02*
X234250000Y-134350000D01*
X234250000Y-137650000D02*
X231750000Y-137650000D01*
X234250000Y-137650000D02*
X234250000Y-134350000D01*
%TO.C,JP4*%
X218370000Y-163350000D02*
X218370000Y-166650000D01*
X218370000Y-163350000D02*
X220870000Y-163350000D01*
X220870000Y-166650000D02*
X218370000Y-166650000D01*
X220870000Y-166650000D02*
X220870000Y-163350000D01*
%TO.C,JP7*%
X149670000Y-101839930D02*
X149670000Y-105139930D01*
X149670000Y-101839930D02*
X152170000Y-101839930D01*
X152170000Y-105139930D02*
X149670000Y-105139930D01*
X152170000Y-105139930D02*
X152170000Y-101839930D01*
%TD*%
M02*
