%TF.GenerationSoftware,KiCad,Pcbnew,9.0.1+1*%
%TF.CreationDate,2025-11-20T22:27:02+00:00*%
%TF.ProjectId,nautilus_mainboard,6e617574-696c-4757-935f-6d61696e626f,rev?*%
%TF.SameCoordinates,Original*%
%TF.FileFunction,Copper,L2,Inr*%
%TF.FilePolarity,Positive*%
%FSLAX46Y46*%
G04 Gerber Fmt 4.6, Leading zero omitted, Abs format (unit mm)*
G04 Created by KiCad (PCBNEW 9.0.1+1) date 2025-11-20 22:27:02*
%MOMM*%
%LPD*%
G01*
G04 APERTURE LIST*
G04 Aperture macros list*
%AMRoundRect*
0 Rectangle with rounded corners*
0 $1 Rounding radius*
0 $2 $3 $4 $5 $6 $7 $8 $9 X,Y pos of 4 corners*
0 Add a 4 corners polygon primitive as box body*
4,1,4,$2,$3,$4,$5,$6,$7,$8,$9,$2,$3,0*
0 Add four circle primitives for the rounded corners*
1,1,$1+$1,$2,$3*
1,1,$1+$1,$4,$5*
1,1,$1+$1,$6,$7*
1,1,$1+$1,$8,$9*
0 Add four rect primitives between the rounded corners*
20,1,$1+$1,$2,$3,$4,$5,0*
20,1,$1+$1,$4,$5,$6,$7,0*
20,1,$1+$1,$6,$7,$8,$9,0*
20,1,$1+$1,$8,$9,$2,$3,0*%
G04 Aperture macros list end*
%TA.AperFunction,ComponentPad*%
%ADD10O,1.700000X0.900000*%
%TD*%
%TA.AperFunction,ComponentPad*%
%ADD11O,2.000000X0.900000*%
%TD*%
%TA.AperFunction,ComponentPad*%
%ADD12C,2.500000*%
%TD*%
%TA.AperFunction,ComponentPad*%
%ADD13C,2.000000*%
%TD*%
%TA.AperFunction,ComponentPad*%
%ADD14C,5.300000*%
%TD*%
%TA.AperFunction,ComponentPad*%
%ADD15R,2.500000X2.500000*%
%TD*%
%TA.AperFunction,ComponentPad*%
%ADD16C,1.650000*%
%TD*%
%TA.AperFunction,ComponentPad*%
%ADD17RoundRect,0.250000X-1.050000X-1.050000X1.050000X-1.050000X1.050000X1.050000X-1.050000X1.050000X0*%
%TD*%
%TA.AperFunction,ComponentPad*%
%ADD18C,2.600000*%
%TD*%
%TA.AperFunction,ComponentPad*%
%ADD19R,1.700000X1.700000*%
%TD*%
%TA.AperFunction,ComponentPad*%
%ADD20C,1.700000*%
%TD*%
%TA.AperFunction,ComponentPad*%
%ADD21R,1.268000X1.268000*%
%TD*%
%TA.AperFunction,ComponentPad*%
%ADD22C,1.268000*%
%TD*%
%TA.AperFunction,ComponentPad*%
%ADD23C,1.530000*%
%TD*%
%TA.AperFunction,ViaPad*%
%ADD24C,0.600000*%
%TD*%
G04 APERTURE END LIST*
D10*
%TO.N,Net-(C20-Pad2)*%
%TO.C,J3*%
X260700000Y-164650000D03*
X260700000Y-156000000D03*
D11*
X256520000Y-164650000D03*
X256520000Y-156000000D03*
%TD*%
D12*
%TO.N,/STM/PinoutSTM/CAN1_TX*%
%TO.C,TP7*%
X73895000Y-169740000D03*
%TD*%
%TO.N,/IMU/Pack1_SDA*%
%TO.C,TP2*%
X79995000Y-147940000D03*
%TD*%
D13*
%TO.N,/STM/PinoutSTM/nRST*%
%TO.C,SW1*%
X164050000Y-163800000D03*
X170550000Y-163800000D03*
%TO.N,GND*%
X164050000Y-168300000D03*
X170550000Y-168300000D03*
%TD*%
D14*
%TO.N,N/C*%
%TO.C,J6*%
X227500000Y-117475000D03*
%TD*%
D15*
%TO.N,Net-(LS1-+)*%
%TO.C,LS1*%
X201500000Y-151200000D03*
D12*
%TO.N,Net-(LS1--)*%
X206500000Y-151200000D03*
%TD*%
D16*
%TO.N,Net-(EXTERNALFAN5V1-Pad2)*%
%TO.C,J2*%
X78330000Y-119995000D03*
%TO.N,GND*%
X80870000Y-119995000D03*
%TD*%
D17*
%TO.N,+5V*%
%TO.C,J5*%
X75145000Y-91840000D03*
D18*
%TO.N,Net-(J5-Pin_2)*%
X80145000Y-91840000D03*
%TO.N,+5V*%
X85145000Y-91840000D03*
%TD*%
D19*
%TO.N,/Power_logic/STM_Plug_3.3V*%
%TO.C,J4*%
X175140000Y-168100000D03*
D20*
%TO.N,/STM/PinoutSTM/USART1_RX*%
X177680000Y-168100000D03*
%TO.N,/STM/PinoutSTM/USART1_TX*%
X180219999Y-168100000D03*
%TO.N,/STM/PinoutSTM/STM_BOOT0*%
X182760000Y-168100000D03*
%TO.N,GND*%
X185300000Y-168100000D03*
%TD*%
D12*
%TO.N,/STM/PinoutSTM/CAN1_RX*%
%TO.C,TP6*%
X73895000Y-165190000D03*
%TD*%
D21*
%TO.N,/CM4/Battery_Out_3.3V*%
%TO.C,J7*%
X148740000Y-158170000D03*
D22*
X150009999Y-156900000D03*
%TO.N,unconnected-(J7-Pad03)*%
X148740000Y-155630000D03*
%TO.N,unconnected-(J7-Pad04)*%
X150010000Y-154360000D03*
%TO.N,/LPHS-connector/STM.TX*%
X148740000Y-153090000D03*
%TO.N,/LPHS-connector/STM.RX*%
X150010000Y-151820000D03*
%TO.N,/LPHS-connector/ST_CAN.P*%
X148740000Y-150550000D03*
%TO.N,/LPHS-connector/ST_CAN.N*%
X150010000Y-149280000D03*
%TO.N,/CM4/TRD0.D-*%
X151280000Y-158170000D03*
%TO.N,/CM4/TRD0.D+*%
X152550001Y-156900000D03*
%TO.N,/CM4/TRD1.D-*%
X151280000Y-155629999D03*
%TO.N,/CM4/TRD1.D+*%
X152550000Y-154360000D03*
%TO.N,/CM4/TRD2.D-*%
X151280000Y-153090000D03*
%TO.N,/CM4/TRD2.D+*%
X152550000Y-151820000D03*
%TO.N,/CM4/TRD3.D-*%
X151280000Y-150550000D03*
%TO.N,/CM4/TRD3.D+*%
X152550000Y-149280000D03*
D23*
%TO.N,/LPHS-connector/Battery_Out_5V*%
X150050000Y-146000000D03*
X150050000Y-143500000D03*
X150050000Y-141000000D03*
X150050000Y-138500000D03*
X150050000Y-136000000D03*
%TO.N,unconnected-(J7-P02-PadP02_1)*%
X152550000Y-146000000D03*
%TO.N,unconnected-(J7-P02__1-PadP02_2)*%
X152550000Y-143500000D03*
%TO.N,unconnected-(J7-P02__2-PadP02_3)*%
X152550000Y-141000000D03*
%TO.N,unconnected-(J7-P02__3-PadP02_4)*%
X152550000Y-138500000D03*
%TO.N,unconnected-(J7-P02__4-PadP02_5)*%
X152550000Y-136000000D03*
%TO.N,unconnected-(J7-P03-PadP03_1)*%
X150050000Y-134000000D03*
%TO.N,unconnected-(J7-P03__1-PadP03_2)*%
X150050000Y-131500000D03*
%TO.N,unconnected-(J7-P03__2-PadP03_3)*%
X150050000Y-129000000D03*
%TO.N,unconnected-(J7-P03__3-PadP03_4)*%
X150050000Y-126500000D03*
%TO.N,unconnected-(J7-P03__4-PadP03_5)*%
X150050000Y-124000000D03*
%TO.N,GND*%
X152550000Y-134000000D03*
X152550000Y-131500000D03*
X152550000Y-128999999D03*
X152550001Y-126500000D03*
X152550001Y-124000000D03*
%TD*%
D12*
%TO.N,/IMU/Pack1_SCL*%
%TO.C,TP3*%
X79995000Y-152490000D03*
%TD*%
D24*
%TO.N,+5V*%
X195980000Y-138200000D03*
X192930000Y-138200000D03*
X203350000Y-139310000D03*
X191430000Y-138200000D03*
X204390000Y-139310000D03*
X190040000Y-138200000D03*
X194430000Y-138200000D03*
%TO.N,GND*%
X189950000Y-141750000D03*
X197450000Y-141750000D03*
X201300000Y-143300000D03*
X188450000Y-141750000D03*
X194450000Y-141750000D03*
X202200000Y-143300000D03*
X182530000Y-143800000D03*
X178380000Y-150820000D03*
X195950000Y-141750000D03*
X200400000Y-143300000D03*
X192950000Y-141750000D03*
X191450000Y-141750000D03*
X198950000Y-141750000D03*
%TO.N,+3.3V*%
X176640000Y-152500000D03*
X178720000Y-152500000D03*
X175620000Y-150220000D03*
X181410000Y-152500000D03*
X204180000Y-166650000D03*
X178670000Y-154480000D03*
X179870000Y-152500000D03*
X177330000Y-150840000D03*
X185255001Y-160280000D03*
X179820000Y-154480000D03*
X175600000Y-154480000D03*
X177640000Y-152500000D03*
X183910000Y-152500000D03*
X181360000Y-154480000D03*
X177590000Y-154480000D03*
X183860000Y-154480000D03*
X182690000Y-152500000D03*
X183790000Y-159740000D03*
X185180000Y-150810000D03*
X175650000Y-152500000D03*
X179610000Y-150870000D03*
X174920000Y-150790000D03*
X176590000Y-154480000D03*
X175490000Y-158980000D03*
X182320000Y-150840000D03*
X182640000Y-154480000D03*
%TO.N,/STM/PinoutSTM/nRST*%
X180780000Y-148320000D03*
X180744522Y-164190000D03*
%TO.N,/CM4/GPIO_VREF_3.3V*%
X215020000Y-169560000D03*
X215030000Y-144270000D03*
X190800000Y-144270000D03*
X191190000Y-133040000D03*
%TO.N,/LPHS-connector/Battery_Out_5V*%
X155180000Y-163230000D03*
X145460000Y-164480000D03*
X158590000Y-163230000D03*
%TO.N,/STM/PinoutSTM/USART1_TX*%
X173580000Y-169690000D03*
X173560000Y-163100000D03*
%TO.N,/STM/PinoutSTM/JTAG_TDO{slash}SWO*%
X191790000Y-156020000D03*
X191760000Y-159150000D03*
%TO.N,/STM/PinoutSTM/JTAG_TMS{slash}SWDIO*%
X203270000Y-169930000D03*
X202260000Y-165460000D03*
%TO.N,/STM/PinoutSTM/JTAG_TCK{slash}SWCLK*%
X199080000Y-169690000D03*
X192970000Y-160650000D03*
%TO.N,/STM/PinoutSTM/USART1_RX*%
X198050000Y-169690000D03*
X180150000Y-163560000D03*
%TO.N,/STM/PinoutSTM/STM_BOOT0*%
X179210000Y-166411000D03*
X179250000Y-153500000D03*
X179240000Y-163110000D03*
%TO.N,/CM4/Battery_Out_3.3V*%
X151490000Y-164440000D03*
X160190000Y-160350000D03*
X148740000Y-165300000D03*
%TO.N,/LPHS-connector/ST_CAN.P*%
X146846064Y-161060000D03*
%TO.N,/LPHS-connector/ST_CAN.N*%
X146200000Y-160480000D03*
%TO.N,/STM/PinoutSTM/USART2_RX*%
X184510000Y-150220000D03*
X184220000Y-135480000D03*
X184210000Y-151520000D03*
%TO.N,/LPHS-connector/STM.TX*%
X169570000Y-146960000D03*
X161800000Y-147580000D03*
%TO.N,/STM/PinoutSTM/USART2_TX*%
X175853812Y-148220000D03*
X177905000Y-148210000D03*
%TO.N,/LPHS-connector/STM.RX*%
X161190000Y-148230000D03*
X168360000Y-148240000D03*
%TO.N,/CM4/TRD3.D+*%
X169230000Y-142749742D03*
X173894742Y-142749742D03*
%TO.N,/CM4/TRD2.D+*%
X171450000Y-145044741D03*
X166799530Y-144919530D03*
%TO.N,/CM4/TRD0.D+*%
X159613025Y-156219022D03*
%TO.N,/CM4/CM4_Module1A/ETH_LED_Y*%
X179440000Y-131340000D03*
X179446993Y-136122935D03*
%TO.N,/CM4/CM4_Module1A/ETH_LED_G*%
X178859234Y-130819313D03*
X260100000Y-130520000D03*
X260070000Y-140660000D03*
X178866993Y-135586497D03*
%TO.N,/STM/PinoutSTM/CAN1_RX*%
X178190000Y-164820000D03*
X167510000Y-165300000D03*
X167500000Y-159690000D03*
X174229252Y-164810190D03*
%TO.N,/CM4/TRD0.D-*%
X158734004Y-156803070D03*
%TO.N,/CM4/RUN_PG*%
X180630000Y-134820000D03*
X179270000Y-148310000D03*
%TO.N,/STM/PinoutSTM/CAN1_TX*%
X166900000Y-165990000D03*
X166880000Y-161650000D03*
X181770000Y-159600000D03*
X178610000Y-165480000D03*
X174256673Y-165589711D03*
X181610000Y-165480000D03*
%TO.N,/CM4/TRD2.D-*%
X172379742Y-144264742D03*
X168340000Y-144334743D03*
%TO.N,/CM4/TRD3.D-*%
X173894742Y-143599742D03*
X169230000Y-143599742D03*
%TO.N,/CM4/CM4_Module1A/CM4_LED2/PI_nLED_Activity*%
X180000000Y-137840000D03*
X255190000Y-141740000D03*
X255190000Y-131471000D03*
X180030000Y-132220000D03*
%TD*%
%TA.AperFunction,Conductor*%
%TO.N,GND*%
G36*
X166277060Y-144679685D02*
G01*
X166322815Y-144732489D01*
X166332759Y-144801647D01*
X166329797Y-144816086D01*
X166319030Y-144856271D01*
X166319030Y-144982789D01*
X166351775Y-145104996D01*
X166415034Y-145214564D01*
X166504496Y-145304026D01*
X166614064Y-145367285D01*
X166736271Y-145400030D01*
X166736273Y-145400030D01*
X166862787Y-145400030D01*
X166862789Y-145400030D01*
X166984996Y-145367285D01*
X167094564Y-145304026D01*
X167184026Y-145214564D01*
X167247285Y-145104996D01*
X167280030Y-144982789D01*
X167280030Y-144856271D01*
X167269264Y-144816091D01*
X167270927Y-144746244D01*
X167310090Y-144688381D01*
X167374318Y-144660877D01*
X167389039Y-144660000D01*
X167934365Y-144660000D01*
X168001404Y-144679685D01*
X168022046Y-144696319D01*
X168044966Y-144719239D01*
X168154534Y-144782498D01*
X168276741Y-144815243D01*
X168276743Y-144815243D01*
X168403257Y-144815243D01*
X168403259Y-144815243D01*
X168525466Y-144782498D01*
X168635034Y-144719239D01*
X168657954Y-144696319D01*
X168719277Y-144662834D01*
X168745635Y-144660000D01*
X170902522Y-144660000D01*
X170969561Y-144679685D01*
X171015316Y-144732489D01*
X171025260Y-144801647D01*
X171009910Y-144845999D01*
X171002245Y-144859274D01*
X171002245Y-144859275D01*
X170969500Y-144981482D01*
X170969500Y-145108000D01*
X171002245Y-145230207D01*
X171065504Y-145339775D01*
X171154966Y-145429237D01*
X171264534Y-145492496D01*
X171386741Y-145525241D01*
X171386743Y-145525241D01*
X171513257Y-145525241D01*
X171513259Y-145525241D01*
X171635466Y-145492496D01*
X171745034Y-145429237D01*
X171834496Y-145339775D01*
X171897755Y-145230207D01*
X171930500Y-145108000D01*
X171930500Y-144981482D01*
X171897755Y-144859275D01*
X171890089Y-144845998D01*
X171888658Y-144840097D01*
X171884684Y-144835511D01*
X171880518Y-144806542D01*
X171873619Y-144778099D01*
X171875604Y-144772363D01*
X171874740Y-144766353D01*
X171886899Y-144739727D01*
X171896471Y-144712072D01*
X171901243Y-144708319D01*
X171903765Y-144702797D01*
X171928387Y-144686973D01*
X171951393Y-144668882D01*
X171958742Y-144667465D01*
X171962543Y-144665023D01*
X171997478Y-144660000D01*
X172070123Y-144660000D01*
X172132122Y-144676612D01*
X172194276Y-144712497D01*
X172316483Y-144745242D01*
X172316485Y-144745242D01*
X172442999Y-144745242D01*
X172443001Y-144745242D01*
X172565208Y-144712497D01*
X172627361Y-144676612D01*
X172689361Y-144660000D01*
X216884259Y-144660000D01*
X216951298Y-144679685D01*
X216997053Y-144732489D01*
X217006997Y-144801647D01*
X216977972Y-144865203D01*
X216953150Y-144887102D01*
X216862217Y-144947860D01*
X216722863Y-145087214D01*
X216722860Y-145087218D01*
X216613371Y-145251079D01*
X216613364Y-145251092D01*
X216537950Y-145433160D01*
X216537947Y-145433170D01*
X216499500Y-145626456D01*
X216499500Y-145626459D01*
X216499500Y-145823541D01*
X216499500Y-145823543D01*
X216499499Y-145823543D01*
X216537947Y-146016829D01*
X216537950Y-146016839D01*
X216613364Y-146198907D01*
X216613371Y-146198920D01*
X216722860Y-146362781D01*
X216722863Y-146362785D01*
X216862214Y-146502136D01*
X216862218Y-146502139D01*
X217026079Y-146611628D01*
X217026092Y-146611635D01*
X217208160Y-146687049D01*
X217208165Y-146687051D01*
X217208169Y-146687051D01*
X217208170Y-146687052D01*
X217401456Y-146725500D01*
X217401459Y-146725500D01*
X217598543Y-146725500D01*
X217728582Y-146699632D01*
X217791835Y-146687051D01*
X217973914Y-146611632D01*
X218137782Y-146502139D01*
X218277139Y-146362782D01*
X218386632Y-146198914D01*
X218462051Y-146016835D01*
X218474632Y-145953582D01*
X218500500Y-145823543D01*
X218500500Y-145626456D01*
X218462052Y-145433170D01*
X218462051Y-145433169D01*
X218462051Y-145433165D01*
X218447185Y-145397275D01*
X218386635Y-145251092D01*
X218386628Y-145251079D01*
X218277139Y-145087218D01*
X218277136Y-145087214D01*
X218137782Y-144947860D01*
X218046850Y-144887102D01*
X218025102Y-144861080D01*
X218002947Y-144835511D01*
X218002783Y-144834373D01*
X218002045Y-144833490D01*
X217997823Y-144799877D01*
X217993003Y-144766353D01*
X217993481Y-144765305D01*
X217993338Y-144764165D01*
X218007951Y-144733620D01*
X218022028Y-144702797D01*
X218022995Y-144702174D01*
X218023492Y-144701138D01*
X218052309Y-144683336D01*
X218080806Y-144665023D01*
X218082304Y-144664807D01*
X218082935Y-144664418D01*
X218115741Y-144660000D01*
X218167506Y-144660000D01*
X218175615Y-144660265D01*
X218198089Y-144661737D01*
X218424531Y-144676579D01*
X218440589Y-144678694D01*
X218681238Y-144726562D01*
X218696904Y-144730760D01*
X218836361Y-144778099D01*
X218929245Y-144809629D01*
X218944222Y-144815832D01*
X219154681Y-144919619D01*
X219164283Y-144924354D01*
X219178329Y-144932464D01*
X219382337Y-145068777D01*
X219395202Y-145078648D01*
X219568024Y-145230209D01*
X219582737Y-145243112D01*
X219588659Y-145248659D01*
X227681340Y-153341340D01*
X227686887Y-153347262D01*
X227851348Y-153534793D01*
X227861222Y-153547662D01*
X227997535Y-153751670D01*
X228005645Y-153765716D01*
X228114164Y-153985770D01*
X228120371Y-154000756D01*
X228199239Y-154233095D01*
X228203437Y-154248761D01*
X228251303Y-154489396D01*
X228253421Y-154505478D01*
X228269735Y-154754383D01*
X228270000Y-154762493D01*
X228270000Y-168725572D01*
X228269684Y-168734418D01*
X228250275Y-169005785D01*
X228247757Y-169023297D01*
X228190872Y-169284794D01*
X228185888Y-169301770D01*
X228092361Y-169552524D01*
X228085011Y-169568617D01*
X227956758Y-169803496D01*
X227947193Y-169818380D01*
X227786811Y-170032624D01*
X227775226Y-170045994D01*
X227628037Y-170193182D01*
X227566717Y-170226666D01*
X227540358Y-170229500D01*
X203848799Y-170229500D01*
X203781760Y-170209815D01*
X203736005Y-170157011D01*
X203726061Y-170087853D01*
X203729021Y-170073419D01*
X203750500Y-169993259D01*
X203750500Y-169866741D01*
X203717755Y-169744534D01*
X203654496Y-169634966D01*
X203565034Y-169545504D01*
X203455466Y-169482245D01*
X203333259Y-169449500D01*
X203206741Y-169449500D01*
X203084534Y-169482245D01*
X203084531Y-169482246D01*
X202974964Y-169545505D01*
X202885505Y-169634964D01*
X202822246Y-169744531D01*
X202822245Y-169744534D01*
X202789500Y-169866741D01*
X202789500Y-169993259D01*
X202810975Y-170073408D01*
X202809313Y-170143256D01*
X202770151Y-170201119D01*
X202705922Y-170228623D01*
X202691201Y-170229500D01*
X199519392Y-170229500D01*
X199452353Y-170209815D01*
X199406598Y-170157011D01*
X199396654Y-170087853D01*
X199425679Y-170024297D01*
X199431711Y-170017819D01*
X199464496Y-169985034D01*
X199527755Y-169875466D01*
X199560500Y-169753259D01*
X199560500Y-169626741D01*
X199527755Y-169504534D01*
X199464496Y-169394966D01*
X199375034Y-169305504D01*
X199265466Y-169242245D01*
X199143259Y-169209500D01*
X199016741Y-169209500D01*
X198894534Y-169242245D01*
X198894531Y-169242246D01*
X198784964Y-169305505D01*
X198695506Y-169394963D01*
X198695504Y-169394965D01*
X198695504Y-169394966D01*
X198672385Y-169435008D01*
X198621819Y-169483222D01*
X198553212Y-169496444D01*
X198488348Y-169470476D01*
X198457614Y-169435009D01*
X198434496Y-169394966D01*
X198345034Y-169305504D01*
X198235466Y-169242245D01*
X198113259Y-169209500D01*
X197986741Y-169209500D01*
X197864534Y-169242245D01*
X197864531Y-169242246D01*
X197754964Y-169305505D01*
X197665505Y-169394964D01*
X197602246Y-169504531D01*
X197602245Y-169504534D01*
X197569500Y-169626741D01*
X197569500Y-169753259D01*
X197584150Y-169807932D01*
X197602245Y-169875465D01*
X197602246Y-169875468D01*
X197665505Y-169985035D01*
X197698289Y-170017819D01*
X197731774Y-170079142D01*
X197726790Y-170148834D01*
X197684918Y-170204767D01*
X197619454Y-170229184D01*
X197610608Y-170229500D01*
X174019392Y-170229500D01*
X173952353Y-170209815D01*
X173906598Y-170157011D01*
X173896654Y-170087853D01*
X173925679Y-170024297D01*
X173931711Y-170017819D01*
X173964496Y-169985034D01*
X174027755Y-169875466D01*
X174060500Y-169753259D01*
X174060500Y-169626741D01*
X174027755Y-169504534D01*
X173964496Y-169394966D01*
X173875034Y-169305504D01*
X173765466Y-169242245D01*
X173643259Y-169209500D01*
X173516741Y-169209500D01*
X173394534Y-169242245D01*
X173394531Y-169242246D01*
X173284964Y-169305505D01*
X173195505Y-169394964D01*
X173132246Y-169504531D01*
X173132245Y-169504534D01*
X173099500Y-169626741D01*
X173099500Y-169753259D01*
X173114150Y-169807932D01*
X173132245Y-169875465D01*
X173132246Y-169875468D01*
X173195505Y-169985035D01*
X173228289Y-170017819D01*
X173261774Y-170079142D01*
X173256790Y-170148834D01*
X173214918Y-170204767D01*
X173149454Y-170229184D01*
X173140608Y-170229500D01*
X142652706Y-170229500D01*
X142647297Y-170229382D01*
X142263249Y-170212614D01*
X142252473Y-170211671D01*
X141874042Y-170161849D01*
X141863389Y-170159971D01*
X141490727Y-170077354D01*
X141480278Y-170074554D01*
X141116244Y-169959775D01*
X141106078Y-169956075D01*
X140753427Y-169810002D01*
X140743623Y-169805430D01*
X140405057Y-169629183D01*
X140395689Y-169623775D01*
X140326944Y-169579980D01*
X140073755Y-169418681D01*
X140064894Y-169412476D01*
X139762069Y-169180110D01*
X139753782Y-169173156D01*
X139472364Y-168915284D01*
X139464715Y-168907635D01*
X139206843Y-168626217D01*
X139199889Y-168617930D01*
X138967523Y-168315105D01*
X138961319Y-168306244D01*
X138921475Y-168243702D01*
X138921473Y-168243700D01*
X138911210Y-168227591D01*
X138882132Y-168181947D01*
X162550000Y-168181947D01*
X162550000Y-168418052D01*
X162586934Y-168651247D01*
X162659897Y-168875802D01*
X162767087Y-169086174D01*
X162827338Y-169169104D01*
X162827340Y-169169105D01*
X163526212Y-168470233D01*
X163537482Y-168512292D01*
X163609890Y-168637708D01*
X163712292Y-168740110D01*
X163837708Y-168812518D01*
X163879765Y-168823787D01*
X163180893Y-169522658D01*
X163263828Y-169582914D01*
X163474197Y-169690102D01*
X163698752Y-169763065D01*
X163698751Y-169763065D01*
X163931948Y-169800000D01*
X164168052Y-169800000D01*
X164401247Y-169763065D01*
X164625802Y-169690102D01*
X164836163Y-169582918D01*
X164836169Y-169582914D01*
X164919104Y-169522658D01*
X164919105Y-169522658D01*
X164220233Y-168823787D01*
X164262292Y-168812518D01*
X164387708Y-168740110D01*
X164490110Y-168637708D01*
X164562518Y-168512292D01*
X164573787Y-168470233D01*
X165272658Y-169169105D01*
X165272658Y-169169104D01*
X165332914Y-169086169D01*
X165332918Y-169086163D01*
X165440102Y-168875802D01*
X165513065Y-168651247D01*
X165550000Y-168418052D01*
X165550000Y-168181947D01*
X169050000Y-168181947D01*
X169050000Y-168418052D01*
X169086934Y-168651247D01*
X169159897Y-168875802D01*
X169267087Y-169086174D01*
X169327338Y-169169104D01*
X169327340Y-169169105D01*
X170026212Y-168470233D01*
X170037482Y-168512292D01*
X170109890Y-168637708D01*
X170212292Y-168740110D01*
X170337708Y-168812518D01*
X170379765Y-168823787D01*
X169680893Y-169522658D01*
X169763828Y-169582914D01*
X169974197Y-169690102D01*
X170198752Y-169763065D01*
X170198751Y-169763065D01*
X170431948Y-169800000D01*
X170668052Y-169800000D01*
X170901247Y-169763065D01*
X171125802Y-169690102D01*
X171336163Y-169582918D01*
X171336169Y-169582914D01*
X171419104Y-169522658D01*
X171419105Y-169522658D01*
X170720233Y-168823787D01*
X170762292Y-168812518D01*
X170887708Y-168740110D01*
X170990110Y-168637708D01*
X171062518Y-168512292D01*
X171073787Y-168470234D01*
X171772658Y-169169105D01*
X171772658Y-169169104D01*
X171832914Y-169086169D01*
X171832918Y-169086163D01*
X171940102Y-168875802D01*
X172013065Y-168651247D01*
X172050000Y-168418052D01*
X172050000Y-168181947D01*
X172013065Y-167948752D01*
X171940102Y-167724197D01*
X171832914Y-167513828D01*
X171772658Y-167430894D01*
X171772658Y-167430893D01*
X171073787Y-168129765D01*
X171062518Y-168087708D01*
X170990110Y-167962292D01*
X170887708Y-167859890D01*
X170762292Y-167787482D01*
X170720234Y-167776212D01*
X171264228Y-167232218D01*
X174109500Y-167232218D01*
X174109500Y-168967774D01*
X174119973Y-169020428D01*
X174119974Y-169020431D01*
X174159867Y-169080134D01*
X174219569Y-169120025D01*
X174219572Y-169120027D01*
X174219575Y-169120027D01*
X174219576Y-169120028D01*
X174245897Y-169125263D01*
X174272223Y-169130500D01*
X176007776Y-169130499D01*
X176060428Y-169120027D01*
X176120133Y-169080133D01*
X176160027Y-169020428D01*
X176170500Y-168967777D01*
X176170499Y-167998500D01*
X176649500Y-167998500D01*
X176649500Y-168201499D01*
X176689100Y-168400578D01*
X176689103Y-168400590D01*
X176766779Y-168588118D01*
X176766786Y-168588131D01*
X176879557Y-168756904D01*
X176879560Y-168756908D01*
X177023091Y-168900439D01*
X177023095Y-168900442D01*
X177191868Y-169013213D01*
X177191881Y-169013220D01*
X177367997Y-169086169D01*
X177379414Y-169090898D01*
X177578500Y-169130499D01*
X177578503Y-169130500D01*
X177578505Y-169130500D01*
X177781497Y-169130500D01*
X177781498Y-169130499D01*
X177980586Y-169090898D01*
X178168125Y-169013217D01*
X178336905Y-168900442D01*
X178480442Y-168756905D01*
X178593217Y-168588125D01*
X178670898Y-168400586D01*
X178710500Y-168201495D01*
X178710500Y-167998505D01*
X178710500Y-167998502D01*
X178710499Y-167998500D01*
X179189499Y-167998500D01*
X179189499Y-168201499D01*
X179229099Y-168400578D01*
X179229102Y-168400590D01*
X179306778Y-168588118D01*
X179306785Y-168588131D01*
X179419556Y-168756904D01*
X179419559Y-168756908D01*
X179563090Y-168900439D01*
X179563094Y-168900442D01*
X179731867Y-169013213D01*
X179731880Y-169013220D01*
X179907996Y-169086169D01*
X179919413Y-169090898D01*
X180118499Y-169130499D01*
X180118502Y-169130500D01*
X180118504Y-169130500D01*
X180321496Y-169130500D01*
X180321497Y-169130499D01*
X180520585Y-169090898D01*
X180708124Y-169013217D01*
X180876904Y-168900442D01*
X181020441Y-168756905D01*
X181133216Y-168588125D01*
X181210897Y-168400586D01*
X181250499Y-168201495D01*
X181250499Y-167998505D01*
X181250499Y-167998502D01*
X181250498Y-167998500D01*
X181729500Y-167998500D01*
X181729500Y-168201499D01*
X181769100Y-168400578D01*
X181769103Y-168400590D01*
X181846779Y-168588118D01*
X181846786Y-168588131D01*
X181959557Y-168756904D01*
X181959560Y-168756908D01*
X182103091Y-168900439D01*
X182103095Y-168900442D01*
X182271868Y-169013213D01*
X182271881Y-169013220D01*
X182447997Y-169086169D01*
X182459414Y-169090898D01*
X182658500Y-169130499D01*
X182658503Y-169130500D01*
X182658505Y-169130500D01*
X182861497Y-169130500D01*
X182861498Y-169130499D01*
X183060586Y-169090898D01*
X183248125Y-169013217D01*
X183416905Y-168900442D01*
X183560442Y-168756905D01*
X183673217Y-168588125D01*
X183749648Y-168403602D01*
X183793488Y-168349199D01*
X183859783Y-168327134D01*
X183927482Y-168344413D01*
X183975093Y-168395550D01*
X183982140Y-168412737D01*
X184048904Y-168618217D01*
X184145375Y-168807550D01*
X184184728Y-168861716D01*
X184817037Y-168229408D01*
X184834075Y-168292993D01*
X184899901Y-168407007D01*
X184992993Y-168500099D01*
X185107007Y-168565925D01*
X185170590Y-168582962D01*
X184538282Y-169215269D01*
X184538282Y-169215270D01*
X184592449Y-169254624D01*
X184781782Y-169351095D01*
X184983870Y-169416757D01*
X185193754Y-169450000D01*
X185406246Y-169450000D01*
X185616127Y-169416757D01*
X185616130Y-169416757D01*
X185818217Y-169351095D01*
X186007554Y-169254622D01*
X186061716Y-169215270D01*
X186061717Y-169215270D01*
X185429408Y-168582962D01*
X185492993Y-168565925D01*
X185607007Y-168500099D01*
X185700099Y-168407007D01*
X185765925Y-168292993D01*
X185782962Y-168229408D01*
X186415270Y-168861717D01*
X186415270Y-168861716D01*
X186454622Y-168807554D01*
X186551095Y-168618217D01*
X186616757Y-168416130D01*
X186616757Y-168416127D01*
X186650000Y-168206246D01*
X186650000Y-167993753D01*
X186616757Y-167783872D01*
X186616757Y-167783869D01*
X186551095Y-167581782D01*
X186454624Y-167392449D01*
X186415270Y-167338282D01*
X186415269Y-167338282D01*
X185782962Y-167970590D01*
X185765925Y-167907007D01*
X185700099Y-167792993D01*
X185607007Y-167699901D01*
X185492993Y-167634075D01*
X185429409Y-167617037D01*
X186061716Y-166984728D01*
X186007550Y-166945375D01*
X185818217Y-166848904D01*
X185616129Y-166783242D01*
X185406246Y-166750000D01*
X185193754Y-166750000D01*
X184983872Y-166783242D01*
X184983869Y-166783242D01*
X184781782Y-166848904D01*
X184592439Y-166945380D01*
X184538282Y-166984727D01*
X184538282Y-166984728D01*
X185170591Y-167617037D01*
X185107007Y-167634075D01*
X184992993Y-167699901D01*
X184899901Y-167792993D01*
X184834075Y-167907007D01*
X184817037Y-167970590D01*
X184184728Y-167338282D01*
X184184727Y-167338282D01*
X184145380Y-167392439D01*
X184048904Y-167581783D01*
X183982140Y-167787262D01*
X183942702Y-167844938D01*
X183878344Y-167872136D01*
X183809498Y-167860221D01*
X183758022Y-167812977D01*
X183749648Y-167796396D01*
X183673220Y-167611881D01*
X183673213Y-167611868D01*
X183560442Y-167443095D01*
X183560439Y-167443091D01*
X183416908Y-167299560D01*
X183416904Y-167299557D01*
X183248131Y-167186786D01*
X183248122Y-167186781D01*
X183150989Y-167146548D01*
X183150987Y-167146547D01*
X183060590Y-167109103D01*
X183060578Y-167109100D01*
X182861498Y-167069500D01*
X182861495Y-167069500D01*
X182658505Y-167069500D01*
X182658502Y-167069500D01*
X182459421Y-167109100D01*
X182459409Y-167109103D01*
X182271881Y-167186779D01*
X182271868Y-167186786D01*
X182103095Y-167299557D01*
X182103091Y-167299560D01*
X181959560Y-167443091D01*
X181959557Y-167443095D01*
X181846786Y-167611868D01*
X181846779Y-167611881D01*
X181769103Y-167799409D01*
X181769100Y-167799421D01*
X181729500Y-167998500D01*
X181250498Y-167998500D01*
X181222992Y-167860221D01*
X181210897Y-167799414D01*
X181205955Y-167787482D01*
X181133219Y-167611881D01*
X181133212Y-167611868D01*
X181020441Y-167443095D01*
X181020438Y-167443091D01*
X180876907Y-167299560D01*
X180876903Y-167299557D01*
X180708130Y-167186786D01*
X180708117Y-167186779D01*
X180520589Y-167109103D01*
X180520577Y-167109100D01*
X180321497Y-167069500D01*
X180321494Y-167069500D01*
X180118504Y-167069500D01*
X180118501Y-167069500D01*
X179919420Y-167109100D01*
X179919408Y-167109103D01*
X179731880Y-167186779D01*
X179731867Y-167186786D01*
X179563094Y-167299557D01*
X179563090Y-167299560D01*
X179419559Y-167443091D01*
X179419556Y-167443095D01*
X179306785Y-167611868D01*
X179306778Y-167611881D01*
X179229102Y-167799409D01*
X179229099Y-167799421D01*
X179189499Y-167998500D01*
X178710499Y-167998500D01*
X178682993Y-167860221D01*
X178670898Y-167799414D01*
X178665956Y-167787482D01*
X178593220Y-167611881D01*
X178593213Y-167611868D01*
X178480442Y-167443095D01*
X178480439Y-167443091D01*
X178336908Y-167299560D01*
X178336904Y-167299557D01*
X178168131Y-167186786D01*
X178168118Y-167186779D01*
X177980590Y-167109103D01*
X177980578Y-167109100D01*
X177781498Y-167069500D01*
X177781495Y-167069500D01*
X177578505Y-167069500D01*
X177578502Y-167069500D01*
X177379421Y-167109100D01*
X177379409Y-167109103D01*
X177191881Y-167186779D01*
X177191868Y-167186786D01*
X177023095Y-167299557D01*
X177023091Y-167299560D01*
X176879560Y-167443091D01*
X176879557Y-167443095D01*
X176766786Y-167611868D01*
X176766779Y-167611881D01*
X176689103Y-167799409D01*
X176689100Y-167799421D01*
X176649500Y-167998500D01*
X176170499Y-167998500D01*
X176170499Y-167232224D01*
X176160027Y-167179572D01*
X176160025Y-167179569D01*
X176160025Y-167179568D01*
X176120132Y-167119865D01*
X176060430Y-167079974D01*
X176060423Y-167079971D01*
X176007780Y-167069500D01*
X174272225Y-167069500D01*
X174219571Y-167079973D01*
X174219568Y-167079974D01*
X174159865Y-167119867D01*
X174119974Y-167179569D01*
X174119971Y-167179576D01*
X174109500Y-167232218D01*
X171264228Y-167232218D01*
X171357996Y-167138450D01*
X171419105Y-167077340D01*
X171419104Y-167077338D01*
X171336174Y-167017087D01*
X171125802Y-166909897D01*
X170901247Y-166836934D01*
X170901248Y-166836934D01*
X170668052Y-166800000D01*
X170431948Y-166800000D01*
X170198752Y-166836934D01*
X169974197Y-166909897D01*
X169763830Y-167017084D01*
X169680894Y-167077340D01*
X170379766Y-167776212D01*
X170337708Y-167787482D01*
X170212292Y-167859890D01*
X170109890Y-167962292D01*
X170037482Y-168087708D01*
X170026212Y-168129766D01*
X169327340Y-167430894D01*
X169267084Y-167513830D01*
X169159897Y-167724197D01*
X169086934Y-167948752D01*
X169050000Y-168181947D01*
X165550000Y-168181947D01*
X165513065Y-167948752D01*
X165440102Y-167724197D01*
X165332914Y-167513828D01*
X165272658Y-167430894D01*
X165272658Y-167430893D01*
X164573787Y-168129765D01*
X164562518Y-168087708D01*
X164490110Y-167962292D01*
X164387708Y-167859890D01*
X164262292Y-167787482D01*
X164220234Y-167776212D01*
X164919105Y-167077340D01*
X164919104Y-167077339D01*
X164836174Y-167017087D01*
X164625802Y-166909897D01*
X164401247Y-166836934D01*
X164401248Y-166836934D01*
X164168052Y-166800000D01*
X163931948Y-166800000D01*
X163698752Y-166836934D01*
X163474197Y-166909897D01*
X163263830Y-167017084D01*
X163180894Y-167077340D01*
X163879766Y-167776212D01*
X163837708Y-167787482D01*
X163712292Y-167859890D01*
X163609890Y-167962292D01*
X163537482Y-168087708D01*
X163526212Y-168129766D01*
X162827340Y-167430894D01*
X162767084Y-167513830D01*
X162659897Y-167724197D01*
X162586934Y-167948752D01*
X162550000Y-168181947D01*
X138882132Y-168181947D01*
X138756223Y-167984309D01*
X138750816Y-167974942D01*
X138715451Y-167907007D01*
X138574566Y-167636369D01*
X138569997Y-167626572D01*
X138563912Y-167611881D01*
X138423920Y-167273911D01*
X138420224Y-167263755D01*
X138410282Y-167232224D01*
X138305442Y-166899710D01*
X138302648Y-166889284D01*
X138220025Y-166516597D01*
X138218152Y-166505971D01*
X138168326Y-166127506D01*
X138167386Y-166116769D01*
X138159090Y-165926741D01*
X166419500Y-165926741D01*
X166419500Y-166053259D01*
X166452245Y-166175466D01*
X166515504Y-166285034D01*
X166604966Y-166374496D01*
X166714534Y-166437755D01*
X166836741Y-166470500D01*
X166836743Y-166470500D01*
X166963257Y-166470500D01*
X166963259Y-166470500D01*
X167085466Y-166437755D01*
X167195034Y-166374496D01*
X167284496Y-166285034D01*
X167347755Y-166175466D01*
X167380500Y-166053259D01*
X167380500Y-165926741D01*
X167380500Y-165926738D01*
X167379703Y-165920684D01*
X167390469Y-165851649D01*
X167436850Y-165799394D01*
X167502642Y-165780500D01*
X167573257Y-165780500D01*
X167573259Y-165780500D01*
X167695466Y-165747755D01*
X167805034Y-165684496D01*
X167894496Y-165595034D01*
X167957755Y-165485466D01*
X167990500Y-165363259D01*
X167990500Y-165236741D01*
X167957755Y-165114534D01*
X167894496Y-165004966D01*
X167805034Y-164915504D01*
X167716682Y-164864494D01*
X167695468Y-164852246D01*
X167695467Y-164852245D01*
X167695466Y-164852245D01*
X167573259Y-164819500D01*
X167446741Y-164819500D01*
X167324534Y-164852245D01*
X167324531Y-164852246D01*
X167214964Y-164915505D01*
X167125505Y-165004964D01*
X167062246Y-165114531D01*
X167062245Y-165114534D01*
X167029500Y-165236741D01*
X167029500Y-165363261D01*
X167030297Y-165369316D01*
X167019531Y-165438351D01*
X166973150Y-165490606D01*
X166907358Y-165509500D01*
X166836741Y-165509500D01*
X166714534Y-165542245D01*
X166714531Y-165542246D01*
X166604964Y-165605505D01*
X166515505Y-165694964D01*
X166452246Y-165804531D01*
X166452245Y-165804534D01*
X166419500Y-165926741D01*
X138159090Y-165926741D01*
X138150618Y-165732702D01*
X138150500Y-165727293D01*
X138150500Y-165236741D01*
X148259500Y-165236741D01*
X148259500Y-165363259D01*
X148273831Y-165416741D01*
X148292245Y-165485465D01*
X148292246Y-165485468D01*
X148306121Y-165509500D01*
X148355504Y-165595034D01*
X148444966Y-165684496D01*
X148554534Y-165747755D01*
X148676741Y-165780500D01*
X148676743Y-165780500D01*
X148803257Y-165780500D01*
X148803259Y-165780500D01*
X148925466Y-165747755D01*
X149035034Y-165684496D01*
X149124496Y-165595034D01*
X149187755Y-165485466D01*
X149220500Y-165363259D01*
X149220500Y-165236741D01*
X149187755Y-165114534D01*
X149124496Y-165004966D01*
X149035034Y-164915504D01*
X148946682Y-164864494D01*
X148925468Y-164852246D01*
X148925467Y-164852245D01*
X148925466Y-164852245D01*
X148803259Y-164819500D01*
X148676741Y-164819500D01*
X148554534Y-164852245D01*
X148554531Y-164852246D01*
X148444964Y-164915505D01*
X148355505Y-165004964D01*
X148292246Y-165114531D01*
X148292245Y-165114534D01*
X148259500Y-165236741D01*
X138150500Y-165236741D01*
X138150500Y-164416741D01*
X144979500Y-164416741D01*
X144979500Y-164543259D01*
X145012245Y-164665466D01*
X145075504Y-164775034D01*
X145164966Y-164864496D01*
X145274534Y-164927755D01*
X145396741Y-164960500D01*
X145396743Y-164960500D01*
X145523257Y-164960500D01*
X145523259Y-164960500D01*
X145645466Y-164927755D01*
X145755034Y-164864496D01*
X145844496Y-164775034D01*
X145907755Y-164665466D01*
X145940500Y-164543259D01*
X145940500Y-164416741D01*
X145907755Y-164294534D01*
X145844496Y-164184966D01*
X145755034Y-164095504D01*
X145659764Y-164040500D01*
X145645468Y-164032246D01*
X145645467Y-164032245D01*
X145645466Y-164032245D01*
X145523259Y-163999500D01*
X145396741Y-163999500D01*
X145274534Y-164032245D01*
X145274531Y-164032246D01*
X145164964Y-164095505D01*
X145075505Y-164184964D01*
X145012246Y-164294531D01*
X145012245Y-164294534D01*
X144979500Y-164416741D01*
X138150500Y-164416741D01*
X138150500Y-161892650D01*
X149489500Y-161892650D01*
X149489500Y-162127349D01*
X149489501Y-162127365D01*
X149520134Y-162360048D01*
X149520135Y-162360053D01*
X149520136Y-162360059D01*
X149580883Y-162586772D01*
X149580886Y-162586779D01*
X149670700Y-162803610D01*
X149670705Y-162803620D01*
X149788058Y-163006882D01*
X149930940Y-163193090D01*
X149930946Y-163193097D01*
X150096902Y-163359053D01*
X150096909Y-163359059D01*
X150283117Y-163501941D01*
X150486379Y-163619294D01*
X150486389Y-163619299D01*
X150529150Y-163637011D01*
X150703228Y-163709117D01*
X150929941Y-163769864D01*
X151162644Y-163800500D01*
X151162651Y-163800500D01*
X151173873Y-163800500D01*
X151240912Y-163820185D01*
X151286667Y-163872989D01*
X151296611Y-163942147D01*
X151267586Y-164005703D01*
X151235875Y-164031884D01*
X151220954Y-164040500D01*
X151194964Y-164055505D01*
X151105505Y-164144964D01*
X151042246Y-164254531D01*
X151042245Y-164254534D01*
X151009500Y-164376741D01*
X151009500Y-164503259D01*
X151042245Y-164625466D01*
X151105504Y-164735034D01*
X151194966Y-164824496D01*
X151304534Y-164887755D01*
X151426741Y-164920500D01*
X151426743Y-164920500D01*
X151553257Y-164920500D01*
X151553259Y-164920500D01*
X151675466Y-164887755D01*
X151785034Y-164824496D01*
X151874496Y-164735034D01*
X151937755Y-164625466D01*
X151970500Y-164503259D01*
X151970500Y-164376741D01*
X151937755Y-164254534D01*
X151874496Y-164144966D01*
X151785034Y-164055504D01*
X151675466Y-163992245D01*
X151675465Y-163992244D01*
X151675464Y-163992244D01*
X151669122Y-163989617D01*
X151614718Y-163945777D01*
X151592653Y-163879483D01*
X151609932Y-163811783D01*
X151661069Y-163764172D01*
X151684473Y-163755283D01*
X151856772Y-163709117D01*
X152073617Y-163619296D01*
X152276883Y-163501941D01*
X152463092Y-163359058D01*
X152629058Y-163193092D01*
X152649278Y-163166741D01*
X154699500Y-163166741D01*
X154699500Y-163293259D01*
X154732245Y-163415466D01*
X154795504Y-163525034D01*
X154884966Y-163614496D01*
X154994534Y-163677755D01*
X155116741Y-163710500D01*
X155116743Y-163710500D01*
X155243257Y-163710500D01*
X155243259Y-163710500D01*
X155365466Y-163677755D01*
X155475034Y-163614496D01*
X155564496Y-163525034D01*
X155627755Y-163415466D01*
X155660500Y-163293259D01*
X155660500Y-163166741D01*
X158109500Y-163166741D01*
X158109500Y-163293259D01*
X158142245Y-163415466D01*
X158205504Y-163525034D01*
X158294966Y-163614496D01*
X158404534Y-163677755D01*
X158526741Y-163710500D01*
X158526743Y-163710500D01*
X158653257Y-163710500D01*
X158653259Y-163710500D01*
X158665974Y-163707093D01*
X162869500Y-163707093D01*
X162869500Y-163892906D01*
X162898568Y-164076435D01*
X162898568Y-164076438D01*
X162955986Y-164253152D01*
X163018958Y-164376741D01*
X163040346Y-164418717D01*
X163149565Y-164569044D01*
X163280956Y-164700435D01*
X163431283Y-164809654D01*
X163514873Y-164852245D01*
X163596847Y-164894013D01*
X163773562Y-164951431D01*
X163773563Y-164951431D01*
X163773566Y-164951432D01*
X163957093Y-164980500D01*
X163957094Y-164980500D01*
X164142906Y-164980500D01*
X164142907Y-164980500D01*
X164326434Y-164951432D01*
X164326437Y-164951431D01*
X164326438Y-164951431D01*
X164503152Y-164894013D01*
X164503152Y-164894012D01*
X164503155Y-164894012D01*
X164668717Y-164809654D01*
X164819044Y-164700435D01*
X164950435Y-164569044D01*
X165059654Y-164418717D01*
X165144012Y-164253155D01*
X165185086Y-164126743D01*
X165201431Y-164076438D01*
X165201431Y-164076437D01*
X165201432Y-164076434D01*
X165230500Y-163892907D01*
X165230500Y-163707093D01*
X169369500Y-163707093D01*
X169369500Y-163892906D01*
X169398568Y-164076435D01*
X169398568Y-164076438D01*
X169455986Y-164253152D01*
X169518958Y-164376741D01*
X169540346Y-164418717D01*
X169649565Y-164569044D01*
X169780956Y-164700435D01*
X169931283Y-164809654D01*
X170014873Y-164852245D01*
X170096847Y-164894013D01*
X170273562Y-164951431D01*
X170273563Y-164951431D01*
X170273566Y-164951432D01*
X170457093Y-164980500D01*
X170457094Y-164980500D01*
X170642906Y-164980500D01*
X170642907Y-164980500D01*
X170826434Y-164951432D01*
X170826437Y-164951431D01*
X170826438Y-164951431D01*
X171003152Y-164894013D01*
X171003152Y-164894012D01*
X171003155Y-164894012D01*
X171168717Y-164809654D01*
X171255048Y-164746931D01*
X173748752Y-164746931D01*
X173748752Y-164873449D01*
X173781497Y-164995656D01*
X173844754Y-165105221D01*
X173844757Y-165105225D01*
X173865632Y-165126100D01*
X173899117Y-165187423D01*
X173894133Y-165257115D01*
X173876331Y-165289262D01*
X173872177Y-165294675D01*
X173808919Y-165404242D01*
X173808918Y-165404245D01*
X173776173Y-165526452D01*
X173776173Y-165652970D01*
X173808918Y-165775177D01*
X173872177Y-165884745D01*
X173961639Y-165974207D01*
X174071207Y-166037466D01*
X174193414Y-166070211D01*
X174193416Y-166070211D01*
X174319930Y-166070211D01*
X174319932Y-166070211D01*
X174442139Y-166037466D01*
X174551707Y-165974207D01*
X174641169Y-165884745D01*
X174704428Y-165775177D01*
X174737173Y-165652970D01*
X174737173Y-165526452D01*
X174704428Y-165404245D01*
X174641169Y-165294677D01*
X174620292Y-165273800D01*
X174586807Y-165212477D01*
X174591791Y-165142785D01*
X174609599Y-165110630D01*
X174613742Y-165105229D01*
X174613748Y-165105224D01*
X174677007Y-164995656D01*
X174709752Y-164873449D01*
X174709752Y-164756741D01*
X177709500Y-164756741D01*
X177709500Y-164883259D01*
X177742245Y-165005466D01*
X177805504Y-165115034D01*
X177894966Y-165204496D01*
X178004534Y-165267755D01*
X178039148Y-165277029D01*
X178098808Y-165313394D01*
X178129337Y-165376241D01*
X178129994Y-165412981D01*
X178129500Y-165416735D01*
X178129500Y-165416741D01*
X178129500Y-165543259D01*
X178162245Y-165665466D01*
X178225504Y-165775034D01*
X178314966Y-165864496D01*
X178424534Y-165927755D01*
X178546741Y-165960500D01*
X178546743Y-165960500D01*
X178673257Y-165960500D01*
X178673259Y-165960500D01*
X178673260Y-165960499D01*
X178681315Y-165959439D01*
X178681591Y-165961538D01*
X178740216Y-165962922D01*
X178798087Y-166002073D01*
X178825604Y-166066296D01*
X178814031Y-166135201D01*
X178809872Y-166143041D01*
X178762245Y-166225533D01*
X178762245Y-166225534D01*
X178729500Y-166347741D01*
X178729500Y-166474259D01*
X178762245Y-166596466D01*
X178825504Y-166706034D01*
X178914966Y-166795496D01*
X179024534Y-166858755D01*
X179146741Y-166891500D01*
X179146743Y-166891500D01*
X179273257Y-166891500D01*
X179273259Y-166891500D01*
X179395466Y-166858755D01*
X179505034Y-166795496D01*
X179594496Y-166706034D01*
X179657755Y-166596466D01*
X179690500Y-166474259D01*
X179690500Y-166347741D01*
X179657755Y-166225534D01*
X179594496Y-166115966D01*
X179505034Y-166026504D01*
X179395466Y-165963245D01*
X179273259Y-165930500D01*
X179146741Y-165930500D01*
X179146739Y-165930500D01*
X179138685Y-165931561D01*
X179138409Y-165929466D01*
X179079754Y-165928068D01*
X179021893Y-165888903D01*
X178994391Y-165824674D01*
X179005980Y-165755772D01*
X179010111Y-165747987D01*
X179057755Y-165665466D01*
X179090500Y-165543259D01*
X179090500Y-165416741D01*
X181129500Y-165416741D01*
X181129500Y-165543259D01*
X181162245Y-165665466D01*
X181225504Y-165775034D01*
X181314966Y-165864496D01*
X181424534Y-165927755D01*
X181546741Y-165960500D01*
X181546743Y-165960500D01*
X181673257Y-165960500D01*
X181673259Y-165960500D01*
X181795466Y-165927755D01*
X181905034Y-165864496D01*
X181994496Y-165775034D01*
X182057755Y-165665466D01*
X182090500Y-165543259D01*
X182090500Y-165416741D01*
X182085141Y-165396741D01*
X201779500Y-165396741D01*
X201779500Y-165523259D01*
X201812245Y-165645466D01*
X201875504Y-165755034D01*
X201964966Y-165844496D01*
X202074534Y-165907755D01*
X202196741Y-165940500D01*
X202196743Y-165940500D01*
X202323257Y-165940500D01*
X202323259Y-165940500D01*
X202445466Y-165907755D01*
X202555034Y-165844496D01*
X202644496Y-165755034D01*
X202707755Y-165645466D01*
X202740500Y-165523259D01*
X202740500Y-165396741D01*
X202707755Y-165274534D01*
X202644496Y-165164966D01*
X202555034Y-165075504D01*
X202445466Y-165012245D01*
X202323259Y-164979500D01*
X202196741Y-164979500D01*
X202074534Y-165012245D01*
X202074531Y-165012246D01*
X201964964Y-165075505D01*
X201875505Y-165164964D01*
X201812246Y-165274531D01*
X201812245Y-165274534D01*
X201779500Y-165396741D01*
X182085141Y-165396741D01*
X182057755Y-165294534D01*
X181994496Y-165184966D01*
X181905034Y-165095504D01*
X181795466Y-165032245D01*
X181673259Y-164999500D01*
X181546741Y-164999500D01*
X181424534Y-165032245D01*
X181424531Y-165032246D01*
X181314964Y-165095505D01*
X181225505Y-165184964D01*
X181162246Y-165294531D01*
X181162245Y-165294534D01*
X181129500Y-165416741D01*
X179090500Y-165416741D01*
X179057755Y-165294534D01*
X178994496Y-165184966D01*
X178905034Y-165095504D01*
X178795466Y-165032245D01*
X178795465Y-165032244D01*
X178795461Y-165032243D01*
X178760850Y-165022969D01*
X178701190Y-164986604D01*
X178670662Y-164923756D01*
X178670006Y-164887007D01*
X178670498Y-164883262D01*
X178670500Y-164883259D01*
X178670500Y-164756741D01*
X178637755Y-164634534D01*
X178574496Y-164524966D01*
X178485034Y-164435504D01*
X178383257Y-164376743D01*
X178375468Y-164372246D01*
X178375467Y-164372245D01*
X178375466Y-164372245D01*
X178253259Y-164339500D01*
X178126741Y-164339500D01*
X178004534Y-164372245D01*
X178004531Y-164372246D01*
X177894964Y-164435505D01*
X177805505Y-164524964D01*
X177742246Y-164634531D01*
X177742245Y-164634534D01*
X177709500Y-164756741D01*
X174709752Y-164756741D01*
X174709752Y-164746931D01*
X174677007Y-164624724D01*
X174613748Y-164515156D01*
X174524286Y-164425694D01*
X174431711Y-164372246D01*
X174414720Y-164362436D01*
X174414719Y-164362435D01*
X174414718Y-164362435D01*
X174292511Y-164329690D01*
X174165993Y-164329690D01*
X174043786Y-164362435D01*
X174043783Y-164362436D01*
X173934216Y-164425695D01*
X173844757Y-164515154D01*
X173781498Y-164624721D01*
X173781497Y-164624724D01*
X173748752Y-164746931D01*
X171255048Y-164746931D01*
X171319044Y-164700435D01*
X171450435Y-164569044D01*
X171559654Y-164418717D01*
X171644012Y-164253155D01*
X171685086Y-164126743D01*
X171701431Y-164076438D01*
X171701431Y-164076437D01*
X171701432Y-164076434D01*
X171730500Y-163892907D01*
X171730500Y-163707093D01*
X171701432Y-163523566D01*
X171701431Y-163523562D01*
X171701431Y-163523561D01*
X171644013Y-163346847D01*
X171617833Y-163295466D01*
X171559654Y-163181283D01*
X171454638Y-163036741D01*
X173079500Y-163036741D01*
X173079500Y-163163259D01*
X173112245Y-163285466D01*
X173175504Y-163395034D01*
X173264966Y-163484496D01*
X173374534Y-163547755D01*
X173496741Y-163580500D01*
X173496743Y-163580500D01*
X173623257Y-163580500D01*
X173623259Y-163580500D01*
X173745466Y-163547755D01*
X173855034Y-163484496D01*
X173944496Y-163395034D01*
X174007755Y-163285466D01*
X174040500Y-163163259D01*
X174040500Y-163046741D01*
X178759500Y-163046741D01*
X178759500Y-163173259D01*
X178792245Y-163295466D01*
X178855504Y-163405034D01*
X178944966Y-163494496D01*
X179054534Y-163557755D01*
X179176741Y-163590500D01*
X179176743Y-163590500D01*
X179303257Y-163590500D01*
X179303259Y-163590500D01*
X179425466Y-163557755D01*
X179483533Y-163524230D01*
X179551429Y-163507758D01*
X179617456Y-163530610D01*
X179660647Y-163585531D01*
X179668468Y-163615426D01*
X179669498Y-163623253D01*
X179702245Y-163745465D01*
X179702246Y-163745468D01*
X179713045Y-163764172D01*
X179765504Y-163855034D01*
X179854966Y-163944496D01*
X179964534Y-164007755D01*
X180086741Y-164040500D01*
X180086743Y-164040500D01*
X180140022Y-164040500D01*
X180207061Y-164060185D01*
X180252816Y-164112989D01*
X180264022Y-164164500D01*
X180264022Y-164253259D01*
X180296767Y-164375466D01*
X180360026Y-164485034D01*
X180449488Y-164574496D01*
X180559056Y-164637755D01*
X180681263Y-164670500D01*
X180681265Y-164670500D01*
X180807779Y-164670500D01*
X180807781Y-164670500D01*
X180929988Y-164637755D01*
X181039556Y-164574496D01*
X181129018Y-164485034D01*
X181192277Y-164375466D01*
X181225022Y-164253259D01*
X181225022Y-164126741D01*
X181192277Y-164004534D01*
X181129018Y-163894966D01*
X181039556Y-163805504D01*
X180952567Y-163755281D01*
X180929990Y-163742246D01*
X180929989Y-163742245D01*
X180929988Y-163742245D01*
X180807781Y-163709500D01*
X180754500Y-163709500D01*
X180687461Y-163689815D01*
X180641706Y-163637011D01*
X180630500Y-163585500D01*
X180630500Y-163496743D01*
X180630500Y-163496741D01*
X180597755Y-163374534D01*
X180534496Y-163264966D01*
X180445034Y-163175504D01*
X180335466Y-163112245D01*
X180213259Y-163079500D01*
X180086741Y-163079500D01*
X179964534Y-163112245D01*
X179964533Y-163112245D01*
X179906468Y-163145769D01*
X179838568Y-163162240D01*
X179772541Y-163139388D01*
X179729351Y-163084466D01*
X179721530Y-163054566D01*
X179720500Y-163046742D01*
X179720500Y-163046741D01*
X179687755Y-162924534D01*
X179624496Y-162814966D01*
X179535034Y-162725504D01*
X179425466Y-162662245D01*
X179303259Y-162629500D01*
X179176741Y-162629500D01*
X179054534Y-162662245D01*
X179054531Y-162662246D01*
X178944964Y-162725505D01*
X178855505Y-162814964D01*
X178792246Y-162924531D01*
X178792245Y-162924534D01*
X178759500Y-163046741D01*
X174040500Y-163046741D01*
X174040500Y-163036741D01*
X174007755Y-162914534D01*
X173944496Y-162804966D01*
X173855034Y-162715504D01*
X173745466Y-162652245D01*
X173623259Y-162619500D01*
X173496741Y-162619500D01*
X173374534Y-162652245D01*
X173374531Y-162652246D01*
X173264964Y-162715505D01*
X173175505Y-162804964D01*
X173112246Y-162914531D01*
X173112245Y-162914534D01*
X173079500Y-163036741D01*
X171454638Y-163036741D01*
X171450435Y-163030956D01*
X171319044Y-162899565D01*
X171168717Y-162790346D01*
X171152818Y-162782245D01*
X171003152Y-162705986D01*
X170826437Y-162648568D01*
X170688788Y-162626767D01*
X170642907Y-162619500D01*
X170457093Y-162619500D01*
X170395917Y-162629189D01*
X170273564Y-162648568D01*
X170273561Y-162648568D01*
X170096847Y-162705986D01*
X169931282Y-162790346D01*
X169855363Y-162845505D01*
X169780956Y-162899565D01*
X169780954Y-162899567D01*
X169780953Y-162899567D01*
X169649567Y-163030953D01*
X169649567Y-163030954D01*
X169649565Y-163030956D01*
X169614296Y-163079500D01*
X169540346Y-163181282D01*
X169455986Y-163346847D01*
X169398568Y-163523561D01*
X169398568Y-163523564D01*
X169369500Y-163707093D01*
X165230500Y-163707093D01*
X165201432Y-163523566D01*
X165201431Y-163523562D01*
X165201431Y-163523561D01*
X165144013Y-163346847D01*
X165117833Y-163295466D01*
X165059654Y-163181283D01*
X164950435Y-163030956D01*
X164819044Y-162899565D01*
X164668717Y-162790346D01*
X164652818Y-162782245D01*
X164503152Y-162705986D01*
X164326437Y-162648568D01*
X164188788Y-162626767D01*
X164142907Y-162619500D01*
X163957093Y-162619500D01*
X163895917Y-162629189D01*
X163773564Y-162648568D01*
X163773561Y-162648568D01*
X163596847Y-162705986D01*
X163431282Y-162790346D01*
X163355363Y-162845505D01*
X163280956Y-162899565D01*
X163280954Y-162899567D01*
X163280953Y-162899567D01*
X163149567Y-163030953D01*
X163149567Y-163030954D01*
X163149565Y-163030956D01*
X163114296Y-163079500D01*
X163040346Y-163181282D01*
X162955986Y-163346847D01*
X162898568Y-163523561D01*
X162898568Y-163523564D01*
X162869500Y-163707093D01*
X158665974Y-163707093D01*
X158775466Y-163677755D01*
X158885034Y-163614496D01*
X158974496Y-163525034D01*
X159037755Y-163415466D01*
X159070500Y-163293259D01*
X159070500Y-163166741D01*
X159037755Y-163044534D01*
X158974496Y-162934966D01*
X158885034Y-162845504D01*
X158804826Y-162799196D01*
X158775468Y-162782246D01*
X158775467Y-162782245D01*
X158775466Y-162782245D01*
X158653259Y-162749500D01*
X158526741Y-162749500D01*
X158404534Y-162782245D01*
X158404531Y-162782246D01*
X158294964Y-162845505D01*
X158205505Y-162934964D01*
X158142246Y-163044531D01*
X158142245Y-163044534D01*
X158109500Y-163166741D01*
X155660500Y-163166741D01*
X155627755Y-163044534D01*
X155564496Y-162934966D01*
X155475034Y-162845504D01*
X155394826Y-162799196D01*
X155365468Y-162782246D01*
X155365467Y-162782245D01*
X155365466Y-162782245D01*
X155243259Y-162749500D01*
X155116741Y-162749500D01*
X154994534Y-162782245D01*
X154994531Y-162782246D01*
X154884964Y-162845505D01*
X154795505Y-162934964D01*
X154732246Y-163044531D01*
X154732245Y-163044534D01*
X154699500Y-163166741D01*
X152649278Y-163166741D01*
X152665370Y-163145769D01*
X152713437Y-163083128D01*
X152743053Y-163044531D01*
X152771941Y-163006883D01*
X152889296Y-162803617D01*
X152979117Y-162586772D01*
X153039864Y-162360059D01*
X153070500Y-162127356D01*
X153070500Y-161892644D01*
X153039864Y-161659941D01*
X153020250Y-161586741D01*
X166399500Y-161586741D01*
X166399500Y-161713259D01*
X166432245Y-161835466D01*
X166495504Y-161945034D01*
X166584966Y-162034496D01*
X166694534Y-162097755D01*
X166816741Y-162130500D01*
X166816743Y-162130500D01*
X166943257Y-162130500D01*
X166943259Y-162130500D01*
X167065466Y-162097755D01*
X167175034Y-162034496D01*
X167264496Y-161945034D01*
X167327755Y-161835466D01*
X167360500Y-161713259D01*
X167360500Y-161586741D01*
X167327755Y-161464534D01*
X167264496Y-161354966D01*
X167175034Y-161265504D01*
X167065466Y-161202245D01*
X166943259Y-161169500D01*
X166816741Y-161169500D01*
X166694534Y-161202245D01*
X166694531Y-161202246D01*
X166584964Y-161265505D01*
X166495505Y-161354964D01*
X166432246Y-161464531D01*
X166432245Y-161464534D01*
X166399500Y-161586741D01*
X153020250Y-161586741D01*
X152979117Y-161433228D01*
X152901343Y-161245466D01*
X152889299Y-161216389D01*
X152889294Y-161216379D01*
X152771941Y-161013117D01*
X152629059Y-160826909D01*
X152629053Y-160826902D01*
X152463097Y-160660946D01*
X152463090Y-160660940D01*
X152276882Y-160518058D01*
X152073620Y-160400705D01*
X152073610Y-160400701D01*
X152055441Y-160393175D01*
X151856779Y-160310886D01*
X151856780Y-160310886D01*
X151856772Y-160310883D01*
X151766672Y-160286741D01*
X159709500Y-160286741D01*
X159709500Y-160413259D01*
X159742245Y-160535466D01*
X159805504Y-160645034D01*
X159894966Y-160734496D01*
X160004534Y-160797755D01*
X160126741Y-160830500D01*
X160126743Y-160830500D01*
X160253257Y-160830500D01*
X160253259Y-160830500D01*
X160375466Y-160797755D01*
X160485034Y-160734496D01*
X160574496Y-160645034D01*
X160637755Y-160535466D01*
X160670500Y-160413259D01*
X160670500Y-160286741D01*
X160637755Y-160164534D01*
X160574496Y-160054966D01*
X160485034Y-159965504D01*
X160375466Y-159902245D01*
X160253259Y-159869500D01*
X160126741Y-159869500D01*
X160004534Y-159902245D01*
X160004531Y-159902246D01*
X159894964Y-159965505D01*
X159805505Y-160054964D01*
X159742246Y-160164531D01*
X159742245Y-160164534D01*
X159709500Y-160286741D01*
X151766672Y-160286741D01*
X151630059Y-160250136D01*
X151630053Y-160250135D01*
X151630048Y-160250134D01*
X151397365Y-160219501D01*
X151397362Y-160219500D01*
X151397356Y-160219500D01*
X151162644Y-160219500D01*
X151162638Y-160219500D01*
X151162634Y-160219501D01*
X150929951Y-160250134D01*
X150929944Y-160250135D01*
X150929941Y-160250136D01*
X150872586Y-160265504D01*
X150703234Y-160310881D01*
X150703220Y-160310886D01*
X150486389Y-160400700D01*
X150486379Y-160400705D01*
X150283117Y-160518058D01*
X150096909Y-160660940D01*
X150096902Y-160660946D01*
X149930946Y-160826902D01*
X149930940Y-160826909D01*
X149788058Y-161013117D01*
X149670705Y-161216379D01*
X149670700Y-161216389D01*
X149580886Y-161433220D01*
X149580881Y-161433234D01*
X149520137Y-161659938D01*
X149520134Y-161659951D01*
X149489501Y-161892634D01*
X149489500Y-161892650D01*
X138150500Y-161892650D01*
X138150500Y-160416741D01*
X145719500Y-160416741D01*
X145719500Y-160543259D01*
X145752245Y-160665466D01*
X145815504Y-160775034D01*
X145904966Y-160864496D01*
X146014534Y-160927755D01*
X146136741Y-160960500D01*
X146136743Y-160960500D01*
X146241564Y-160960500D01*
X146308603Y-160980185D01*
X146354358Y-161032989D01*
X146365564Y-161084500D01*
X146365564Y-161123259D01*
X146390517Y-161216383D01*
X146398309Y-161245465D01*
X146398310Y-161245468D01*
X146415260Y-161274826D01*
X146461568Y-161355034D01*
X146551030Y-161444496D01*
X146660598Y-161507755D01*
X146782805Y-161540500D01*
X146782807Y-161540500D01*
X146909321Y-161540500D01*
X146909323Y-161540500D01*
X147031530Y-161507755D01*
X147141098Y-161444496D01*
X147230560Y-161355034D01*
X147293819Y-161245466D01*
X147326564Y-161123259D01*
X147326564Y-160996741D01*
X147293819Y-160874534D01*
X147230560Y-160764966D01*
X147141098Y-160675504D01*
X147031530Y-160612245D01*
X146909323Y-160579500D01*
X146804500Y-160579500D01*
X146737461Y-160559815D01*
X146691706Y-160507011D01*
X146680500Y-160455500D01*
X146680500Y-160416743D01*
X146680500Y-160416741D01*
X146647755Y-160294534D01*
X146584496Y-160184966D01*
X146495034Y-160095504D01*
X146412327Y-160047753D01*
X146385468Y-160032246D01*
X146385467Y-160032245D01*
X146385466Y-160032245D01*
X146263259Y-159999500D01*
X146136741Y-159999500D01*
X146014534Y-160032245D01*
X146014531Y-160032246D01*
X145904964Y-160095505D01*
X145815505Y-160184964D01*
X145752246Y-160294531D01*
X145752245Y-160294534D01*
X145719500Y-160416741D01*
X138150500Y-160416741D01*
X138150500Y-159626741D01*
X167019500Y-159626741D01*
X167019500Y-159753259D01*
X167050647Y-159869500D01*
X167052245Y-159875465D01*
X167052246Y-159875468D01*
X167067706Y-159902245D01*
X167115504Y-159985034D01*
X167204966Y-160074496D01*
X167314534Y-160137755D01*
X167436741Y-160170500D01*
X167436743Y-160170500D01*
X167563257Y-160170500D01*
X167563259Y-160170500D01*
X167685466Y-160137755D01*
X167795034Y-160074496D01*
X167884496Y-159985034D01*
X167947755Y-159875466D01*
X167980500Y-159753259D01*
X167980500Y-159626741D01*
X167956385Y-159536741D01*
X181289500Y-159536741D01*
X181289500Y-159663259D01*
X181293113Y-159676741D01*
X181322245Y-159785465D01*
X181322246Y-159785468D01*
X181332517Y-159803257D01*
X181385504Y-159895034D01*
X181474966Y-159984496D01*
X181584534Y-160047755D01*
X181706741Y-160080500D01*
X181706743Y-160080500D01*
X181833257Y-160080500D01*
X181833259Y-160080500D01*
X181955466Y-160047755D01*
X182065034Y-159984496D01*
X182154496Y-159895034D01*
X182217755Y-159785466D01*
X182246888Y-159676741D01*
X183309500Y-159676741D01*
X183309500Y-159803259D01*
X183342245Y-159925466D01*
X183405504Y-160035034D01*
X183494966Y-160124496D01*
X183604534Y-160187755D01*
X183726741Y-160220500D01*
X183726743Y-160220500D01*
X183853257Y-160220500D01*
X183853259Y-160220500D01*
X183867288Y-160216741D01*
X184774501Y-160216741D01*
X184774501Y-160343259D01*
X184807246Y-160465466D01*
X184870505Y-160575034D01*
X184959967Y-160664496D01*
X185069535Y-160727755D01*
X185191742Y-160760500D01*
X185191744Y-160760500D01*
X185318258Y-160760500D01*
X185318260Y-160760500D01*
X185440467Y-160727755D01*
X185550035Y-160664496D01*
X185627790Y-160586741D01*
X192489500Y-160586741D01*
X192489500Y-160713259D01*
X192522245Y-160835466D01*
X192585504Y-160945034D01*
X192674966Y-161034496D01*
X192784534Y-161097755D01*
X192906741Y-161130500D01*
X192906743Y-161130500D01*
X193033257Y-161130500D01*
X193033259Y-161130500D01*
X193155466Y-161097755D01*
X193265034Y-161034496D01*
X193354496Y-160945034D01*
X193417755Y-160835466D01*
X193450500Y-160713259D01*
X193450500Y-160586741D01*
X193417755Y-160464534D01*
X193354496Y-160354966D01*
X193265034Y-160265504D01*
X193155466Y-160202245D01*
X193033259Y-160169500D01*
X192906741Y-160169500D01*
X192784534Y-160202245D01*
X192784531Y-160202246D01*
X192674964Y-160265505D01*
X192585505Y-160354964D01*
X192522246Y-160464531D01*
X192522245Y-160464534D01*
X192489500Y-160586741D01*
X185627790Y-160586741D01*
X185639497Y-160575034D01*
X185702756Y-160465466D01*
X185735501Y-160343259D01*
X185735501Y-160216741D01*
X185702756Y-160094534D01*
X185639497Y-159984966D01*
X185550035Y-159895504D01*
X185440467Y-159832245D01*
X185318260Y-159799500D01*
X185191742Y-159799500D01*
X185069535Y-159832245D01*
X185069532Y-159832246D01*
X184959965Y-159895505D01*
X184870506Y-159984964D01*
X184807247Y-160094531D01*
X184807246Y-160094534D01*
X184774501Y-160216741D01*
X183867288Y-160216741D01*
X183975466Y-160187755D01*
X184085034Y-160124496D01*
X184174496Y-160035034D01*
X184237755Y-159925466D01*
X184270500Y-159803259D01*
X184270500Y-159676741D01*
X184237755Y-159554534D01*
X184174496Y-159444966D01*
X184085034Y-159355504D01*
X183998431Y-159305504D01*
X183975468Y-159292246D01*
X183975467Y-159292245D01*
X183975466Y-159292245D01*
X183853259Y-159259500D01*
X183726741Y-159259500D01*
X183604534Y-159292245D01*
X183604531Y-159292246D01*
X183494964Y-159355505D01*
X183405505Y-159444964D01*
X183342246Y-159554531D01*
X183342245Y-159554534D01*
X183309500Y-159676741D01*
X182246888Y-159676741D01*
X182250500Y-159663259D01*
X182250500Y-159536741D01*
X182217755Y-159414534D01*
X182154496Y-159304966D01*
X182065034Y-159215504D01*
X181978369Y-159165468D01*
X181955468Y-159152246D01*
X181955467Y-159152245D01*
X181955466Y-159152245D01*
X181833259Y-159119500D01*
X181706741Y-159119500D01*
X181584534Y-159152245D01*
X181584531Y-159152246D01*
X181474964Y-159215505D01*
X181385505Y-159304964D01*
X181322246Y-159414531D01*
X181322245Y-159414534D01*
X181289500Y-159536741D01*
X167956385Y-159536741D01*
X167947755Y-159504534D01*
X167884496Y-159394966D01*
X167795034Y-159305504D01*
X167685466Y-159242245D01*
X167563259Y-159209500D01*
X167436741Y-159209500D01*
X167314534Y-159242245D01*
X167314531Y-159242246D01*
X167204964Y-159305505D01*
X167115505Y-159394964D01*
X167052246Y-159504531D01*
X167052245Y-159504534D01*
X167019500Y-159626741D01*
X138150500Y-159626741D01*
X138150500Y-150469774D01*
X147925500Y-150469774D01*
X147925500Y-150630225D01*
X147956799Y-150787573D01*
X147956802Y-150787585D01*
X148018196Y-150935805D01*
X148018197Y-150935807D01*
X148107336Y-151069212D01*
X148107339Y-151069216D01*
X148220783Y-151182660D01*
X148220787Y-151182663D01*
X148354190Y-151271801D01*
X148354191Y-151271801D01*
X148354192Y-151271802D01*
X148354194Y-151271803D01*
X148502414Y-151333197D01*
X148502419Y-151333199D01*
X148657668Y-151364080D01*
X148659774Y-151364499D01*
X148659777Y-151364500D01*
X148659779Y-151364500D01*
X148820223Y-151364500D01*
X148820224Y-151364499D01*
X148977581Y-151333199D01*
X149125810Y-151271801D01*
X149125811Y-151271800D01*
X149126449Y-151271536D01*
X149195919Y-151264067D01*
X149258398Y-151295342D01*
X149294050Y-151355431D01*
X149291556Y-151425256D01*
X149288464Y-151433549D01*
X149288198Y-151434192D01*
X149226801Y-151582419D01*
X149226800Y-151582422D01*
X149226800Y-151582423D01*
X149226799Y-151582426D01*
X149195500Y-151739774D01*
X149195500Y-151900225D01*
X149226799Y-152057573D01*
X149226802Y-152057585D01*
X149288463Y-152206450D01*
X149295932Y-152275919D01*
X149264656Y-152338398D01*
X149204567Y-152374050D01*
X149134742Y-152371556D01*
X149126450Y-152368463D01*
X148977585Y-152306802D01*
X148977573Y-152306799D01*
X148820224Y-152275500D01*
X148820221Y-152275500D01*
X148659779Y-152275500D01*
X148659776Y-152275500D01*
X148502426Y-152306799D01*
X148502414Y-152306802D01*
X148354194Y-152368196D01*
X148354192Y-152368197D01*
X148220787Y-152457336D01*
X148220783Y-152457339D01*
X148107339Y-152570783D01*
X148107336Y-152570787D01*
X148018197Y-152704192D01*
X148018196Y-152704194D01*
X147956802Y-152852414D01*
X147956799Y-152852426D01*
X147925500Y-153009774D01*
X147925500Y-153170225D01*
X147956799Y-153327573D01*
X147956802Y-153327585D01*
X148018196Y-153475805D01*
X148018197Y-153475807D01*
X148107336Y-153609212D01*
X148107339Y-153609216D01*
X148220783Y-153722660D01*
X148220787Y-153722663D01*
X148354190Y-153811801D01*
X148354191Y-153811801D01*
X148354192Y-153811802D01*
X148354194Y-153811803D01*
X148502414Y-153873197D01*
X148502419Y-153873199D01*
X148657668Y-153904080D01*
X148659774Y-153904499D01*
X148659777Y-153904500D01*
X148659779Y-153904500D01*
X148820223Y-153904500D01*
X148820224Y-153904499D01*
X148977581Y-153873199D01*
X149125810Y-153811801D01*
X149125811Y-153811800D01*
X149126449Y-153811536D01*
X149195919Y-153804067D01*
X149258398Y-153835342D01*
X149294050Y-153895431D01*
X149291556Y-153965256D01*
X149288464Y-153973549D01*
X149274659Y-154006879D01*
X149226801Y-154122419D01*
X149226800Y-154122422D01*
X149226800Y-154122423D01*
X149226799Y-154122426D01*
X149195500Y-154279774D01*
X149195500Y-154440225D01*
X149226799Y-154597573D01*
X149226802Y-154597585D01*
X149288463Y-154746450D01*
X149295932Y-154815919D01*
X149264656Y-154878398D01*
X149204567Y-154914050D01*
X149134742Y-154911556D01*
X149126450Y-154908463D01*
X148977585Y-154846802D01*
X148977573Y-154846799D01*
X148820224Y-154815500D01*
X148820221Y-154815500D01*
X148659779Y-154815500D01*
X148659776Y-154815500D01*
X148502426Y-154846799D01*
X148502414Y-154846802D01*
X148354194Y-154908196D01*
X148354192Y-154908197D01*
X148220787Y-154997336D01*
X148220783Y-154997339D01*
X148107339Y-155110783D01*
X148107336Y-155110787D01*
X148018197Y-155244192D01*
X148018196Y-155244194D01*
X147956802Y-155392414D01*
X147956799Y-155392426D01*
X147925500Y-155549774D01*
X147925500Y-155710225D01*
X147956799Y-155867573D01*
X147956802Y-155867585D01*
X148018196Y-156015805D01*
X148018197Y-156015807D01*
X148107336Y-156149212D01*
X148107339Y-156149216D01*
X148220783Y-156262660D01*
X148220786Y-156262662D01*
X148220787Y-156262663D01*
X148354190Y-156351801D01*
X148354191Y-156351801D01*
X148354192Y-156351802D01*
X148354194Y-156351803D01*
X148481393Y-156404490D01*
X148502419Y-156413199D01*
X148659769Y-156444498D01*
X148659774Y-156444499D01*
X148659777Y-156444500D01*
X148659779Y-156444500D01*
X148820223Y-156444500D01*
X148820224Y-156444499D01*
X148977581Y-156413199D01*
X149125810Y-156351801D01*
X149125812Y-156351799D01*
X149126448Y-156351536D01*
X149195918Y-156344067D01*
X149258397Y-156375342D01*
X149294049Y-156435431D01*
X149291555Y-156505256D01*
X149288463Y-156513549D01*
X149288197Y-156514192D01*
X149226800Y-156662419D01*
X149226799Y-156662422D01*
X149226799Y-156662423D01*
X149226798Y-156662426D01*
X149195499Y-156819774D01*
X149195499Y-156980225D01*
X149226798Y-157137573D01*
X149226800Y-157137581D01*
X149246047Y-157184049D01*
X149253514Y-157253519D01*
X149222238Y-157315997D01*
X149162149Y-157351649D01*
X149131485Y-157355500D01*
X148088225Y-157355500D01*
X148035571Y-157365973D01*
X148035568Y-157365974D01*
X147975865Y-157405867D01*
X147935974Y-157465569D01*
X147935971Y-157465576D01*
X147925500Y-157518218D01*
X147925500Y-158821774D01*
X147935973Y-158874428D01*
X147935974Y-158874431D01*
X147975867Y-158934134D01*
X148004402Y-158953200D01*
X148035572Y-158974027D01*
X148035575Y-158974027D01*
X148035576Y-158974028D01*
X148061897Y-158979263D01*
X148088223Y-158984500D01*
X149391776Y-158984499D01*
X149444428Y-158974027D01*
X149504133Y-158934133D01*
X149544027Y-158874428D01*
X149554500Y-158821777D01*
X149554499Y-157778512D01*
X149574183Y-157711474D01*
X149626987Y-157665719D01*
X149696146Y-157655775D01*
X149725949Y-157663951D01*
X149772418Y-157683199D01*
X149927662Y-157714079D01*
X149929773Y-157714499D01*
X149929776Y-157714500D01*
X149929778Y-157714500D01*
X150090222Y-157714500D01*
X150090223Y-157714499D01*
X150247580Y-157683199D01*
X150395809Y-157621801D01*
X150395810Y-157621799D01*
X150396450Y-157621535D01*
X150465920Y-157614066D01*
X150528399Y-157645341D01*
X150564051Y-157705430D01*
X150561557Y-157775255D01*
X150558464Y-157783548D01*
X150496802Y-157932414D01*
X150496799Y-157932426D01*
X150465500Y-158089774D01*
X150465500Y-158250225D01*
X150496799Y-158407573D01*
X150496802Y-158407585D01*
X150558196Y-158555805D01*
X150558197Y-158555807D01*
X150647336Y-158689212D01*
X150647339Y-158689216D01*
X150760783Y-158802660D01*
X150760787Y-158802663D01*
X150894190Y-158891801D01*
X150894191Y-158891801D01*
X150894192Y-158891802D01*
X150894194Y-158891803D01*
X151042414Y-158953197D01*
X151042419Y-158953199D01*
X151199774Y-158984499D01*
X151199777Y-158984500D01*
X151199779Y-158984500D01*
X151360223Y-158984500D01*
X151360224Y-158984499D01*
X151517581Y-158953199D01*
X151605599Y-158916741D01*
X175009500Y-158916741D01*
X175009500Y-159043259D01*
X175042245Y-159165466D01*
X175105504Y-159275034D01*
X175194966Y-159364496D01*
X175304534Y-159427755D01*
X175426741Y-159460500D01*
X175426743Y-159460500D01*
X175553257Y-159460500D01*
X175553259Y-159460500D01*
X175675466Y-159427755D01*
X175785034Y-159364496D01*
X175874496Y-159275034D01*
X175937755Y-159165466D01*
X175958849Y-159086741D01*
X191279500Y-159086741D01*
X191279500Y-159213259D01*
X191300665Y-159292246D01*
X191312245Y-159335465D01*
X191312246Y-159335468D01*
X191329004Y-159364494D01*
X191375504Y-159445034D01*
X191464966Y-159534496D01*
X191574534Y-159597755D01*
X191696741Y-159630500D01*
X191696743Y-159630500D01*
X191823257Y-159630500D01*
X191823259Y-159630500D01*
X191945466Y-159597755D01*
X192055034Y-159534496D01*
X192144496Y-159445034D01*
X192207755Y-159335466D01*
X192240500Y-159213259D01*
X192240500Y-159086741D01*
X192207755Y-158964534D01*
X192144496Y-158854966D01*
X192055034Y-158765504D01*
X191945466Y-158702245D01*
X191823259Y-158669500D01*
X191696741Y-158669500D01*
X191574534Y-158702245D01*
X191574531Y-158702246D01*
X191464964Y-158765505D01*
X191375505Y-158854964D01*
X191312246Y-158964531D01*
X191312245Y-158964534D01*
X191279500Y-159086741D01*
X175958849Y-159086741D01*
X175970500Y-159043259D01*
X175970500Y-158916741D01*
X175937755Y-158794534D01*
X175874496Y-158684966D01*
X175785034Y-158595504D01*
X175675466Y-158532245D01*
X175553259Y-158499500D01*
X175426741Y-158499500D01*
X175304534Y-158532245D01*
X175304531Y-158532246D01*
X175194964Y-158595505D01*
X175105505Y-158684964D01*
X175042246Y-158794531D01*
X175042245Y-158794534D01*
X175009500Y-158916741D01*
X151605599Y-158916741D01*
X151665810Y-158891801D01*
X151750699Y-158835078D01*
X151794950Y-158805512D01*
X151794950Y-158805511D01*
X151799213Y-158802663D01*
X151912663Y-158689213D01*
X152001801Y-158555810D01*
X152063199Y-158407581D01*
X152094500Y-158250221D01*
X152094500Y-158089779D01*
X152094500Y-158089776D01*
X152094499Y-158089774D01*
X152063200Y-157932426D01*
X152063199Y-157932419D01*
X152001801Y-157784190D01*
X152001799Y-157784188D01*
X152001535Y-157783549D01*
X151994066Y-157714079D01*
X152025341Y-157651600D01*
X152085430Y-157615948D01*
X152155255Y-157618442D01*
X152163548Y-157621535D01*
X152246212Y-157655775D01*
X152312420Y-157683199D01*
X152467664Y-157714079D01*
X152469775Y-157714499D01*
X152469778Y-157714500D01*
X152469780Y-157714500D01*
X152630224Y-157714500D01*
X152630225Y-157714499D01*
X152787582Y-157683199D01*
X152935811Y-157621801D01*
X153069214Y-157532663D01*
X153182664Y-157419213D01*
X153271802Y-157285810D01*
X153333200Y-157137581D01*
X153364501Y-156980221D01*
X153364501Y-156819779D01*
X153364501Y-156819776D01*
X153351790Y-156755876D01*
X153351790Y-156755875D01*
X153348595Y-156739811D01*
X158253504Y-156739811D01*
X158253504Y-156866329D01*
X158286249Y-156988536D01*
X158349508Y-157098104D01*
X158438970Y-157187566D01*
X158548538Y-157250825D01*
X158670745Y-157283570D01*
X158670747Y-157283570D01*
X158797261Y-157283570D01*
X158797263Y-157283570D01*
X158919470Y-157250825D01*
X159029038Y-157187566D01*
X159118500Y-157098104D01*
X159181759Y-156988536D01*
X159214504Y-156866329D01*
X159214504Y-156758543D01*
X159234189Y-156691504D01*
X159286993Y-156645749D01*
X159356151Y-156635805D01*
X159400501Y-156651155D01*
X159427559Y-156666777D01*
X159549766Y-156699522D01*
X159549768Y-156699522D01*
X159676282Y-156699522D01*
X159676284Y-156699522D01*
X159798491Y-156666777D01*
X159908059Y-156603518D01*
X159997521Y-156514056D01*
X160060780Y-156404488D01*
X160093525Y-156282281D01*
X160093525Y-156155763D01*
X160060780Y-156033556D01*
X160016431Y-155956741D01*
X191309500Y-155956741D01*
X191309500Y-156083259D01*
X191342245Y-156205466D01*
X191405504Y-156315034D01*
X191494966Y-156404496D01*
X191604534Y-156467755D01*
X191726741Y-156500500D01*
X191726743Y-156500500D01*
X191853257Y-156500500D01*
X191853259Y-156500500D01*
X191975466Y-156467755D01*
X192085034Y-156404496D01*
X192174496Y-156315034D01*
X192237755Y-156205466D01*
X192270500Y-156083259D01*
X192270500Y-155956741D01*
X192237755Y-155834534D01*
X192174496Y-155724966D01*
X192085034Y-155635504D01*
X191975466Y-155572245D01*
X191853259Y-155539500D01*
X191726741Y-155539500D01*
X191604534Y-155572245D01*
X191604531Y-155572246D01*
X191494964Y-155635505D01*
X191405505Y-155724964D01*
X191342246Y-155834531D01*
X191342245Y-155834534D01*
X191309500Y-155956741D01*
X160016431Y-155956741D01*
X159997521Y-155923988D01*
X159908059Y-155834526D01*
X159798491Y-155771267D01*
X159676284Y-155738522D01*
X159549766Y-155738522D01*
X159427559Y-155771267D01*
X159427556Y-155771268D01*
X159317989Y-155834527D01*
X159228530Y-155923986D01*
X159165271Y-156033553D01*
X159165270Y-156033556D01*
X159132525Y-156155763D01*
X159132525Y-156263548D01*
X159112840Y-156330587D01*
X159060036Y-156376342D01*
X158990878Y-156386286D01*
X158946525Y-156370935D01*
X158919472Y-156355316D01*
X158919471Y-156355315D01*
X158919470Y-156355315D01*
X158797263Y-156322570D01*
X158670745Y-156322570D01*
X158548538Y-156355315D01*
X158548535Y-156355316D01*
X158438968Y-156418575D01*
X158349509Y-156508034D01*
X158286250Y-156617601D01*
X158286249Y-156617604D01*
X158253504Y-156739811D01*
X153348595Y-156739811D01*
X153334067Y-156666777D01*
X153333200Y-156662419D01*
X153271802Y-156514190D01*
X153182664Y-156380787D01*
X153182661Y-156380783D01*
X153069217Y-156267339D01*
X153069213Y-156267336D01*
X152935808Y-156178197D01*
X152935806Y-156178196D01*
X152787586Y-156116802D01*
X152787574Y-156116799D01*
X152630225Y-156085500D01*
X152630222Y-156085500D01*
X152469780Y-156085500D01*
X152469777Y-156085500D01*
X152312427Y-156116799D01*
X152312415Y-156116802D01*
X152163548Y-156178464D01*
X152094078Y-156185933D01*
X152031599Y-156154657D01*
X151995948Y-156094568D01*
X151998442Y-156024743D01*
X152001535Y-156016450D01*
X152001801Y-156015809D01*
X152063199Y-155867580D01*
X152094500Y-155710220D01*
X152094500Y-155549778D01*
X152094500Y-155549776D01*
X152094500Y-155549775D01*
X152094499Y-155549773D01*
X152092456Y-155539500D01*
X152063199Y-155392418D01*
X152001801Y-155244189D01*
X152001800Y-155244187D01*
X152001536Y-155243550D01*
X151994067Y-155174080D01*
X152025342Y-155111601D01*
X152085431Y-155075949D01*
X152155256Y-155078443D01*
X152163549Y-155081536D01*
X152312414Y-155143197D01*
X152312419Y-155143199D01*
X152467668Y-155174080D01*
X152469774Y-155174499D01*
X152469777Y-155174500D01*
X152469779Y-155174500D01*
X152630223Y-155174500D01*
X152630224Y-155174499D01*
X152787581Y-155143199D01*
X152935810Y-155081801D01*
X153069213Y-154992663D01*
X153182663Y-154879213D01*
X153271801Y-154745810D01*
X153333199Y-154597581D01*
X153364500Y-154440221D01*
X153364500Y-154416741D01*
X175119500Y-154416741D01*
X175119500Y-154543259D01*
X175152245Y-154665466D01*
X175215504Y-154775034D01*
X175304966Y-154864496D01*
X175414534Y-154927755D01*
X175536741Y-154960500D01*
X175536743Y-154960500D01*
X175663257Y-154960500D01*
X175663259Y-154960500D01*
X175785466Y-154927755D01*
X175895034Y-154864496D01*
X175984496Y-154775034D01*
X175987613Y-154769634D01*
X176038179Y-154721419D01*
X176106786Y-154708195D01*
X176171651Y-154734163D01*
X176202386Y-154769634D01*
X176205504Y-154775034D01*
X176294966Y-154864496D01*
X176404534Y-154927755D01*
X176526741Y-154960500D01*
X176526743Y-154960500D01*
X176653257Y-154960500D01*
X176653259Y-154960500D01*
X176775466Y-154927755D01*
X176885034Y-154864496D01*
X176974496Y-154775034D01*
X176982614Y-154760972D01*
X177033180Y-154712758D01*
X177101787Y-154699536D01*
X177166652Y-154725504D01*
X177197385Y-154760972D01*
X177205504Y-154775034D01*
X177294966Y-154864496D01*
X177404534Y-154927755D01*
X177526741Y-154960500D01*
X177526743Y-154960500D01*
X177653257Y-154960500D01*
X177653259Y-154960500D01*
X177775466Y-154927755D01*
X177885034Y-154864496D01*
X177974496Y-154775034D01*
X178022613Y-154691691D01*
X178073180Y-154643476D01*
X178141787Y-154630253D01*
X178206652Y-154656221D01*
X178237385Y-154691690D01*
X178285504Y-154775034D01*
X178374966Y-154864496D01*
X178484534Y-154927755D01*
X178606741Y-154960500D01*
X178606743Y-154960500D01*
X178733257Y-154960500D01*
X178733259Y-154960500D01*
X178855466Y-154927755D01*
X178965034Y-154864496D01*
X179054496Y-154775034D01*
X179117755Y-154665466D01*
X179125225Y-154637584D01*
X179161590Y-154577925D01*
X179224437Y-154547396D01*
X179293812Y-154555691D01*
X179347690Y-154600176D01*
X179364774Y-154637584D01*
X179372245Y-154665466D01*
X179435504Y-154775034D01*
X179524966Y-154864496D01*
X179634534Y-154927755D01*
X179756741Y-154960500D01*
X179756743Y-154960500D01*
X179883257Y-154960500D01*
X179883259Y-154960500D01*
X180005466Y-154927755D01*
X180115034Y-154864496D01*
X180204496Y-154775034D01*
X180267755Y-154665466D01*
X180300500Y-154543259D01*
X180300500Y-154416741D01*
X180879500Y-154416741D01*
X180879500Y-154543259D01*
X180912245Y-154665466D01*
X180975504Y-154775034D01*
X181064966Y-154864496D01*
X181174534Y-154927755D01*
X181296741Y-154960500D01*
X181296743Y-154960500D01*
X181423257Y-154960500D01*
X181423259Y-154960500D01*
X181545466Y-154927755D01*
X181655034Y-154864496D01*
X181744496Y-154775034D01*
X181807755Y-154665466D01*
X181840500Y-154543259D01*
X181840500Y-154416741D01*
X182159500Y-154416741D01*
X182159500Y-154543259D01*
X182192245Y-154665466D01*
X182255504Y-154775034D01*
X182344966Y-154864496D01*
X182454534Y-154927755D01*
X182576741Y-154960500D01*
X182576743Y-154960500D01*
X182703257Y-154960500D01*
X182703259Y-154960500D01*
X182825466Y-154927755D01*
X182935034Y-154864496D01*
X183024496Y-154775034D01*
X183087755Y-154665466D01*
X183120500Y-154543259D01*
X183120500Y-154416741D01*
X183379500Y-154416741D01*
X183379500Y-154543259D01*
X183412245Y-154665466D01*
X183475504Y-154775034D01*
X183564966Y-154864496D01*
X183674534Y-154927755D01*
X183796741Y-154960500D01*
X183796743Y-154960500D01*
X183923257Y-154960500D01*
X183923259Y-154960500D01*
X184045466Y-154927755D01*
X184155034Y-154864496D01*
X184244496Y-154775034D01*
X184307755Y-154665466D01*
X184340500Y-154543259D01*
X184340500Y-154416741D01*
X184307755Y-154294534D01*
X184244496Y-154184966D01*
X184155034Y-154095504D01*
X184045466Y-154032245D01*
X183923259Y-153999500D01*
X183796741Y-153999500D01*
X183674534Y-154032245D01*
X183674531Y-154032246D01*
X183564964Y-154095505D01*
X183475505Y-154184964D01*
X183412246Y-154294531D01*
X183412245Y-154294534D01*
X183379500Y-154416741D01*
X183120500Y-154416741D01*
X183087755Y-154294534D01*
X183024496Y-154184966D01*
X182935034Y-154095504D01*
X182825466Y-154032245D01*
X182703259Y-153999500D01*
X182576741Y-153999500D01*
X182454534Y-154032245D01*
X182454531Y-154032246D01*
X182344964Y-154095505D01*
X182255505Y-154184964D01*
X182192246Y-154294531D01*
X182192245Y-154294534D01*
X182159500Y-154416741D01*
X181840500Y-154416741D01*
X181807755Y-154294534D01*
X181744496Y-154184966D01*
X181655034Y-154095504D01*
X181545466Y-154032245D01*
X181423259Y-153999500D01*
X181296741Y-153999500D01*
X181174534Y-154032245D01*
X181174531Y-154032246D01*
X181064964Y-154095505D01*
X180975505Y-154184964D01*
X180912246Y-154294531D01*
X180912245Y-154294534D01*
X180879500Y-154416741D01*
X180300500Y-154416741D01*
X180267755Y-154294534D01*
X180204496Y-154184966D01*
X180115034Y-154095504D01*
X180005466Y-154032245D01*
X179883259Y-153999500D01*
X179756741Y-153999500D01*
X179756739Y-153999500D01*
X179748685Y-154000561D01*
X179748492Y-153999099D01*
X179687589Y-153997644D01*
X179629730Y-153958476D01*
X179602232Y-153894245D01*
X179613824Y-153825344D01*
X179630370Y-153802115D01*
X179629547Y-153801484D01*
X179634493Y-153795037D01*
X179634496Y-153795034D01*
X179697755Y-153685466D01*
X179730500Y-153563259D01*
X179730500Y-153436741D01*
X179697755Y-153314534D01*
X179634496Y-153204966D01*
X179592053Y-153162523D01*
X179558568Y-153101200D01*
X179563552Y-153031508D01*
X179605424Y-152975575D01*
X179670888Y-152951158D01*
X179711820Y-152955066D01*
X179806741Y-152980500D01*
X179806744Y-152980500D01*
X179933257Y-152980500D01*
X179933259Y-152980500D01*
X180055466Y-152947755D01*
X180165034Y-152884496D01*
X180254496Y-152795034D01*
X180317755Y-152685466D01*
X180350500Y-152563259D01*
X180350500Y-152436741D01*
X180929500Y-152436741D01*
X180929500Y-152563259D01*
X180962245Y-152685466D01*
X181025504Y-152795034D01*
X181114966Y-152884496D01*
X181224534Y-152947755D01*
X181346741Y-152980500D01*
X181346743Y-152980500D01*
X181473257Y-152980500D01*
X181473259Y-152980500D01*
X181595466Y-152947755D01*
X181705034Y-152884496D01*
X181794496Y-152795034D01*
X181857755Y-152685466D01*
X181890500Y-152563259D01*
X181890500Y-152436741D01*
X182209500Y-152436741D01*
X182209500Y-152563259D01*
X182242245Y-152685466D01*
X182305504Y-152795034D01*
X182394966Y-152884496D01*
X182504534Y-152947755D01*
X182626741Y-152980500D01*
X182626743Y-152980500D01*
X182753257Y-152980500D01*
X182753259Y-152980500D01*
X182875466Y-152947755D01*
X182985034Y-152884496D01*
X183074496Y-152795034D01*
X183137755Y-152685466D01*
X183170500Y-152563259D01*
X183170500Y-152436741D01*
X183429500Y-152436741D01*
X183429500Y-152563259D01*
X183462245Y-152685466D01*
X183525504Y-152795034D01*
X183614966Y-152884496D01*
X183724534Y-152947755D01*
X183846741Y-152980500D01*
X183846743Y-152980500D01*
X183973257Y-152980500D01*
X183973259Y-152980500D01*
X184095466Y-152947755D01*
X184205034Y-152884496D01*
X184294496Y-152795034D01*
X184357755Y-152685466D01*
X184390500Y-152563259D01*
X184390500Y-152436741D01*
X184357755Y-152314534D01*
X184294496Y-152204966D01*
X184280618Y-152191088D01*
X184247133Y-152129765D01*
X184252117Y-152060073D01*
X184293989Y-152004140D01*
X184336203Y-151983634D01*
X184395466Y-151967755D01*
X184505034Y-151904496D01*
X184594496Y-151815034D01*
X184657755Y-151705466D01*
X184690500Y-151583259D01*
X184690500Y-151456741D01*
X184657755Y-151334534D01*
X184594496Y-151224966D01*
X184505034Y-151135504D01*
X184395466Y-151072245D01*
X184273259Y-151039500D01*
X184146741Y-151039500D01*
X184024534Y-151072245D01*
X184024531Y-151072246D01*
X183914964Y-151135505D01*
X183825505Y-151224964D01*
X183762246Y-151334531D01*
X183762245Y-151334534D01*
X183729500Y-151456741D01*
X183729500Y-151583259D01*
X183762245Y-151705466D01*
X183787451Y-151749125D01*
X183825505Y-151815035D01*
X183839381Y-151828911D01*
X183872866Y-151890234D01*
X183867882Y-151959926D01*
X183826010Y-152015859D01*
X183783794Y-152036366D01*
X183724534Y-152052245D01*
X183724531Y-152052246D01*
X183614964Y-152115505D01*
X183525505Y-152204964D01*
X183462246Y-152314531D01*
X183462246Y-152314532D01*
X183462245Y-152314534D01*
X183429500Y-152436741D01*
X183170500Y-152436741D01*
X183137755Y-152314534D01*
X183074496Y-152204966D01*
X182985034Y-152115504D01*
X182884708Y-152057581D01*
X182875468Y-152052246D01*
X182875467Y-152052245D01*
X182875466Y-152052245D01*
X182753259Y-152019500D01*
X182626741Y-152019500D01*
X182504534Y-152052245D01*
X182504531Y-152052246D01*
X182394964Y-152115505D01*
X182305505Y-152204964D01*
X182242246Y-152314531D01*
X182242246Y-152314532D01*
X182242245Y-152314534D01*
X182209500Y-152436741D01*
X181890500Y-152436741D01*
X181857755Y-152314534D01*
X181794496Y-152204966D01*
X181705034Y-152115504D01*
X181604708Y-152057581D01*
X181595468Y-152052246D01*
X181595467Y-152052245D01*
X181595466Y-152052245D01*
X181473259Y-152019500D01*
X181346741Y-152019500D01*
X181224534Y-152052245D01*
X181224531Y-152052246D01*
X181114964Y-152115505D01*
X181025505Y-152204964D01*
X180962246Y-152314531D01*
X180962246Y-152314532D01*
X180962245Y-152314534D01*
X180929500Y-152436741D01*
X180350500Y-152436741D01*
X180317755Y-152314534D01*
X180254496Y-152204966D01*
X180165034Y-152115504D01*
X180064708Y-152057581D01*
X180055468Y-152052246D01*
X180055467Y-152052245D01*
X180055466Y-152052245D01*
X179933259Y-152019500D01*
X179806741Y-152019500D01*
X179684534Y-152052245D01*
X179684531Y-152052246D01*
X179574964Y-152115505D01*
X179485505Y-152204964D01*
X179422246Y-152314531D01*
X179422245Y-152314532D01*
X179419768Y-152323777D01*
X179415633Y-152339213D01*
X179414775Y-152342414D01*
X179378409Y-152402074D01*
X179315562Y-152432603D01*
X179246187Y-152424308D01*
X179192309Y-152379822D01*
X179175225Y-152342414D01*
X179174368Y-152339216D01*
X179167755Y-152314534D01*
X179104496Y-152204966D01*
X179015034Y-152115504D01*
X178914708Y-152057581D01*
X178905468Y-152052246D01*
X178905467Y-152052245D01*
X178905466Y-152052245D01*
X178783259Y-152019500D01*
X178656741Y-152019500D01*
X178534534Y-152052245D01*
X178534531Y-152052246D01*
X178424964Y-152115505D01*
X178335506Y-152204963D01*
X178335504Y-152204965D01*
X178335504Y-152204966D01*
X178289547Y-152284567D01*
X178287387Y-152288308D01*
X178236819Y-152336523D01*
X178168212Y-152349745D01*
X178103348Y-152323777D01*
X178072613Y-152288308D01*
X178024496Y-152204966D01*
X177935034Y-152115504D01*
X177834708Y-152057581D01*
X177825468Y-152052246D01*
X177825467Y-152052245D01*
X177825466Y-152052245D01*
X177703259Y-152019500D01*
X177576741Y-152019500D01*
X177454534Y-152052245D01*
X177454531Y-152052246D01*
X177344964Y-152115505D01*
X177255505Y-152204964D01*
X177247386Y-152219027D01*
X177196818Y-152267242D01*
X177128210Y-152280463D01*
X177063346Y-152254494D01*
X177032614Y-152219027D01*
X177030140Y-152214742D01*
X177024496Y-152204966D01*
X176935034Y-152115504D01*
X176834708Y-152057581D01*
X176825468Y-152052246D01*
X176825467Y-152052245D01*
X176825466Y-152052245D01*
X176703259Y-152019500D01*
X176576741Y-152019500D01*
X176454534Y-152052245D01*
X176454531Y-152052246D01*
X176344964Y-152115505D01*
X176255504Y-152204965D01*
X176252385Y-152210368D01*
X176201817Y-152258582D01*
X176133209Y-152271803D01*
X176068345Y-152245833D01*
X176037615Y-152210368D01*
X176034983Y-152205810D01*
X176034496Y-152204966D01*
X175945034Y-152115504D01*
X175844708Y-152057581D01*
X175835468Y-152052246D01*
X175835467Y-152052245D01*
X175835466Y-152052245D01*
X175713259Y-152019500D01*
X175586741Y-152019500D01*
X175464534Y-152052245D01*
X175464531Y-152052246D01*
X175354964Y-152115505D01*
X175265505Y-152204964D01*
X175202246Y-152314531D01*
X175202246Y-152314532D01*
X175202245Y-152314534D01*
X175169500Y-152436741D01*
X175169500Y-152563259D01*
X175202245Y-152685466D01*
X175265504Y-152795034D01*
X175354966Y-152884496D01*
X175464534Y-152947755D01*
X175586741Y-152980500D01*
X175586743Y-152980500D01*
X175713257Y-152980500D01*
X175713259Y-152980500D01*
X175835466Y-152947755D01*
X175945034Y-152884496D01*
X176034496Y-152795034D01*
X176037613Y-152789634D01*
X176088179Y-152741419D01*
X176156786Y-152728195D01*
X176221651Y-152754163D01*
X176252386Y-152789634D01*
X176255504Y-152795034D01*
X176344966Y-152884496D01*
X176454534Y-152947755D01*
X176576741Y-152980500D01*
X176576743Y-152980500D01*
X176703257Y-152980500D01*
X176703259Y-152980500D01*
X176825466Y-152947755D01*
X176935034Y-152884496D01*
X177024496Y-152795034D01*
X177032614Y-152780972D01*
X177083180Y-152732758D01*
X177151787Y-152719536D01*
X177216652Y-152745504D01*
X177247385Y-152780972D01*
X177255504Y-152795034D01*
X177344966Y-152884496D01*
X177454534Y-152947755D01*
X177576741Y-152980500D01*
X177576743Y-152980500D01*
X177703257Y-152980500D01*
X177703259Y-152980500D01*
X177825466Y-152947755D01*
X177935034Y-152884496D01*
X178024496Y-152795034D01*
X178072613Y-152711691D01*
X178123180Y-152663476D01*
X178191787Y-152650253D01*
X178256652Y-152676221D01*
X178287385Y-152711690D01*
X178335504Y-152795034D01*
X178424966Y-152884496D01*
X178534534Y-152947755D01*
X178656741Y-152980500D01*
X178656743Y-152980500D01*
X178790608Y-152980500D01*
X178857647Y-153000185D01*
X178903402Y-153052989D01*
X178913346Y-153122147D01*
X178884321Y-153185703D01*
X178878289Y-153192181D01*
X178865505Y-153204964D01*
X178802246Y-153314531D01*
X178802245Y-153314534D01*
X178769500Y-153436741D01*
X178769500Y-153563259D01*
X178802245Y-153685466D01*
X178848577Y-153765716D01*
X178865505Y-153795035D01*
X178865984Y-153795514D01*
X178866259Y-153796019D01*
X178870453Y-153801484D01*
X178869600Y-153802137D01*
X178899469Y-153856837D01*
X178894485Y-153926529D01*
X178852613Y-153982462D01*
X178787149Y-154006879D01*
X178746213Y-154002971D01*
X178737946Y-154000756D01*
X178733259Y-153999500D01*
X178606741Y-153999500D01*
X178484534Y-154032245D01*
X178484531Y-154032246D01*
X178374964Y-154095505D01*
X178285506Y-154184963D01*
X178285504Y-154184965D01*
X178285504Y-154184966D01*
X178261910Y-154225833D01*
X178237387Y-154268308D01*
X178186819Y-154316523D01*
X178118212Y-154329745D01*
X178053348Y-154303777D01*
X178022613Y-154268308D01*
X178013084Y-154251803D01*
X177974496Y-154184966D01*
X177885034Y-154095504D01*
X177775466Y-154032245D01*
X177653259Y-153999500D01*
X177526741Y-153999500D01*
X177404534Y-154032245D01*
X177404531Y-154032246D01*
X177294964Y-154095505D01*
X177205505Y-154184964D01*
X177197386Y-154199027D01*
X177146818Y-154247242D01*
X177078210Y-154260463D01*
X177013346Y-154234494D01*
X176982614Y-154199027D01*
X176974496Y-154184966D01*
X176885034Y-154095504D01*
X176775466Y-154032245D01*
X176653259Y-153999500D01*
X176526741Y-153999500D01*
X176404534Y-154032245D01*
X176404531Y-154032246D01*
X176294964Y-154095505D01*
X176205504Y-154184965D01*
X176202385Y-154190368D01*
X176151817Y-154238582D01*
X176083209Y-154251803D01*
X176018345Y-154225833D01*
X175987615Y-154190368D01*
X175984495Y-154184965D01*
X175895035Y-154095505D01*
X175895034Y-154095504D01*
X175785466Y-154032245D01*
X175663259Y-153999500D01*
X175536741Y-153999500D01*
X175414534Y-154032245D01*
X175414531Y-154032246D01*
X175304964Y-154095505D01*
X175215505Y-154184964D01*
X175152246Y-154294531D01*
X175152245Y-154294534D01*
X175119500Y-154416741D01*
X153364500Y-154416741D01*
X153364500Y-154279779D01*
X153364500Y-154279776D01*
X153364499Y-154279774D01*
X153333200Y-154122426D01*
X153333199Y-154122419D01*
X153322051Y-154095504D01*
X153271803Y-153974194D01*
X153271802Y-153974192D01*
X153271372Y-153973549D01*
X153182663Y-153840787D01*
X153182660Y-153840783D01*
X153069216Y-153727339D01*
X153069212Y-153727336D01*
X152935807Y-153638197D01*
X152935805Y-153638196D01*
X152787585Y-153576802D01*
X152787573Y-153576799D01*
X152630224Y-153545500D01*
X152630221Y-153545500D01*
X152469779Y-153545500D01*
X152469776Y-153545500D01*
X152312426Y-153576799D01*
X152312423Y-153576800D01*
X152312422Y-153576800D01*
X152312419Y-153576801D01*
X152236137Y-153608398D01*
X152163549Y-153638464D01*
X152094079Y-153645932D01*
X152031600Y-153614656D01*
X151995948Y-153554567D01*
X151998443Y-153484742D01*
X152001536Y-153476449D01*
X152001803Y-153475805D01*
X152063199Y-153327581D01*
X152094500Y-153170221D01*
X152094500Y-153009779D01*
X152094500Y-153009776D01*
X152094499Y-153009774D01*
X152083617Y-152955067D01*
X152063199Y-152852419D01*
X152063197Y-152852414D01*
X152001536Y-152703549D01*
X151994067Y-152634080D01*
X152025342Y-152571601D01*
X152085431Y-152535949D01*
X152155257Y-152538443D01*
X152163549Y-152541536D01*
X152293291Y-152595276D01*
X152312419Y-152603199D01*
X152449665Y-152630499D01*
X152469774Y-152634499D01*
X152469777Y-152634500D01*
X152469779Y-152634500D01*
X152630223Y-152634500D01*
X152630224Y-152634499D01*
X152787581Y-152603199D01*
X152935810Y-152541801D01*
X153069213Y-152452663D01*
X153182663Y-152339213D01*
X153271801Y-152205810D01*
X153333199Y-152057581D01*
X153364500Y-151900221D01*
X153364500Y-151739779D01*
X153364500Y-151739776D01*
X153364499Y-151739774D01*
X153333366Y-151583259D01*
X153333199Y-151582419D01*
X153271801Y-151434190D01*
X153182663Y-151300787D01*
X153182660Y-151300783D01*
X153069216Y-151187339D01*
X153069212Y-151187336D01*
X152935807Y-151098197D01*
X152935805Y-151098196D01*
X152787585Y-151036802D01*
X152787573Y-151036799D01*
X152630224Y-151005500D01*
X152630221Y-151005500D01*
X152469779Y-151005500D01*
X152469776Y-151005500D01*
X152312426Y-151036799D01*
X152312423Y-151036800D01*
X152312422Y-151036800D01*
X152312419Y-151036801D01*
X152236137Y-151068398D01*
X152163549Y-151098464D01*
X152094079Y-151105932D01*
X152031600Y-151074656D01*
X151995948Y-151014567D01*
X151998443Y-150944742D01*
X152001536Y-150936449D01*
X152001803Y-150935805D01*
X152063199Y-150787581D01*
X152075301Y-150726741D01*
X174439500Y-150726741D01*
X174439500Y-150853259D01*
X174472245Y-150975466D01*
X174535504Y-151085034D01*
X174624966Y-151174496D01*
X174734534Y-151237755D01*
X174856741Y-151270500D01*
X174856743Y-151270500D01*
X174983257Y-151270500D01*
X174983259Y-151270500D01*
X175105466Y-151237755D01*
X175215034Y-151174496D01*
X175304496Y-151085034D01*
X175367755Y-150975466D01*
X175400500Y-150853259D01*
X175400500Y-150820234D01*
X175413271Y-150776741D01*
X178739500Y-150776741D01*
X178739500Y-150903259D01*
X178767008Y-151005919D01*
X178772245Y-151025465D01*
X178772246Y-151025468D01*
X178782426Y-151043100D01*
X178835504Y-151135034D01*
X178924966Y-151224496D01*
X179034534Y-151287755D01*
X179156741Y-151320500D01*
X179156743Y-151320500D01*
X179283257Y-151320500D01*
X179283259Y-151320500D01*
X179405466Y-151287755D01*
X179515034Y-151224496D01*
X179604496Y-151135034D01*
X179667755Y-151025466D01*
X179700500Y-150903259D01*
X179700500Y-150776741D01*
X181839500Y-150776741D01*
X181839500Y-150903259D01*
X181867008Y-151005919D01*
X181872245Y-151025465D01*
X181872246Y-151025468D01*
X181882426Y-151043100D01*
X181935504Y-151135034D01*
X182024966Y-151224496D01*
X182134534Y-151287755D01*
X182256741Y-151320500D01*
X182256743Y-151320500D01*
X182383257Y-151320500D01*
X182383259Y-151320500D01*
X182505466Y-151287755D01*
X182615034Y-151224496D01*
X182704496Y-151135034D01*
X182767755Y-151025466D01*
X182800500Y-150903259D01*
X182800500Y-150776741D01*
X182767755Y-150654534D01*
X182704496Y-150544966D01*
X182615034Y-150455504D01*
X182528369Y-150405468D01*
X182505468Y-150392246D01*
X182505467Y-150392245D01*
X182505466Y-150392245D01*
X182383259Y-150359500D01*
X182256741Y-150359500D01*
X182134534Y-150392245D01*
X182134531Y-150392246D01*
X182024964Y-150455505D01*
X181935505Y-150544964D01*
X181872246Y-150654531D01*
X181872245Y-150654534D01*
X181839500Y-150776741D01*
X179700500Y-150776741D01*
X179667755Y-150654534D01*
X179604496Y-150544966D01*
X179515034Y-150455504D01*
X179428369Y-150405468D01*
X179405468Y-150392246D01*
X179405467Y-150392245D01*
X179405466Y-150392245D01*
X179283259Y-150359500D01*
X179156741Y-150359500D01*
X179034534Y-150392245D01*
X179034531Y-150392246D01*
X178924964Y-150455505D01*
X178835505Y-150544964D01*
X178772246Y-150654531D01*
X178772245Y-150654534D01*
X178739500Y-150776741D01*
X175413271Y-150776741D01*
X175420185Y-150753195D01*
X175472989Y-150707440D01*
X175542147Y-150697496D01*
X175556589Y-150700459D01*
X175556741Y-150700500D01*
X175556745Y-150700500D01*
X175683257Y-150700500D01*
X175683259Y-150700500D01*
X175805466Y-150667755D01*
X175915034Y-150604496D01*
X176004496Y-150515034D01*
X176067755Y-150405466D01*
X176100500Y-150283259D01*
X176100500Y-150156741D01*
X184029500Y-150156741D01*
X184029500Y-150283259D01*
X184058703Y-150392245D01*
X184062245Y-150405465D01*
X184062246Y-150405468D01*
X184079196Y-150434826D01*
X184125504Y-150515034D01*
X184214966Y-150604496D01*
X184324534Y-150667755D01*
X184446741Y-150700500D01*
X184446743Y-150700500D01*
X184575500Y-150700500D01*
X184642539Y-150720185D01*
X184688294Y-150772989D01*
X184699500Y-150824500D01*
X184699500Y-150873259D01*
X184716261Y-150935810D01*
X184732245Y-150995465D01*
X184732246Y-150995468D01*
X184756109Y-151036801D01*
X184795504Y-151105034D01*
X184884966Y-151194496D01*
X184994534Y-151257755D01*
X185116741Y-151290500D01*
X185116743Y-151290500D01*
X185243257Y-151290500D01*
X185243259Y-151290500D01*
X185365466Y-151257755D01*
X185475034Y-151194496D01*
X185564496Y-151105034D01*
X185627755Y-150995466D01*
X185660500Y-150873259D01*
X185660500Y-150746741D01*
X185627755Y-150624534D01*
X185564496Y-150514966D01*
X185475034Y-150425504D01*
X185365466Y-150362245D01*
X185243259Y-150329500D01*
X185116741Y-150329500D01*
X185114500Y-150329500D01*
X185047461Y-150309815D01*
X185001706Y-150257011D01*
X184990500Y-150205500D01*
X184990500Y-150156743D01*
X184990500Y-150156741D01*
X184957755Y-150034534D01*
X184898683Y-149932218D01*
X200069500Y-149932218D01*
X200069500Y-152467774D01*
X200079973Y-152520428D01*
X200079974Y-152520431D01*
X200119867Y-152580134D01*
X200179569Y-152620025D01*
X200179572Y-152620027D01*
X200179575Y-152620027D01*
X200179576Y-152620028D01*
X200205897Y-152625263D01*
X200232223Y-152630500D01*
X202767776Y-152630499D01*
X202820428Y-152620027D01*
X202880133Y-152580133D01*
X202882809Y-152576129D01*
X202893431Y-152560231D01*
X202920027Y-152520428D01*
X202930500Y-152467777D01*
X202930499Y-151087417D01*
X205069500Y-151087417D01*
X205069500Y-151312583D01*
X205072976Y-151334531D01*
X205104723Y-151534976D01*
X205174305Y-151749125D01*
X205251293Y-151900221D01*
X205276527Y-151949745D01*
X205408876Y-152131908D01*
X205568092Y-152291124D01*
X205750255Y-152423473D01*
X205807538Y-152452660D01*
X205950874Y-152525694D01*
X205950876Y-152525694D01*
X205950879Y-152525696D01*
X206065666Y-152562992D01*
X206165023Y-152595276D01*
X206241899Y-152607452D01*
X206387417Y-152630500D01*
X206387418Y-152630500D01*
X206612582Y-152630500D01*
X206612583Y-152630500D01*
X206834976Y-152595276D01*
X207049121Y-152525696D01*
X207249745Y-152423473D01*
X207431908Y-152291124D01*
X207591124Y-152131908D01*
X207723473Y-151949745D01*
X207825696Y-151749121D01*
X207895276Y-151534976D01*
X207930500Y-151312583D01*
X207930500Y-151087417D01*
X207917592Y-151005919D01*
X207895276Y-150865023D01*
X207862992Y-150765666D01*
X207825696Y-150650879D01*
X207825694Y-150650876D01*
X207825694Y-150650874D01*
X207756480Y-150515035D01*
X207723473Y-150450255D01*
X207591124Y-150268092D01*
X207431908Y-150108876D01*
X207249745Y-149976527D01*
X207049125Y-149874305D01*
X206834976Y-149804723D01*
X206629914Y-149772245D01*
X206612583Y-149769500D01*
X206387417Y-149769500D01*
X206370086Y-149772245D01*
X206165023Y-149804723D01*
X205950874Y-149874305D01*
X205750254Y-149976527D01*
X205568089Y-150108878D01*
X205408878Y-150268089D01*
X205276527Y-150450254D01*
X205174305Y-150650874D01*
X205104723Y-150865023D01*
X205077089Y-151039500D01*
X205069500Y-151087417D01*
X202930499Y-151087417D01*
X202930499Y-149932224D01*
X202920027Y-149879572D01*
X202920025Y-149879569D01*
X202920025Y-149879568D01*
X202880132Y-149819865D01*
X202820430Y-149779974D01*
X202820423Y-149779971D01*
X202767780Y-149769500D01*
X200232225Y-149769500D01*
X200179571Y-149779973D01*
X200179568Y-149779974D01*
X200119865Y-149819867D01*
X200079974Y-149879569D01*
X200079971Y-149879576D01*
X200069500Y-149932218D01*
X184898683Y-149932218D01*
X184894496Y-149924966D01*
X184805034Y-149835504D01*
X184695466Y-149772245D01*
X184573259Y-149739500D01*
X184446741Y-149739500D01*
X184324534Y-149772245D01*
X184324531Y-149772246D01*
X184214964Y-149835505D01*
X184125505Y-149924964D01*
X184062246Y-150034531D01*
X184062245Y-150034534D01*
X184029500Y-150156741D01*
X176100500Y-150156741D01*
X176067755Y-150034534D01*
X176004496Y-149924966D01*
X175915034Y-149835504D01*
X175805466Y-149772245D01*
X175683259Y-149739500D01*
X175556741Y-149739500D01*
X175434534Y-149772245D01*
X175434531Y-149772246D01*
X175324964Y-149835505D01*
X175235505Y-149924964D01*
X175172246Y-150034531D01*
X175172245Y-150034534D01*
X175139500Y-150156741D01*
X175139500Y-150189765D01*
X175119815Y-150256804D01*
X175067011Y-150302559D01*
X174997853Y-150312503D01*
X174983412Y-150309541D01*
X174983259Y-150309500D01*
X174856741Y-150309500D01*
X174734534Y-150342245D01*
X174734531Y-150342246D01*
X174624964Y-150405505D01*
X174535505Y-150494964D01*
X174472246Y-150604531D01*
X174472245Y-150604534D01*
X174439500Y-150726741D01*
X152075301Y-150726741D01*
X152076605Y-150720185D01*
X152081730Y-150694423D01*
X152094499Y-150630225D01*
X152094500Y-150630223D01*
X152094500Y-150469776D01*
X152094499Y-150469774D01*
X152091661Y-150455505D01*
X152063199Y-150312419D01*
X152062120Y-150309815D01*
X152001536Y-150163549D01*
X151994067Y-150094080D01*
X152025342Y-150031601D01*
X152085431Y-149995949D01*
X152155257Y-149998443D01*
X152163549Y-150001536D01*
X152312414Y-150063197D01*
X152312419Y-150063199D01*
X152467668Y-150094080D01*
X152469774Y-150094499D01*
X152469777Y-150094500D01*
X152469779Y-150094500D01*
X152630223Y-150094500D01*
X152630224Y-150094499D01*
X152787581Y-150063199D01*
X152935810Y-150001801D01*
X153069213Y-149912663D01*
X153182663Y-149799213D01*
X153271801Y-149665810D01*
X153333199Y-149517581D01*
X153364500Y-149360221D01*
X153364500Y-149199779D01*
X153364500Y-149199776D01*
X153364499Y-149199774D01*
X153333200Y-149042426D01*
X153333199Y-149042419D01*
X153333197Y-149042414D01*
X153271803Y-148894194D01*
X153271802Y-148894192D01*
X153182663Y-148760787D01*
X153182660Y-148760783D01*
X153069216Y-148647339D01*
X153069212Y-148647336D01*
X152935807Y-148558197D01*
X152935805Y-148558196D01*
X152787585Y-148496802D01*
X152787573Y-148496799D01*
X152630224Y-148465500D01*
X152630221Y-148465500D01*
X152469779Y-148465500D01*
X152469776Y-148465500D01*
X152312426Y-148496799D01*
X152312414Y-148496802D01*
X152164194Y-148558196D01*
X152164192Y-148558197D01*
X152030787Y-148647336D01*
X152030783Y-148647339D01*
X151917339Y-148760783D01*
X151917336Y-148760787D01*
X151828197Y-148894192D01*
X151828196Y-148894194D01*
X151766802Y-149042414D01*
X151766799Y-149042426D01*
X151735500Y-149199774D01*
X151735500Y-149360225D01*
X151766799Y-149517573D01*
X151766802Y-149517585D01*
X151828463Y-149666450D01*
X151835932Y-149735919D01*
X151804656Y-149798398D01*
X151744567Y-149834050D01*
X151674742Y-149831556D01*
X151666450Y-149828463D01*
X151517585Y-149766802D01*
X151517573Y-149766799D01*
X151360224Y-149735500D01*
X151360221Y-149735500D01*
X151199779Y-149735500D01*
X151199776Y-149735500D01*
X151042426Y-149766799D01*
X151042423Y-149766800D01*
X151042422Y-149766800D01*
X151042419Y-149766801D01*
X150966137Y-149798398D01*
X150893549Y-149828464D01*
X150824079Y-149835932D01*
X150761600Y-149804656D01*
X150725948Y-149744567D01*
X150728443Y-149674742D01*
X150731536Y-149666449D01*
X150731803Y-149665805D01*
X150793199Y-149517581D01*
X150824500Y-149360221D01*
X150824500Y-149199779D01*
X150824500Y-149199776D01*
X150824499Y-149199774D01*
X150793200Y-149042426D01*
X150793199Y-149042419D01*
X150793197Y-149042414D01*
X150731803Y-148894194D01*
X150731802Y-148894192D01*
X150642663Y-148760787D01*
X150642660Y-148760783D01*
X150529216Y-148647339D01*
X150529212Y-148647336D01*
X150395807Y-148558197D01*
X150395805Y-148558196D01*
X150247585Y-148496802D01*
X150247573Y-148496799D01*
X150090224Y-148465500D01*
X150090221Y-148465500D01*
X149929779Y-148465500D01*
X149929776Y-148465500D01*
X149772426Y-148496799D01*
X149772414Y-148496802D01*
X149624194Y-148558196D01*
X149624192Y-148558197D01*
X149490787Y-148647336D01*
X149490783Y-148647339D01*
X149377339Y-148760783D01*
X149377336Y-148760787D01*
X149288197Y-148894192D01*
X149288196Y-148894194D01*
X149226802Y-149042414D01*
X149226799Y-149042426D01*
X149195500Y-149199774D01*
X149195500Y-149360225D01*
X149226799Y-149517573D01*
X149226802Y-149517585D01*
X149288463Y-149666450D01*
X149295932Y-149735919D01*
X149264656Y-149798398D01*
X149204567Y-149834050D01*
X149134742Y-149831556D01*
X149126450Y-149828463D01*
X148977585Y-149766802D01*
X148977573Y-149766799D01*
X148820224Y-149735500D01*
X148820221Y-149735500D01*
X148659779Y-149735500D01*
X148659776Y-149735500D01*
X148502426Y-149766799D01*
X148502414Y-149766802D01*
X148354194Y-149828196D01*
X148354192Y-149828197D01*
X148220787Y-149917336D01*
X148220783Y-149917339D01*
X148107339Y-150030783D01*
X148107336Y-150030787D01*
X148018197Y-150164192D01*
X148018196Y-150164194D01*
X147956802Y-150312414D01*
X147956799Y-150312426D01*
X147925500Y-150469774D01*
X138150500Y-150469774D01*
X138150500Y-148166741D01*
X160709500Y-148166741D01*
X160709500Y-148293259D01*
X160742245Y-148415466D01*
X160805504Y-148525034D01*
X160894966Y-148614496D01*
X161004534Y-148677755D01*
X161126741Y-148710500D01*
X161126743Y-148710500D01*
X161253257Y-148710500D01*
X161253259Y-148710500D01*
X161375466Y-148677755D01*
X161485034Y-148614496D01*
X161574496Y-148525034D01*
X161637755Y-148415466D01*
X161670500Y-148293259D01*
X161670500Y-148184500D01*
X161671101Y-148182451D01*
X161670568Y-148180383D01*
X161671770Y-148176741D01*
X167879500Y-148176741D01*
X167879500Y-148303259D01*
X167912245Y-148425466D01*
X167975504Y-148535034D01*
X168064966Y-148624496D01*
X168174534Y-148687755D01*
X168296741Y-148720500D01*
X168296743Y-148720500D01*
X168423257Y-148720500D01*
X168423259Y-148720500D01*
X168545466Y-148687755D01*
X168655034Y-148624496D01*
X168744496Y-148535034D01*
X168807755Y-148425466D01*
X168840500Y-148303259D01*
X168840500Y-148256741D01*
X180299500Y-148256741D01*
X180299500Y-148383259D01*
X180332245Y-148505466D01*
X180395504Y-148615034D01*
X180484966Y-148704496D01*
X180594534Y-148767755D01*
X180716741Y-148800500D01*
X180716743Y-148800500D01*
X180843257Y-148800500D01*
X180843259Y-148800500D01*
X180965466Y-148767755D01*
X181075034Y-148704496D01*
X181164496Y-148615034D01*
X181227755Y-148505466D01*
X181260500Y-148383259D01*
X181260500Y-148256741D01*
X181227755Y-148134534D01*
X181164496Y-148024966D01*
X181075034Y-147935504D01*
X180994826Y-147889196D01*
X180965468Y-147872246D01*
X180965467Y-147872245D01*
X180965466Y-147872245D01*
X180843259Y-147839500D01*
X180716741Y-147839500D01*
X180594534Y-147872245D01*
X180594531Y-147872246D01*
X180484964Y-147935505D01*
X180395505Y-148024964D01*
X180332246Y-148134531D01*
X180332245Y-148134534D01*
X180299500Y-148256741D01*
X168840500Y-148256741D01*
X168840500Y-148176741D01*
X168807755Y-148054534D01*
X168744496Y-147944966D01*
X168655034Y-147855504D01*
X168545466Y-147792245D01*
X168423259Y-147759500D01*
X168296741Y-147759500D01*
X168174534Y-147792245D01*
X168174531Y-147792246D01*
X168064964Y-147855505D01*
X167975505Y-147944964D01*
X167912246Y-148054531D01*
X167912245Y-148054534D01*
X167879500Y-148176741D01*
X161671770Y-148176741D01*
X161680902Y-148149072D01*
X161690185Y-148117461D01*
X161691798Y-148116063D01*
X161692468Y-148114034D01*
X161718095Y-148093276D01*
X161742989Y-148071706D01*
X161745622Y-148070979D01*
X161746761Y-148070058D01*
X161754817Y-148068445D01*
X161780937Y-148061244D01*
X161787698Y-148060500D01*
X161863259Y-148060500D01*
X161985466Y-148027755D01*
X162095034Y-147964496D01*
X162184496Y-147875034D01*
X162247755Y-147765466D01*
X162280500Y-147643259D01*
X162280500Y-147516741D01*
X162247755Y-147394534D01*
X162184496Y-147284966D01*
X162095034Y-147195504D01*
X162008369Y-147145468D01*
X161985468Y-147132246D01*
X161985467Y-147132245D01*
X161985466Y-147132245D01*
X161863259Y-147099500D01*
X161736741Y-147099500D01*
X161614534Y-147132245D01*
X161614531Y-147132246D01*
X161504964Y-147195505D01*
X161415505Y-147284964D01*
X161352246Y-147394531D01*
X161352245Y-147394534D01*
X161319500Y-147516741D01*
X161319500Y-147625500D01*
X161299815Y-147692539D01*
X161247011Y-147738294D01*
X161195500Y-147749500D01*
X161126741Y-147749500D01*
X161004534Y-147782245D01*
X161004531Y-147782246D01*
X160894964Y-147845505D01*
X160805505Y-147934964D01*
X160742246Y-148044531D01*
X160742245Y-148044534D01*
X160709500Y-148166741D01*
X138150500Y-148166741D01*
X138150500Y-145906871D01*
X149104500Y-145906871D01*
X149104500Y-146093128D01*
X149140833Y-146275784D01*
X149140835Y-146275792D01*
X149212109Y-146447863D01*
X149212109Y-146447864D01*
X149315578Y-146602716D01*
X149315584Y-146602724D01*
X149447275Y-146734415D01*
X149447283Y-146734421D01*
X149602135Y-146837890D01*
X149628658Y-146848876D01*
X149774208Y-146909165D01*
X149956871Y-146945499D01*
X149956874Y-146945500D01*
X149956876Y-146945500D01*
X150143126Y-146945500D01*
X150143127Y-146945499D01*
X150325792Y-146909165D01*
X150497862Y-146837891D01*
X150497863Y-146837890D01*
X150497864Y-146837890D01*
X150592687Y-146774531D01*
X150652721Y-146734418D01*
X150784418Y-146602721D01*
X150846706Y-146509500D01*
X150887890Y-146447864D01*
X150887890Y-146447863D01*
X150887891Y-146447862D01*
X150959165Y-146275792D01*
X150995500Y-146093124D01*
X150995500Y-145906876D01*
X150995500Y-145906873D01*
X150995499Y-145906871D01*
X151604500Y-145906871D01*
X151604500Y-146093128D01*
X151640833Y-146275784D01*
X151640835Y-146275792D01*
X151712109Y-146447863D01*
X151712109Y-146447864D01*
X151815578Y-146602716D01*
X151815584Y-146602724D01*
X151947275Y-146734415D01*
X151947283Y-146734421D01*
X152102135Y-146837890D01*
X152128658Y-146848876D01*
X152274208Y-146909165D01*
X152456871Y-146945499D01*
X152456874Y-146945500D01*
X152456876Y-146945500D01*
X152643126Y-146945500D01*
X152643127Y-146945499D01*
X152825792Y-146909165D01*
X152855786Y-146896741D01*
X169089500Y-146896741D01*
X169089500Y-147023259D01*
X169122245Y-147145466D01*
X169185504Y-147255034D01*
X169274966Y-147344496D01*
X169384534Y-147407755D01*
X169506741Y-147440500D01*
X169506743Y-147440500D01*
X169633257Y-147440500D01*
X169633259Y-147440500D01*
X169755466Y-147407755D01*
X169865034Y-147344496D01*
X169954496Y-147255034D01*
X170017755Y-147145466D01*
X170050500Y-147023259D01*
X170050500Y-146896741D01*
X170017755Y-146774534D01*
X169954496Y-146664966D01*
X169865034Y-146575504D01*
X169755466Y-146512245D01*
X169633259Y-146479500D01*
X169506741Y-146479500D01*
X169384534Y-146512245D01*
X169384531Y-146512246D01*
X169274964Y-146575505D01*
X169185505Y-146664964D01*
X169122246Y-146774531D01*
X169122245Y-146774534D01*
X169089500Y-146896741D01*
X152855786Y-146896741D01*
X152997862Y-146837891D01*
X153152721Y-146734418D01*
X153284418Y-146602721D01*
X153346706Y-146509500D01*
X153387890Y-146447864D01*
X153387890Y-146447863D01*
X153387891Y-146447862D01*
X153459165Y-146275792D01*
X153495500Y-146093124D01*
X153495500Y-145906876D01*
X153495500Y-145906873D01*
X153495499Y-145906871D01*
X153478924Y-145823543D01*
X153459165Y-145724208D01*
X153387891Y-145552138D01*
X153387890Y-145552136D01*
X153387890Y-145552135D01*
X153284421Y-145397283D01*
X153284415Y-145397275D01*
X153152724Y-145265584D01*
X153152716Y-145265578D01*
X152997864Y-145162109D01*
X152825792Y-145090835D01*
X152825784Y-145090833D01*
X152643127Y-145054500D01*
X152643124Y-145054500D01*
X152456876Y-145054500D01*
X152456873Y-145054500D01*
X152274215Y-145090833D01*
X152274207Y-145090835D01*
X152102136Y-145162109D01*
X152102135Y-145162109D01*
X151947283Y-145265578D01*
X151947275Y-145265584D01*
X151815584Y-145397275D01*
X151815578Y-145397283D01*
X151712109Y-145552135D01*
X151712109Y-145552136D01*
X151640835Y-145724207D01*
X151640833Y-145724215D01*
X151604500Y-145906871D01*
X150995499Y-145906871D01*
X150978924Y-145823543D01*
X150959165Y-145724208D01*
X150887891Y-145552138D01*
X150887890Y-145552136D01*
X150887890Y-145552135D01*
X150784421Y-145397283D01*
X150784415Y-145397275D01*
X150652724Y-145265584D01*
X150652716Y-145265578D01*
X150497864Y-145162109D01*
X150325792Y-145090835D01*
X150325784Y-145090833D01*
X150143127Y-145054500D01*
X150143124Y-145054500D01*
X149956876Y-145054500D01*
X149956873Y-145054500D01*
X149774215Y-145090833D01*
X149774207Y-145090835D01*
X149602136Y-145162109D01*
X149602135Y-145162109D01*
X149447283Y-145265578D01*
X149447275Y-145265584D01*
X149315584Y-145397275D01*
X149315578Y-145397283D01*
X149212109Y-145552135D01*
X149212109Y-145552136D01*
X149140835Y-145724207D01*
X149140833Y-145724215D01*
X149104500Y-145906871D01*
X138150500Y-145906871D01*
X138150500Y-145389642D01*
X138159144Y-145360201D01*
X138165668Y-145330215D01*
X138169422Y-145325199D01*
X138170185Y-145322603D01*
X138186813Y-145301966D01*
X138334018Y-145154761D01*
X138347366Y-145143195D01*
X138561630Y-144982798D01*
X138576491Y-144973248D01*
X138811388Y-144844985D01*
X138827470Y-144837640D01*
X139078241Y-144744107D01*
X139095192Y-144739130D01*
X139356710Y-144682240D01*
X139374207Y-144679724D01*
X139645582Y-144660316D01*
X139654428Y-144660000D01*
X166210021Y-144660000D01*
X166277060Y-144679685D01*
G37*
%TD.AperFunction*%
%TD*%
M02*
