%TF.GenerationSoftware,KiCad,Pcbnew,9.0.1+1*%
%TF.CreationDate,2025-11-23T19:58:41+00:00*%
%TF.ProjectId,nautilus_mainboard,6e617574-696c-4757-935f-6d61696e626f,rev?*%
%TF.SameCoordinates,Original*%
%TF.FileFunction,Soldermask,Top*%
%TF.FilePolarity,Negative*%
%FSLAX46Y46*%
G04 Gerber Fmt 4.6, Leading zero omitted, Abs format (unit mm)*
G04 Created by KiCad (PCBNEW 9.0.1+1) date 2025-11-23 19:58:41*
%MOMM*%
%LPD*%
G01*
G04 APERTURE LIST*
G04 Aperture macros list*
%AMRoundRect*
0 Rectangle with rounded corners*
0 $1 Rounding radius*
0 $2 $3 $4 $5 $6 $7 $8 $9 X,Y pos of 4 corners*
0 Add a 4 corners polygon primitive as box body*
4,1,4,$2,$3,$4,$5,$6,$7,$8,$9,$2,$3,0*
0 Add four circle primitives for the rounded corners*
1,1,$1+$1,$2,$3*
1,1,$1+$1,$4,$5*
1,1,$1+$1,$6,$7*
1,1,$1+$1,$8,$9*
0 Add four rect primitives between the rounded corners*
20,1,$1+$1,$2,$3,$4,$5,0*
20,1,$1+$1,$4,$5,$6,$7,0*
20,1,$1+$1,$6,$7,$8,$9,0*
20,1,$1+$1,$8,$9,$2,$3,0*%
G04 Aperture macros list end*
%ADD10C,0.010000*%
%ADD11RoundRect,0.200000X0.200000X0.275000X-0.200000X0.275000X-0.200000X-0.275000X0.200000X-0.275000X0*%
%ADD12RoundRect,0.200000X0.275000X-0.200000X0.275000X0.200000X-0.275000X0.200000X-0.275000X-0.200000X0*%
%ADD13C,1.500000*%
%ADD14C,0.600000*%
%ADD15O,1.904000X1.104000*%
%ADD16O,2.204000X1.104000*%
%ADD17RoundRect,0.200000X-0.200000X-0.275000X0.200000X-0.275000X0.200000X0.275000X-0.200000X0.275000X0*%
%ADD18RoundRect,0.225000X-0.250000X0.225000X-0.250000X-0.225000X0.250000X-0.225000X0.250000X0.225000X0*%
%ADD19R,0.950000X1.000000*%
%ADD20RoundRect,0.225000X-0.225000X-0.250000X0.225000X-0.250000X0.225000X0.250000X-0.225000X0.250000X0*%
%ADD21RoundRect,0.070000X-0.175000X-0.295000X0.175000X-0.295000X0.175000X0.295000X-0.175000X0.295000X0*%
%ADD22RoundRect,0.102000X-0.295000X-0.175000X0.295000X-0.175000X0.295000X0.175000X-0.295000X0.175000X0*%
%ADD23RoundRect,0.100500X0.301500X-0.616500X0.301500X0.616500X-0.301500X0.616500X-0.301500X-0.616500X0*%
%ADD24RoundRect,0.150000X-0.150000X0.512500X-0.150000X-0.512500X0.150000X-0.512500X0.150000X0.512500X0*%
%ADD25RoundRect,0.225000X0.225000X0.250000X-0.225000X0.250000X-0.225000X-0.250000X0.225000X-0.250000X0*%
%ADD26RoundRect,0.250000X0.325000X1.100000X-0.325000X1.100000X-0.325000X-1.100000X0.325000X-1.100000X0*%
%ADD27RoundRect,0.250000X-0.250000X-0.475000X0.250000X-0.475000X0.250000X0.475000X-0.250000X0.475000X0*%
%ADD28C,2.000000*%
%ADD29RoundRect,0.075000X-0.075000X0.700000X-0.075000X-0.700000X0.075000X-0.700000X0.075000X0.700000X0*%
%ADD30RoundRect,0.075000X-0.700000X0.075000X-0.700000X-0.075000X0.700000X-0.075000X0.700000X0.075000X0*%
%ADD31R,0.740000X2.790000*%
%ADD32R,0.910000X1.220000*%
%ADD33R,0.400000X1.050000*%
%ADD34R,0.600000X0.200000*%
%ADD35C,1.100000*%
%ADD36C,1.600000*%
%ADD37R,0.300000X1.550000*%
%ADD38C,5.300000*%
%ADD39R,1.200000X2.750000*%
%ADD40R,1.000000X0.950000*%
%ADD41RoundRect,0.200000X-0.275000X0.200000X-0.275000X-0.200000X0.275000X-0.200000X0.275000X0.200000X0*%
%ADD42RoundRect,0.250000X-1.100000X0.325000X-1.100000X-0.325000X1.100000X-0.325000X1.100000X0.325000X0*%
%ADD43RoundRect,0.150000X-0.512500X-0.150000X0.512500X-0.150000X0.512500X0.150000X-0.512500X0.150000X0*%
%ADD44R,1.000000X0.400000*%
%ADD45RoundRect,0.140000X-0.140000X-0.170000X0.140000X-0.170000X0.140000X0.170000X-0.140000X0.170000X0*%
%ADD46RoundRect,0.150000X0.150000X-0.512500X0.150000X0.512500X-0.150000X0.512500X-0.150000X-0.512500X0*%
%ADD47R,2.500000X2.500000*%
%ADD48C,2.500000*%
%ADD49RoundRect,0.100500X-0.616500X-0.301500X0.616500X-0.301500X0.616500X0.301500X-0.616500X0.301500X0*%
%ADD50R,0.850000X0.350000*%
%ADD51R,1.700000X2.450000*%
%ADD52RoundRect,0.140000X0.140000X0.170000X-0.140000X0.170000X-0.140000X-0.170000X0.140000X-0.170000X0*%
%ADD53RoundRect,0.135000X-0.185000X0.135000X-0.185000X-0.135000X0.185000X-0.135000X0.185000X0.135000X0*%
%ADD54R,1.300000X2.200000*%
%ADD55C,1.854000*%
%ADD56RoundRect,0.250000X-1.050000X-1.050000X1.050000X-1.050000X1.050000X1.050000X-1.050000X1.050000X0*%
%ADD57C,2.600000*%
%ADD58R,1.700000X1.700000*%
%ADD59C,1.700000*%
%ADD60RoundRect,0.140000X-0.170000X0.140000X-0.170000X-0.140000X0.170000X-0.140000X0.170000X0.140000X0*%
%ADD61R,0.750000X1.200000*%
%ADD62C,6.100000*%
%ADD63R,0.200000X0.700000*%
%ADD64C,3.180000*%
%ADD65RoundRect,0.102000X-0.634000X0.634000X-0.634000X-0.634000X0.634000X-0.634000X0.634000X0.634000X0*%
%ADD66C,1.472000*%
%ADD67C,1.734000*%
G04 APERTURE END LIST*
D10*
%TO.C,J3*%
X256550000Y-157475000D02*
X255310000Y-157475000D01*
X255310000Y-156775000D01*
X256550000Y-156775000D01*
X256550000Y-157475000D01*
G36*
X256550000Y-157475000D02*
G01*
X255310000Y-157475000D01*
X255310000Y-156775000D01*
X256550000Y-156775000D01*
X256550000Y-157475000D01*
G37*
X256550000Y-158275000D02*
X255310000Y-158275000D01*
X255310000Y-157575000D01*
X256550000Y-157575000D01*
X256550000Y-158275000D01*
G36*
X256550000Y-158275000D02*
G01*
X255310000Y-158275000D01*
X255310000Y-157575000D01*
X256550000Y-157575000D01*
X256550000Y-158275000D01*
G37*
X256550000Y-158775000D02*
X255310000Y-158775000D01*
X255310000Y-158375000D01*
X256550000Y-158375000D01*
X256550000Y-158775000D01*
G36*
X256550000Y-158775000D02*
G01*
X255310000Y-158775000D01*
X255310000Y-158375000D01*
X256550000Y-158375000D01*
X256550000Y-158775000D01*
G37*
X256550000Y-159275000D02*
X255310000Y-159275000D01*
X255310000Y-158875000D01*
X256550000Y-158875000D01*
X256550000Y-159275000D01*
G36*
X256550000Y-159275000D02*
G01*
X255310000Y-159275000D01*
X255310000Y-158875000D01*
X256550000Y-158875000D01*
X256550000Y-159275000D01*
G37*
X256550000Y-159775000D02*
X255310000Y-159775000D01*
X255310000Y-159375000D01*
X256550000Y-159375000D01*
X256550000Y-159775000D01*
G36*
X256550000Y-159775000D02*
G01*
X255310000Y-159775000D01*
X255310000Y-159375000D01*
X256550000Y-159375000D01*
X256550000Y-159775000D01*
G37*
X256550000Y-160275000D02*
X255310000Y-160275000D01*
X255310000Y-159875000D01*
X256550000Y-159875000D01*
X256550000Y-160275000D01*
G36*
X256550000Y-160275000D02*
G01*
X255310000Y-160275000D01*
X255310000Y-159875000D01*
X256550000Y-159875000D01*
X256550000Y-160275000D01*
G37*
X256550000Y-160775000D02*
X255310000Y-160775000D01*
X255310000Y-160375000D01*
X256550000Y-160375000D01*
X256550000Y-160775000D01*
G36*
X256550000Y-160775000D02*
G01*
X255310000Y-160775000D01*
X255310000Y-160375000D01*
X256550000Y-160375000D01*
X256550000Y-160775000D01*
G37*
X256550000Y-161275000D02*
X255310000Y-161275000D01*
X255310000Y-160875000D01*
X256550000Y-160875000D01*
X256550000Y-161275000D01*
G36*
X256550000Y-161275000D02*
G01*
X255310000Y-161275000D01*
X255310000Y-160875000D01*
X256550000Y-160875000D01*
X256550000Y-161275000D01*
G37*
X256550000Y-161775000D02*
X255310000Y-161775000D01*
X255310000Y-161375000D01*
X256550000Y-161375000D01*
X256550000Y-161775000D01*
G36*
X256550000Y-161775000D02*
G01*
X255310000Y-161775000D01*
X255310000Y-161375000D01*
X256550000Y-161375000D01*
X256550000Y-161775000D01*
G37*
X256550000Y-162275000D02*
X255310000Y-162275000D01*
X255310000Y-161875000D01*
X256550000Y-161875000D01*
X256550000Y-162275000D01*
G36*
X256550000Y-162275000D02*
G01*
X255310000Y-162275000D01*
X255310000Y-161875000D01*
X256550000Y-161875000D01*
X256550000Y-162275000D01*
G37*
X256550000Y-163075000D02*
X255310000Y-163075000D01*
X255310000Y-162375000D01*
X256550000Y-162375000D01*
X256550000Y-163075000D01*
G36*
X256550000Y-163075000D02*
G01*
X255310000Y-163075000D01*
X255310000Y-162375000D01*
X256550000Y-162375000D01*
X256550000Y-163075000D01*
G37*
X256550000Y-163875000D02*
X255310000Y-163875000D01*
X255310000Y-163175000D01*
X256550000Y-163175000D01*
X256550000Y-163875000D01*
G36*
X256550000Y-163875000D02*
G01*
X255310000Y-163875000D01*
X255310000Y-163175000D01*
X256550000Y-163175000D01*
X256550000Y-163875000D01*
G37*
%TO.C,TPD4EUSB30DQAR1*%
X176370001Y-140652500D02*
X176030001Y-140652500D01*
X176030001Y-139947500D01*
X176370000Y-139947500D01*
X176370001Y-140652500D01*
G36*
X176370001Y-140652500D02*
G01*
X176030001Y-140652500D01*
X176030001Y-139947500D01*
X176370000Y-139947500D01*
X176370001Y-140652500D01*
G37*
X176370000Y-139817500D02*
X176030001Y-139817500D01*
X176030001Y-139112500D01*
X176370001Y-139112500D01*
X176370000Y-139817500D01*
G36*
X176370000Y-139817500D02*
G01*
X176030001Y-139817500D01*
X176030001Y-139112500D01*
X176370001Y-139112500D01*
X176370000Y-139817500D01*
G37*
X176870001Y-139817500D02*
X176530001Y-139817501D01*
X176530001Y-139112500D01*
X176870001Y-139112500D01*
X176870001Y-139817500D01*
G36*
X176870001Y-139817500D02*
G01*
X176530001Y-139817501D01*
X176530001Y-139112500D01*
X176870001Y-139112500D01*
X176870001Y-139817500D01*
G37*
X176870001Y-139947500D02*
X176870001Y-140652500D01*
X176530001Y-140652500D01*
X176530001Y-139947499D01*
X176870001Y-139947500D01*
G36*
X176870001Y-139947500D02*
G01*
X176870001Y-140652500D01*
X176530001Y-140652500D01*
X176530001Y-139947499D01*
X176870001Y-139947500D01*
G37*
X177470001Y-139817500D02*
X176930001Y-139817500D01*
X176930001Y-139112500D01*
X177470001Y-139112500D01*
X177470001Y-139817500D01*
G36*
X177470001Y-139817500D02*
G01*
X176930001Y-139817500D01*
X176930001Y-139112500D01*
X177470001Y-139112500D01*
X177470001Y-139817500D01*
G37*
X177470001Y-140652500D02*
X176930001Y-140652500D01*
X176930001Y-139947500D01*
X177470001Y-139947500D01*
X177470001Y-140652500D01*
G36*
X177470001Y-140652500D02*
G01*
X176930001Y-140652500D01*
X176930001Y-139947500D01*
X177470001Y-139947500D01*
X177470001Y-140652500D01*
G37*
X177870001Y-139817501D02*
X177530001Y-139817500D01*
X177530001Y-139112500D01*
X177870001Y-139112500D01*
X177870001Y-139817501D01*
G36*
X177870001Y-139817501D02*
G01*
X177530001Y-139817500D01*
X177530001Y-139112500D01*
X177870001Y-139112500D01*
X177870001Y-139817501D01*
G37*
X177870001Y-140652500D02*
X177530001Y-140652500D01*
X177530001Y-139947500D01*
X177870001Y-139947499D01*
X177870001Y-140652500D01*
G36*
X177870001Y-140652500D02*
G01*
X177530001Y-140652500D01*
X177530001Y-139947500D01*
X177870001Y-139947499D01*
X177870001Y-140652500D01*
G37*
X178370001Y-139817500D02*
X178030002Y-139817500D01*
X178030001Y-139112500D01*
X178370001Y-139112500D01*
X178370001Y-139817500D01*
G36*
X178370001Y-139817500D02*
G01*
X178030002Y-139817500D01*
X178030001Y-139112500D01*
X178370001Y-139112500D01*
X178370001Y-139817500D01*
G37*
X178370001Y-140652500D02*
X178030001Y-140652500D01*
X178030002Y-139947500D01*
X178370001Y-139947500D01*
X178370001Y-140652500D01*
G36*
X178370001Y-140652500D02*
G01*
X178030001Y-140652500D01*
X178030002Y-139947500D01*
X178370001Y-139947500D01*
X178370001Y-140652500D01*
G37*
%TO.C,TPD4EUSB30DQAR2*%
X172420000Y-140637500D02*
X172080000Y-140637500D01*
X172080000Y-139932500D01*
X172419999Y-139932500D01*
X172420000Y-140637500D01*
G36*
X172420000Y-140637500D02*
G01*
X172080000Y-140637500D01*
X172080000Y-139932500D01*
X172419999Y-139932500D01*
X172420000Y-140637500D01*
G37*
X172419999Y-139802500D02*
X172080000Y-139802500D01*
X172080000Y-139097500D01*
X172420000Y-139097500D01*
X172419999Y-139802500D01*
G36*
X172419999Y-139802500D02*
G01*
X172080000Y-139802500D01*
X172080000Y-139097500D01*
X172420000Y-139097500D01*
X172419999Y-139802500D01*
G37*
X172920000Y-139802500D02*
X172580000Y-139802501D01*
X172580000Y-139097500D01*
X172920000Y-139097500D01*
X172920000Y-139802500D01*
G36*
X172920000Y-139802500D02*
G01*
X172580000Y-139802501D01*
X172580000Y-139097500D01*
X172920000Y-139097500D01*
X172920000Y-139802500D01*
G37*
X172920000Y-139932500D02*
X172920000Y-140637500D01*
X172580000Y-140637500D01*
X172580000Y-139932499D01*
X172920000Y-139932500D01*
G36*
X172920000Y-139932500D02*
G01*
X172920000Y-140637500D01*
X172580000Y-140637500D01*
X172580000Y-139932499D01*
X172920000Y-139932500D01*
G37*
X173520000Y-139802500D02*
X172980000Y-139802500D01*
X172980000Y-139097500D01*
X173520000Y-139097500D01*
X173520000Y-139802500D01*
G36*
X173520000Y-139802500D02*
G01*
X172980000Y-139802500D01*
X172980000Y-139097500D01*
X173520000Y-139097500D01*
X173520000Y-139802500D01*
G37*
X173520000Y-140637500D02*
X172980000Y-140637500D01*
X172980000Y-139932500D01*
X173520000Y-139932500D01*
X173520000Y-140637500D01*
G36*
X173520000Y-140637500D02*
G01*
X172980000Y-140637500D01*
X172980000Y-139932500D01*
X173520000Y-139932500D01*
X173520000Y-140637500D01*
G37*
X173920000Y-139802501D02*
X173580000Y-139802500D01*
X173580000Y-139097500D01*
X173920000Y-139097500D01*
X173920000Y-139802501D01*
G36*
X173920000Y-139802501D02*
G01*
X173580000Y-139802500D01*
X173580000Y-139097500D01*
X173920000Y-139097500D01*
X173920000Y-139802501D01*
G37*
X173920000Y-140637500D02*
X173580000Y-140637500D01*
X173580000Y-139932500D01*
X173920000Y-139932499D01*
X173920000Y-140637500D01*
G36*
X173920000Y-140637500D02*
G01*
X173580000Y-140637500D01*
X173580000Y-139932500D01*
X173920000Y-139932499D01*
X173920000Y-140637500D01*
G37*
X174420000Y-139802500D02*
X174080001Y-139802500D01*
X174080000Y-139097500D01*
X174420000Y-139097500D01*
X174420000Y-139802500D01*
G36*
X174420000Y-139802500D02*
G01*
X174080001Y-139802500D01*
X174080000Y-139097500D01*
X174420000Y-139097500D01*
X174420000Y-139802500D01*
G37*
X174420000Y-140637500D02*
X174080000Y-140637500D01*
X174080001Y-139932500D01*
X174420000Y-139932500D01*
X174420000Y-140637500D01*
G36*
X174420000Y-140637500D02*
G01*
X174080000Y-140637500D01*
X174080001Y-139932500D01*
X174420000Y-139932500D01*
X174420000Y-140637500D01*
G37*
%TO.C,TPD4EUSB30DQAR3*%
X249517500Y-159770000D02*
X248812500Y-159770000D01*
X248812500Y-159430000D01*
X249517500Y-159430000D01*
X249517500Y-159770000D01*
G36*
X249517500Y-159770000D02*
G01*
X248812500Y-159770000D01*
X248812500Y-159430000D01*
X249517500Y-159430000D01*
X249517500Y-159770000D01*
G37*
X249517500Y-160270000D02*
X248812500Y-160270000D01*
X248812500Y-159930000D01*
X249517500Y-159930000D01*
X249517500Y-160270000D01*
G36*
X249517500Y-160270000D02*
G01*
X248812500Y-160270000D01*
X248812500Y-159930000D01*
X249517500Y-159930000D01*
X249517500Y-160270000D01*
G37*
X249517500Y-160870000D02*
X248812500Y-160870000D01*
X248812500Y-160330000D01*
X249517500Y-160330000D01*
X249517500Y-160870000D01*
G36*
X249517500Y-160870000D02*
G01*
X248812500Y-160870000D01*
X248812500Y-160330000D01*
X249517500Y-160330000D01*
X249517500Y-160870000D01*
G37*
X249517500Y-161270000D02*
X248812500Y-161270000D01*
X248812500Y-160930000D01*
X249517500Y-160930000D01*
X249517500Y-161270000D01*
G36*
X249517500Y-161270000D02*
G01*
X248812500Y-161270000D01*
X248812500Y-160930000D01*
X249517500Y-160930000D01*
X249517500Y-161270000D01*
G37*
X249517500Y-161770000D02*
X248812500Y-161770000D01*
X248812500Y-161430000D01*
X249517500Y-161430000D01*
X249517500Y-161770000D01*
G36*
X249517500Y-161770000D02*
G01*
X248812500Y-161770000D01*
X248812500Y-161430000D01*
X249517500Y-161430000D01*
X249517500Y-161770000D01*
G37*
X250352500Y-159770000D02*
X249647500Y-159770000D01*
X249647500Y-159430000D01*
X250352500Y-159430000D01*
X250352500Y-159770000D01*
G36*
X250352500Y-159770000D02*
G01*
X249647500Y-159770000D01*
X249647500Y-159430000D01*
X250352500Y-159430000D01*
X250352500Y-159770000D01*
G37*
X250352500Y-160270000D02*
X249647500Y-160270000D01*
X249647500Y-159930000D01*
X250352500Y-159930000D01*
X250352500Y-160270000D01*
G36*
X250352500Y-160270000D02*
G01*
X249647500Y-160270000D01*
X249647500Y-159930000D01*
X250352500Y-159930000D01*
X250352500Y-160270000D01*
G37*
X250352500Y-160870000D02*
X249647500Y-160870000D01*
X249647500Y-160330000D01*
X250352500Y-160330000D01*
X250352500Y-160870000D01*
G36*
X250352500Y-160870000D02*
G01*
X249647500Y-160870000D01*
X249647500Y-160330000D01*
X250352500Y-160330000D01*
X250352500Y-160870000D01*
G37*
X250352500Y-161270000D02*
X249647500Y-161270000D01*
X249647500Y-160930000D01*
X250352500Y-160930000D01*
X250352500Y-161270000D01*
G36*
X250352500Y-161270000D02*
G01*
X249647500Y-161270000D01*
X249647500Y-160930000D01*
X250352500Y-160930000D01*
X250352500Y-161270000D01*
G37*
X250352500Y-161770000D02*
X249647500Y-161770000D01*
X249647500Y-161430000D01*
X250352500Y-161430000D01*
X250352500Y-161770000D01*
G36*
X250352500Y-161770000D02*
G01*
X249647500Y-161770000D01*
X249647500Y-161430000D01*
X250352500Y-161430000D01*
X250352500Y-161770000D01*
G37*
%TD*%
D11*
%TO.C,R27*%
X236005000Y-162120000D03*
X234355000Y-162120000D03*
%TD*%
D12*
%TO.C,R15*%
X217000000Y-107325000D03*
X217000000Y-105675000D03*
%TD*%
D13*
%TO.C,TP6*%
X272730000Y-117310000D03*
%TD*%
D14*
%TO.C,J3*%
X257000000Y-163215000D03*
X257000000Y-157435000D03*
D15*
X260700000Y-164650000D03*
X260700000Y-156000000D03*
D16*
X256520000Y-164650000D03*
X256520000Y-156000000D03*
%TD*%
D17*
%TO.C,R23*%
X227525000Y-110370000D03*
X229175000Y-110370000D03*
%TD*%
D18*
%TO.C,C4*%
X192950000Y-139200000D03*
X192950000Y-140750000D03*
%TD*%
D12*
%TO.C,R31*%
X217000000Y-110575000D03*
X217000000Y-108925000D03*
%TD*%
D17*
%TO.C,R45*%
X59470000Y-148700000D03*
X61120000Y-148700000D03*
%TD*%
D19*
%TO.C,LED3*%
X272045000Y-164050000D03*
X273645000Y-164050000D03*
%TD*%
D20*
%TO.C,C52*%
X232605000Y-164070000D03*
X234155000Y-164070000D03*
%TD*%
%TO.C,C20*%
X266400000Y-158693250D03*
X267950000Y-158693250D03*
%TD*%
D17*
%TO.C,EXTERNALFAN5V1*%
X101000000Y-104400000D03*
X102650000Y-104400000D03*
%TD*%
D21*
%TO.C,U2*%
X213085000Y-112185000D03*
X213585000Y-112185000D03*
X214085000Y-112185000D03*
X214585000Y-112185000D03*
X215085000Y-112185000D03*
X215585000Y-112185000D03*
X216085000Y-112185000D03*
D22*
X216500000Y-113350000D03*
D21*
X216085000Y-114515000D03*
X215585000Y-114515000D03*
X215085000Y-114515000D03*
X214585000Y-114515000D03*
X214085000Y-114515000D03*
X213585000Y-114515000D03*
X213085000Y-114515000D03*
D22*
X212670000Y-113350000D03*
%TD*%
D13*
%TO.C,TP2*%
X272730000Y-108210000D03*
%TD*%
D11*
%TO.C,R7*%
X256839999Y-138650000D03*
X255189999Y-138650000D03*
%TD*%
D23*
%TO.C,Q3*%
X194300000Y-155950000D03*
X196200000Y-155950000D03*
X195250000Y-153830000D03*
%TD*%
D24*
%TO.C,D2*%
X177340000Y-163102500D03*
X176390000Y-163102500D03*
X175440000Y-163102500D03*
X175440000Y-165377500D03*
X177340000Y-165377500D03*
%TD*%
D25*
%TO.C,C37*%
X144675000Y-112700000D03*
X143125000Y-112700000D03*
%TD*%
D17*
%TO.C,R34*%
X51450000Y-151210000D03*
X53100000Y-151210000D03*
%TD*%
%TO.C,R33*%
X194324999Y-157630000D03*
X195974999Y-157630000D03*
%TD*%
D25*
%TO.C,C12*%
X175100000Y-149250000D03*
X173550000Y-149250000D03*
%TD*%
%TO.C,C39*%
X235955000Y-160620000D03*
X234405000Y-160620000D03*
%TD*%
D19*
%TO.C,LED4*%
X55730000Y-160960000D03*
X57330000Y-160960000D03*
%TD*%
D18*
%TO.C,C2*%
X189950000Y-139200000D03*
X189950000Y-140750000D03*
%TD*%
D17*
%TO.C,R9*%
X267765000Y-152110000D03*
X269415000Y-152110000D03*
%TD*%
%TO.C,R46*%
X59470000Y-151210000D03*
X61120000Y-151210000D03*
%TD*%
D13*
%TO.C,TP5*%
X276280000Y-108210000D03*
%TD*%
D19*
%TO.C,LED7*%
X258500000Y-142850000D03*
X260100000Y-142850000D03*
%TD*%
D25*
%TO.C,C38*%
X144675000Y-107300000D03*
X143125000Y-107300000D03*
%TD*%
D17*
%TO.C,R48*%
X218950000Y-109330000D03*
X220600000Y-109330000D03*
%TD*%
D26*
%TO.C,C21*%
X216723780Y-166489949D03*
X213773778Y-166489949D03*
%TD*%
D17*
%TO.C,R4*%
X101000000Y-109420000D03*
X102650000Y-109420000D03*
%TD*%
%TO.C,R6*%
X255175000Y-142850000D03*
X256825000Y-142850000D03*
%TD*%
D27*
%TO.C,C53*%
X146195001Y-114480000D03*
X148094999Y-114480000D03*
%TD*%
D17*
%TO.C,R5*%
X255275000Y-147000000D03*
X256925000Y-147000000D03*
%TD*%
%TO.C,R35*%
X51450000Y-153720000D03*
X53100000Y-153720000D03*
%TD*%
D24*
%TO.C,D1*%
X151439999Y-166772500D03*
X150490000Y-166772500D03*
X149540001Y-166772500D03*
X149540001Y-169047500D03*
X151439999Y-169047500D03*
%TD*%
D17*
%TO.C,R38*%
X55460000Y-148700000D03*
X57110000Y-148700000D03*
%TD*%
D13*
%TO.C,TP8*%
X276280000Y-111760000D03*
%TD*%
D28*
%TO.C,SW1*%
X164050000Y-163800000D03*
X170550000Y-163800000D03*
X164050000Y-168300000D03*
X170550000Y-168300000D03*
%TD*%
D17*
%TO.C,R10*%
X263975000Y-169700000D03*
X265625000Y-169700000D03*
%TD*%
%TO.C,R44*%
X59470000Y-146190000D03*
X61120000Y-146190000D03*
%TD*%
D20*
%TO.C,C45*%
X213535000Y-115900000D03*
X215085000Y-115900000D03*
%TD*%
D17*
%TO.C,R32*%
X102250000Y-168700000D03*
X103900000Y-168700000D03*
%TD*%
D25*
%TO.C,C23*%
X216838779Y-164089949D03*
X215288779Y-164089949D03*
%TD*%
D29*
%TO.C,IC1*%
X183774999Y-149574999D03*
X183275000Y-149574999D03*
X182775000Y-149574999D03*
X182275000Y-149574999D03*
X181775000Y-149574999D03*
X181274999Y-149574999D03*
X180775000Y-149574999D03*
X180275000Y-149574999D03*
X179775000Y-149574999D03*
X179275000Y-149574999D03*
X178775001Y-149574999D03*
X178275000Y-149574999D03*
X177775000Y-149574999D03*
X177275000Y-149574999D03*
X176775000Y-149574999D03*
X176275001Y-149574999D03*
D30*
X174350000Y-151500000D03*
X174350000Y-151999999D03*
X174350000Y-152499999D03*
X174350000Y-152999999D03*
X174350000Y-153499999D03*
X174350000Y-154000000D03*
X174350000Y-154499999D03*
X174350000Y-154999999D03*
X174350000Y-155499999D03*
X174350000Y-155999999D03*
X174350000Y-156499998D03*
X174350000Y-156999999D03*
X174350000Y-157499999D03*
X174350000Y-157999999D03*
X174350000Y-158499999D03*
X174350000Y-158999998D03*
D29*
X176275001Y-160924999D03*
X176775000Y-160924999D03*
X177275000Y-160924999D03*
X177775000Y-160924999D03*
X178275000Y-160924999D03*
X178775001Y-160924999D03*
X179275000Y-160924999D03*
X179775000Y-160924999D03*
X180275000Y-160924999D03*
X180775000Y-160924999D03*
X181274999Y-160924999D03*
X181775000Y-160924999D03*
X182275000Y-160924999D03*
X182775000Y-160924999D03*
X183275000Y-160924999D03*
X183774999Y-160924999D03*
D30*
X185700000Y-158999998D03*
X185700000Y-158499999D03*
X185700000Y-157999999D03*
X185700000Y-157499999D03*
X185700000Y-156999999D03*
X185700000Y-156499998D03*
X185700000Y-155999999D03*
X185700000Y-155499999D03*
X185700000Y-154999999D03*
X185700000Y-154499999D03*
X185700000Y-154000000D03*
X185700000Y-153499999D03*
X185700000Y-152999999D03*
X185700000Y-152499999D03*
X185700000Y-151999999D03*
X185700000Y-151500000D03*
%TD*%
D31*
%TO.C,J1*%
X190430000Y-167600000D03*
X190430000Y-163530000D03*
X191700000Y-167600000D03*
X191700000Y-163530000D03*
X192970000Y-167600000D03*
X192970000Y-163530000D03*
X194240000Y-167600000D03*
X194240000Y-163530000D03*
X195510000Y-167600000D03*
X195510000Y-163530000D03*
X196780000Y-167600000D03*
X196780000Y-163530000D03*
X198050000Y-167600000D03*
X198050000Y-163530000D03*
%TD*%
D20*
%TO.C,C14*%
X187550000Y-151500000D03*
X189100000Y-151500000D03*
%TD*%
D17*
%TO.C,R41*%
X55460000Y-151210000D03*
X57110000Y-151210000D03*
%TD*%
D32*
%TO.C,D6*%
X272600000Y-160200000D03*
X275870000Y-160200000D03*
%TD*%
D21*
%TO.C,U1*%
X213085000Y-101835000D03*
X213585000Y-101835000D03*
X214085000Y-101835000D03*
X214585000Y-101835000D03*
X215085000Y-101835000D03*
X215585000Y-101835000D03*
X216085000Y-101835000D03*
D22*
X216500000Y-103000000D03*
D21*
X216085000Y-104165000D03*
X215585000Y-104165000D03*
X215085000Y-104165000D03*
X214585000Y-104165000D03*
X214085000Y-104165000D03*
X213585000Y-104165000D03*
X213085000Y-104165000D03*
D22*
X212670000Y-103000000D03*
%TD*%
D33*
%TO.C,IC3*%
X231829999Y-160695000D03*
X231130001Y-160695000D03*
D34*
X230330000Y-160620000D03*
X230330000Y-161120000D03*
X230330000Y-161620000D03*
X230330000Y-162120000D03*
D33*
X231130001Y-162045000D03*
X231829999Y-162045000D03*
D34*
X232630000Y-162120000D03*
X232630000Y-161620000D03*
X232630000Y-161120000D03*
X232630000Y-160620000D03*
%TD*%
D13*
%TO.C,TP7*%
X272730000Y-120860000D03*
%TD*%
D35*
%TO.C,J6*%
X237500000Y-145725000D03*
D36*
X217500000Y-145725000D03*
D37*
X236750000Y-151000000D03*
X236500000Y-143450000D03*
X236250000Y-150999999D03*
X236000001Y-143450000D03*
X235750000Y-151000000D03*
X235500000Y-143450000D03*
X235250000Y-151000001D03*
X235000000Y-143450000D03*
X234749999Y-151000000D03*
X234500000Y-143449999D03*
X234250000Y-151000000D03*
X234000000Y-143450000D03*
X233750000Y-151000001D03*
X233500000Y-143450000D03*
X233250000Y-151000000D03*
X233000000Y-143450000D03*
X232750000Y-151000001D03*
X232500000Y-143450000D03*
X232249999Y-151000000D03*
X232000000Y-143449999D03*
X231750000Y-151000000D03*
X231500000Y-143450000D03*
X231250000Y-151000001D03*
X231000000Y-143450000D03*
X230750000Y-151000000D03*
X230500000Y-143450000D03*
X230250000Y-151000000D03*
X230000000Y-143450000D03*
X229750000Y-150999999D03*
X229500000Y-143449999D03*
X229250000Y-151000000D03*
X229000000Y-143450000D03*
X228750000Y-151000001D03*
X228500000Y-143450000D03*
X228250000Y-151000000D03*
X227999999Y-143450000D03*
X227750000Y-151000000D03*
X227500000Y-143450000D03*
X227250000Y-150999999D03*
X227000001Y-143450000D03*
X226750000Y-151000000D03*
X226500000Y-143450000D03*
X226250000Y-151000001D03*
X226000000Y-143450000D03*
X225749999Y-151000000D03*
X225500000Y-143449999D03*
X225250000Y-151000000D03*
X225000000Y-143450000D03*
X224750000Y-150999999D03*
X224500000Y-143450000D03*
X224250000Y-151000000D03*
X224000000Y-143450000D03*
X223750000Y-151000001D03*
X223500000Y-143450000D03*
X223249999Y-151000000D03*
X223000000Y-143449999D03*
X222750000Y-151000000D03*
X222500000Y-143450000D03*
D38*
X227500000Y-117475000D03*
D37*
X220250000Y-151000000D03*
X220000000Y-143450000D03*
X219750000Y-151000001D03*
X219500000Y-143450000D03*
X219250000Y-151000000D03*
X218999999Y-143450000D03*
X218750000Y-151000000D03*
X218500000Y-143450000D03*
X218250000Y-150999999D03*
D39*
X237850000Y-150225000D03*
X217150000Y-150225000D03*
%TD*%
D40*
%TO.C,LED1*%
X156550000Y-169049998D03*
X156550000Y-167450000D03*
%TD*%
D25*
%TO.C,C50*%
X231130000Y-164070000D03*
X229580000Y-164070000D03*
%TD*%
D41*
%TO.C,R25*%
X148000000Y-106149998D03*
X148000000Y-107799998D03*
%TD*%
D42*
%TO.C,C16*%
X186950000Y-161974999D03*
X186950000Y-164925001D03*
%TD*%
D41*
%TO.C,R24*%
X220100000Y-157549999D03*
X220100000Y-159199999D03*
%TD*%
D43*
%TO.C,D7*%
X97357500Y-168895000D03*
X97357500Y-169845000D03*
X97357500Y-170795000D03*
X99632500Y-170795000D03*
X99632500Y-168895000D03*
%TD*%
D17*
%TO.C,R17*%
X220063779Y-162139949D03*
X221713779Y-162139949D03*
%TD*%
D20*
%TO.C,C43*%
X213535000Y-105565000D03*
X215085000Y-105565000D03*
%TD*%
D27*
%TO.C,C54*%
X232650000Y-165850000D03*
X234550000Y-165850000D03*
%TD*%
D42*
%TO.C,C47*%
X201300000Y-139314999D03*
X201300000Y-142265001D03*
%TD*%
D44*
%TO.C,U3*%
X251800000Y-145700000D03*
X251800000Y-146350000D03*
X251800000Y-147000000D03*
X253800000Y-147000000D03*
X253800000Y-145700000D03*
%TD*%
D17*
%TO.C,R21*%
X227525000Y-107860000D03*
X229175000Y-107860000D03*
%TD*%
D13*
%TO.C,TP3*%
X272730000Y-111760000D03*
%TD*%
D45*
%TO.C,C9*%
X180390000Y-143800000D03*
X181350000Y-143800000D03*
%TD*%
D18*
%TO.C,C17*%
X184450000Y-162775000D03*
X184450000Y-164325000D03*
%TD*%
D25*
%TO.C,C24*%
X216838779Y-158689949D03*
X215288779Y-158689949D03*
%TD*%
D18*
%TO.C,C1*%
X188450000Y-139200000D03*
X188450000Y-140750000D03*
%TD*%
D26*
%TO.C,C36*%
X144560001Y-104900000D03*
X141609999Y-104900000D03*
%TD*%
D40*
%TO.C,LED9*%
X220100000Y-154300001D03*
X220100000Y-155899999D03*
%TD*%
D18*
%TO.C,C7*%
X197450000Y-139200000D03*
X197450000Y-140750000D03*
%TD*%
D11*
%TO.C,R22*%
X149550000Y-110750000D03*
X147900000Y-110750000D03*
%TD*%
D46*
%TO.C,D4*%
X201350001Y-168937500D03*
X202300000Y-168937500D03*
X203249999Y-168937500D03*
X203249999Y-166662500D03*
X201350001Y-166662500D03*
%TD*%
D47*
%TO.C,LS1*%
X201500000Y-151200000D03*
D48*
X206500000Y-151200000D03*
%TD*%
D20*
%TO.C,C46*%
X212535000Y-110400000D03*
X214085000Y-110400000D03*
%TD*%
D49*
%TO.C,Q1*%
X90830000Y-91250000D03*
X90830000Y-93150000D03*
X92950000Y-92200000D03*
%TD*%
D13*
%TO.C,TP10*%
X279830000Y-108210000D03*
%TD*%
D46*
%TO.C,D3*%
X206250001Y-168837500D03*
X207200000Y-168837500D03*
X208149999Y-168837500D03*
X208149999Y-166562500D03*
X206250001Y-166562500D03*
%TD*%
D13*
%TO.C,TP15*%
X283380000Y-108210000D03*
%TD*%
D19*
%TO.C,LED8*%
X258550000Y-147000000D03*
X260150000Y-147000000D03*
%TD*%
D17*
%TO.C,R50*%
X218885000Y-100095000D03*
X220535000Y-100095000D03*
%TD*%
D25*
%TO.C,C25*%
X221663779Y-160639949D03*
X220113779Y-160639949D03*
%TD*%
D17*
%TO.C,R11*%
X266350000Y-166223250D03*
X268000000Y-166223250D03*
%TD*%
%TO.C,R13*%
X51450000Y-160740000D03*
X53100000Y-160740000D03*
%TD*%
%TO.C,R43*%
X55460000Y-156230000D03*
X57110000Y-156230000D03*
%TD*%
D13*
%TO.C,TP12*%
X283380000Y-104660000D03*
%TD*%
D26*
%TO.C,C48*%
X231015001Y-166470000D03*
X228064999Y-166470000D03*
%TD*%
D18*
%TO.C,C19*%
X161370000Y-164200000D03*
X161370000Y-165750000D03*
%TD*%
D50*
%TO.C,IC2*%
X159040000Y-161627500D03*
X159040000Y-160977500D03*
X159040000Y-160327500D03*
X159040000Y-159677500D03*
X156140000Y-159677500D03*
X156140000Y-160327500D03*
X156140000Y-160977500D03*
X156140000Y-161627500D03*
D51*
X157590000Y-160652500D03*
%TD*%
D17*
%TO.C,R53*%
X218885000Y-105115000D03*
X220535000Y-105115000D03*
%TD*%
D13*
%TO.C,TP4*%
X276280000Y-104660000D03*
%TD*%
D17*
%TO.C,R37*%
X55460000Y-146190000D03*
X57110000Y-146190000D03*
%TD*%
D18*
%TO.C,C3*%
X191450000Y-139200000D03*
X191450000Y-140750000D03*
%TD*%
D19*
%TO.C,LED6*%
X260049999Y-136140000D03*
X258450001Y-136140000D03*
%TD*%
D13*
%TO.C,TP16*%
X283380000Y-111760000D03*
%TD*%
D52*
%TO.C,C10*%
X171490000Y-157230000D03*
X170530000Y-157230000D03*
%TD*%
D53*
%TO.C,R40*%
X192949999Y-155410002D03*
X192949999Y-156430000D03*
%TD*%
D54*
%TO.C,Y1*%
X180400000Y-146400000D03*
X184600000Y-146400000D03*
%TD*%
D17*
%TO.C,R20*%
X227525000Y-105350000D03*
X229175000Y-105350000D03*
%TD*%
%TO.C,R19*%
X227525000Y-102840000D03*
X229175000Y-102840000D03*
%TD*%
D55*
%TO.C,J2*%
X78330000Y-119995000D03*
X80870000Y-119995000D03*
%TD*%
D17*
%TO.C,R12*%
X263975000Y-174720000D03*
X265625000Y-174720000D03*
%TD*%
D20*
%TO.C,C26*%
X218313779Y-164089949D03*
X219863779Y-164089949D03*
%TD*%
D18*
%TO.C,C6*%
X195950000Y-139200000D03*
X195950000Y-140750000D03*
%TD*%
D26*
%TO.C,C49*%
X231015001Y-156270000D03*
X228064999Y-156270000D03*
%TD*%
D11*
%TO.C,R8*%
X256839999Y-136140000D03*
X255189999Y-136140000D03*
%TD*%
D17*
%TO.C,R2*%
X79350000Y-166680000D03*
X81000000Y-166680000D03*
%TD*%
D13*
%TO.C,TP11*%
X279830000Y-111760000D03*
%TD*%
D17*
%TO.C,R52*%
X218950000Y-114350000D03*
X220600000Y-114350000D03*
%TD*%
D13*
%TO.C,TP9*%
X279830000Y-104660000D03*
%TD*%
D18*
%TO.C,C42*%
X198950000Y-139200000D03*
X198950000Y-140750000D03*
%TD*%
D12*
%TO.C,R16*%
X156550000Y-165800000D03*
X156550000Y-164150000D03*
%TD*%
D20*
%TO.C,C44*%
X212535000Y-100215000D03*
X214085000Y-100215000D03*
%TD*%
D41*
%TO.C,R39*%
X192750000Y-148874998D03*
X192750000Y-150524998D03*
%TD*%
D25*
%TO.C,C41*%
X149500000Y-109250000D03*
X147950000Y-109250000D03*
%TD*%
D56*
%TO.C,J5*%
X75145000Y-91840000D03*
D57*
X80145000Y-91840000D03*
X85145000Y-91840000D03*
%TD*%
D58*
%TO.C,J4*%
X175140000Y-168100000D03*
D59*
X177680000Y-168100000D03*
X180219999Y-168100000D03*
X182760000Y-168100000D03*
X185300000Y-168100000D03*
%TD*%
D60*
%TO.C,C15*%
X182780000Y-162990000D03*
X182780000Y-163950000D03*
%TD*%
D33*
%TO.C,IC5*%
X145374999Y-109325000D03*
X144675001Y-109325000D03*
D34*
X143875000Y-109250000D03*
X143875000Y-109750000D03*
X143875000Y-110250000D03*
X143875000Y-110750000D03*
D33*
X144675001Y-110675000D03*
X145374999Y-110675000D03*
D34*
X146175000Y-110750000D03*
X146175000Y-110250000D03*
X146175000Y-109750000D03*
X146175000Y-109250000D03*
%TD*%
D17*
%TO.C,R1*%
X79350000Y-164170000D03*
X81000000Y-164170000D03*
%TD*%
%TO.C,R49*%
X218950000Y-111840000D03*
X220600000Y-111840000D03*
%TD*%
D52*
%TO.C,C8*%
X184610000Y-143800000D03*
X183650000Y-143800000D03*
%TD*%
D33*
%TO.C,IC6*%
X217538778Y-160714949D03*
X216838780Y-160714949D03*
D34*
X216038779Y-160639949D03*
X216038779Y-161139949D03*
X216038779Y-161639949D03*
X216038779Y-162139949D03*
D33*
X216838780Y-162064949D03*
X217538778Y-162064949D03*
D34*
X218338779Y-162139949D03*
X218338779Y-161639949D03*
X218338779Y-161139949D03*
X218338779Y-160639949D03*
%TD*%
D17*
%TO.C,R51*%
X218885000Y-102605000D03*
X220535000Y-102605000D03*
%TD*%
D13*
%TO.C,TP1*%
X272730000Y-104660000D03*
%TD*%
D41*
%TO.C,R18*%
X158600000Y-164150000D03*
X158600000Y-165800000D03*
%TD*%
D17*
%TO.C,R3*%
X101000000Y-106910000D03*
X102650000Y-106910000D03*
%TD*%
D61*
%TO.C,D9*%
X195199999Y-150500000D03*
X195199999Y-147099998D03*
%TD*%
D25*
%TO.C,C11*%
X172500000Y-152550000D03*
X170950000Y-152550000D03*
%TD*%
D17*
%TO.C,R42*%
X55460000Y-153720000D03*
X57110000Y-153720000D03*
%TD*%
D40*
%TO.C,LED2*%
X158600000Y-169049999D03*
X158600000Y-167450001D03*
%TD*%
D62*
%TO.C,Module1*%
X159300001Y-134950000D03*
X207300000Y-134950000D03*
X159300000Y-101950000D03*
X207300000Y-101950000D03*
D63*
X176000000Y-136950000D03*
X176000000Y-133870000D03*
X176400000Y-136950000D03*
X176400000Y-133870000D03*
X176800000Y-136950000D03*
X176800000Y-133870000D03*
X177199999Y-136950000D03*
X177200000Y-133870000D03*
X177600000Y-136950000D03*
X177600000Y-133870000D03*
X178000000Y-136950000D03*
X178000000Y-133870000D03*
X178400000Y-136950001D03*
X178400000Y-133870000D03*
X178800000Y-136950000D03*
X178800000Y-133870000D03*
X179200000Y-136950000D03*
X179200000Y-133870000D03*
X179600000Y-136950000D03*
X179600000Y-133870000D03*
X179999999Y-136950000D03*
X180000000Y-133870000D03*
X180400000Y-136950000D03*
X180400000Y-133870000D03*
X180800000Y-136950000D03*
X180800000Y-133870000D03*
X181200000Y-136950001D03*
X181200000Y-133870000D03*
X181600000Y-136950000D03*
X181600000Y-133870000D03*
X182000000Y-136950000D03*
X182000000Y-133870000D03*
X182400000Y-136950000D03*
X182400000Y-133870000D03*
X182799999Y-136950000D03*
X182800000Y-133870000D03*
X183200000Y-136950000D03*
X183200000Y-133870000D03*
X183600000Y-136950000D03*
X183600000Y-133870000D03*
X184000000Y-136950001D03*
X184000000Y-133870000D03*
X184400000Y-136950000D03*
X184400000Y-133870000D03*
X184800000Y-136950000D03*
X184800000Y-133870000D03*
X185200001Y-136950000D03*
X185200000Y-133870000D03*
X185600000Y-136950000D03*
X185600000Y-133870000D03*
X186000000Y-136950000D03*
X186000000Y-133870000D03*
X186400000Y-136950000D03*
X186400000Y-133870000D03*
X186800000Y-136950001D03*
X186800000Y-133870000D03*
X187200000Y-136950000D03*
X187200000Y-133870000D03*
X187600000Y-136950000D03*
X187600000Y-133870000D03*
X188000001Y-136950000D03*
X188000000Y-133870000D03*
X188400000Y-136950000D03*
X188400000Y-133870000D03*
X188800000Y-136950000D03*
X188800000Y-133870000D03*
X189200000Y-136950000D03*
X189200000Y-133870000D03*
X189600000Y-136950001D03*
X189600000Y-133870000D03*
X190000000Y-136950000D03*
X190000000Y-133870000D03*
X190400000Y-136950000D03*
X190400000Y-133870000D03*
X190800001Y-136950000D03*
X190800000Y-133870000D03*
X191200000Y-136950000D03*
X191200000Y-133870000D03*
X191600000Y-136950000D03*
X191600000Y-133870000D03*
X192000000Y-136950000D03*
X192000000Y-133870000D03*
X192400000Y-136950001D03*
X192400000Y-133870000D03*
X192800000Y-136950000D03*
X192800000Y-133870000D03*
X193200000Y-136950000D03*
X193200000Y-133870000D03*
X193600001Y-136950000D03*
X193600000Y-133870000D03*
X194000000Y-136950000D03*
X194000000Y-133870000D03*
X194400000Y-136950000D03*
X194400000Y-133870000D03*
X194800000Y-136950000D03*
X194800000Y-133870000D03*
X195200000Y-136950001D03*
X195200000Y-133870000D03*
X195600000Y-136950000D03*
X195600000Y-133870000D03*
X176000000Y-103030000D03*
X176000000Y-99950000D03*
X176400000Y-103030000D03*
X176400000Y-99950000D03*
X176800000Y-103030000D03*
X176800000Y-99950000D03*
X177199999Y-103030000D03*
X177200000Y-99950000D03*
X177600000Y-103030000D03*
X177600000Y-99950000D03*
X178000000Y-103030000D03*
X178000000Y-99950000D03*
X178400000Y-103030001D03*
X178400000Y-99950000D03*
X178800000Y-103030000D03*
X178800000Y-99950000D03*
X179200000Y-103030000D03*
X179200000Y-99950000D03*
X179600000Y-103030000D03*
X179600000Y-99950000D03*
X179999999Y-103030000D03*
X180000000Y-99950000D03*
X180400000Y-103030000D03*
X180400000Y-99950000D03*
X180800000Y-103030000D03*
X180800000Y-99950000D03*
X181200000Y-103030001D03*
X181200000Y-99950000D03*
X181600000Y-103030000D03*
X181600000Y-99950000D03*
X182000000Y-103030000D03*
X182000000Y-99950000D03*
X182400000Y-103030000D03*
X182400000Y-99950000D03*
X182799999Y-103030000D03*
X182800000Y-99950000D03*
X183200000Y-103030000D03*
X183200000Y-99950000D03*
X183600000Y-103030000D03*
X183600000Y-99950000D03*
X184000000Y-103030001D03*
X184000000Y-99950000D03*
X184400000Y-103030000D03*
X184400000Y-99950000D03*
X184800000Y-103030000D03*
X184800000Y-99950000D03*
X185200001Y-103030000D03*
X185200000Y-99950000D03*
X185600000Y-103030000D03*
X185600000Y-99950000D03*
X186000000Y-103030000D03*
X186000000Y-99950000D03*
X186400000Y-103030000D03*
X186400000Y-99950000D03*
X186800000Y-103030001D03*
X186800000Y-99950000D03*
X187200000Y-103030000D03*
X187200000Y-99950000D03*
X187600000Y-103030000D03*
X187600000Y-99950000D03*
X188000001Y-103030000D03*
X188000000Y-99950000D03*
X188400000Y-103030000D03*
X188400000Y-99950000D03*
X188800000Y-103030000D03*
X188800000Y-99950000D03*
X189200000Y-103030000D03*
X189200000Y-99950000D03*
X189600000Y-103030001D03*
X189600000Y-99950000D03*
X190000000Y-103030000D03*
X190000000Y-99950000D03*
X190400000Y-103030000D03*
X190400000Y-99950000D03*
X190800001Y-103030000D03*
X190800000Y-99950000D03*
X191200000Y-103030000D03*
X191200000Y-99950000D03*
X191600000Y-103030000D03*
X191600000Y-99950000D03*
X192000000Y-103030000D03*
X192000000Y-99950000D03*
X192400000Y-103030001D03*
X192400000Y-99950000D03*
X192800000Y-103030000D03*
X192800000Y-99950000D03*
X193200000Y-103030000D03*
X193200000Y-99950000D03*
X193600001Y-103030000D03*
X193600000Y-99950000D03*
X194000000Y-103030000D03*
X194000000Y-99950000D03*
X194400000Y-103030000D03*
X194400000Y-99950000D03*
X194800000Y-103030000D03*
X194800000Y-99950000D03*
X195199999Y-103030000D03*
X195200000Y-99950000D03*
X195600000Y-103030000D03*
X195600000Y-99950000D03*
%TD*%
D40*
%TO.C,LED10*%
X148000000Y-102900000D03*
X148000000Y-104499998D03*
%TD*%
D18*
%TO.C,C5*%
X194450000Y-139200000D03*
X194450000Y-140750000D03*
%TD*%
D17*
%TO.C,R14*%
X232555000Y-167590000D03*
X234205000Y-167590000D03*
%TD*%
%TO.C,R47*%
X59470000Y-153720000D03*
X61120000Y-153720000D03*
%TD*%
D20*
%TO.C,C13*%
X184900000Y-149250000D03*
X186450000Y-149250000D03*
%TD*%
D19*
%TO.C,LED5*%
X260099999Y-138640000D03*
X258500001Y-138640000D03*
%TD*%
D17*
%TO.C,R36*%
X51450000Y-156230000D03*
X53100000Y-156230000D03*
%TD*%
D25*
%TO.C,C18*%
X172350000Y-158800000D03*
X170800000Y-158800000D03*
%TD*%
D49*
%TO.C,Q2*%
X65860000Y-112420000D03*
X65860000Y-114320000D03*
X67980000Y-113370000D03*
%TD*%
D26*
%TO.C,C22*%
X216723780Y-156289949D03*
X213773778Y-156289949D03*
%TD*%
%TO.C,C35*%
X144560001Y-115100000D03*
X141609999Y-115100000D03*
%TD*%
D25*
%TO.C,C51*%
X231130000Y-158670000D03*
X229580000Y-158670000D03*
%TD*%
D20*
%TO.C,C40*%
X146150000Y-112700000D03*
X147700000Y-112700000D03*
%TD*%
D64*
%TO.C,J7*%
X151280000Y-121540000D03*
X151280000Y-162010000D03*
D65*
X148740000Y-158170000D03*
D66*
X150009999Y-156900000D03*
X148740000Y-155630000D03*
X150010000Y-154360000D03*
X148740000Y-153090000D03*
X150010000Y-151820000D03*
X148740000Y-150550000D03*
X150010000Y-149280000D03*
X151280000Y-158170000D03*
X152550001Y-156900000D03*
X151280000Y-155629999D03*
X152550000Y-154360000D03*
X151280000Y-153090000D03*
X152550000Y-151820000D03*
X151280000Y-150550000D03*
X152550000Y-149280000D03*
D67*
X150050000Y-146000000D03*
X150050000Y-143500000D03*
X150050000Y-141000000D03*
X150050000Y-138500000D03*
X150050000Y-136000000D03*
X152550000Y-146000000D03*
X152550000Y-143500000D03*
X152550000Y-141000000D03*
X152550000Y-138500000D03*
X152550000Y-136000000D03*
X150050000Y-134000000D03*
X150050000Y-131500000D03*
X150050000Y-129000000D03*
X150050000Y-126500000D03*
X150050000Y-124000000D03*
X152550000Y-134000000D03*
X152550000Y-131500000D03*
X152550000Y-128999999D03*
X152550001Y-126500000D03*
X152550001Y-124000000D03*
%TD*%
D27*
%TO.C,C27*%
X218358779Y-165869949D03*
X220258779Y-165869949D03*
%TD*%
M02*
