M48
; DRILL file {KiCad 9.0.1+1} date 2025-11-25T15:39:20+0000
; FORMAT={-:-/ absolute / metric / decimal}
; #@! TF.CreationDate,2025-11-25T15:39:20+00:00
; #@! TF.GenerationSoftware,Kicad,Pcbnew,9.0.1+1
; #@! TF.FileFunction,MixedPlating,1,4
FMAT,2
METRIC
; #@! TA.AperFunction,Plated,PTH,ViaDrill
T1C0.300
; #@! TA.AperFunction,Plated,PTH,ComponentDrill
T2C0.600
; #@! TA.AperFunction,Plated,PTH,ComponentDrill
T3C0.760
; #@! TA.AperFunction,Plated,PTH,ComponentDrill
T4C0.800
; #@! TA.AperFunction,Plated,PTH,ComponentDrill
T5C1.000
; #@! TA.AperFunction,Plated,PTH,ComponentDrill
T6C1.020
; #@! TA.AperFunction,Plated,PTH,ComponentDrill
T7C1.100
; #@! TA.AperFunction,Plated,PTH,ComponentDrill
T8C1.300
; #@! TA.AperFunction,Plated,PTH,ComponentDrill
T9C3.000
; #@! TA.AperFunction,NonPlated,NPTH,ComponentDrill
T10C0.600
; #@! TA.AperFunction,NonPlated,NPTH,ComponentDrill
T11C1.100
; #@! TA.AperFunction,NonPlated,NPTH,ComponentDrill
T12C1.600
; #@! TA.AperFunction,NonPlated,NPTH,ComponentDrill
T13C2.700
; #@! TA.AperFunction,NonPlated,NPTH,ComponentDrill
T14C3.180
%
G90
G05
T1
X145.46Y-164.48
X146.2Y-160.48
X146.846Y-161.06
X148.74Y-165.3
X151.49Y-164.44
X152.96Y-159.04
X154.41Y-158.92
X155.18Y-163.23
X155.45Y-148.93
X155.45Y-151.29
X155.45Y-153.74
X156.47Y-156.75
X158.59Y-163.23
X158.734Y-156.803
X159.613Y-156.219
X160.19Y-160.35
X161.19Y-148.23
X161.8Y-147.58
X166.8Y-144.92
X166.88Y-161.65
X166.9Y-165.99
X167.5Y-159.69
X167.51Y-165.3
X168.34Y-144.335
X168.36Y-148.24
X169.23Y-142.75
X169.23Y-143.6
X169.57Y-146.96
X171.45Y-145.045
X172.38Y-144.265
X172.6Y-164.58
X173.56Y-163.1
X173.57Y-145.96
X173.58Y-169.69
X173.895Y-142.75
X173.895Y-143.6
X174.229Y-164.81
X174.257Y-165.59
X174.92Y-150.79
X175.22Y-138.23
X175.49Y-158.98
X175.6Y-154.48
X175.62Y-150.22
X175.65Y-152.5
X175.854Y-148.22
X176.39Y-162.193
X176.44Y-166.67
X176.59Y-154.48
X176.64Y-152.5
X177.33Y-150.84
X177.495Y-101.8
X177.495Y-116.81
X177.59Y-154.48
X177.64Y-152.5
X177.79Y-135.75
X177.905Y-148.21
X178.19Y-164.82
X178.345Y-101.8
X178.345Y-116.81
X178.38Y-150.82
X178.61Y-165.48
X178.67Y-154.48
X178.72Y-152.5
X178.83Y-113.89
X178.859Y-130.819
X178.867Y-135.586
X179.195Y-98.15
X179.195Y-116.88
X179.21Y-166.411
X179.24Y-163.11
X179.25Y-153.5
X179.27Y-148.31
X179.44Y-131.34
X179.447Y-136.123
X179.61Y-150.87
X179.82Y-154.48
X179.87Y-152.5
X180.0Y-137.84
X180.03Y-132.22
X180.03Y-158.11
X180.045Y-98.15
X180.045Y-116.88
X180.15Y-163.56
X180.57Y-106.94
X180.59Y-111.68
X180.63Y-134.82
X180.709Y-101.991
X180.745Y-164.19
X180.78Y-148.32
X181.025Y-116.9
X181.311Y-101.389
X181.36Y-154.48
X181.41Y-152.5
X181.61Y-165.48
X181.77Y-159.6
X181.875Y-116.9
X182.03Y-135.75
X182.03Y-138.93
X182.32Y-150.84
X182.53Y-143.8
X182.64Y-154.48
X182.69Y-152.5
X183.299Y-159.53
X183.86Y-154.48
X183.91Y-152.5
X184.06Y-159.7
X184.21Y-151.52
X184.22Y-135.48
X184.51Y-150.22
X185.18Y-150.81
X185.255Y-160.28
X188.45Y-141.75
X189.05Y-135.75
X189.05Y-157.34
X189.95Y-141.75
X190.04Y-138.2
X190.8Y-144.27
X191.19Y-133.04
X191.43Y-138.2
X191.45Y-141.75
X191.76Y-159.15
X191.79Y-156.02
X192.76Y-147.24
X192.93Y-138.2
X192.95Y-141.75
X192.97Y-160.65
X194.2Y-135.75
X194.43Y-138.2
X194.45Y-141.75
X195.32Y-145.86
X195.59Y-135.86
X195.95Y-141.75
X195.98Y-138.2
X196.37Y-147.11
X196.38Y-153.79
X197.45Y-141.75
X198.05Y-169.69
X198.25Y-137.61
X198.27Y-146.926
X198.95Y-141.75
X199.08Y-169.69
X200.4Y-143.3
X201.3Y-143.3
X202.2Y-143.3
X202.26Y-165.46
X203.27Y-169.93
X203.35Y-139.31
X204.18Y-166.65
X204.39Y-139.31
X215.02Y-169.56
X215.03Y-144.27
X221.14Y-118.51
X221.889Y-122.471
X222.07Y-136.73
X222.34Y-145.13
X222.491Y-121.869
X223.25Y-152.24
X223.7Y-119.8
X223.75Y-149.52
X224.42Y-119.26
X224.75Y-152.24
X224.861Y-121.87
X225.25Y-149.52
X225.57Y-121.43
X226.25Y-152.24
X226.75Y-149.52
X239.91Y-144.68
X240.79Y-164.7
X246.075Y-124.425
X246.719Y-123.791
X246.729Y-156.85
X247.3Y-160.68
X247.321Y-123.189
X247.89Y-159.5
X248.21Y-162.83
X250.05Y-165.68
X250.83Y-147.43
X251.8Y-156.85
X251.96Y-160.09
X252.47Y-161.58
X252.48Y-163.54
X252.97Y-156.79
X253.1Y-158.929
X253.1Y-162.85
X253.67Y-167.36
X253.9Y-151.19
X254.02Y-154.1
X254.03Y-157.93
X254.03Y-162.72
X254.59Y-163.94
X255.0Y-145.7
X255.19Y-131.471
X255.19Y-141.74
X258.68Y-160.34
X260.07Y-140.66
X260.1Y-130.52
X260.61Y-153.11
T3
X148.74Y-150.55
X148.74Y-153.09
X148.74Y-155.63
X148.74Y-158.17
X150.01Y-149.28
X150.01Y-151.82
X150.01Y-154.36
X150.01Y-156.9
X151.28Y-150.55
X151.28Y-153.09
X151.28Y-155.63
X151.28Y-158.17
X152.55Y-149.28
X152.55Y-151.82
X152.55Y-154.36
X152.55Y-156.9
T4
X201.5Y-151.2
X206.5Y-151.2
T5
X175.14Y-168.1
X177.68Y-168.1
X180.22Y-168.1
X182.76Y-168.1
X185.3Y-168.1
T6
X150.05Y-124.0
X150.05Y-126.5
X150.05Y-129.0
X150.05Y-131.5
X150.05Y-134.0
X150.05Y-136.0
X150.05Y-138.5
X150.05Y-141.0
X150.05Y-143.5
X150.05Y-146.0
X152.55Y-124.0
X152.55Y-126.5
X152.55Y-129.0
X152.55Y-131.5
X152.55Y-134.0
X152.55Y-136.0
X152.55Y-138.5
X152.55Y-141.0
X152.55Y-143.5
X152.55Y-146.0
T7
X78.33Y-119.995
X80.87Y-119.995
X164.05Y-163.8
X164.05Y-168.3
X170.55Y-163.8
X170.55Y-168.3
T8
X75.145Y-91.84
X80.145Y-91.84
X85.145Y-91.84
T9
X227.5Y-117.475
T10
X257.0Y-157.435
X257.0Y-163.215
T11
X237.5Y-145.725
T12
X217.5Y-145.725
T13
X159.3Y-101.95
X159.3Y-134.95
X207.3Y-101.95
X207.3Y-134.95
T14
X151.28Y-121.54
X151.28Y-162.01
T2
G00X255.97Y-156.0
M15
G01X257.07Y-156.0
M16
G05
G00X255.97Y-164.65
M15
G01X257.07Y-164.65
M16
G05
G00X260.3Y-156.0
M15
G01X261.1Y-156.0
M16
G05
G00X260.3Y-164.65
M15
G01X261.1Y-164.65
M16
G05
M30
