%TF.GenerationSoftware,KiCad,Pcbnew,9.0.1+1*%
%TF.CreationDate,2025-11-18T13:49:13+00:00*%
%TF.ProjectId,nautilus_mainboard,6e617574-696c-4757-935f-6d61696e626f,rev?*%
%TF.SameCoordinates,Original*%
%TF.FileFunction,Paste,Bot*%
%TF.FilePolarity,Positive*%
%FSLAX46Y46*%
G04 Gerber Fmt 4.6, Leading zero omitted, Abs format (unit mm)*
G04 Created by KiCad (PCBNEW 9.0.1+1) date 2025-11-18 13:49:13*
%MOMM*%
%LPD*%
G01*
G04 APERTURE LIST*
%ADD10R,1.550000X0.300000*%
%ADD11R,2.750000X1.200000*%
G04 APERTURE END LIST*
D10*
%TO.C,J6*%
X126140000Y-185010000D03*
X118590000Y-184760000D03*
X126140000Y-184510000D03*
X118590000Y-184260001D03*
X126140000Y-184010000D03*
X118590000Y-183760000D03*
X126140001Y-183510000D03*
X118590000Y-183260000D03*
X126140000Y-183010000D03*
X118589999Y-182760000D03*
X126140000Y-182510000D03*
X118590000Y-182260000D03*
X126140001Y-182010000D03*
X118590000Y-181760000D03*
X126140000Y-181510000D03*
X118590000Y-181260000D03*
X126140001Y-181010000D03*
X118590000Y-180760000D03*
X126140000Y-180510000D03*
X118589999Y-180260000D03*
X126140000Y-180010000D03*
X118590000Y-179760000D03*
X126140001Y-179510000D03*
X118590000Y-179260000D03*
X126140000Y-179010000D03*
X118590000Y-178760000D03*
X126140000Y-178510000D03*
X118590000Y-178260000D03*
X126140000Y-178010000D03*
X118589999Y-177760000D03*
X126140000Y-177510000D03*
X118590000Y-177260000D03*
X126140001Y-177010000D03*
X118590000Y-176760000D03*
X126140000Y-176510000D03*
X118590000Y-176259999D03*
X126140000Y-176010000D03*
X118590000Y-175760000D03*
X126140000Y-175510000D03*
X118590000Y-175260001D03*
X126140000Y-175010000D03*
X118590000Y-174760000D03*
X126140001Y-174510000D03*
X118590000Y-174260000D03*
X126140000Y-174010000D03*
X118589999Y-173760000D03*
X126140000Y-173510000D03*
X118590000Y-173260000D03*
X126140000Y-173010000D03*
X118590000Y-172760000D03*
X126140000Y-172510000D03*
X118590000Y-172260000D03*
X126140001Y-172010000D03*
X118590000Y-171760000D03*
X126140000Y-171510000D03*
X118589999Y-171260000D03*
X126140000Y-171010000D03*
X118590000Y-170760000D03*
X126140000Y-168510000D03*
X118590000Y-168260000D03*
X126140001Y-168010000D03*
X118590000Y-167760000D03*
X126140000Y-167510000D03*
X118590000Y-167259999D03*
X126140000Y-167010000D03*
X118590000Y-166760000D03*
X126140000Y-166510000D03*
D11*
X125365000Y-186110000D03*
X125365000Y-165410000D03*
%TD*%
M02*
