M48
; DRILL file {KiCad 9.0.1+1} date 2025-11-19T23:20:09+0000
; FORMAT={-:-/ absolute / metric / decimal}
; #@! TF.CreationDate,2025-11-19T23:20:09+00:00
; #@! TF.GenerationSoftware,Kicad,Pcbnew,9.0.1+1
; #@! TF.FileFunction,MixedPlating,1,4
FMAT,2
METRIC
; #@! TA.AperFunction,Plated,PTH,ViaDrill
T1C0.300
; #@! TA.AperFunction,Plated,PTH,ComponentDrill
T2C0.600
; #@! TA.AperFunction,Plated,PTH,ComponentDrill
T3C0.760
; #@! TA.AperFunction,Plated,PTH,ComponentDrill
T4C0.800
; #@! TA.AperFunction,Plated,PTH,ComponentDrill
T5C1.000
; #@! TA.AperFunction,Plated,PTH,ComponentDrill
T6C1.020
; #@! TA.AperFunction,Plated,PTH,ComponentDrill
T7C1.100
; #@! TA.AperFunction,Plated,PTH,ComponentDrill
T8C1.200
; #@! TA.AperFunction,Plated,PTH,ComponentDrill
T9C1.300
; #@! TA.AperFunction,NonPlated,NPTH,ComponentDrill
T10C0.600
; #@! TA.AperFunction,NonPlated,NPTH,ComponentDrill
T11C2.700
; #@! TA.AperFunction,NonPlated,NPTH,ComponentDrill
T12C3.180
%
G90
G05
T1
X188.45Y-141.75
X189.95Y-141.75
X191.45Y-141.75
X192.95Y-141.75
X194.45Y-141.75
X195.95Y-141.75
X197.45Y-141.75
X198.95Y-141.75
X200.4Y-143.3
X201.3Y-143.3
X202.2Y-143.3
T3
X148.74Y-150.55
X148.74Y-153.09
X148.74Y-155.63
X148.74Y-158.17
X150.01Y-149.28
X150.01Y-151.82
X150.01Y-154.36
X150.01Y-156.9
X151.28Y-150.55
X151.28Y-153.09
X151.28Y-155.63
X151.28Y-158.17
X152.55Y-149.28
X152.55Y-151.82
X152.55Y-154.36
X152.55Y-156.9
T4
X201.5Y-151.2
X206.5Y-151.2
T5
X175.14Y-168.1
X177.68Y-168.1
X180.22Y-168.1
X182.76Y-168.1
X185.3Y-168.1
T6
X150.05Y-124.0
X150.05Y-126.5
X150.05Y-129.0
X150.05Y-131.5
X150.05Y-134.0
X150.05Y-136.0
X150.05Y-138.5
X150.05Y-141.0
X150.05Y-143.5
X150.05Y-146.0
X152.55Y-124.0
X152.55Y-126.5
X152.55Y-129.0
X152.55Y-131.5
X152.55Y-134.0
X152.55Y-136.0
X152.55Y-138.5
X152.55Y-141.0
X152.55Y-143.5
X152.55Y-146.0
T7
X78.33Y-119.995
X80.87Y-119.995
X164.05Y-163.8
X164.05Y-168.3
X170.55Y-163.8
X170.55Y-168.3
T8
X73.895Y-165.19
X73.895Y-169.74
X79.995Y-147.94
X79.995Y-152.49
T9
X75.145Y-91.84
X80.145Y-91.84
X85.145Y-91.84
T10
X257.0Y-157.435
X257.0Y-163.215
T11
X159.3Y-101.95
X159.3Y-134.95
X207.3Y-101.95
X207.3Y-134.95
T12
X151.28Y-121.54
X151.28Y-162.01
T2
G00X255.97Y-156.0
M15
G01X257.07Y-156.0
M16
G05
G00X255.97Y-164.65
M15
G01X257.07Y-164.65
M16
G05
G00X260.3Y-156.0
M15
G01X261.1Y-156.0
M16
G05
G00X260.3Y-164.65
M15
G01X261.1Y-164.65
M16
G05
M30
