%TF.GenerationSoftware,KiCad,Pcbnew,9.0.1+1*%
%TF.CreationDate,2025-11-20T22:26:18+00:00*%
%TF.ProjectId,nautilus_mainboard,6e617574-696c-4757-935f-6d61696e626f,rev?*%
%TF.SameCoordinates,Original*%
%TF.FileFunction,Soldermask,Bot*%
%TF.FilePolarity,Negative*%
%FSLAX46Y46*%
G04 Gerber Fmt 4.6, Leading zero omitted, Abs format (unit mm)*
G04 Created by KiCad (PCBNEW 9.0.1+1) date 2025-11-20 22:26:18*
%MOMM*%
%LPD*%
G01*
G04 APERTURE LIST*
G04 Aperture macros list*
%AMRoundRect*
0 Rectangle with rounded corners*
0 $1 Rounding radius*
0 $2 $3 $4 $5 $6 $7 $8 $9 X,Y pos of 4 corners*
0 Add a 4 corners polygon primitive as box body*
4,1,4,$2,$3,$4,$5,$6,$7,$8,$9,$2,$3,0*
0 Add four circle primitives for the rounded corners*
1,1,$1+$1,$2,$3*
1,1,$1+$1,$4,$5*
1,1,$1+$1,$6,$7*
1,1,$1+$1,$8,$9*
0 Add four rect primitives between the rounded corners*
20,1,$1+$1,$2,$3,$4,$5,0*
20,1,$1+$1,$4,$5,$6,$7,0*
20,1,$1+$1,$6,$7,$8,$9,0*
20,1,$1+$1,$8,$9,$2,$3,0*%
G04 Aperture macros list end*
%ADD10C,0.600000*%
%ADD11O,1.904000X1.104000*%
%ADD12O,2.204000X1.104000*%
%ADD13C,2.500000*%
%ADD14C,2.000000*%
%ADD15R,2.500000X2.500000*%
%ADD16C,3.180000*%
%ADD17RoundRect,0.102000X-0.634000X0.634000X-0.634000X-0.634000X0.634000X-0.634000X0.634000X0.634000X0*%
%ADD18C,1.472000*%
%ADD19C,1.734000*%
%ADD20C,1.854000*%
%ADD21RoundRect,0.250000X-1.050000X-1.050000X1.050000X-1.050000X1.050000X1.050000X-1.050000X1.050000X0*%
%ADD22C,2.600000*%
%ADD23R,1.700000X1.700000*%
%ADD24C,1.700000*%
%ADD25C,6.100000*%
G04 APERTURE END LIST*
D10*
%TO.C,J3*%
X257000000Y-163215000D03*
X257000000Y-157435000D03*
D11*
X260700000Y-164650000D03*
X260700000Y-156000000D03*
D12*
X256520000Y-164650000D03*
X256520000Y-156000000D03*
%TD*%
D13*
%TO.C,TP7*%
X73895000Y-169740000D03*
%TD*%
%TO.C,TP2*%
X79995000Y-147940000D03*
%TD*%
D14*
%TO.C,SW1*%
X164050000Y-163800000D03*
X170550000Y-163800000D03*
X164050000Y-168300000D03*
X170550000Y-168300000D03*
%TD*%
D15*
%TO.C,LS1*%
X201500000Y-151200000D03*
D13*
X206500000Y-151200000D03*
%TD*%
D16*
%TO.C,J7*%
X151280000Y-121540000D03*
X151280000Y-162010000D03*
D17*
X148740000Y-158170000D03*
D18*
X150010000Y-156900000D03*
X148740000Y-155630000D03*
X150010000Y-154360000D03*
X148740000Y-153090000D03*
X150010000Y-151820000D03*
X148740000Y-150550000D03*
X150010000Y-149280000D03*
X151280000Y-158170000D03*
X152550000Y-156900000D03*
X151280000Y-155630000D03*
X152550000Y-154360000D03*
X151280000Y-153090000D03*
X152550000Y-151820000D03*
X151280000Y-150550000D03*
X152550000Y-149280000D03*
D19*
X150050000Y-146000000D03*
X150050000Y-143500000D03*
X150050000Y-141000000D03*
X150050000Y-138500000D03*
X150050000Y-136000000D03*
X152550000Y-146000000D03*
X152550000Y-143500000D03*
X152550000Y-141000000D03*
X152550000Y-138500000D03*
X152550000Y-136000000D03*
X150050000Y-134000000D03*
X150050000Y-131500000D03*
X150050000Y-129000000D03*
X150050000Y-126500000D03*
X150050000Y-124000000D03*
X152550000Y-134000000D03*
X152550000Y-131500000D03*
X152550000Y-129000000D03*
X152550000Y-126500000D03*
X152550000Y-124000000D03*
%TD*%
D20*
%TO.C,J2*%
X78330000Y-119995000D03*
X80870000Y-119995000D03*
%TD*%
D21*
%TO.C,J5*%
X75145000Y-91840000D03*
D22*
X80145000Y-91840000D03*
X85145000Y-91840000D03*
%TD*%
D23*
%TO.C,J4*%
X175140000Y-168100000D03*
D24*
X177680000Y-168100000D03*
X180219999Y-168100000D03*
X182760000Y-168100000D03*
X185300000Y-168100000D03*
%TD*%
D13*
%TO.C,TP6*%
X73895000Y-165190000D03*
%TD*%
D25*
%TO.C,Module1*%
X159300001Y-134950000D03*
X207300000Y-134950000D03*
X159300000Y-101950000D03*
X207300000Y-101950000D03*
%TD*%
D13*
%TO.C,TP3*%
X79995000Y-152490000D03*
%TD*%
M02*
