%TF.GenerationSoftware,KiCad,Pcbnew,9.0.1+1*%
%TF.CreationDate,2025-11-25T15:18:51+00:00*%
%TF.ProjectId,nautilus_mainboard,6e617574-696c-4757-935f-6d61696e626f,rev?*%
%TF.SameCoordinates,Original*%
%TF.FileFunction,Other,User*%
%FSLAX46Y46*%
G04 Gerber Fmt 4.6, Leading zero omitted, Abs format (unit mm)*
G04 Created by KiCad (PCBNEW 9.0.1+1) date 2025-11-25 15:18:51*
%MOMM*%
%LPD*%
G01*
G04 APERTURE LIST*
%ADD10C,0.050000*%
%ADD11C,0.100000*%
%ADD12C,0.120000*%
G04 APERTURE END LIST*
D10*
%TO.C,R27*%
X233700000Y-161390000D02*
X236660000Y-161390000D01*
X233700000Y-162850000D02*
X233700000Y-161390000D01*
X236660000Y-161390000D02*
X236660000Y-162850000D01*
X236660000Y-162850000D02*
X233700000Y-162850000D01*
%TO.C,R15*%
X216270000Y-105020000D02*
X217730000Y-105020000D01*
X216270000Y-107980000D02*
X216270000Y-105020000D01*
X217730000Y-105020000D02*
X217730000Y-107980000D01*
X217730000Y-107980000D02*
X216270000Y-107980000D01*
%TO.C,TP6*%
X162570000Y-159080000D02*
G75*
G02*
X160070000Y-159080000I-1250000J0D01*
G01*
X160070000Y-159080000D02*
G75*
G02*
X162570000Y-159080000I1250000J0D01*
G01*
%TO.C,J3*%
X255110000Y-155299999D02*
X263540001Y-155300000D01*
X255110000Y-165350001D02*
X255110000Y-155299999D01*
X263540001Y-155300000D02*
X263540001Y-165350000D01*
X263540001Y-165350000D02*
X255110000Y-165350001D01*
%TO.C,R23*%
X226870000Y-109640000D02*
X229830000Y-109640000D01*
X226870000Y-111100000D02*
X226870000Y-109640000D01*
X229830000Y-109640000D02*
X229830000Y-111100000D01*
X229830000Y-111100000D02*
X226870000Y-111100000D01*
%TO.C,C4*%
X192220000Y-138495000D02*
X193680000Y-138495000D01*
X192220000Y-141455000D02*
X192220000Y-138495000D01*
X193680000Y-138495000D02*
X193680000Y-141455000D01*
X193680000Y-141455000D02*
X192220000Y-141455000D01*
%TO.C,R31*%
X216270000Y-108270000D02*
X217730000Y-108270000D01*
X216270000Y-111230000D02*
X216270000Y-108270000D01*
X217730000Y-108270000D02*
X217730000Y-111230000D01*
X217730000Y-111230000D02*
X216270000Y-111230000D01*
%TO.C,R45*%
X214785000Y-176170000D02*
X217745000Y-176170000D01*
X214785000Y-177630000D02*
X214785000Y-176170000D01*
X217745000Y-176170000D02*
X217745000Y-177630000D01*
X217745000Y-177630000D02*
X214785000Y-177630000D01*
%TO.C,LED3*%
X258085000Y-153170000D02*
X261535000Y-153170000D01*
X258085000Y-155070000D02*
X258085000Y-153170000D01*
X261535000Y-153170000D02*
X261535000Y-155070000D01*
X261535000Y-155070000D02*
X258085000Y-155070000D01*
%TO.C,C52*%
X231900000Y-163340000D02*
X234860000Y-163340000D01*
X231900000Y-164800000D02*
X231900000Y-163340000D01*
X234860000Y-163340000D02*
X234860000Y-164800000D01*
X234860000Y-164800000D02*
X231900000Y-164800000D01*
%TO.C,C20*%
X254120000Y-165850000D02*
X257080000Y-165850000D01*
X254120000Y-167310000D02*
X254120000Y-165850000D01*
X257080000Y-165850000D02*
X257080000Y-167310000D01*
X257080000Y-167310000D02*
X254120000Y-167310000D01*
%TO.C,EXTERNALFAN5V1*%
X100345000Y-103670000D02*
X103305000Y-103670000D01*
X100345000Y-105130000D02*
X100345000Y-103670000D01*
X103305000Y-103670000D02*
X103305000Y-105130000D01*
X103305000Y-105130000D02*
X100345000Y-105130000D01*
%TO.C,U2*%
X212085000Y-111600000D02*
X217085000Y-111600000D01*
X212085000Y-115100000D02*
X212085000Y-111600000D01*
X217085000Y-111600000D02*
X217085000Y-115100000D01*
X217085000Y-115100000D02*
X212085000Y-115100000D01*
%TO.C,TP2*%
X273980000Y-108210000D02*
G75*
G02*
X271480000Y-108210000I-1250000J0D01*
G01*
X271480000Y-108210000D02*
G75*
G02*
X273980000Y-108210000I1250000J0D01*
G01*
%TO.C,TPD4EUSB30DQAR1*%
X175700001Y-138932500D02*
X178700001Y-138932500D01*
X175700001Y-140832500D02*
X175700001Y-138932500D01*
X178700001Y-138932500D02*
X178700001Y-140832500D01*
X178700001Y-140832500D02*
X175700001Y-140832500D01*
%TO.C,R7*%
X254534999Y-137920000D02*
X257494999Y-137920000D01*
X254534999Y-139380000D02*
X254534999Y-137920000D01*
X257494999Y-137920000D02*
X257494999Y-139380000D01*
X257494999Y-139380000D02*
X254534999Y-139380000D01*
%TO.C,Q3*%
X193550000Y-156815000D02*
X193550000Y-152965000D01*
X196950000Y-152965000D02*
X193550000Y-152965000D01*
X196950000Y-152965000D02*
X196950000Y-156815000D01*
X196950000Y-156815000D02*
X193550000Y-156815000D01*
%TO.C,D2*%
X174690000Y-163190000D02*
X174890000Y-163190000D01*
X174690000Y-165290000D02*
X174690000Y-163190000D01*
X174890000Y-162190000D02*
X177890000Y-162190000D01*
X174890000Y-163190000D02*
X174890000Y-162190000D01*
X174890000Y-165290000D02*
X174690000Y-165290000D01*
X174890000Y-166290000D02*
X174890000Y-165290000D01*
X177890000Y-162190000D02*
X177890000Y-163190000D01*
X177890000Y-163190000D02*
X178090000Y-163190000D01*
X177890000Y-165290000D02*
X177890000Y-166290000D01*
X177890000Y-166290000D02*
X174890000Y-166290000D01*
X178090000Y-163190000D02*
X178090000Y-165290000D01*
X178090000Y-165290000D02*
X177890000Y-165290000D01*
%TO.C,C37*%
X142420000Y-111970000D02*
X145380000Y-111970000D01*
X142420000Y-113430000D02*
X142420000Y-111970000D01*
X145380000Y-111970000D02*
X145380000Y-113430000D01*
X145380000Y-113430000D02*
X142420000Y-113430000D01*
%TO.C,C10*%
X182220000Y-162070000D02*
X183680000Y-162070000D01*
X182220000Y-165030000D02*
X182220000Y-162070000D01*
X183680000Y-162070000D02*
X183680000Y-165030000D01*
X183680000Y-165030000D02*
X182220000Y-165030000D01*
%TO.C,R34*%
X142225000Y-90010000D02*
X145185000Y-90010000D01*
X142225000Y-91470000D02*
X142225000Y-90010000D01*
X145185000Y-90010000D02*
X145185000Y-91470000D01*
X145185000Y-91470000D02*
X142225000Y-91470000D01*
%TO.C,R33*%
X193669999Y-156900000D02*
X196629999Y-156900000D01*
X193669999Y-158360000D02*
X193669999Y-156900000D01*
X196629999Y-156900000D02*
X196629999Y-158360000D01*
X196629999Y-158360000D02*
X193669999Y-158360000D01*
%TO.C,C12*%
X172845000Y-148520000D02*
X175805000Y-148520000D01*
X172845000Y-149980000D02*
X172845000Y-148520000D01*
X175805000Y-148520000D02*
X175805000Y-149980000D01*
X175805000Y-149980000D02*
X172845000Y-149980000D01*
%TO.C,C39*%
X233700000Y-159890000D02*
X236660000Y-159890000D01*
X233700000Y-161350000D02*
X233700000Y-159890000D01*
X236660000Y-159890000D02*
X236660000Y-161350000D01*
X236660000Y-161350000D02*
X233700000Y-161350000D01*
%TO.C,LED4*%
X242320000Y-165365001D02*
X244220000Y-165365001D01*
X242320000Y-168815001D02*
X242320000Y-165365001D01*
X244220000Y-165365001D02*
X244220000Y-168815001D01*
X244220000Y-168815001D02*
X242320000Y-168815001D01*
%TO.C,C2*%
X189220000Y-138495000D02*
X190680000Y-138495000D01*
X189220000Y-141455000D02*
X189220000Y-138495000D01*
X190680000Y-138495000D02*
X190680000Y-141455000D01*
X190680000Y-141455000D02*
X189220000Y-141455000D01*
%TO.C,R9*%
X255100000Y-153380000D02*
X258060000Y-153380000D01*
X255100000Y-154840000D02*
X255100000Y-153380000D01*
X258060000Y-153380000D02*
X258060000Y-154840000D01*
X258060000Y-154840000D02*
X255100000Y-154840000D01*
%TO.C,R46*%
X220005000Y-173330000D02*
X222965000Y-173330000D01*
X220005000Y-174790000D02*
X220005000Y-173330000D01*
X222965000Y-173330000D02*
X222965000Y-174790000D01*
X222965000Y-174790000D02*
X220005000Y-174790000D01*
%TO.C,TP5*%
X224940000Y-159020000D02*
G75*
G02*
X222440000Y-159020000I-1250000J0D01*
G01*
X222440000Y-159020000D02*
G75*
G02*
X224940000Y-159020000I1250000J0D01*
G01*
%TO.C,LED7*%
X257575000Y-141900000D02*
X261025000Y-141900000D01*
X257575000Y-143800000D02*
X257575000Y-141900000D01*
X261025000Y-141900000D02*
X261025000Y-143800000D01*
X261025000Y-143800000D02*
X257575000Y-143800000D01*
%TO.C,C38*%
X142420000Y-106570000D02*
X145380000Y-106570000D01*
X142420000Y-108030000D02*
X142420000Y-106570000D01*
X145380000Y-106570000D02*
X145380000Y-108030000D01*
X145380000Y-108030000D02*
X142420000Y-108030000D01*
%TO.C,R48*%
X218295000Y-108600000D02*
X221255000Y-108600000D01*
X218295000Y-110060000D02*
X218295000Y-108600000D01*
X221255000Y-108600000D02*
X221255000Y-110060000D01*
X221255000Y-110060000D02*
X218295000Y-110060000D01*
%TO.C,C21*%
X212948779Y-164889949D02*
X217548779Y-164889949D01*
X212948779Y-168089949D02*
X212948779Y-164889949D01*
X217548779Y-164889949D02*
X217548779Y-168089949D01*
X217548779Y-168089949D02*
X212948779Y-168089949D01*
%TO.C,R4*%
X186845000Y-152760000D02*
X189805000Y-152760000D01*
X186845000Y-154220000D02*
X186845000Y-152760000D01*
X189805000Y-152760000D02*
X189805000Y-154220000D01*
X189805000Y-154220000D02*
X186845000Y-154220000D01*
%TO.C,R6*%
X254520000Y-142120000D02*
X257480000Y-142120000D01*
X254520000Y-143580000D02*
X254520000Y-142120000D01*
X257480000Y-142120000D02*
X257480000Y-143580000D01*
X257480000Y-143580000D02*
X254520000Y-143580000D01*
%TO.C,C53*%
X145445000Y-113500000D02*
X148845000Y-113500000D01*
X145445000Y-115460000D02*
X145445000Y-113500000D01*
X148845000Y-113500000D02*
X148845000Y-115460000D01*
X148845000Y-115460000D02*
X145445000Y-115460000D01*
%TO.C,R5*%
X254620000Y-146270000D02*
X257580000Y-146270000D01*
X254620000Y-147730000D02*
X254620000Y-146270000D01*
X257580000Y-146270000D02*
X257580000Y-147730000D01*
X257580000Y-147730000D02*
X254620000Y-147730000D01*
%TO.C,R35*%
X142225000Y-92520000D02*
X145185000Y-92520000D01*
X142225000Y-93980000D02*
X142225000Y-92520000D01*
X145185000Y-92520000D02*
X145185000Y-93980000D01*
X145185000Y-93980000D02*
X142225000Y-93980000D01*
%TO.C,D1*%
X148790000Y-166859999D02*
X148990000Y-166860000D01*
X148790000Y-168960001D02*
X148790000Y-166859999D01*
X148990000Y-165860000D02*
X151990000Y-165860000D01*
X148990000Y-166860000D02*
X148990000Y-165860000D01*
X148990000Y-168960000D02*
X148790000Y-168960001D01*
X148990000Y-169960000D02*
X148990000Y-168960000D01*
X151990000Y-165860000D02*
X151990000Y-166860000D01*
X151990000Y-166860000D02*
X152190000Y-166859999D01*
X151990000Y-168960000D02*
X151990000Y-169960000D01*
X151990000Y-169960000D02*
X148990000Y-169960000D01*
X152190000Y-166859999D02*
X152190000Y-168960001D01*
X152190000Y-168960001D02*
X151990000Y-168960000D01*
%TO.C,R38*%
X234250000Y-173340000D02*
X237210000Y-173340000D01*
X234250000Y-174800000D02*
X234250000Y-173340000D01*
X237210000Y-173340000D02*
X237210000Y-174800000D01*
X237210000Y-174800000D02*
X234250000Y-174800000D01*
%TO.C,TP8*%
X152450000Y-107470000D02*
G75*
G02*
X149950000Y-107470000I-1250000J0D01*
G01*
X149950000Y-107470000D02*
G75*
G02*
X152450000Y-107470000I1250000J0D01*
G01*
%TO.C,SW1*%
X162550000Y-162300000D02*
X162800000Y-162300000D01*
X162550000Y-162550000D02*
X162550000Y-162300000D01*
X162550000Y-169550000D02*
X162550000Y-162550000D01*
X162550000Y-169550000D02*
X162550000Y-169800000D01*
X162550000Y-169800000D02*
X162800000Y-169800000D01*
X162800000Y-162300000D02*
X171800000Y-162300000D01*
X171800000Y-162300000D02*
X172050000Y-162300000D01*
X171800000Y-169800000D02*
X162800000Y-169800000D01*
X171800000Y-169800000D02*
X172050000Y-169800000D01*
X172050000Y-162300000D02*
X172050000Y-162550000D01*
X172050000Y-162550000D02*
X172050000Y-169550000D01*
X172050000Y-169800000D02*
X172050000Y-169550000D01*
%TO.C,R10*%
X248520000Y-162810000D02*
X251480000Y-162810000D01*
X248520000Y-164270000D02*
X248520000Y-162810000D01*
X251480000Y-162810000D02*
X251480000Y-164270000D01*
X251480000Y-164270000D02*
X248520000Y-164270000D01*
%TO.C,R44*%
X214785000Y-173660000D02*
X217745000Y-173660000D01*
X214785000Y-175120000D02*
X214785000Y-173660000D01*
X217745000Y-173660000D02*
X217745000Y-175120000D01*
X217745000Y-175120000D02*
X214785000Y-175120000D01*
%TO.C,C45*%
X212830000Y-115170000D02*
X215790000Y-115170000D01*
X212830000Y-116630000D02*
X212830000Y-115170000D01*
X215790000Y-115170000D02*
X215790000Y-116630000D01*
X215790000Y-116630000D02*
X212830000Y-116630000D01*
%TO.C,R32*%
X101595000Y-167970000D02*
X104555000Y-167970000D01*
X101595000Y-169430000D02*
X101595000Y-167970000D01*
X104555000Y-167970000D02*
X104555000Y-169430000D01*
X104555000Y-169430000D02*
X101595000Y-169430000D01*
%TO.C,C23*%
X214583779Y-163359949D02*
X217543779Y-163359949D01*
X214583779Y-164819949D02*
X214583779Y-163359949D01*
X217543779Y-163359949D02*
X217543779Y-164819949D01*
X217543779Y-164819949D02*
X214583779Y-164819949D01*
%TO.C,IC1*%
X173325000Y-151099998D02*
X174775000Y-151099998D01*
X173325000Y-159400000D02*
X173325000Y-151099998D01*
X174775000Y-149999999D02*
X175874999Y-149999999D01*
X174775000Y-151099998D02*
X174775000Y-149999999D01*
X174775000Y-159400000D02*
X173325000Y-159400000D01*
X174775000Y-160499999D02*
X174775000Y-159400000D01*
X175874999Y-148549999D02*
X184175001Y-148549999D01*
X175874999Y-149999999D02*
X175874999Y-148549999D01*
X175874999Y-160499999D02*
X174775000Y-160499999D01*
X175874999Y-161949999D02*
X175874999Y-160499999D01*
X184175001Y-148549999D02*
X184175001Y-149999999D01*
X184175001Y-149999999D02*
X185275000Y-149999999D01*
X184175001Y-160499999D02*
X184175001Y-161949999D01*
X184175001Y-161949999D02*
X175874999Y-161949999D01*
X185275000Y-149999999D02*
X185275000Y-151099998D01*
X185275000Y-151099998D02*
X186725000Y-151099998D01*
X185275000Y-159400000D02*
X185275000Y-160499999D01*
X185275000Y-160499999D02*
X184175001Y-160499999D01*
X186725000Y-151099998D02*
X186725000Y-159400000D01*
X186725000Y-159400000D02*
X185275000Y-159400000D01*
%TO.C,J1*%
X188595000Y-161135000D02*
X199885000Y-161135000D01*
X188595000Y-170450000D02*
X188595000Y-161135000D01*
X199885000Y-161135000D02*
X199885000Y-170450000D01*
X199885000Y-170450000D02*
X188595000Y-170450000D01*
%TO.C,C14*%
X186845000Y-150770000D02*
X189805000Y-150770000D01*
X186845000Y-152230000D02*
X186845000Y-150770000D01*
X189805000Y-150770000D02*
X189805000Y-152230000D01*
X189805000Y-152230000D02*
X186845000Y-152230000D01*
%TO.C,R41*%
X234250000Y-175850000D02*
X237210000Y-175850000D01*
X234250000Y-177310000D02*
X234250000Y-175850000D01*
X237210000Y-175850000D02*
X237210000Y-177310000D01*
X237210000Y-177310000D02*
X234250000Y-177310000D01*
D11*
%TO.C,D6*%
X254305001Y-149375000D02*
X260485001Y-149375000D01*
X254305001Y-153025000D02*
X254305001Y-149375000D01*
X260485001Y-149375000D02*
X260485001Y-153025000D01*
X260485001Y-153025000D02*
X254305001Y-153025000D01*
D10*
%TO.C,U1*%
X212085000Y-101250000D02*
X217085000Y-101250000D01*
X212085000Y-104750000D02*
X212085000Y-101250000D01*
X217085000Y-101250000D02*
X217085000Y-104750000D01*
X217085000Y-104750000D02*
X212085000Y-104750000D01*
D11*
%TO.C,IC3*%
X229330000Y-159470001D02*
X233630000Y-159470001D01*
X229330000Y-163269999D02*
X229330000Y-159470001D01*
X233630000Y-159470001D02*
X233630000Y-163269999D01*
X233630000Y-163269999D02*
X229330000Y-163269999D01*
D10*
%TO.C,TP7*%
X162520000Y-162230000D02*
G75*
G02*
X160020000Y-162230000I-1250000J0D01*
G01*
X160020000Y-162230000D02*
G75*
G02*
X162520000Y-162230000I1250000J0D01*
G01*
D11*
%TO.C,J6*%
X215500000Y-141425000D02*
X239500000Y-141425000D01*
X215500000Y-152775000D02*
X215500000Y-141425000D01*
X239500000Y-141425000D02*
X239500000Y-152775000D01*
X239500000Y-152775000D02*
X215500000Y-152775000D01*
D10*
%TO.C,LED1*%
X155600000Y-166524999D02*
X157500000Y-166524999D01*
X155600000Y-169974999D02*
X155600000Y-166524999D01*
X157500000Y-166524999D02*
X157500000Y-169974999D01*
X157500000Y-169974999D02*
X155600000Y-169974999D01*
%TO.C,C50*%
X228875000Y-163340000D02*
X231835000Y-163340000D01*
X228875000Y-164800000D02*
X228875000Y-163340000D01*
X231835000Y-163340000D02*
X231835000Y-164800000D01*
X231835000Y-164800000D02*
X228875000Y-164800000D01*
%TO.C,R25*%
X147270000Y-105494998D02*
X148730000Y-105494998D01*
X147270000Y-108454998D02*
X147270000Y-105494998D01*
X148730000Y-105494998D02*
X148730000Y-108454998D01*
X148730000Y-108454998D02*
X147270000Y-108454998D01*
%TO.C,C16*%
X185350000Y-161150000D02*
X188550000Y-161150000D01*
X185350000Y-165750000D02*
X185350000Y-161150000D01*
X188550000Y-161150000D02*
X188550000Y-165750000D01*
X188550000Y-165750000D02*
X185350000Y-165750000D01*
%TO.C,R24*%
X219370000Y-156894999D02*
X220830000Y-156894999D01*
X219370000Y-159854999D02*
X219370000Y-156894999D01*
X220830000Y-156894999D02*
X220830000Y-159854999D01*
X220830000Y-159854999D02*
X219370000Y-159854999D01*
%TO.C,D7*%
X96445000Y-168345000D02*
X97445000Y-168345000D01*
X96445000Y-171345000D02*
X96445000Y-168345000D01*
X97445000Y-168145000D02*
X99545000Y-168145000D01*
X97445000Y-168345000D02*
X97445000Y-168145000D01*
X97445000Y-171345000D02*
X96445000Y-171345000D01*
X97445000Y-171545000D02*
X97445000Y-171345000D01*
X99545000Y-168145000D02*
X99545000Y-168345000D01*
X99545000Y-168345000D02*
X100545000Y-168345000D01*
X99545000Y-171345000D02*
X99545000Y-171545000D01*
X99545000Y-171545000D02*
X97445000Y-171545000D01*
X100545000Y-168345000D02*
X100545000Y-171345000D01*
X100545000Y-171345000D02*
X99545000Y-171345000D01*
%TO.C,R17*%
X219408779Y-161409949D02*
X222368779Y-161409949D01*
X219408779Y-162869949D02*
X219408779Y-161409949D01*
X222368779Y-161409949D02*
X222368779Y-162869949D01*
X222368779Y-162869949D02*
X219408779Y-162869949D01*
%TO.C,C43*%
X212830000Y-104835000D02*
X215790000Y-104835000D01*
X212830000Y-106295000D02*
X212830000Y-104835000D01*
X215790000Y-104835000D02*
X215790000Y-106295000D01*
X215790000Y-106295000D02*
X212830000Y-106295000D01*
%TO.C,C54*%
X231900000Y-164870000D02*
X235300000Y-164870000D01*
X231900000Y-166830000D02*
X231900000Y-164870000D01*
X235300000Y-164870000D02*
X235300000Y-166830000D01*
X235300000Y-166830000D02*
X231900000Y-166830000D01*
%TO.C,C47*%
X199700000Y-138490000D02*
X202900000Y-138490000D01*
X199700000Y-143090000D02*
X199700000Y-138490000D01*
X202900000Y-138490000D02*
X202900000Y-143090000D01*
X202900000Y-143090000D02*
X199700000Y-143090000D01*
%TO.C,U3*%
X251050000Y-145000000D02*
X254550000Y-145000000D01*
X251050000Y-147700000D02*
X251050000Y-145000000D01*
X254550000Y-145000000D02*
X254550000Y-147700000D01*
X254550000Y-147700000D02*
X251050000Y-147700000D01*
%TO.C,R21*%
X226870000Y-107130000D02*
X229830000Y-107130000D01*
X226870000Y-108590000D02*
X226870000Y-107130000D01*
X229830000Y-107130000D02*
X229830000Y-108590000D01*
X229830000Y-108590000D02*
X226870000Y-108590000D01*
%TO.C,TP3*%
X169660000Y-151510000D02*
G75*
G02*
X167160000Y-151510000I-1250000J0D01*
G01*
X167160000Y-151510000D02*
G75*
G02*
X169660000Y-151510000I1250000J0D01*
G01*
%TO.C,C9*%
X179960000Y-143340000D02*
X181780000Y-143340000D01*
X179960000Y-144260000D02*
X179960000Y-143340000D01*
X181780000Y-143340000D02*
X181780000Y-144260000D01*
X181780000Y-144260000D02*
X179960000Y-144260000D01*
%TO.C,C17*%
X183720000Y-162070000D02*
X185180000Y-162070000D01*
X183720000Y-165030000D02*
X183720000Y-162070000D01*
X185180000Y-162070000D02*
X185180000Y-165030000D01*
X185180000Y-165030000D02*
X183720000Y-165030000D01*
%TO.C,C24*%
X214583779Y-157959949D02*
X217543779Y-157959949D01*
X214583779Y-159419949D02*
X214583779Y-157959949D01*
X217543779Y-157959949D02*
X217543779Y-159419949D01*
X217543779Y-159419949D02*
X214583779Y-159419949D01*
%TO.C,C1*%
X187720000Y-138495000D02*
X189180000Y-138495000D01*
X187720000Y-141455000D02*
X187720000Y-138495000D01*
X189180000Y-138495000D02*
X189180000Y-141455000D01*
X189180000Y-141455000D02*
X187720000Y-141455000D01*
%TO.C,C36*%
X140785000Y-103300000D02*
X145385000Y-103300000D01*
X140785000Y-106500000D02*
X140785000Y-103300000D01*
X145385000Y-103300000D02*
X145385000Y-106500000D01*
X145385000Y-106500000D02*
X140785000Y-106500000D01*
%TO.C,LED9*%
X219150000Y-153375000D02*
X221050000Y-153375000D01*
X219150000Y-156825000D02*
X219150000Y-153375000D01*
X221050000Y-153375000D02*
X221050000Y-156825000D01*
X221050000Y-156825000D02*
X219150000Y-156825000D01*
%TO.C,C7*%
X196720000Y-138495000D02*
X198180000Y-138495000D01*
X196720000Y-141455000D02*
X196720000Y-138495000D01*
X198180000Y-138495000D02*
X198180000Y-141455000D01*
X198180000Y-141455000D02*
X196720000Y-141455000D01*
%TO.C,R22*%
X147245000Y-110020000D02*
X150205000Y-110020000D01*
X147245000Y-111480000D02*
X147245000Y-110020000D01*
X150205000Y-110020000D02*
X150205000Y-111480000D01*
X150205000Y-111480000D02*
X147245000Y-111480000D01*
%TO.C,D5*%
X252330000Y-159414999D02*
X254150000Y-159414999D01*
X252330000Y-160764999D02*
X252330000Y-159414999D01*
X254150000Y-159414999D02*
X254150000Y-160764999D01*
X254150000Y-160764999D02*
X252330000Y-160764999D01*
%TO.C,D4*%
X200600000Y-166749999D02*
X200800000Y-166750000D01*
X200600000Y-168850001D02*
X200600000Y-166749999D01*
X200800000Y-165750000D02*
X203800000Y-165750000D01*
X200800000Y-166750000D02*
X200800000Y-165750000D01*
X200800000Y-168850000D02*
X200600000Y-168850001D01*
X200800000Y-169850000D02*
X200800000Y-168850000D01*
X203800000Y-165750000D02*
X203800000Y-166750000D01*
X203800000Y-166750000D02*
X204000000Y-166749999D01*
X203800000Y-168850000D02*
X203800000Y-169850000D01*
X203800000Y-169850000D02*
X200800000Y-169850000D01*
X204000000Y-166749999D02*
X204000000Y-168850001D01*
X204000000Y-168850001D02*
X203800000Y-168850000D01*
D11*
%TO.C,LS1*%
X197000000Y-144200000D02*
X211000000Y-144200000D01*
X197000000Y-158200000D02*
X197000000Y-144200000D01*
X211000000Y-144200000D02*
X211000000Y-158200000D01*
X211000000Y-158200000D02*
X197000000Y-158200000D01*
D10*
%TO.C,C46*%
X211830000Y-109670000D02*
X214790000Y-109670000D01*
X211830000Y-111130000D02*
X211830000Y-109670000D01*
X214790000Y-109670000D02*
X214790000Y-111130000D01*
X214790000Y-111130000D02*
X211830000Y-111130000D01*
%TO.C,Q1*%
X89965000Y-90500000D02*
X93815000Y-90500000D01*
X89965000Y-93900000D02*
X89965000Y-90500000D01*
X93815000Y-93900000D02*
X89965000Y-93900000D01*
X93815000Y-93900000D02*
X93815000Y-90500000D01*
%TO.C,TP10*%
X152449999Y-99330000D02*
G75*
G02*
X149950001Y-99330000I-1249999J0D01*
G01*
X149950001Y-99330000D02*
G75*
G02*
X152449999Y-99330000I1249999J0D01*
G01*
%TO.C,D3*%
X205500000Y-166649999D02*
X205700000Y-166650000D01*
X205500000Y-168750001D02*
X205500000Y-166649999D01*
X205700000Y-165650000D02*
X208700000Y-165650000D01*
X205700000Y-166650000D02*
X205700000Y-165650000D01*
X205700000Y-168750000D02*
X205500000Y-168750001D01*
X205700000Y-169750000D02*
X205700000Y-168750000D01*
X208700000Y-165650000D02*
X208700000Y-166650000D01*
X208700000Y-166650000D02*
X208900000Y-166649999D01*
X208700000Y-168750000D02*
X208700000Y-169750000D01*
X208700000Y-169750000D02*
X205700000Y-169750000D01*
X208900000Y-166649999D02*
X208900000Y-168750001D01*
X208900000Y-168750001D02*
X208700000Y-168750000D01*
%TO.C,TP15*%
X164800000Y-154440000D02*
G75*
G02*
X162300000Y-154440000I-1250000J0D01*
G01*
X162300000Y-154440000D02*
G75*
G02*
X164800000Y-154440000I1250000J0D01*
G01*
%TO.C,LED8*%
X257625000Y-146050000D02*
X261075000Y-146050000D01*
X257625000Y-147950000D02*
X257625000Y-146050000D01*
X261075000Y-146050000D02*
X261075000Y-147950000D01*
X261075000Y-147950000D02*
X257625000Y-147950000D01*
%TO.C,R50*%
X218230000Y-99365000D02*
X221190000Y-99365000D01*
X218230000Y-100825000D02*
X218230000Y-99365000D01*
X221190000Y-99365000D02*
X221190000Y-100825000D01*
X221190000Y-100825000D02*
X218230000Y-100825000D01*
%TO.C,C25*%
X219408779Y-159909949D02*
X222368779Y-159909949D01*
X219408779Y-161369949D02*
X219408779Y-159909949D01*
X222368779Y-159909949D02*
X222368779Y-161369949D01*
X222368779Y-161369949D02*
X219408779Y-161369949D01*
%TO.C,R11*%
X254120000Y-167370000D02*
X257080000Y-167370000D01*
X254120000Y-168830000D02*
X254120000Y-167370000D01*
X257080000Y-167370000D02*
X257080000Y-168830000D01*
X257080000Y-168830000D02*
X254120000Y-168830000D01*
%TO.C,R13*%
X242540000Y-162360002D02*
X244000000Y-162360002D01*
X242540000Y-165320002D02*
X242540000Y-162360002D01*
X244000000Y-162360002D02*
X244000000Y-165320002D01*
X244000000Y-165320002D02*
X242540000Y-165320002D01*
%TO.C,R43*%
X229915000Y-175840000D02*
X232875000Y-175840000D01*
X229915000Y-177300000D02*
X229915000Y-175840000D01*
X232875000Y-175840000D02*
X232875000Y-177300000D01*
X232875000Y-177300000D02*
X229915000Y-177300000D01*
%TO.C,TP12*%
X162540000Y-142260000D02*
G75*
G02*
X160040000Y-142260000I-1250000J0D01*
G01*
X160040000Y-142260000D02*
G75*
G02*
X162540000Y-142260000I1250000J0D01*
G01*
%TO.C,C48*%
X227240000Y-164870000D02*
X231840000Y-164870000D01*
X227240000Y-168070000D02*
X227240000Y-164870000D01*
X231840000Y-164870000D02*
X231840000Y-168070000D01*
X231840000Y-168070000D02*
X227240000Y-168070000D01*
%TO.C,C19*%
X160640000Y-163495000D02*
X162100000Y-163495000D01*
X160640000Y-166455000D02*
X160640000Y-163495000D01*
X162100000Y-163495000D02*
X162100000Y-166455000D01*
X162100000Y-166455000D02*
X160640000Y-166455000D01*
%TO.C,IC2*%
X155465000Y-158852500D02*
X159715000Y-158852500D01*
X155465000Y-162452500D02*
X155465000Y-158852500D01*
X159715000Y-158852500D02*
X159715000Y-162452500D01*
X159715000Y-162452500D02*
X155465000Y-162452500D01*
%TO.C,R53*%
X218230000Y-104385000D02*
X221190000Y-104385000D01*
X218230000Y-105845000D02*
X218230000Y-104385000D01*
X221190000Y-104385000D02*
X221190000Y-105845000D01*
X221190000Y-105845000D02*
X218230000Y-105845000D01*
%TO.C,TP4*%
X172770000Y-149160000D02*
G75*
G02*
X170270000Y-149160000I-1250000J0D01*
G01*
X170270000Y-149160000D02*
G75*
G02*
X172770000Y-149160000I1250000J0D01*
G01*
%TO.C,R37*%
X129165000Y-104100000D02*
X132125000Y-104100000D01*
X129165000Y-105560000D02*
X129165000Y-104100000D01*
X132125000Y-104100000D02*
X132125000Y-105560000D01*
X132125000Y-105560000D02*
X129165000Y-105560000D01*
%TO.C,C3*%
X190720000Y-138495000D02*
X192180000Y-138495000D01*
X190720000Y-141455000D02*
X190720000Y-138495000D01*
X192180000Y-138495000D02*
X192180000Y-141455000D01*
X192180000Y-141455000D02*
X190720000Y-141455000D01*
%TO.C,LED6*%
X257525000Y-135190000D02*
X260975000Y-135190000D01*
X257525000Y-137090000D02*
X257525000Y-135190000D01*
X260975000Y-135190000D02*
X260975000Y-137090000D01*
X260975000Y-137090000D02*
X257525000Y-137090000D01*
%TO.C,TP16*%
X157130000Y-146010000D02*
G75*
G02*
X154630000Y-146010000I-1250000J0D01*
G01*
X154630000Y-146010000D02*
G75*
G02*
X157130000Y-146010000I1250000J0D01*
G01*
%TO.C,R40*%
X192479999Y-154990001D02*
X193419999Y-154990001D01*
X192479999Y-156850001D02*
X192479999Y-154990001D01*
X193419999Y-154990001D02*
X193419999Y-156850001D01*
X193419999Y-156850001D02*
X192479999Y-156850001D01*
D11*
%TO.C,Y1*%
X177700000Y-144300000D02*
X186250000Y-144300000D01*
X177700000Y-148500000D02*
X177700000Y-144300000D01*
X186250000Y-144300000D02*
X186250000Y-148500000D01*
X186250000Y-148500000D02*
X177700000Y-148500000D01*
D10*
%TO.C,R20*%
X226870000Y-104620000D02*
X229830000Y-104620000D01*
X226870000Y-106080000D02*
X226870000Y-104620000D01*
X229830000Y-104620000D02*
X229830000Y-106080000D01*
X229830000Y-106080000D02*
X226870000Y-106080000D01*
%TO.C,R19*%
X226870000Y-102110000D02*
X229830000Y-102110000D01*
X226870000Y-103570000D02*
X226870000Y-102110000D01*
X229830000Y-102110000D02*
X229830000Y-103570000D01*
X229830000Y-103570000D02*
X226870000Y-103570000D01*
D11*
%TO.C,J2*%
X82440000Y-121565000D02*
X76760000Y-121565000D01*
X76760000Y-118425000D01*
X82440000Y-118425000D01*
X82440000Y-121565000D01*
G36*
X82440000Y-121565000D02*
G01*
X76760000Y-121565000D01*
X76760000Y-118425000D01*
X82440000Y-118425000D01*
X82440000Y-121565000D01*
G37*
D10*
%TO.C,R12*%
X248520000Y-161290000D02*
X251480000Y-161290000D01*
X248520000Y-162750000D02*
X248520000Y-161290000D01*
X251480000Y-161290000D02*
X251480000Y-162750000D01*
X251480000Y-162750000D02*
X248520000Y-162750000D01*
%TO.C,C26*%
X217608779Y-163359949D02*
X220568779Y-163359949D01*
X217608779Y-164819949D02*
X217608779Y-163359949D01*
X220568779Y-163359949D02*
X220568779Y-164819949D01*
X220568779Y-164819949D02*
X217608779Y-164819949D01*
%TO.C,C6*%
X195220000Y-138495000D02*
X196680000Y-138495000D01*
X195220000Y-141455000D02*
X195220000Y-138495000D01*
X196680000Y-138495000D02*
X196680000Y-141455000D01*
X196680000Y-141455000D02*
X195220000Y-141455000D01*
%TO.C,C49*%
X227240000Y-154670000D02*
X231840000Y-154670000D01*
X227240000Y-157870000D02*
X227240000Y-154670000D01*
X231840000Y-154670000D02*
X231840000Y-157870000D01*
X231840000Y-157870000D02*
X227240000Y-157870000D01*
%TO.C,R8*%
X254534999Y-135410000D02*
X257494999Y-135410000D01*
X254534999Y-136870000D02*
X254534999Y-135410000D01*
X257494999Y-135410000D02*
X257494999Y-136870000D01*
X257494999Y-136870000D02*
X254534999Y-136870000D01*
%TO.C,R2*%
X248510000Y-156120000D02*
X251470000Y-156120000D01*
X248510000Y-157580000D02*
X248510000Y-156120000D01*
X251470000Y-156120000D02*
X251470000Y-157580000D01*
X251470000Y-157580000D02*
X248510000Y-157580000D01*
%TO.C,TP11*%
X260490000Y-167020000D02*
G75*
G02*
X257990000Y-167020000I-1250000J0D01*
G01*
X257990000Y-167020000D02*
G75*
G02*
X260490000Y-167020000I1250000J0D01*
G01*
%TO.C,R52*%
X218295000Y-113620000D02*
X221255000Y-113620000D01*
X218295000Y-115080000D02*
X218295000Y-113620000D01*
X221255000Y-113620000D02*
X221255000Y-115080000D01*
X221255000Y-115080000D02*
X218295000Y-115080000D01*
%TO.C,TP9*%
X259529999Y-99560000D02*
G75*
G02*
X257030001Y-99560000I-1249999J0D01*
G01*
X257030001Y-99560000D02*
G75*
G02*
X259529999Y-99560000I1249999J0D01*
G01*
%TO.C,C42*%
X198220000Y-138495000D02*
X199680000Y-138495000D01*
X198220000Y-141455000D02*
X198220000Y-138495000D01*
X199680000Y-138495000D02*
X199680000Y-141455000D01*
X199680000Y-141455000D02*
X198220000Y-141455000D01*
%TO.C,R16*%
X155820000Y-163495000D02*
X157280000Y-163495000D01*
X155820000Y-166455000D02*
X155820000Y-163495000D01*
X157280000Y-163495000D02*
X157280000Y-166455000D01*
X157280000Y-166455000D02*
X155820000Y-166455000D01*
%TO.C,C44*%
X211830000Y-99485000D02*
X214790000Y-99485000D01*
X211830000Y-100945000D02*
X211830000Y-99485000D01*
X214790000Y-99485000D02*
X214790000Y-100945000D01*
X214790000Y-100945000D02*
X211830000Y-100945000D01*
%TO.C,R39*%
X192020000Y-148219998D02*
X193480000Y-148219998D01*
X192020000Y-151179998D02*
X192020000Y-148219998D01*
X193480000Y-148219998D02*
X193480000Y-151179998D01*
X193480000Y-151179998D02*
X192020000Y-151179998D01*
%TO.C,C41*%
X147245000Y-108520000D02*
X150205000Y-108520000D01*
X147245000Y-109980000D02*
X147245000Y-108520000D01*
X150205000Y-108520000D02*
X150205000Y-109980000D01*
X150205000Y-109980000D02*
X147245000Y-109980000D01*
%TO.C,J5*%
X72145000Y-87340000D02*
X72145000Y-97340000D01*
X72145000Y-97340000D02*
X88145000Y-97340000D01*
X88145000Y-87340000D02*
X72145000Y-87340000D01*
X88145000Y-97340000D02*
X88145000Y-87340000D01*
%TO.C,J4*%
X173370000Y-166330000D02*
X173370000Y-169870000D01*
X173370000Y-169870000D02*
X187070000Y-169870000D01*
X187070000Y-166330000D02*
X173370000Y-166330000D01*
X187070000Y-169870000D02*
X187070000Y-166330000D01*
D11*
%TO.C,IC5*%
X142875000Y-108100001D02*
X147175000Y-108100001D01*
X142875000Y-111899999D02*
X142875000Y-108100001D01*
X147175000Y-108100001D02*
X147175000Y-111899999D01*
X147175000Y-111899999D02*
X142875000Y-111899999D01*
D10*
%TO.C,R1*%
X248510000Y-157640001D02*
X251470000Y-157640001D01*
X248510000Y-159100001D02*
X248510000Y-157640001D01*
X251470000Y-157640001D02*
X251470000Y-159100001D01*
X251470000Y-159100001D02*
X248510000Y-159100001D01*
%TO.C,R49*%
X218295000Y-111110000D02*
X221255000Y-111110000D01*
X218295000Y-112570000D02*
X218295000Y-111110000D01*
X221255000Y-111110000D02*
X221255000Y-112570000D01*
X221255000Y-112570000D02*
X218295000Y-112570000D01*
%TO.C,C8*%
X183220000Y-143340000D02*
X185040000Y-143340000D01*
X183220000Y-144260000D02*
X183220000Y-143340000D01*
X185040000Y-143340000D02*
X185040000Y-144260000D01*
X185040000Y-144260000D02*
X183220000Y-144260000D01*
D11*
%TO.C,IC6*%
X215038779Y-159489950D02*
X219338779Y-159489950D01*
X215038779Y-163289948D02*
X215038779Y-159489950D01*
X219338779Y-159489950D02*
X219338779Y-163289948D01*
X219338779Y-163289948D02*
X215038779Y-163289948D01*
D10*
%TO.C,R51*%
X218230000Y-101875000D02*
X221190000Y-101875000D01*
X218230000Y-103335000D02*
X218230000Y-101875000D01*
X221190000Y-101875000D02*
X221190000Y-103335000D01*
X221190000Y-103335000D02*
X218230000Y-103335000D01*
%TO.C,TP1*%
X273980000Y-104660000D02*
G75*
G02*
X271480000Y-104660000I-1250000J0D01*
G01*
X271480000Y-104660000D02*
G75*
G02*
X273980000Y-104660000I1250000J0D01*
G01*
%TO.C,R18*%
X157870000Y-163495000D02*
X159330000Y-163495000D01*
X157870000Y-166455000D02*
X157870000Y-163495000D01*
X159330000Y-163495000D02*
X159330000Y-166455000D01*
X159330000Y-166455000D02*
X157870000Y-166455000D01*
%TO.C,R3*%
X100345000Y-106180000D02*
X103305000Y-106180000D01*
X100345000Y-107640000D02*
X100345000Y-106180000D01*
X103305000Y-106180000D02*
X103305000Y-107640000D01*
X103305000Y-107640000D02*
X100345000Y-107640000D01*
%TO.C,C28*%
X170095000Y-156350000D02*
X173055000Y-156350000D01*
X170095000Y-157810000D02*
X170095000Y-156350000D01*
X173055000Y-156350000D02*
X173055000Y-157810000D01*
X173055000Y-157810000D02*
X170095000Y-157810000D01*
%TO.C,D9*%
X193524999Y-146249999D02*
X196874999Y-146249999D01*
X193524999Y-151349999D02*
X193524999Y-146249999D01*
X196874999Y-146249999D02*
X196874999Y-151349999D01*
X196874999Y-151349999D02*
X193524999Y-151349999D01*
%TO.C,C11*%
X170245000Y-151820000D02*
X173205000Y-151820000D01*
X170245000Y-153280000D02*
X170245000Y-151820000D01*
X173205000Y-151820000D02*
X173205000Y-153280000D01*
X173205000Y-153280000D02*
X170245000Y-153280000D01*
%TO.C,R42*%
X229915000Y-173330000D02*
X232875000Y-173330000D01*
X229915000Y-174790000D02*
X229915000Y-173330000D01*
X232875000Y-173330000D02*
X232875000Y-174790000D01*
X232875000Y-174790000D02*
X229915000Y-174790000D01*
%TO.C,LED2*%
X157650000Y-166525000D02*
X159550000Y-166525000D01*
X157650000Y-169975000D02*
X157650000Y-166525000D01*
X159550000Y-166525000D02*
X159550000Y-169975000D01*
X159550000Y-169975000D02*
X157650000Y-169975000D01*
%TO.C,TP13*%
X238910000Y-158990000D02*
G75*
G02*
X236410000Y-158990000I-1250000J0D01*
G01*
X236410000Y-158990000D02*
G75*
G02*
X238910000Y-158990000I1250000J0D01*
G01*
D12*
%TO.C,Module1*%
X174400000Y-99600000D02*
X197200000Y-99600000D01*
X174400000Y-103380000D02*
X174400000Y-99600000D01*
X174400000Y-133520000D02*
X197200000Y-133520000D01*
X174400000Y-137300000D02*
X174400000Y-133520000D01*
X197200000Y-99600000D02*
X197200000Y-103379999D01*
X197200000Y-103379999D02*
X174400000Y-103380000D01*
X197200000Y-133520000D02*
X197200000Y-137299999D01*
X197200000Y-137299999D02*
X174400000Y-137300000D01*
D10*
%TO.C,LED10*%
X147050000Y-101974999D02*
X148950000Y-101974999D01*
X147050000Y-105424999D02*
X147050000Y-101974999D01*
X148950000Y-101974999D02*
X148950000Y-105424999D01*
X148950000Y-105424999D02*
X147050000Y-105424999D01*
%TO.C,C5*%
X193720000Y-138495000D02*
X195180000Y-138495000D01*
X193720000Y-141455000D02*
X193720000Y-138495000D01*
X195180000Y-138495000D02*
X195180000Y-141455000D01*
X195180000Y-141455000D02*
X193720000Y-141455000D01*
%TO.C,R14*%
X231900000Y-166860000D02*
X234860000Y-166860000D01*
X231900000Y-168320000D02*
X231900000Y-166860000D01*
X234860000Y-166860000D02*
X234860000Y-168320000D01*
X234860000Y-168320000D02*
X231900000Y-168320000D01*
%TO.C,R47*%
X220005000Y-175840000D02*
X222965000Y-175840000D01*
X220005000Y-177300000D02*
X220005000Y-175840000D01*
X222965000Y-175840000D02*
X222965000Y-177300000D01*
X222965000Y-177300000D02*
X220005000Y-177300000D01*
%TO.C,C13*%
X184195000Y-148520000D02*
X187155000Y-148520000D01*
X184195000Y-149980000D02*
X184195000Y-148520000D01*
X187155000Y-148520000D02*
X187155000Y-149980000D01*
X187155000Y-149980000D02*
X184195000Y-149980000D01*
%TO.C,LED5*%
X257575000Y-137690000D02*
X261025000Y-137690000D01*
X257575000Y-139590000D02*
X257575000Y-137690000D01*
X261025000Y-137690000D02*
X261025000Y-139590000D01*
X261025000Y-139590000D02*
X257575000Y-139590000D01*
%TO.C,R36*%
X129255000Y-107370000D02*
X132215000Y-107370000D01*
X129255000Y-108830000D02*
X129255000Y-107370000D01*
X132215000Y-107370000D02*
X132215000Y-108830000D01*
X132215000Y-108830000D02*
X129255000Y-108830000D01*
%TO.C,C18*%
X170095000Y-158070000D02*
X173055000Y-158070000D01*
X170095000Y-159530000D02*
X170095000Y-158070000D01*
X173055000Y-158070000D02*
X173055000Y-159530000D01*
X173055000Y-159530000D02*
X170095000Y-159530000D01*
%TO.C,Q2*%
X187285000Y-144740000D02*
X191135000Y-144740000D01*
X187285000Y-148140000D02*
X187285000Y-144740000D01*
X191135000Y-148140000D02*
X187285000Y-148140000D01*
X191135000Y-148140000D02*
X191135000Y-144740000D01*
%TO.C,C22*%
X212948779Y-154689949D02*
X217548779Y-154689949D01*
X212948779Y-157889949D02*
X212948779Y-154689949D01*
X217548779Y-154689949D02*
X217548779Y-157889949D01*
X217548779Y-157889949D02*
X212948779Y-157889949D01*
%TO.C,C35*%
X140785000Y-113500000D02*
X145385000Y-113500000D01*
X140785000Y-116700000D02*
X140785000Y-113500000D01*
X145385000Y-113500000D02*
X145385000Y-116700000D01*
X145385000Y-116700000D02*
X140785000Y-116700000D01*
%TO.C,C51*%
X228875000Y-157940000D02*
X231835000Y-157940000D01*
X228875000Y-159400000D02*
X228875000Y-157940000D01*
X231835000Y-157940000D02*
X231835000Y-159400000D01*
X231835000Y-159400000D02*
X228875000Y-159400000D01*
%TO.C,C40*%
X145445000Y-111970000D02*
X148405000Y-111970000D01*
X145445000Y-113430000D02*
X145445000Y-111970000D01*
X148405000Y-111970000D02*
X148405000Y-113430000D01*
X148405000Y-113430000D02*
X145445000Y-113430000D01*
%TO.C,TPD4EUSB30DQAR2*%
X171750000Y-138917500D02*
X174750000Y-138917500D01*
X171750000Y-140817500D02*
X171750000Y-138917500D01*
X174750000Y-138917500D02*
X174750000Y-140817500D01*
X174750000Y-140817500D02*
X171750000Y-140817500D01*
%TO.C,J7*%
X137100000Y-119000000D02*
X137100000Y-165490000D01*
X137100000Y-165490000D02*
X153880000Y-165490000D01*
X153880000Y-119000000D02*
X137100000Y-119000000D01*
X153880000Y-165490000D02*
X153880000Y-119000000D01*
%TO.C,C27*%
X217608779Y-164889949D02*
X221008779Y-164889949D01*
X217608779Y-166849949D02*
X217608779Y-164889949D01*
X221008779Y-164889949D02*
X221008779Y-166849949D01*
X221008779Y-166849949D02*
X217608779Y-166849949D01*
%TD*%
M02*
