%TF.GenerationSoftware,KiCad,Pcbnew,9.0.1+1*%
%TF.CreationDate,2025-11-18T17:12:52+00:00*%
%TF.ProjectId,nautilus_mainboard,6e617574-696c-4757-935f-6d61696e626f,rev?*%
%TF.SameCoordinates,Original*%
%TF.FileFunction,AssemblyDrawing,Bot*%
%FSLAX46Y46*%
G04 Gerber Fmt 4.6, Leading zero omitted, Abs format (unit mm)*
G04 Created by KiCad (PCBNEW 9.0.1+1) date 2025-11-18 17:12:52*
%MOMM*%
%LPD*%
G01*
G04 APERTURE LIST*
%ADD10C,0.254000*%
%ADD11C,0.100000*%
G04 APERTURE END LIST*
D10*
X129919318Y-175386667D02*
X130826461Y-175386667D01*
X130826461Y-175386667D02*
X131007889Y-175326190D01*
X131007889Y-175326190D02*
X131128842Y-175205238D01*
X131128842Y-175205238D02*
X131189318Y-175023809D01*
X131189318Y-175023809D02*
X131189318Y-174902857D01*
X129919318Y-176535714D02*
X129919318Y-176293809D01*
X129919318Y-176293809D02*
X129979794Y-176172857D01*
X129979794Y-176172857D02*
X130040270Y-176112381D01*
X130040270Y-176112381D02*
X130221699Y-175991428D01*
X130221699Y-175991428D02*
X130463603Y-175930952D01*
X130463603Y-175930952D02*
X130947413Y-175930952D01*
X130947413Y-175930952D02*
X131068365Y-175991428D01*
X131068365Y-175991428D02*
X131128842Y-176051905D01*
X131128842Y-176051905D02*
X131189318Y-176172857D01*
X131189318Y-176172857D02*
X131189318Y-176414762D01*
X131189318Y-176414762D02*
X131128842Y-176535714D01*
X131128842Y-176535714D02*
X131068365Y-176596190D01*
X131068365Y-176596190D02*
X130947413Y-176656667D01*
X130947413Y-176656667D02*
X130645032Y-176656667D01*
X130645032Y-176656667D02*
X130524080Y-176596190D01*
X130524080Y-176596190D02*
X130463603Y-176535714D01*
X130463603Y-176535714D02*
X130403127Y-176414762D01*
X130403127Y-176414762D02*
X130403127Y-176172857D01*
X130403127Y-176172857D02*
X130463603Y-176051905D01*
X130463603Y-176051905D02*
X130524080Y-175991428D01*
X130524080Y-175991428D02*
X130645032Y-175930952D01*
D11*
%TO.C,J6*%
X117565000Y-164760000D02*
X126565000Y-164760000D01*
X117565000Y-186760000D02*
X117565000Y-164760000D01*
X126565000Y-164760000D02*
X126565000Y-186760000D01*
X126565000Y-186760000D02*
X117565000Y-186760000D01*
%TD*%
M02*
